<?xml version="1.0" encoding="UTF-8"?>
<svg id="Layer_2" data-name="Layer 2" xmlns="http://www.w3.org/2000/svg" viewBox="0 0 79.36 79.46">
  <defs>
    <style>
      .cls-1 {
        fill: #0500bf;
        stroke-width: 0px;
      }
    </style>
  </defs>
  <g id="Layer_1-2" data-name="Layer 1">
    <path class="cls-1" d="m21.87,38.82c-3.78-4.19-6.14-5.42-8.03-6-1.03-.32-3.1-.95-5.17-.36-4.4,1.26-5.73,7.19-7.06,13.11-1.47,6.54-2.36,10.49-.75,15.73,2.2,7.18,7.42,11.44,8.87,12.59,8.76,6.96,18.89,5.73,24.97,5,9.56-1.16,16.19-5.26,22.7-9.31,5.43-3.36,8.81-6.44,9.92-7.47,4.99-4.65,8.7-8.1,10.65-13.41,4.44-12.07-3.09-25.95-4.53-28.61-2.44-4.5-8.1-14.93-19.48-18.76-12.64-4.25-22.32,3.01-23.99,4.32-3.14,2.47-10.05,7.63-9.95,17.27.08,7.41,4.27,15.75,11.3,19.83,1.18.69,7.93,4.6,14.5,1.55,4.41-2.05,7.52-6.69,7.64-11.99.02-.84.17-7.44-4.14-10.63-2.62-1.94-5.44-1.54-5.74-1.49-2.43.39-4.8,2.23-4.46,3.5.39,1.45,3.95.82,5.3,3.09,1.27,2.13.12,6.03-1.74,6.41-2.19.44-5.97-3.86-6.59-8.07-.66-4.52,2.38-8.65,6.2-9.91,5.64-1.86,11.09,3.17,12.05,4.1,4.87,4.71,6.19,11.96,4.99,17.21-1.9,8.28-9.9,10.94-14.82,12.58-4.12,1.37-10.25,3.41-14.93.05-3-2.15-2.21-4.22-7.73-10.33Z"/>
  </g>
</svg>