<?xml version="1.0" encoding="UTF-8"?>
<svg id="Layer_2" data-name="Layer 2" xmlns="http://www.w3.org/2000/svg" viewBox="0 0 496.97 367.98">
  <defs>
    <style>
      .cls-1 {
        fill: #fbafbb;
        stroke: #fbd091;
      }

      .cls-1, .cls-2, .cls-3, .cls-4 {
        stroke-miterlimit: 10;
      }

      .cls-2 {
        fill: #fff3c9;
        stroke: #fbaf88;
      }

      .cls-3 {
        stroke: #945553;
      }

      .cls-3, .cls-4 {
        fill: #945553;
      }

      .cls-4 {
        stroke: #ffe9f6;
        stroke-width: 3px;
      }

      .cls-5 {
        fill: #7fc0ff;
      }

      .cls-5, .cls-6, .cls-7, .cls-8, .cls-9, .cls-10, .cls-11 {
        stroke-width: 0px;
      }

      .cls-6 {
        fill: #ff8a93;
      }

      .cls-7 {
        fill: #ffe9f6;
      }

      .cls-8 {
        fill: #fbe29d;
      }

      .cls-9 {
        fill: #fbebe1;
      }

      .cls-10 {
        fill: #ffdffd;
      }

      .cls-11 {
        fill: #0009aa;
      }
    </style>
  </defs>
  <g id="Layer_1-2" data-name="Layer 1">
    <path class="cls-11" d="m237.69,96.87c-1.38-1.02-3.16-.64-6,0-2.53.57-4.35,1.38-8,3-1.92.85-2.97,1.39-4,2-1.76,1.04-2.89,1.72-4,3-.17.2-.78,1.13-2,3-1.6,2.45-1.68,2.58-2,3-.99,1.27-1.76,2.27-3,3-1.13.67-2.1.79-4,1-2.23.25-3.3.06-7,0-.04,0,.01,0-4,0-7.96,0-7.85,0-8,0-3.45.09-6.43.16-10,1-3.91.92-6.78,2.35-8,3-6.64,3.55-10.3,8.59-12,11-2.2,3.11-3.47,6.07-6,12-3.42,8.01-3.53,10.65-7,15-1.85,2.32-2.69,2.67-4,5-1.77,3.16-1.61,5-4,9-.74,1.25-1.48,2.27-2,3-1.7,2.37-2.55,3.16-4,5-2.33,2.96-3.74,5.51-4,6-1.32,2.42-.81,2.17-3,7-2.17,4.79-2.63,4.96-3,7-.35,1.91-.14,2.8-1,4-.44.61-.83.85-3,3,0,0-.55.54-1,1-2.25,2.28-3.41,4.92-6,9-.67,1.05-1.19,1.88-2,3-2.22,3.08-3.4,3.96-5,6-1.68,2.14-1.59,2.71-4,7,0,0-2.11,3.75-5,8-1.46,2.15-2.44,3.34-11,13-10.25,11.57-2.9,3.15-9,10-3.02,3.39-4.86,5.49-8,8-1.58,1.26-3.35,2.65-6,4-1.34.68-4.57,2.19-9,3-4.38.8-4.65-.06-7,1-3.4,1.53-6,4-6,4-.86.81-1.62,1.69-3,2-1.6.37-2.89-.28-3,0-.13.34,1.66,1.37,3,2,1.52.71,2.29,1.07,3,1,1.64-.16,1.89-1.61,4-2,.77-.14,1.38-.07,2,0,1.92.22,2.29.92,4,1,1.2.05,1.88-.25,2,0,.19.39-1.21,1.44-2,2-2.13,1.51-4.42,3.13-8,4-1.56.38-4.4.26-10,0-7.33-.34-11-.51-12-1-1.07-.53-3.24-1.79-5-1-.16.07-.93.42-1,1-.09.73,1,1.42,2,2,2.76,1.59,6.84,3.94,12,4h7c7.13,0,7.67.41,11,0,1.46-.18,3.01-.38,5-1,3.75-1.17,3.95-2.26,8-4,3.94-1.7,4.82-1.13,8-3,1.87-1.1,3.12-2.21,4-3,2.68-2.41,2.87-3.49,7-8,1.43-1.57,2.22-2.32,3-3,1.26-1.09,1.58-1.2,4-3,2.37-1.77,3.55-2.65,5-4,1.57-1.47,1.54-1.7,3-3,1.8-1.6,3.33-2.57,4-3,1.64-1.06,5.09-3.71,12-9,5.23-4.01,7.85-6.02,10-8,3.54-3.27,6.29-5.8,9-10,2.76-4.29,4-8.01,5-11,1.12-3.36,2.65-7.97,2-10-.07-.22-.41-1.15,0-2,.29-.6.81-.89,1-1,.03-.02,1.36-1.35,4-4,5.61-5.63,9-11,9-11,1.81-2.86,3.74-5.92,5-10,.13-.41,1.09-2.94,3-8,.17-.44.44-1.16,1-2,1.14-1.72,1.96-1.7,3-3,1.26-1.57.65-2.34,2-5,.37-.73.92-1.5,2-3,2.31-3.21,5.7-7.61,6-8,.32-.42,1.14-1.48,2-3,.54-.95.86-1.68,1-2,.59-1.36.88-2.04,1-3,.12-1.01.05-2.21,0-3-.04-.6-.07-.73,0-1,.23-.9,1.06-1.42,2-2,1.02-.62.95-.36,2-1,.93-.57,1.27-.96,2-1t1,0h1q1,0,1,0c.77.13,1.13,1.17,2,3,.32.67.69,1.32,1,2,1.49,3.27,2.03,3.82,3,6,1.17,2.63,1.71,4.81,2,6,.52,2.14.68,3.65,1,7,.49,5.18.85,9.27,1,11,.5,5.62.74,8.43,1,10,.9,5.53,1.7,6.5,2,11,.25,3.68-.26,3.37,0,7,.3,4.18,1.03,5.23,2,11,.69,4.1.94,7.23,1,8,.33,4.36.21,7.3,0,12-.2,4.62-.47,5.78-1,7-.98,2.25-1.76,2.21-3,5-.97,2.19-.65,2.59-2,6-1.02,2.59-1.68,3.56-2,4-.29.41-1.31,1.76-3,3-2.64,1.94-4.52,1.84-8,3-2.69.9-2.22,1.18-8,4-1.42.7-4.76,2.3-9,4-5.76,2.32-8.64,3.48-12,4-2.36.37-3.48.29-6,1-1.71.48-2.29.83-6,2-2.05.65-2.91.87-4,1-1.83.23-3.04.06-4,0-2.38-.14-4.62.57-9,2-3.46,1.13-3.39,1.33-8,3-2.21.8-2.26.76-9,3-6.9,2.29-6.38,2.17-9,3-4.24,1.34-4.62,1.34-10,3-4.89,1.51-7.36,2.28-9,3-3.89,1.72-4.24,2.54-9,5-6.33,3.27-5.96,1.94-9,4-5.71,3.87-9,7-11,10-.3.45-.76,2.36-1,4-.07.47-.02.82,0,1,.07.55.04,2.37,0,6-.06,4.69-.42,5.04,0,7,.18.82.41,1.55,1,3,2.18,5.34,4.08,9.98,8,13,.65.5,1.75,1.26,3,2,1.21.71,2.4,1.42,4,2,.46.17,2.08.73,5,1,2.35.22,3.83.09,6,0h18c1.33,0,2.67,0,4,0,7.46,0,7.27-.03,8,0,4.54.16,4.25.72,9,1,4.25.25,4.53-.2,9,0,3.38.15,3.5.42,9,1,7.3.77,7.35.32,12,1,4.74.7,5.03,1.21,10,2,1.99.32,5.1.73,11,1,6.51.29,9.81.11,18,0,5.85-.08,13.02-.17,22,0,10.25.19,11.23.51,15,0,3.65-.5,7.34-.59,11-1,.6-.07,2.08-.24,4,0,1.69.21,2.35.56,4,1,2.92.78,5.31.89,8,1,1.41.06,2.95.12,5,0,2.08-.13,2.74-.33,4,0,1.56.41,1.81,1.04,3,1,1.35-.05,1.67-.89,3-1,.84-.07,1.49.19,3,1,2.73,1.46,4.42,2.65,7,4,.27.14,1.42.73,3,1,1.29.22,1.84.05,2,0,1.31-.44,1.88-1.72,2-2,.5-1.21.19-2.33,0-3-.23-.81-.6-1.47-1-2-1.29-1.74-3.01-2.49-4-3-3.06-1.57-2.19-2.39-8-7-2.51-1.99-2.28-1.53-4-3-3-2.57-3.59-3.89-6-5-.69-.32-2.1-.95-4-1-2.67-.07-4.99,1.04-7,2-1.38.66-1.24.74-2,1-1.94.65-3.65.39-6,0-1.98-.33-2.96-.49-4-1-1.4-.69-1.37-1.12-4-3-.71-.51-.53-.34-3-2-2.83-1.9-2.73-1.88-3-2-2.68-1.16-5.83.41-7,1-1.29.64-4.4,2.2-6,5-.28.49-.84,1.59-2,2-.85.3-1.62.09-2,0-1.76-.42-2.21,0-6,0-5.41,0-10.15-.87-19-1-5.52-.08-8.28-.12-10,0-2.12.15-3.69.36-6,0-2.51-.39-4.2-1.2-6-2-3.28-1.46-6.67-2.66-10-4-7.2-2.9-6.7-2.06-14-5-3.83-1.54-5.54-2.41-10-4-3.14-1.12-2.71-.84-6-2-7.55-2.66-8.45-3.66-12-4-.87-.08-.18.04-6,0-5.2-.03-5.55-.13-7,0-2.85.25-4.81.92-8,2-2.41.82-5.47,1.86-9,4-3.62,2.2-5.42,3.3-6,4,0,0-1.15,1.41-3,2-.34.11-.73.2-1,0-.46-.33-.43-1.36,0-2,.43-.63,1.1-.67,2-1,.95-.35,1.76-.76,3-2,3-3,2.96-3,5-5,1.99-1.95,4-3,4-3,2.55-.87,3-.14,6-1,2.74-.79,2.67-1.49,5-2,1.6-.35,1.9-.08,6,0,4.16.08,4.46-.19,7,0,1.95.15,3.52.44,6,1,6.56,1.48,9.64,2.62,15,4,4.3,1.11,6.45,1.66,9,2,3.47.46,7.04.52,18-1,5.2-.72,10.54-1.46,18-3,10.04-2.07,15.88-3.31,21-6,.74-.39,2.88-1.55,6-3,4-1.86,4.1-1.62,7-3,5.28-2.51,6.01-3.79,10-5,1.87-.57,3.29-.77,5-1,3.58-.48,5.78-.35,13,0,13.58.66,13.73.59,15,1,1.2.39,3.23,1.16,6,1,.37-.02.42-.04,5-1,2.94-.62,4.44-.93,6-1,1.97-.09,1.84.16,3,0,2.42-.34,3.74-1.57,6-3,2.09-1.32,1.86-.84,6-3,3.45-1.8,6.8-3.55,10-6,1.96-1.51,3.64-3.34,7-7,1.43-1.56,8.15-8.88,12-15,.27-.43.96-1.54,2-3,1.84-2.59,3.42-4.35,4-5,4.32-4.88,8.23-9.3,11-15,.88-1.81,1.44-3.33,3-6,1.5-2.56,2.05-2.98,3-5,1.24-2.64.96-3.33,2-6,1.41-3.63,2.54-3.94,4-7,1.67-3.52,1.86-6.66,2-9,.28-4.6-.77-5.58-1-13-.07-2.4-.11-3.6,0-5,.43-5.42,2.29-8.94,6-16,0,0,2.48-4.72,5-6l2-1,2-1c1.21-.71,1.47-1.1,2-1,.48.09.9.54,1,1,.17.77-.52,1.51-1,2-2.31,2.38-3.46,3.58-4,4-2.45,1.94-3.81,4.1-5,6-.42.67-1.92,3.15-3,8-.34,1.53-1.62,7.67,0,20,.28,2.17.85,6.02,2,11,2.56,11.14,4.44,12.41,6,20,1.07,5.21-.22,2.63,1,20,.44,6.33-.19,12.77,1,19,.06.3.55,2.87,0,6-.29,1.64-.7,2.49-1,3-.74,1.28-1.53,1.75-3,3-.77.65-2.45,2.1-4,4-1.49,1.82-2.48,3.04-3,5-.58,2.19-.23,4.08,0,5,.75,2.96,2.67,4.75,4,6,.29.27,1.52,1.18,4,3,3.62,2.66,3.71,2.73,4,3,1.14,1.07,3.16,2.97,4,6,.7,2.53.26,4.72,0,6-.62,3.09-1.68,3.5-2,6-.08.64-.45,3.49,1,6,2.66,4.6,10.13,5.85,11,6,.6.1,1.74.25,3,1,1.43.85,1.53,1.58,3,3,1.48,1.42,3,2.88,5,3,1.69.1,2.88-.81,4,0,.49.36.44.67,1,1,1.14.68,2.6.15,3,0,1.04-.38,2.94-1.47,3-3,.08-1.93-2.84-3.41-4-4-2.53-1.28-3.55-.69-5-2-.85-.77-1.23-1.62-2-4-1.12-3.44-1.68-5.15-2-7-.84-4.76-1.7-5.1-6-21-1.88-6.95-2.77-10.8-3-16-.1-2.23-.04-3.86,0-5,.36-11-.15-14.33,0-27,.06-5.15.18-13.86,1-25,.76-10.31,1.27-11.08,2-22,.71-10.54.29-10.63,1-20,.75-9.91,1.13-14.87,2-21,1.07-7.52,2.21-12.66,0-19-.28-.81-1.17-3.23-3-6-1.66-2.51-4.53-6.85-10-9-4.22-1.66-8.02-1.24-10-1-.7.08-3.52.46-7,2-6.35,2.81-10.12,7.4-13,11-1.56,1.95-3.04,4.3-6,9-3.26,5.17-4.57,7.65-6,10-4.55,7.48-6.38,7.28-15,18-1.34,1.66-.17.27-12,16-3.45,4.59-5.2,6.89-8,10,0,0-4.49,4.97-11,10-.04.03-1.03.69-3,2-1.14.76-1.71,1.13-2,1-.67-.31-.18-2.12,0-5,.28-4.54-.62-5.21,0-9,.33-2.03.9-3.71,1-4,.97-2.83,1.62-3.03,2-5,.2-1.05.05-1.18,0-5,0,0-.01-.93,0-4,.02-3.9.04-10.84,2-18,.23-.84,1.15-3.23,3-8,4.59-11.85,5.93-13.72,7-15,.99-1.18,2.28-2.49,4-5,1.47-2.15,1.39-2.43,3-5,1.52-2.42,3.24-5.16,6-8,2.13-2.19,2.65-2.15,4-4,1.19-1.63,1.51-2.65,3-4,.99-.9,1.23-.79,3-2,2.81-1.92,3.04-2.75,5-4,1.93-1.23,3.68-1.67,5-2,1.09-.27,4.28-.97,10,0,5.91,1.01,6.62,2.45,14,4,.45.09,2.3.4,6,1,6.67,1.09,10.01,1.63,13,2,5.32.65,5.26.39,9,1,4.16.68,7.09,1.48,9,2,.62.17,2.41.78,6,2,1.78.61,2.87.99,4,2,.53.47,1.58,1.43,2,3,.08.29.27,1.09,0,3-.28,2.01-.82,3.49-1,4-.82,2.29-1.32,4.67-2,7-1.22,4.14-1.82,6.21-2,7-1.3,5.86-.6,10.82,0,15,.31,2.2.74,5.2,2,9,1.41,4.25,2.5,5.41,3,9,.19,1.38.04,1.26,0,7-.04,5.75.11,6.26,0,9-.18,4.39-.29,6.59-1,9-.36,1.21-.76,2.22-1,4-.16,1.18-.11,1.77,0,5,.17,4.99.15,5.85,0,7-.19,1.47-.35,2.6-1,4-.81,1.72-1.95,2.91-3,4-1.71,1.78-2.28,1.82-3,3-.67,1.09-.76,2.07-1,4-.33,2.61-.06,4.58,0,5,.19,1.36.51,2.38,1,4,.41,1.33.5,1.41,1,3,.7,2.22,1.04,3.33,1,4-.12,1.87-1.21,2.22-1,4,.05.45.18,1.5,1,2,.58.35,1.42.37,2,0,.85-.55.71-1.69,1-4,.38-2.99.81-2.65,1-5,.18-2.22-.21-2.4,0-5,.23-2.75.76-3.64,1-4,.29-.43,1.38-2.06,3-2,1.1.04,1.85.84,2,1,.73.78.89,1.71,1,4,.14,2.8.2,4.19,0,6-.13,1.17-.27,1.75-1,5-1.74,7.73-1.92,8.68-3,10-.82,1.02-1.05.86-3,3-1.57,1.71-2.36,2.6-3,4-.56,1.23-.72,2.22-1,4-.27,1.72-.43,2.75,0,3,.4.24,1.22-.28,3-2,2.59-2.52,3.62-4.11,6-7,2.68-3.24,3.09-3.29,4-5,.53-1,.23-.67,2-5,1.06-2.59,1.39-3.23,2-5,.49-1.42.46-1.52,1-3,.63-1.74.85-2.08,1-3,.13-.81.05-1.03,0-3-.03-1.33,0-2.67,0-4v-8c-.08-4.39-.8-5.34-1-10-.07-1.76-.03-3.08,0-4,.14-4.02.65-6.77,1-9,.48-3.14.86-6.65,1-11,.13-3.96-.16-3.52,0-6,.32-4.98,1.51-6.97,3-13,.43-1.73.95-4.82,2-11,.71-4.2,1.35-7.97,2-13,.54-4.14.8-6.2,1-9,.2-2.86.56-8.24,0-15-.48-5.81-1.08-5.94-1-10,.09-4.39.81-5.47,0-8-1.44-4.49-5.57-6.77-6-7-1.67-.89-1.85-.46-7-2-1.44-.43-1.64-.53-6-2,0,0-3-1-9-3q-9-3-9-3c-12.39-4.29-11.52-6.28-19-8-2.61-.6-6.74-1.07-15-2-1.01-.11-3.59-.4-7-1-.66-.12-2.51-.45-5-1-5.64-1.25-5.8-1.67-8-2-3.24-.48-5.63.04-10,1-3.55.78-3.11,1.07-10,3-3.9,1.09-4.61,1.15-7,2-2.06.73-3.16,1.26-7,3-5.61,2.54-8.41,3.82-9,4-3.9,1.21-6.95,1.13-12,1-2.51-.07-7.21-.35-12-2-1.31-.45-3.26-1.22-5-3-.82-.84-1.63-1.67-2-3-.51-1.84.41-2.53,0-5-.22-1.32-.68-2.32-1-3-.59-1.26-1.11-2.34-2-3Z"/>
    <path class="cls-11" d="m25.69,290.87s-1.17-.11-2-1c-.65-.7-.46-1.16-1-2-.54-.83-1.37-1.23-3-2-.98-.46-2.8-1.31-3-1-.22.34,1.49,1.9,3,3,3.12,2.26,6.02,2.94,6,3Z"/>
    <path class="cls-11" d="m16.69,289.87c.72.4,1.12.76,2,1,.7.19,1.85.34,2,0,.21-.47-1.5-1.65-2-2-1.73-1.2-3.41-1.8-4-2-1.93-.65-2.21-.38-3-1-1.12-.88-1.29-2.03-2-2-.47.02-.89.53-1,1-.19.82.56,1.56,1,2,.23.23,1.05,1.01,4,2,1.92.65,2.06.48,3,1Z"/>
    <path class="cls-11" d="m9.17,287.78c-.26,0-1.25-.04-1.87.7-.62.73-.67,1.95-.24,2.22.49.31,1.18-.86,2.81-1.05,1.31-.15,2.08.47,2.22.24.2-.34-1.17-2.06-2.92-2.11Z"/>
    <path class="cls-11" d="m380.69,299.87c-.2-.61-.02-1.28,1-3,.82-1.38,1.14-1.69,2-3,1.38-2.12,1.7-3.08,2-3,.36.1.49,1.63,0,3-.56,1.57-1.38,1.37-2,3-.4,1.06-.28,1.7-1,3-.46.82-.75,1-1,1-.44,0-.85-.53-1-1Z"/>
    <path class="cls-11" d="m385.69,299.87c-.18-.19-.07-.5,0-1v-4c.05-1.71.52-3.99,1-4,.48,0,.86,2.2,1,3,.15.84.33,2.28,0,4-.27,1.45-.67,1.84-1,2-.31.15-.79.22-1,0Z"/>
    <path class="cls-11" d="m389.69,287.87c-.17-.05-.74.95-1,2-.26,1.04-.08,1.58,0,3,.14,2.57-.27,3.94,0,4,.23.06.77-.96,1-2,.16-.71.03-.77,0-3-.02-1.7-.03-2.55,0-3,.04-.6.1-.97,0-1Z"/>
    <path class="cls-6" d="m206.19,79.37c-.09-.89.04-.81,0-3-.04-2.67-.24-2.97,0-4,.08-.37.64-2.78,2-3,.8-.13,1.52.55,2,1,1.28,1.21,1.76,2.76,2,4,.52,2.67-.14,3.32,0,6,.18,3.5,1.52,6.09,2,7,.59,1.11,1.7,3.16,4,5,3.13,2.49,6.37,2.92,7,3,3.26.39,5.79-.55,7-1,1.62-.6,3.01-1.42,4-2,1.56-.92,2.34-1.37,3-2,1.28-1.22,1.42-2.23,3-7,1.56-4.71,1.64-4.36,2-6,.72-3.31.18-3.8,1-6,.56-1.51,1.54-4.16,4-5,1.56-.54,3.77-.37,5,1,.84.93.93,2.09,1,3,.11,1.47-.26,2.26-1,5-.96,3.53-.59,3.12-1,4-1.16,2.5-2.51,2.37-4,5-.66,1.16-1.85,3.27-1,5,.72,1.48,2.54,1.89,3,2,2.09.48,3.87-.41,5-1,4.41-2.29,6.39-6.62,7-8,.81-1.83.46-1.83,2-6,.74-2,1.12-2.81,2-5,1.76-4.36,2.64-6.54,3-8,.82-3.31.55-5.88,0-11-.38-3.51-.68-6.37-2-10-.71-1.96-2.03-5.48-5-9-3.8-4.49-8.19-6.4-12-8-6.89-2.9-12.76-3.29-16.5-3.5-8.1-.46-14.22.9-19,2-3.48.8-7.32,1.71-12,4-3.65,1.78-6.96,3.41-10,7-3.42,4.04-4.56,8.31-5,10-.66,2.55-.77,4.7-1,9-.18,3.36-.27,5.04,0,7,.44,3.24,1.3,4.27,3,9,1.91,5.31,1.21,5.08,3,10,1.84,5.06,2.76,7.6,5,10,2.28,2.45,3.02,1.81,6,5,.94,1,1.88,2.16,3,2,1.16-.16,1.83-1.63,2-2,.27-.6.68-1.81,0-5-.48-2.22-1.17-3.96-2-6-.89-2.2-1.34-2.93-1.5-4.5Z"/>
    <path class="cls-10" d="m223.19,90.37c.49-.3-.26-2.51-1-4-1.04-2.1-2.14-2.92-3-4-2.15-2.73-.71-4.56-2-11-.81-4.08-2.14-7.08-3-9-.98-2.2-2.02-4.46-4-7-.81-1.04-2.21-2.36-5-5-1.16-1.1-3.11-2.73-7-6-2.05-1.73-2.66-2.21-3-2-.77.47.36,4.13,2,7,1.21,2.12,2.49,3.44,5,6,3.74,3.82,4.39,3.67,6,6,1.36,1.95,2.09,3.77,3,6,.9,2.21,1.41,3.98,2,6,1.29,4.44,1.06,4.84,2,7,.97,2.22,2.06,3.73,3,5,1.43,1.95,4.32,5.42,5,5Z"/>
    <path class="cls-10" d="m222.19,80.37c.16-.04.01-.74-.02-3.11-.02-1.03,0-1.41.02-2.89.04-3.5.09-5.24,0-6-.08-.7-.45-3.61-2-7-1.04-2.28-2.26-3.97-3-5-1.43-1.97-1.91-2.19-3-4-.82-1.36-1.39-2.64-2-4-1.04-2.31-1.12-2.94-2-4-1.04-1.25-1.43-.99-2-2-.85-1.5-.22-2.5-1-4-.5-.96-1.45-2.18-2-2-.83.27-.53,3.7,0,6,.53,2.29,1.43,4.02,2,5,1.01,1.72,1.5,1.92,3,4,1.12,1.56.96,1.6,3,5,2.72,4.51,3.28,4.9,4,7,.29.84.52,1.89,1,4,.61,2.68.66,3.44,1,5,.94,4.29,2.61,8.1,3,8Z"/>
    <path class="cls-10" d="m222.19,62.37c-.57.11-1.61-2.78-2-4-.71-2.24-.56-3.04-1-5-.68-3.03-1.98-5.25-3-7-1.76-3.01-2.92-3.83-3-6-.02-.6-.08-2.22,1-3,.83-.6,2.12-.54,3,0,1.31.81,1,2.27,2,6,.77,2.86,1.14,2.75,2,6,.56,2.12.85,3.88,1,5,.41,3.01.72,7.86,0,8Z"/>
    <path class="cls-10" d="m223.19,52.37c-1.04,0-1.75-6.69-2-9-.2-1.86-.13-3.58,0-7,.1-2.52.25-3.61,1-4,.87-.45,2.23.19,3,1,.66.69,1.12,1.74,1,5-.1,2.67-.5,4.73-1,7-1.03,4.67-1.55,7-2,7Z"/>
    <path class="cls-10" d="m203.19,63.37c.14-.3-.68-.83-2-2-1.37-1.2-2.44-2.34-4-4-1.31-1.39-1.39-1.58-2-2-.17-.12-2.84-1.91-4-1-1.15.9-.06,3.84,0,4,.92,2.42,3.35,4.71,6,5,1.17.13,1.66-.21,4,0,1.14.1,1.88.26,2,0Z"/>
    <path class="cls-10" d="m230.19,83.37c1.22-2.49,2.19-3.7,3-5,.7-1.13,1.47-3.42,3-8,1.56-4.66,1.35-4.49,2-6,.97-2.27,2-3.88,4-7,2.21-3.44,3.32-5.17,5-7,2.84-3.1,5.27-4.57,6-5,2.35-1.37,4.85-2.27,5-2,.15.27-2.17,1.36-5,4-2.03,1.9-3.26,3.6-5,6-1.1,1.52-3.38,4.67-3,5,.24.21,1.38-.81,4-3,4.33-3.62,6.55-5.46,9-7,2.59-1.62,6.49-3.66,7-3,.28.36-.56,1.44-1,2-2.03,2.6-4.59,3.8-5,4-3.06,1.46-5.37,3.64-10,8-2.75,2.59-4.92,4.63-7,8-1.09,1.75-.76,1.62-5,10-.86,1.69-1.94,3.78-4,6-1.42,1.53-3.54,3.36-4,3-.33-.26.33-1.63,1-3Z"/>
    <path class="cls-10" d="m229.19,76.37c-.6-3.34.67-6.34,2-10,2.14-5.91,1.43-5.28,3-9,1.66-3.95,1.9-3.33,4-8,2.49-5.56,3.74-8.33,4-11,.18-1.79.45-2.53,1-4,.56-1.5,1.11-2.93,2-3,.87-.06,1.67,1.2,2,2,.54,1.3.34,2.55,0,4-.93,3.89-2,6-2,6-2.67,5.23-3.52,6.04-5,9-2.14,4.28-1,3.86-4,11-2.22,5.28-2.93,5.72-3,8-.04,1.1.07,2.98-1,5-.13.24-1.15,2.17-2,2-.65-.13-.9-1.44-1-2Z"/>
    <path class="cls-10" d="m252.19,62.37c-.76-.08-1.91-.42-2-1-.19-1.23,4.51-2.84,5-3,1.35-.45,2.57-.64,5-1,3.35-.5,3.85-.29,4,0,.26.49-.34,1.43-1,2-1.63,1.4-3.13.13-6,1-2.49.75-3,2.21-5,2Z"/>
    <path class="cls-10" d="m256.19,65.37c-.21-.82.63-1.64,1-2,.66-.65,1.82-1.47,5-2,1.26-.21,4.74-.78,5,0,.16.48-.95,1.26-2,2-.59.42-1.24.81-4,2-2.56,1.1-3.26,1.31-4,1-.16-.07-.84-.38-1-1Z"/>
    <path class="cls-10" d="m202.19,70.37c.16-.91-1.97-1.98-4-3-2.32-1.17-6.48-2.85-7-2-.32.52.85,1.76,2,3,1.38,1.48,2.38,2.55,4,3,2.15.6,4.83-.05,5-1Z"/>
    <path class="cls-10" d="m203.19,79.37c.44-.42-.26-1.97-1-3-1.81-2.5-5.28-3.8-6-3-.5.56.34,2.17,1,3,.63.8,1.43,1.21,3,2,1.7.86,2.65,1.34,3,1Z"/>
    <path class="cls-10" d="m225.19,68.37c-1.3-2.51-.41-5.63,1-10,2.12-6.6,2.66-7.47,4-12,1.26-4.28,1.9-6.42,2-8,.23-3.52-.46-5.93,1-7,.87-.64,2.29-.64,3,0,.84.75.48,2.22,0,5-.91,5.25-.34,4.06-1,7-.69,3.06-1.15,3.66-5,14-2.06,5.54-2.38,6.57-2,8,.18.68.77,2.43,0,4-.14.28-.47.93-1,1-.91.11-1.78-1.57-2-2Z"/>
    <path class="cls-10" d="m258.19,73.37c-1.12.22-1.7.32-2,0-.51-.55.02-2.12,1-3,.57-.51,1.38-.67,3-1,1.95-.39,2.6-.2,3,0,.25.13.98.48,1,1,.02.63-1.04,1.11-3,2-1.04.47-1.93.79-3,1Z"/>
    <g>
      <path class="cls-8" d="m20.19,225.37c-4.81,1.94-5.61,1.39-8,3-4.07,2.74-5.63,6.96-6,8-.8,2.24-.87,4.5-1,9-.1,3.46.15,3.91,0,7-.17,3.57-.67,6.26-1,8-1.13,5.98-1.7,8.97-3,12-.74,1.72-1.58,3.28-1,5,.62,1.84,2.47,2.74,3,3,2.28,1.11,4.61.79,8,0,4.38-1.03,6.15-1.82,10-3,3.15-.97,6.1-1.64,12-3,5.67-1.3,5.49-1.11,9-2,5.52-1.4,8.44-2.16,12-4,2.74-1.42,4.91-2.55,7-5,2.96-3.48,3.76-7.27,4-9,.55-3.9-.35-6.9-1-9-1.32-4.25-3.48-7.05-5-9-2.03-2.6-3.89-4.2-6-6-3.85-3.29-6.27-5.35-10-7-2.76-1.22-8.8-3.89-15-2-2.97.91-2.69,1.86-8,4Z"/>
      <path class="cls-8" d="m39.19,200.37c-3.94,1.57-5.67,5.28-6,6-.78,1.67-1.81,3.9-1,6,.44,1.15,1.48,2.37,9,5,6.36,2.22,6.67,1.71,9,3,3.07,1.69,4.75,3.82,8,8,5.18,6.67,4.47,8.28,8,11,1.24.95,6.21,4.77,11,3,3.26-1.2,4.7-4.35,5-5,1.98-4.32.27-8.73-1-12-.36-.93-1.74-4.32-5-8-1.89-2.14-3.77-3.65-9-7-12.3-7.88-17.21-9.34-20-10-3.57-.84-5.82-.87-8,0Z"/>
      <path class="cls-8" d="m67.19,187.37c-1.72-.16-2.72-.25-4,0-.94.18-4.63.89-6,4-1.04,2.36-.13,4.7,0,5,.48,1.17,1.31,2.18,6,5,4.18,2.52,4.47,2.29,7,4,1.56,1.05,3.74,2.55,6,5,2.17,2.36,1.92,2.9,4,5,2.16,2.18,3.67,3.7,6,4,2.78.36,5.45-1.18,7-3,2.51-2.95,2.74-7.38,1-10-.5-.75-2.34-1.85-6-4-3.99-2.35-4.07-2.24-5-3-2.3-1.87-2.04-2.69-5-6-2.38-2.66-3.7-4.1-6-5-1.81-.71-3.7-.88-5-1Z"/>
      <path class="cls-8" d="m92.19,179.37c-2.81-2.13-5.7-2.78-7-3-2.71-.46-5.77-.98-8,1-1.68,1.49-2.37,3.95-2,6,.14.76.52,2.06,5,6,2.65,2.33,4.68,4.11,8,6,3.68,2.09,5.51,3.13,8,3,.6-.03,5.37-.36,7-4,1.1-2.45.28-5.29-1-7-1.48-1.97-2.79-1.39-6-4-2.31-1.89-1.91-2.42-4-4Z"/>
      <path class="cls-8" d="m95.19,161.37c-2.69.91-3.8,3.52-4,4-.2.48-1.43,3.52,0,6,1.3,2.24,3.42,1.67,7,5,1.23,1.15,1.05,1.28,2,2,.95.72,3.64,2.76,7,2,.22-.05,3.55-.86,5-4,1.59-3.46-.3-7.18-2-9-.56-.6-.38-.23-5-3-3.19-1.91-4.14-2.61-6-3-1.14-.24-2.46-.52-4,0Z"/>
      <path class="cls-8" d="m114.19,148.37c-.78.1-1.87.73-4,2-3.4,2.02-3.77,2.51-4,3-.8,1.67-.19,3.44,0,4,1.01,2.93,3.83,3.94,4,4,2.3.78,4.58.06,6-1,1.91-1.42,2.31-3.46,3-7,.39-1.97.21-2.59,0-3-.83-1.64-3.23-2.22-5-2Z"/>
      <path class="cls-2" d="m30.19,243.37c-3.95-.51-9.77,2.79-10,7-.21,3.77,4.17,6.49,5,7,4.45,2.76,9.34,1.62,12,1,2.86-.67,4.98-1.16,6-3,1.76-3.16-.7-8.55-4-10-.99-.43-1.27-.17-5-1-2.89-.64-3.09-.88-4-1Z"/>
      <g>
        <path class="cls-1" d="m30.69,236.87c-.65,0-1.66.25-2,1-.51,1.13.67,3,2,3s2.51-1.87,2-3c-.34-.75-1.35-1-2-1Z"/>
        <path class="cls-9" d="m30.45,238.63c-.42.42-.25,1.13,0,1.24.39.17,1.41-.85,1.24-1.24-.11-.25-.81-.42-1.24,0Z"/>
      </g>
      <g>
        <path class="cls-1" d="m22.69,238.87c-.65,0-1.66.25-2,1-.51,1.13.67,3,2,3s2.51-1.87,2-3c-.34-.75-1.35-1-2-1Z"/>
        <path class="cls-9" d="m22.45,240.63c-.42.42-.25,1.13,0,1.24.39.17,1.41-.85,1.24-1.24-.11-.25-.81-.42-1.24,0Z"/>
      </g>
      <g>
        <path class="cls-1" d="m16.69,242.87c-.65,0-1.66.25-2,1-.51,1.13.67,3,2,3s2.51-1.87,2-3c-.34-.75-1.35-1-2-1Z"/>
        <path class="cls-9" d="m16.45,244.63c-.42.42-.25,1.13,0,1.24.39.17,1.41-.85,1.24-1.24-.11-.25-.81-.42-1.24,0Z"/>
      </g>
      <g>
        <path class="cls-1" d="m15.69,248.87c-.65,0-1.66.25-2,1-.51,1.13.67,3,2,3s2.51-1.87,2-3c-.34-.75-1.35-1-2-1Z"/>
        <path class="cls-9" d="m15.45,250.63c-.42.42-.25,1.13,0,1.24.39.17,1.41-.85,1.24-1.24-.11-.25-.81-.42-1.24,0Z"/>
      </g>
      <g>
        <path class="cls-1" d="m18.69,256.87c-.65,0-1.66.25-2,1-.51,1.13.67,3,2,3s2.51-1.87,2-3c-.34-.75-1.35-1-2-1Z"/>
        <path class="cls-9" d="m18.45,258.63c-.42.42-.25,1.13,0,1.24.39.17,1.41-.85,1.24-1.24-.11-.25-.81-.42-1.24,0Z"/>
      </g>
      <g>
        <path class="cls-1" d="m13.69,262.87c-.65,0-1.66.25-2,1-.51,1.13.67,3,2,3s2.51-1.87,2-3c-.34-.75-1.35-1-2-1Z"/>
        <path class="cls-9" d="m13.45,264.63c-.42.42-.25,1.13,0,1.24.39.17,1.41-.85,1.24-1.24-.11-.25-.81-.42-1.24,0Z"/>
      </g>
      <g>
        <path class="cls-1" d="m26.69,260.87c-.65,0-1.66.25-2,1-.51,1.13.67,3,2,3s2.51-1.87,2-3c-.34-.75-1.35-1-2-1Z"/>
        <path class="cls-9" d="m26.45,262.63c-.42.42-.25,1.13,0,1.24.39.17,1.41-.85,1.24-1.24-.11-.25-.81-.42-1.24,0Z"/>
      </g>
      <g>
        <path class="cls-1" d="m40.69,238.87c-.65,0-1.66.25-2,1-.51,1.13.67,3,2,3s2.51-1.87,2-3c-.34-.75-1.35-1-2-1Z"/>
        <path class="cls-9" d="m40.45,240.63c-.42.42-.25,1.13,0,1.24.39.17,1.41-.85,1.24-1.24-.11-.25-.81-.42-1.24,0Z"/>
      </g>
      <g>
        <path class="cls-1" d="m40.69,259.87c-.65,0-1.66.25-2,1-.51,1.13.67,3,2,3s2.51-1.87,2-3c-.34-.75-1.35-1-2-1Z"/>
        <path class="cls-9" d="m40.45,261.63c-.42.42-.25,1.13,0,1.24.39.17,1.41-.85,1.24-1.24-.11-.25-.81-.42-1.24,0Z"/>
      </g>
      <g>
        <path class="cls-1" d="m47.69,253.87c-.65,0-1.66.25-2,1-.51,1.13.67,3,2,3s2.51-1.87,2-3c-.34-.75-1.35-1-2-1Z"/>
        <path class="cls-9" d="m47.45,255.63c-.42.42-.25,1.13,0,1.24.39.17,1.41-.85,1.24-1.24-.11-.25-.81-.42-1.24,0Z"/>
      </g>
      <g>
        <path class="cls-1" d="m46.69,244.87c-.65,0-1.66.25-2,1-.51,1.13.67,3,2,3s2.51-1.87,2-3c-.34-.75-1.35-1-2-1Z"/>
        <path class="cls-9" d="m46.45,246.63c-.42.42-.25,1.13,0,1.24.39.17,1.41-.85,1.24-1.24-.11-.25-.81-.42-1.24,0Z"/>
      </g>
      <g>
        <path class="cls-1" d="m51.88,243.4c-.4,0-1.03.15-1.24.62-.32.7.41,1.85,1.24,1.85s1.55-1.16,1.24-1.85c-.21-.46-.84-.62-1.24-.62Z"/>
        <path class="cls-9" d="m51.73,244.49c-.26.26-.16.7,0,.76.24.11.87-.52.76-.76-.07-.16-.5-.26-.76,0Z"/>
      </g>
      <g>
        <path class="cls-1" d="m56.88,241.4c-.4,0-1.03.15-1.24.62-.32.7.41,1.85,1.24,1.85s1.55-1.16,1.24-1.85c-.21-.46-.84-.62-1.24-.62Z"/>
        <path class="cls-9" d="m56.73,242.49c-.26.26-.16.7,0,.76.24.11.87-.52.76-.76-.07-.16-.5-.26-.76,0Z"/>
      </g>
      <g>
        <path class="cls-1" d="m45.88,235.4c-.4,0-1.03.15-1.24.62-.32.7.41,1.85,1.24,1.85s1.55-1.16,1.24-1.85c-.21-.46-.84-.62-1.24-.62Z"/>
        <path class="cls-9" d="m45.73,236.49c-.26.26-.16.7,0,.76.24.11.87-.52.76-.76-.07-.16-.5-.26-.76,0Z"/>
      </g>
      <g>
        <path class="cls-1" d="m48.88,230.4c-.4,0-1.03.15-1.24.62-.32.7.41,1.85,1.24,1.85s1.55-1.16,1.24-1.85c-.21-.46-.84-.62-1.24-.62Z"/>
        <path class="cls-9" d="m48.73,231.49c-.26.26-.16.7,0,.76.24.11.87-.52.76-.76-.07-.16-.5-.26-.76,0Z"/>
      </g>
      <g>
        <path class="cls-1" d="m32.88,231.4c-.4,0-1.03.15-1.24.62-.32.7.41,1.85,1.24,1.85s1.55-1.16,1.24-1.85c-.21-.46-.84-.62-1.24-.62Z"/>
        <path class="cls-9" d="m32.73,232.49c-.26.26-.16.7,0,.76.24.11.87-.52.76-.76-.07-.16-.5-.26-.76,0Z"/>
      </g>
      <g>
        <path class="cls-1" d="m37.88,210.4c-.4,0-1.03.15-1.24.62-.32.7.41,1.85,1.24,1.85s1.55-1.16,1.24-1.85c-.21-.46-.84-.62-1.24-.62Z"/>
        <path class="cls-9" d="m37.73,211.49c-.26.26-.16.7,0,.76.24.11.87-.52.76-.76-.07-.16-.5-.26-.76,0Z"/>
      </g>
      <g>
        <path class="cls-1" d="m39.88,204.4c-.4,0-1.03.15-1.24.62-.32.7.41,1.85,1.24,1.85s1.55-1.16,1.24-1.85c-.21-.46-.84-.62-1.24-.62Z"/>
        <path class="cls-9" d="m39.73,205.49c-.26.26-.16.7,0,.76.24.11.87-.52.76-.76-.07-.16-.5-.26-.76,0Z"/>
      </g>
      <g>
        <path class="cls-1" d="m44.88,213.4c-.4,0-1.03.15-1.24.62-.32.7.41,1.85,1.24,1.85s1.55-1.16,1.24-1.85c-.21-.46-.84-.62-1.24-.62Z"/>
        <path class="cls-9" d="m44.73,214.49c-.26.26-.16.7,0,.76.24.11.87-.52.76-.76-.07-.16-.5-.26-.76,0Z"/>
      </g>
      <g>
        <path class="cls-1" d="m47.88,208.4c-.4,0-1.03.15-1.24.62-.32.7.41,1.85,1.24,1.85s1.55-1.16,1.24-1.85c-.21-.46-.84-.62-1.24-.62Z"/>
        <path class="cls-9" d="m47.73,209.49c-.26.26-.16.7,0,.76.24.11.87-.52.76-.76-.07-.16-.5-.26-.76,0Z"/>
      </g>
      <g>
        <path class="cls-1" d="m51.88,216.4c-.4,0-1.03.15-1.24.62-.32.7.41,1.85,1.24,1.85s1.55-1.16,1.24-1.85c-.21-.46-.84-.62-1.24-.62Z"/>
        <path class="cls-9" d="m51.73,217.49c-.26.26-.16.7,0,.76.24.11.87-.52.76-.76-.07-.16-.5-.26-.76,0Z"/>
      </g>
      <g>
        <path class="cls-1" d="m59.88,192.4c-.4,0-1.03.15-1.24.62-.32.7.41,1.85,1.24,1.85s1.55-1.16,1.24-1.85c-.21-.46-.84-.62-1.24-.62Z"/>
        <path class="cls-9" d="m59.73,193.49c-.26.26-.16.7,0,.76.24.11.87-.52.76-.76-.07-.16-.5-.26-.76,0Z"/>
      </g>
      <g>
        <path class="cls-1" d="m64.88,197.4c-.4,0-1.03.15-1.24.62-.32.7.41,1.85,1.24,1.85s1.55-1.16,1.24-1.85c-.21-.46-.84-.62-1.24-.62Z"/>
        <path class="cls-9" d="m64.73,198.49c-.26.26-.16.7,0,.76.24.11.87-.52.76-.76-.07-.16-.5-.26-.76,0Z"/>
      </g>
      <g>
        <path class="cls-1" d="m70.88,201.4c-.4,0-1.03.15-1.24.62-.32.7.41,1.85,1.24,1.85s1.55-1.16,1.24-1.85c-.21-.46-.84-.62-1.24-.62Z"/>
        <path class="cls-9" d="m70.73,202.49c-.26.26-.16.7,0,.76.24.11.87-.52.76-.76-.07-.16-.5-.26-.76,0Z"/>
      </g>
      <g>
        <path class="cls-1" d="m77.88,181.4c-.4,0-1.03.15-1.24.62-.32.7.41,1.85,1.24,1.85s1.55-1.16,1.24-1.85c-.21-.46-.84-.62-1.24-.62Z"/>
        <path class="cls-9" d="m77.73,182.49c-.26.26-.16.7,0,.76.24.11.87-.52.76-.76-.07-.16-.5-.26-.76,0Z"/>
      </g>
      <g>
        <path class="cls-1" d="m83.88,185.4c-.4,0-1.03.15-1.24.62-.32.7.41,1.85,1.24,1.85s1.55-1.16,1.24-1.85c-.21-.46-.84-.62-1.24-.62Z"/>
        <path class="cls-9" d="m83.73,186.49c-.26.26-.16.7,0,.76.24.11.87-.52.76-.76-.07-.16-.5-.26-.76,0Z"/>
      </g>
      <g>
        <path class="cls-1" d="m107.88,154.4c-.4,0-1.03.15-1.24.62-.32.7.41,1.85,1.24,1.85s1.55-1.16,1.24-1.85c-.21-.46-.84-.62-1.24-.62Z"/>
        <path class="cls-9" d="m107.73,155.49c-.26.26-.16.7,0,.76.24.11.87-.52.76-.76-.07-.16-.5-.26-.76,0Z"/>
      </g>
      <g>
        <path class="cls-1" d="m114.88,156.4c-.4,0-1.03.15-1.24.62-.32.7.41,1.85,1.24,1.85s1.55-1.16,1.24-1.85c-.21-.46-.84-.62-1.24-.62Z"/>
        <path class="cls-9" d="m114.73,157.49c-.26.26-.16.7,0,.76.24.11.87-.52.76-.76-.07-.16-.5-.26-.76,0Z"/>
      </g>
      <g>
        <path class="cls-1" d="m92.88,168.4c-.4,0-1.03.15-1.24.62-.32.7.41,1.85,1.24,1.85s1.55-1.16,1.24-1.85c-.21-.46-.84-.62-1.24-.62Z"/>
        <path class="cls-9" d="m92.73,169.49c-.26.26-.16.7,0,.76.24.11.87-.52.76-.76-.07-.16-.5-.26-.76,0Z"/>
      </g>
      <g>
        <path class="cls-1" d="m98.88,172.4c-.4,0-1.03.15-1.24.62-.32.7.41,1.85,1.24,1.85s1.55-1.16,1.24-1.85c-.21-.46-.84-.62-1.24-.62Z"/>
        <path class="cls-9" d="m98.73,173.49c-.26.26-.16.7,0,.76.24.11.87-.52.76-.76-.07-.16-.5-.26-.76,0Z"/>
      </g>
      <g>
        <path class="cls-1" d="m108.88,176.4c-.4,0-1.03.15-1.24.62-.32.7.41,1.85,1.24,1.85s1.55-1.16,1.24-1.85c-.21-.46-.84-.62-1.24-.62Z"/>
        <path class="cls-9" d="m108.73,177.49c-.26.26-.16.7,0,.76.24.11.87-.52.76-.76-.07-.16-.5-.26-.76,0Z"/>
      </g>
      <g>
        <path class="cls-1" d="m84.88,189.4c-.4,0-1.03.15-1.24.62-.32.7.41,1.85,1.24,1.85s1.55-1.16,1.24-1.85c-.21-.46-.84-.62-1.24-.62Z"/>
        <path class="cls-9" d="m84.73,190.49c-.26.26-.16.7,0,.76.24.11.87-.52.76-.76-.07-.16-.5-.26-.76,0Z"/>
      </g>
      <g>
        <path class="cls-1" d="m90.88,192.4c-.4,0-1.03.15-1.24.62-.32.7.41,1.85,1.24,1.85s1.55-1.16,1.24-1.85c-.21-.46-.84-.62-1.24-.62Z"/>
        <path class="cls-9" d="m90.73,193.49c-.26.26-.16.7,0,.76.24.11.87-.52.76-.76-.07-.16-.5-.26-.76,0Z"/>
      </g>
      <g>
        <path class="cls-1" d="m97.88,193.4c-.4,0-1.03.15-1.24.62-.32.7.41,1.85,1.24,1.85s1.55-1.16,1.24-1.85c-.21-.46-.84-.62-1.24-.62Z"/>
        <path class="cls-9" d="m97.73,194.49c-.26.26-.16.7,0,.76.24.11.87-.52.76-.76-.07-.16-.5-.26-.76,0Z"/>
      </g>
      <g>
        <path class="cls-1" d="m77.88,207.4c-.4,0-1.03.15-1.24.62-.32.7.41,1.85,1.24,1.85s1.55-1.16,1.24-1.85c-.21-.46-.84-.62-1.24-.62Z"/>
        <path class="cls-9" d="m77.73,208.49c-.26.26-.16.7,0,.76.24.11.87-.52.76-.76-.07-.16-.5-.26-.76,0Z"/>
      </g>
      <g>
        <path class="cls-1" d="m80.88,211.4c-.4,0-1.03.15-1.24.62-.32.7.41,1.85,1.24,1.85s1.55-1.16,1.24-1.85c-.21-.46-.84-.62-1.24-.62Z"/>
        <path class="cls-9" d="m80.73,212.49c-.26.26-.16.7,0,.76.24.11.87-.52.76-.76-.07-.16-.5-.26-.76,0Z"/>
      </g>
      <g>
        <path class="cls-1" d="m87.88,216.4c-.4,0-1.03.15-1.24.62-.32.7.41,1.85,1.24,1.85s1.55-1.16,1.24-1.85c-.21-.46-.84-.62-1.24-.62Z"/>
        <path class="cls-9" d="m87.73,217.49c-.26.26-.16.7,0,.76.24.11.87-.52.76-.76-.07-.16-.5-.26-.76,0Z"/>
      </g>
      <g>
        <path class="cls-1" d="m58.88,215.4c-.4,0-1.03.15-1.24.62-.32.7.41,1.85,1.24,1.85s1.55-1.16,1.24-1.85c-.21-.46-.84-.62-1.24-.62Z"/>
        <path class="cls-9" d="m58.73,216.49c-.26.26-.16.7,0,.76.24.11.87-.52.76-.76-.07-.16-.5-.26-.76,0Z"/>
      </g>
      <g>
        <path class="cls-1" d="m55.88,209.4c-.4,0-1.03.15-1.24.62-.32.7.41,1.85,1.24,1.85s1.55-1.16,1.24-1.85c-.21-.46-.84-.62-1.24-.62Z"/>
        <path class="cls-9" d="m55.73,210.49c-.26.26-.16.7,0,.76.24.11.87-.52.76-.76-.07-.16-.5-.26-.76,0Z"/>
      </g>
      <g>
        <path class="cls-1" d="m58.88,223.4c-.4,0-1.03.15-1.24.62-.32.7.41,1.85,1.24,1.85s1.55-1.16,1.24-1.85c-.21-.46-.84-.62-1.24-.62Z"/>
        <path class="cls-9" d="m58.73,224.49c-.26.26-.16.7,0,.76.24.11.87-.52.76-.76-.07-.16-.5-.26-.76,0Z"/>
      </g>
      <g>
        <path class="cls-1" d="m63.88,230.4c-.4,0-1.03.15-1.24.62-.32.7.41,1.85,1.24,1.85s1.55-1.16,1.24-1.85c-.21-.46-.84-.62-1.24-.62Z"/>
        <path class="cls-9" d="m63.73,231.49c-.26.26-.16.7,0,.76.24.11.87-.52.76-.76-.07-.16-.5-.26-.76,0Z"/>
      </g>
      <g>
        <path class="cls-1" d="m68.88,226.4c-.4,0-1.03.15-1.24.62-.32.7.41,1.85,1.24,1.85s1.55-1.16,1.24-1.85c-.21-.46-.84-.62-1.24-.62Z"/>
        <path class="cls-9" d="m68.73,227.49c-.26.26-.16.7,0,.76.24.11.87-.52.76-.76-.07-.16-.5-.26-.76,0Z"/>
      </g>
      <g>
        <path class="cls-1" d="m69.88,237.4c-.4,0-1.03.15-1.24.62-.32.7.41,1.85,1.24,1.85s1.55-1.16,1.24-1.85c-.21-.46-.84-.62-1.24-.62Z"/>
        <path class="cls-9" d="m69.73,238.49c-.26.26-.16.7,0,.76.24.11.87-.52.76-.76-.07-.16-.5-.26-.76,0Z"/>
      </g>
      <g>
        <path class="cls-1" d="m76.88,236.4c-.4,0-1.03.15-1.24.62-.32.7.41,1.85,1.24,1.85s1.55-1.16,1.24-1.85c-.21-.46-.84-.62-1.24-.62Z"/>
        <path class="cls-9" d="m76.73,237.49c-.26.26-.16.7,0,.76.24.11.87-.52.76-.76-.07-.16-.5-.26-.76,0Z"/>
      </g>
      <g>
        <path class="cls-1" d="m20.88,233.4c-.4,0-1.03.15-1.24.62-.32.7.41,1.85,1.24,1.85s1.55-1.16,1.24-1.85c-.21-.46-.84-.62-1.24-.62Z"/>
        <path class="cls-9" d="m20.73,234.49c-.26.26-.16.7,0,.76.24.11.87-.52.76-.76-.07-.16-.5-.26-.76,0Z"/>
      </g>
      <g>
        <path class="cls-1" d="m9.88,236.4c-.4,0-1.03.15-1.24.62-.32.7.41,1.85,1.24,1.85s1.55-1.16,1.24-1.85c-.21-.46-.84-.62-1.24-.62Z"/>
        <path class="cls-9" d="m9.73,237.49c-.26.26-.16.7,0,.76.24.11.87-.52.76-.76-.07-.16-.5-.26-.76,0Z"/>
      </g>
      <g>
        <path class="cls-1" d="m8.88,244.4c-.4,0-1.03.15-1.24.62-.32.7.41,1.85,1.24,1.85s1.55-1.16,1.24-1.85c-.21-.46-.84-.62-1.24-.62Z"/>
        <path class="cls-9" d="m8.73,245.49c-.26.26-.16.7,0,.76.24.11.87-.52.76-.76-.07-.16-.5-.26-.76,0Z"/>
      </g>
      <g>
        <path class="cls-1" d="m8.88,253.4c-.4,0-1.03.15-1.24.62-.32.7.41,1.85,1.24,1.85s1.55-1.16,1.24-1.85c-.21-.46-.84-.62-1.24-.62Z"/>
        <path class="cls-9" d="m8.73,254.49c-.26.26-.16.7,0,.76.24.11.87-.52.76-.76-.07-.16-.5-.26-.76,0Z"/>
      </g>
      <g>
        <path class="cls-1" d="m24.88,267.4c-.4,0-1.03.15-1.24.62-.32.7.41,1.85,1.24,1.85s1.55-1.16,1.24-1.85c-.21-.46-.84-.62-1.24-.62Z"/>
        <path class="cls-9" d="m24.73,268.49c-.26.26-.16.7,0,.76.24.11.87-.52.76-.76-.07-.16-.5-.26-.76,0Z"/>
      </g>
      <g>
        <path class="cls-1" d="m36.88,266.4c-.4,0-1.03.15-1.24.62-.32.7.41,1.85,1.24,1.85s1.55-1.16,1.24-1.85c-.21-.46-.84-.62-1.24-.62Z"/>
        <path class="cls-9" d="m36.73,267.49c-.26.26-.16.7,0,.76.24.11.87-.52.76-.76-.07-.16-.5-.26-.76,0Z"/>
      </g>
      <g>
        <path class="cls-1" d="m46.88,264.4c-.4,0-1.03.15-1.24.62-.32.7.41,1.85,1.24,1.85s1.55-1.16,1.24-1.85c-.21-.46-.84-.62-1.24-.62Z"/>
        <path class="cls-9" d="m46.73,265.49c-.26.26-.16.7,0,.76.24.11.87-.52.76-.76-.07-.16-.5-.26-.76,0Z"/>
      </g>
      <g>
        <path class="cls-1" d="m9.88,268.4c-.4,0-1.03.15-1.24.62-.32.7.41,1.85,1.24,1.85s1.55-1.16,1.24-1.85c-.21-.46-.84-.62-1.24-.62Z"/>
        <path class="cls-9" d="m9.73,269.49c-.26.26-.16.7,0,.76.24.11.87-.52.76-.76-.07-.16-.5-.26-.76,0Z"/>
      </g>
      <g>
        <path class="cls-1" d="m16.88,270.4c-.4,0-1.03.15-1.24.62-.32.7.41,1.85,1.24,1.85s1.55-1.16,1.24-1.85c-.21-.46-.84-.62-1.24-.62Z"/>
        <path class="cls-9" d="m16.73,271.49c-.26.26-.16.7,0,.76.24.11.87-.52.76-.76-.07-.16-.5-.26-.76,0Z"/>
      </g>
      <g>
        <path class="cls-1" d="m29.88,226.4c-.4,0-1.03.15-1.24.62-.32.7.41,1.85,1.24,1.85s1.55-1.16,1.24-1.85c-.21-.46-.84-.62-1.24-.62Z"/>
        <path class="cls-9" d="m29.73,227.49c-.26.26-.16.7,0,.76.24.11.87-.52.76-.76-.07-.16-.5-.26-.76,0Z"/>
      </g>
      <g>
        <path class="cls-1" d="m32.37,223.37c-.24,0-.62.09-.75.38-.19.42.25,1.12.75,1.12s.94-.7.75-1.12c-.13-.28-.51-.38-.75-.38Z"/>
        <path class="cls-9" d="m32.28,224.03c-.16.16-.1.42,0,.46.15.06.53-.32.46-.46-.04-.1-.31-.16-.46,0Z"/>
      </g>
      <g>
        <path class="cls-1" d="m39.37,228.37c-.24,0-.62.09-.75.38-.19.42.25,1.12.75,1.12s.94-.7.75-1.12c-.13-.28-.51-.38-.75-.38Z"/>
        <path class="cls-9" d="m39.28,229.03c-.16.16-.1.42,0,.46.15.06.53-.32.46-.46-.04-.1-.31-.16-.46,0Z"/>
      </g>
      <g>
        <path class="cls-1" d="m7.37,259.37c-.24,0-.62.09-.75.38-.19.42.25,1.12.75,1.12s.94-.7.75-1.12c-.13-.28-.51-.38-.75-.38Z"/>
        <path class="cls-9" d="m7.28,260.03c-.16.16-.1.42,0,.46.15.06.53-.32.46-.46-.04-.1-.31-.16-.46,0Z"/>
      </g>
      <g>
        <path class="cls-1" d="m12.37,257.37c-.24,0-.62.09-.75.38-.19.42.25,1.12.75,1.12s.94-.7.75-1.12c-.13-.28-.51-.38-.75-.38Z"/>
        <path class="cls-9" d="m12.28,258.03c-.16.16-.1.42,0,.46.15.06.53-.32.46-.46-.04-.1-.31-.16-.46,0Z"/>
      </g>
      <g>
        <path class="cls-1" d="m5.37,271.37c-.24,0-.62.09-.75.38-.19.42.25,1.12.75,1.12s.94-.7.75-1.12c-.13-.28-.51-.38-.75-.38Z"/>
        <path class="cls-9" d="m5.28,272.03c-.16.16-.1.42,0,.46.15.06.53-.32.46-.46-.04-.1-.31-.16-.46,0Z"/>
      </g>
      <g>
        <path class="cls-1" d="m12.37,275.37c-.24,0-.62.09-.75.38-.19.42.25,1.12.75,1.12s.94-.7.75-1.12c-.13-.28-.51-.38-.75-.38Z"/>
        <path class="cls-9" d="m12.28,276.03c-.16.16-.1.42,0,.46.15.06.53-.32.46-.46-.04-.1-.31-.16-.46,0Z"/>
      </g>
      <g>
        <path class="cls-1" d="m30.37,271.37c-.24,0-.62.09-.75.38-.19.42.25,1.12.75,1.12s.94-.7.75-1.12c-.13-.28-.51-.38-.75-.38Z"/>
        <path class="cls-9" d="m30.28,272.03c-.16.16-.1.42,0,.46.15.06.53-.32.46-.46-.04-.1-.31-.16-.46,0Z"/>
      </g>
      <g>
        <path class="cls-1" d="m14.37,231.37c-.24,0-.62.09-.75.38-.19.42.25,1.12.75,1.12s.94-.7.75-1.12c-.13-.28-.51-.38-.75-.38Z"/>
        <path class="cls-9" d="m14.28,232.03c-.16.16-.1.42,0,.46.15.06.53-.32.46-.46-.04-.1-.31-.16-.46,0Z"/>
      </g>
      <g>
        <path class="cls-1" d="m21.37,227.37c-.24,0-.62.09-.75.38-.19.42.25,1.12.75,1.12s.94-.7.75-1.12c-.13-.28-.51-.38-.75-.38Z"/>
        <path class="cls-9" d="m21.28,228.03c-.16.16-.1.42,0,.46.15.06.53-.32.46-.46-.04-.1-.31-.16-.46,0Z"/>
      </g>
      <g>
        <path class="cls-1" d="m14.37,239.37c-.24,0-.62.09-.75.38-.19.42.25,1.12.75,1.12s.94-.7.75-1.12c-.13-.28-.51-.38-.75-.38Z"/>
        <path class="cls-9" d="m14.28,240.03c-.16.16-.1.42,0,.46.15.06.53-.32.46-.46-.04-.1-.31-.16-.46,0Z"/>
      </g>
      <g>
        <path class="cls-1" d="m52.37,236.37c-.24,0-.62.09-.75.38-.19.42.25,1.12.75,1.12s.94-.7.75-1.12c-.13-.28-.51-.38-.75-.38Z"/>
        <path class="cls-9" d="m52.28,237.03c-.16.16-.1.42,0,.46.15.06.53-.32.46-.46-.04-.1-.31-.16-.46,0Z"/>
      </g>
      <g>
        <path class="cls-1" d="m44.37,227.37c-.24,0-.62.09-.75.38-.19.42.25,1.12.75,1.12s.94-.7.75-1.12c-.13-.28-.51-.38-.75-.38Z"/>
        <path class="cls-9" d="m44.28,228.03c-.16.16-.1.42,0,.46.15.06.53-.32.46-.46-.04-.1-.31-.16-.46,0Z"/>
      </g>
      <g>
        <path class="cls-1" d="m64.37,222.37c-.24,0-.62.09-.75.38-.19.42.25,1.12.75,1.12s.94-.7.75-1.12c-.13-.28-.51-.38-.75-.38Z"/>
        <path class="cls-9" d="m64.28,223.03c-.16.16-.1.42,0,.46.15.06.53-.32.46-.46-.04-.1-.31-.16-.46,0Z"/>
      </g>
      <g>
        <path class="cls-1" d="m66.37,217.37c-.24,0-.62.09-.75.38-.19.42.25,1.12.75,1.12s.94-.7.75-1.12c-.13-.28-.51-.38-.75-.38Z"/>
        <path class="cls-9" d="m66.28,218.03c-.16.16-.1.42,0,.46.15.06.53-.32.46-.46-.04-.1-.31-.16-.46,0Z"/>
      </g>
      <g>
        <path class="cls-1" d="m71.37,217.37c-.24,0-.62.09-.75.38-.19.42.25,1.12.75,1.12s.94-.7.75-1.12c-.13-.28-.51-.38-.75-.38Z"/>
        <path class="cls-9" d="m71.28,218.03c-.16.16-.1.42,0,.46.15.06.53-.32.46-.46-.04-.1-.31-.16-.46,0Z"/>
      </g>
      <g>
        <path class="cls-1" d="m71.37,232.37c-.24,0-.62.09-.75.38-.19.42.25,1.12.75,1.12s.94-.7.75-1.12c-.13-.28-.51-.38-.75-.38Z"/>
        <path class="cls-9" d="m71.28,233.03c-.16.16-.1.42,0,.46.15.06.53-.32.46-.46-.04-.1-.31-.16-.46,0Z"/>
      </g>
      <g>
        <path class="cls-1" d="m75.37,228.37c-.24,0-.62.09-.75.38-.19.42.25,1.12.75,1.12s.94-.7.75-1.12c-.13-.28-.51-.38-.75-.38Z"/>
        <path class="cls-9" d="m75.28,229.03c-.16.16-.1.42,0,.46.15.06.53-.32.46-.46-.04-.1-.31-.16-.46,0Z"/>
      </g>
      <g>
        <path class="cls-1" d="m77.37,224.37c-.24,0-.62.09-.75.38-.19.42.25,1.12.75,1.12s.94-.7.75-1.12c-.13-.28-.51-.38-.75-.38Z"/>
        <path class="cls-9" d="m77.28,225.03c-.16.16-.1.42,0,.46.15.06.53-.32.46-.46-.04-.1-.31-.16-.46,0Z"/>
      </g>
      <g>
        <path class="cls-1" d="m79.37,232.37c-.24,0-.62.09-.75.38-.19.42.25,1.12.75,1.12s.94-.7.75-1.12c-.13-.28-.51-.38-.75-.38Z"/>
        <path class="cls-9" d="m79.28,233.03c-.16.16-.1.42,0,.46.15.06.53-.32.46-.46-.04-.1-.31-.16-.46,0Z"/>
      </g>
      <g>
        <path class="cls-1" d="m61.37,210.37c-.24,0-.62.09-.75.38-.19.42.25,1.12.75,1.12s.94-.7.75-1.12c-.13-.28-.51-.38-.75-.38Z"/>
        <path class="cls-9" d="m61.28,211.03c-.16.16-.1.42,0,.46.15.06.53-.32.46-.46-.04-.1-.31-.16-.46,0Z"/>
      </g>
      <g>
        <path class="cls-1" d="m91.37,213.37c-.24,0-.62.09-.75.38-.19.42.25,1.12.75,1.12s.94-.7.75-1.12c-.13-.28-.51-.38-.75-.38Z"/>
        <path class="cls-9" d="m91.28,214.03c-.16.16-.1.42,0,.46.15.06.53-.32.46-.46-.04-.1-.31-.16-.46,0Z"/>
      </g>
      <g>
        <path class="cls-1" d="m92.37,208.37c-.24,0-.62.09-.75.38-.19.42.25,1.12.75,1.12s.94-.7.75-1.12c-.13-.28-.51-.38-.75-.38Z"/>
        <path class="cls-9" d="m92.28,209.03c-.16.16-.1.42,0,.46.15.06.53-.32.46-.46-.04-.1-.31-.16-.46,0Z"/>
      </g>
      <g>
        <path class="cls-1" d="m85.37,211.37c-.24,0-.62.09-.75.38-.19.42.25,1.12.75,1.12s.94-.7.75-1.12c-.13-.28-.51-.38-.75-.38Z"/>
        <path class="cls-9" d="m85.28,212.03c-.16.16-.1.42,0,.46.15.06.53-.32.46-.46-.04-.1-.31-.16-.46,0Z"/>
      </g>
      <g>
        <path class="cls-1" d="m86.37,205.37c-.24,0-.62.09-.75.38-.19.42.25,1.12.75,1.12s.94-.7.75-1.12c-.13-.28-.51-.38-.75-.38Z"/>
        <path class="cls-9" d="m86.28,206.03c-.16.16-.1.42,0,.46.15.06.53-.32.46-.46-.04-.1-.31-.16-.46,0Z"/>
      </g>
      <g>
        <path class="cls-1" d="m100.37,190.37c-.24,0-.62.09-.75.38-.19.42.25,1.12.75,1.12s.94-.7.75-1.12c-.13-.28-.51-.38-.75-.38Z"/>
        <path class="cls-9" d="m100.28,191.03c-.16.16-.1.42,0,.46.15.06.53-.32.46-.46-.04-.1-.31-.16-.46,0Z"/>
      </g>
      <g>
        <path class="cls-1" d="m98.37,187.37c-.24,0-.62.09-.75.38-.19.42.25,1.12.75,1.12s.94-.7.75-1.12c-.13-.28-.51-.38-.75-.38Z"/>
        <path class="cls-9" d="m98.28,188.03c-.16.16-.1.42,0,.46.15.06.53-.32.46-.46-.04-.1-.31-.16-.46,0Z"/>
      </g>
      <g>
        <path class="cls-1" d="m89.37,189.37c-.24,0-.62.09-.75.38-.19.42.25,1.12.75,1.12s.94-.7.75-1.12c-.13-.28-.51-.38-.75-.38Z"/>
        <path class="cls-9" d="m89.28,190.03c-.16.16-.1.42,0,.46.15.06.53-.32.46-.46-.04-.1-.31-.16-.46,0Z"/>
      </g>
      <g>
        <path class="cls-1" d="m87.37,183.37c-.24,0-.62.09-.75.38-.19.42.25,1.12.75,1.12s.94-.7.75-1.12c-.13-.28-.51-.38-.75-.38Z"/>
        <path class="cls-9" d="m87.28,184.03c-.16.16-.1.42,0,.46.15.06.53-.32.46-.46-.04-.1-.31-.16-.46,0Z"/>
      </g>
      <g>
        <path class="cls-1" d="m103.37,173.37c-.24,0-.62.09-.75.38-.19.42.25,1.12.75,1.12s.94-.7.75-1.12c-.13-.28-.51-.38-.75-.38Z"/>
        <path class="cls-9" d="m103.28,174.03c-.16.16-.1.42,0,.46.15.06.53-.32.46-.46-.04-.1-.31-.16-.46,0Z"/>
      </g>
      <g>
        <path class="cls-1" d="m105.37,168.37c-.24,0-.62.09-.75.38-.19.42.25,1.12.75,1.12s.94-.7.75-1.12c-.13-.28-.51-.38-.75-.38Z"/>
        <path class="cls-9" d="m105.28,169.03c-.16.16-.1.42,0,.46.15.06.53-.32.46-.46-.04-.1-.31-.16-.46,0Z"/>
      </g>
      <g>
        <path class="cls-1" d="m109.37,173.37c-.24,0-.62.09-.75.38-.19.42.25,1.12.75,1.12s.94-.7.75-1.12c-.13-.28-.51-.38-.75-.38Z"/>
        <path class="cls-9" d="m109.28,174.03c-.16.16-.1.42,0,.46.15.06.53-.32.46-.46-.04-.1-.31-.16-.46,0Z"/>
      </g>
      <g>
        <path class="cls-1" d="m96.37,169.37c-.24,0-.62.09-.75.38-.19.42.25,1.12.75,1.12s.94-.7.75-1.12c-.13-.28-.51-.38-.75-.38Z"/>
        <path class="cls-9" d="m96.28,170.03c-.16.16-.1.42,0,.46.15.06.53-.32.46-.46-.04-.1-.31-.16-.46,0Z"/>
      </g>
      <g>
        <path class="cls-1" d="m96.37,164.37c-.24,0-.62.09-.75.38-.19.42.25,1.12.75,1.12s.94-.7.75-1.12c-.13-.28-.51-.38-.75-.38Z"/>
        <path class="cls-9" d="m96.28,165.03c-.16.16-.1.42,0,.46.15.06.53-.32.46-.46-.04-.1-.31-.16-.46,0Z"/>
      </g>
      <g>
        <path class="cls-1" d="m115.37,153.37c-.24,0-.62.09-.75.38-.19.42.25,1.12.75,1.12s.94-.7.75-1.12c-.13-.28-.51-.38-.75-.38Z"/>
        <path class="cls-9" d="m115.28,154.03c-.16.16-.1.42,0,.46.15.06.53-.32.46-.46-.04-.1-.31-.16-.46,0Z"/>
      </g>
      <g>
        <path class="cls-1" d="m115.37,153.37c-.24,0-.62.09-.75.38-.19.42.25,1.12.75,1.12s.94-.7.75-1.12c-.13-.28-.51-.38-.75-.38Z"/>
        <path class="cls-9" d="m115.28,154.03c-.16.16-.1.42,0,.46.15.06.53-.32.46-.46-.04-.1-.31-.16-.46,0Z"/>
      </g>
      <g>
        <path class="cls-1" d="m109.37,157.37c-.24,0-.62.09-.75.38-.19.42.25,1.12.75,1.12s.94-.7.75-1.12c-.13-.28-.51-.38-.75-.38Z"/>
        <path class="cls-9" d="m109.28,158.03c-.16.16-.1.42,0,.46.15.06.53-.32.46-.46-.04-.1-.31-.16-.46,0Z"/>
      </g>
      <g>
        <path class="cls-1" d="m115.37,149.37c-.24,0-.62.09-.75.38-.19.42.25,1.12.75,1.12s.94-.7.75-1.12c-.13-.28-.51-.38-.75-.38Z"/>
        <path class="cls-9" d="m115.28,150.03c-.16.16-.1.42,0,.46.15.06.53-.32.46-.46-.04-.1-.31-.16-.46,0Z"/>
      </g>
      <g>
        <path class="cls-1" d="m81.37,179.37c-.24,0-.62.09-.75.38-.19.42.25,1.12.75,1.12s.94-.7.75-1.12c-.13-.28-.51-.38-.75-.38Z"/>
        <path class="cls-9" d="m81.28,180.03c-.16.16-.1.42,0,.46.15.06.53-.32.46-.46-.04-.1-.31-.16-.46,0Z"/>
      </g>
      <g>
        <path class="cls-1" d="m86.37,178.37c-.24,0-.62.09-.75.38-.19.42.25,1.12.75,1.12s.94-.7.75-1.12c-.13-.28-.51-.38-.75-.38Z"/>
        <path class="cls-9" d="m86.28,179.03c-.16.16-.1.42,0,.46.15.06.53-.32.46-.46-.04-.1-.31-.16-.46,0Z"/>
      </g>
      <g>
        <path class="cls-1" d="m94.37,190.37c-.24,0-.62.09-.75.38-.19.42.25,1.12.75,1.12s.94-.7.75-1.12c-.13-.28-.51-.38-.75-.38Z"/>
        <path class="cls-9" d="m94.28,191.03c-.16.16-.1.42,0,.46.15.06.53-.32.46-.46-.04-.1-.31-.16-.46,0Z"/>
      </g>
      <g>
        <path class="cls-1" d="m80.37,202.37c-.24,0-.62.09-.75.38-.19.42.25,1.12.75,1.12s.94-.7.75-1.12c-.13-.28-.51-.38-.75-.38Z"/>
        <path class="cls-9" d="m80.28,203.03c-.16.16-.1.42,0,.46.15.06.53-.32.46-.46-.04-.1-.31-.16-.46,0Z"/>
      </g>
      <g>
        <path class="cls-1" d="m78.37,196.37c-.24,0-.62.09-.75.38-.19.42.25,1.12.75,1.12s.94-.7.75-1.12c-.13-.28-.51-.38-.75-.38Z"/>
        <path class="cls-9" d="m78.28,197.03c-.16.16-.1.42,0,.46.15.06.53-.32.46-.46-.04-.1-.31-.16-.46,0Z"/>
      </g>
      <g>
        <path class="cls-1" d="m69.37,196.37c-.24,0-.62.09-.75.38-.19.42.25,1.12.75,1.12s.94-.7.75-1.12c-.13-.28-.51-.38-.75-.38Z"/>
        <path class="cls-9" d="m69.28,197.03c-.16.16-.1.42,0,.46.15.06.53-.32.46-.46-.04-.1-.31-.16-.46,0Z"/>
      </g>
      <g>
        <path class="cls-1" d="m70.37,191.37c-.24,0-.62.09-.75.38-.19.42.25,1.12.75,1.12s.94-.7.75-1.12c-.13-.28-.51-.38-.75-.38Z"/>
        <path class="cls-9" d="m70.28,192.03c-.16.16-.1.42,0,.46.15.06.53-.32.46-.46-.04-.1-.31-.16-.46,0Z"/>
      </g>
      <g>
        <path class="cls-1" d="m75.37,201.37c-.24,0-.62.09-.75.38-.19.42.25,1.12.75,1.12s.94-.7.75-1.12c-.13-.28-.51-.38-.75-.38Z"/>
        <path class="cls-9" d="m75.28,202.03c-.16.16-.1.42,0,.46.15.06.53-.32.46-.46-.04-.1-.31-.16-.46,0Z"/>
      </g>
      <g>
        <path class="cls-1" d="m63.37,190.37c-.24,0-.62.09-.75.38-.19.42.25,1.12.75,1.12s.94-.7.75-1.12c-.13-.28-.51-.38-.75-.38Z"/>
        <path class="cls-9" d="m63.28,191.03c-.16.16-.1.42,0,.46.15.06.53-.32.46-.46-.04-.1-.31-.16-.46,0Z"/>
      </g>
      <g>
        <path class="cls-1" d="m50.37,204.37c-.24,0-.62.09-.75.38-.19.42.25,1.12.75,1.12s.94-.7.75-1.12c-.13-.28-.51-.38-.75-.38Z"/>
        <path class="cls-9" d="m50.28,205.03c-.16.16-.1.42,0,.46.15.06.53-.32.46-.46-.04-.1-.31-.16-.46,0Z"/>
      </g>
      <g>
        <path class="cls-1" d="m44.37,201.37c-.24,0-.62.09-.75.38-.19.42.25,1.12.75,1.12s.94-.7.75-1.12c-.13-.28-.51-.38-.75-.38Z"/>
        <path class="cls-9" d="m44.28,202.03c-.16.16-.1.42,0,.46.15.06.53-.32.46-.46-.04-.1-.31-.16-.46,0Z"/>
      </g>
      <g>
        <path class="cls-1" d="m33.37,210.37c-.24,0-.62.09-.75.38-.19.42.25,1.12.75,1.12s.94-.7.75-1.12c-.13-.28-.51-.38-.75-.38Z"/>
        <path class="cls-9" d="m33.28,211.03c-.16.16-.1.42,0,.46.15.06.53-.32.46-.46-.04-.1-.31-.16-.46,0Z"/>
      </g>
      <g>
        <path class="cls-1" d="m52.88,251.4c-.4,0-1.03.15-1.24.62-.32.7.41,1.85,1.24,1.85s1.55-1.16,1.24-1.85c-.21-.46-.84-.62-1.24-.62Z"/>
        <path class="cls-9" d="m52.73,252.49c-.26.26-.16.7,0,.76.24.11.87-.52.76-.76-.07-.16-.5-.26-.76,0Z"/>
      </g>
      <g>
        <path class="cls-1" d="m51.88,258.4c-.4,0-1.03.15-1.24.62-.32.7.41,1.85,1.24,1.85s1.55-1.16,1.24-1.85c-.21-.46-.84-.62-1.24-.62Z"/>
        <path class="cls-9" d="m51.73,259.49c-.26.26-.16.7,0,.76.24.11.87-.52.76-.76-.07-.16-.5-.26-.76,0Z"/>
      </g>
      <g>
        <path class="cls-1" d="m61.88,246.4c-.4,0-1.03.15-1.24.62-.32.7.41,1.85,1.24,1.85s1.55-1.16,1.24-1.85c-.21-.46-.84-.62-1.24-.62Z"/>
        <path class="cls-9" d="m61.73,247.49c-.26.26-.16.7,0,.76.24.11.87-.52.76-.76-.07-.16-.5-.26-.76,0Z"/>
      </g>
      <g>
        <path class="cls-1" d="m56.88,261.4c-.4,0-1.03.15-1.24.62-.32.7.41,1.85,1.24,1.85s1.55-1.16,1.24-1.85c-.21-.46-.84-.62-1.24-.62Z"/>
        <path class="cls-9" d="m56.73,262.49c-.26.26-.16.7,0,.76.24.11.87-.52.76-.76-.07-.16-.5-.26-.76,0Z"/>
      </g>
      <g>
        <path class="cls-1" d="m59.88,253.4c-.4,0-1.03.15-1.24.62-.32.7.41,1.85,1.24,1.85s1.55-1.16,1.24-1.85c-.21-.46-.84-.62-1.24-.62Z"/>
        <path class="cls-9" d="m59.73,254.49c-.26.26-.16.7,0,.76.24.11.87-.52.76-.76-.07-.16-.5-.26-.76,0Z"/>
      </g>
    </g>
    <g>
      <path class="cls-3" d="m332.12,3.59c.54-.46,1.35-1.08,2.43-1.62,1.51-.75,2.79-.99,3.95-1.19,2.16-.37,3.85-.29,4.99-.23,1.14.06,2.91.23,5.04.76,1.25.32,1.37.44,5.09,1.76,2.8.99,2.48.84,5.09,1.76,3.7,1.31,3.85,1.45,5.09,1.76,1.01.25,1.93.42,5.04.76,3.54.39,5.3.59,7.04.67,4.01.19,4.05-.27,10.99-.51,5.6-.2,6.16.08,8.99-.42,3.02-.53,3.25-1,5.95-1.28,2-.2,4.77-.46,8.04.62,2.07.69,3.84,1.27,5.13,2.76.36.41.96,1.21,2.09,1.9.75.46,1.19.54,2.04.91,1.6.69,2.38,1.41,3.09,1.86,1.17.74,2.29.84,8.04.62,3.19-.12,4.78-.18,6.99-.33,4.38-.3,5.48-.52,7.99-.37,2.36.14,3.54.2,5.04.76,1,.37,1.78.83,6.23,4.71,2.91,2.54,4.36,3.81,5.23,4.76,1.51,1.64,2.02,2.49,4.23,4.81,2.08,2.18,2.79,2.64,3.14,2.86,1.45.89,2.34.95,5.09,1.76,2.58.77,3.87,1.15,5.09,1.76,2.3,1.16,3.62,2.67,6.27,5.71,2.33,2.67,3.5,4.01,4.28,5.81.86,1.99,1.04,4,1.37,7.94.35,4.22.06,4.26.33,6.99.35,3.56,1.1,6.1,2.51,10.89,1.7,5.77,2.29,6.18,2.42,8.9.15,3.07-.43,5.9-.67,7.04-.64,3.02-1.1,3-1.72,6.09-.66,3.31-.68,6.09-.67,7.04.02,2.99.42,3,.23,4.99-.19,1.99-.66,2.79-1.72,6.09-1.5,4.7-.96,4.41-1.72,6.09-1.28,2.86-3.16,4.41-6.66,7.32-2.49,2.06-5.1,4.19-7.8,4.37-1.77.12-3,.14-3,.14-1.87.04-2.28-.05-3,.14-1.47.4-2.18,1.43-2.9,2.14-2.38,2.34-6.08,2.39-8.9,2.42-2.39.03-2.03-.45-8.08-1.62-5.16-1-9.81-1.5-10.08-1.53-2.39-.25-3.59-.3-6.04-.72-2.97-.51-4.49-.78-6.09-1.72-.78-.46-2.73-1.6-4.18-3.81-.9-1.36-1.01-2.21-2.14-2.9-.69-.42-1.12-.39-3.04-.86-1.97-.48-2.2-.68-3.04-.86-2.72-.57-3.98.74-7.94,1.37-1.9.3-3.31.27-4.99.23-3.58-.08-6.24-.14-9.08-1.58-2.15-1.09-4.09-2.8-5.18-3.76-.2-.17-.24-.22-2.09-1.9-2.05-1.87-3.08-2.81-3.14-2.86-.44-.38-3.73-3.09-8.18-3.62-2.79-.33-2.73.59-4.99.23-3.75-.59-6.86-3.57-8.32-6.62-.95-1.98-1.08-3.75-1.33-6.95-.29-3.82.32-4.52-.33-6.99-.26-1-.98-3.77-3.28-5.85-2.29-2.08-3.56-1.12-8.18-3.62-1.54-.83-3.35-1.83-5.18-3.76-.71-.75-2.15-2.41-3.23-4.85-.59-1.33-1.08-2.91-1.47-9.94-.3-5.33-.09-5.83-.42-8.99-.44-4.19-1.21-7.31-1.37-7.94-1.32-5.22-2.55-6.06-5.65-13.75-2-4.97-3.02-7.52-3.51-10.85-.5-3.33-1.11-7.89,1.44-12.08,1.08-1.77,2.4-2.95,3.33-3.66Z"/>
      <path class="cls-4" d="m338.5,12.02c.44-.36,1.11-.84,2-1.26,1.24-.59,2.3-.77,3.25-.93,1.78-.3,3.17-.24,4.11-.19.93.04,2.4.17,4.14.59,1.03.24,1.12.34,4.18,1.37,2.3.77,2.04.65,4.18,1.37,3.04,1.02,3.16,1.13,4.18,1.37.83.2,1.59.32,4.14.59,2.91.3,4.36.45,5.79.51,3.3.14,3.33-.22,9.04-.42,4.61-.17,5.07.05,7.39-.35,2.48-.42,2.67-.79,4.89-1.01,1.64-.16,3.92-.37,6.61.47,1.7.53,3.15.98,4.22,2.14.29.32.79.94,1.72,1.48.62.36.98.42,1.68.7,1.31.53,1.95,1.09,2.54,1.44.96.57,1.88.65,6.61.47,2.62-.1,3.93-.15,5.75-.27,3.6-.24,4.5-.42,6.57-.31,1.94.1,2.91.15,4.14.59.82.29,1.46.64,5.11,3.66,2.39,1.98,3.58,2.97,4.29,3.7,1.23,1.28,1.65,1.94,3.47,3.74,1.71,1.7,2.29,2.06,2.57,2.22,1.19.69,1.92.73,4.18,1.37,2.12.59,3.18.89,4.18,1.37,1.89.9,2.98,2.08,5.15,4.44,1.91,2.08,2.87,3.12,3.51,4.52.7,1.55.85,3.12,1.11,6.19.28,3.29.04,3.32.26,5.45.28,2.77.89,4.76,2.04,8.49,1.39,4.5,1.87,4.82,1.97,6.93.12,2.4-.37,4.61-.57,5.49-.53,2.36-.91,2.34-1.42,4.75-.55,2.58-.57,4.75-.57,5.49.01,2.33.34,2.34.18,3.9-.16,1.55-.55,2.18-1.42,4.75-1.24,3.67-.8,3.44-1.42,4.75-1.06,2.23-2.61,3.45-5.5,5.72-2.05,1.62-4.21,3.28-6.43,3.42-1.45.09-2.46.12-2.46.12-1.54.03-1.87-.04-2.46.12-1.21.31-1.8,1.12-2.39,1.67-1.96,1.83-5,1.87-7.32,1.9-1.96.03-1.67-.35-6.65-1.25-4.24-.77-8.07-1.15-8.29-1.17-1.96-.19-2.95-.23-4.97-.55-2.45-.39-3.69-.6-5-1.33-.64-.36-2.24-1.24-3.43-2.96-.74-1.06-.83-1.72-1.75-2.26-.57-.33-.92-.3-2.5-.66-1.62-.37-1.81-.53-2.5-.66-2.23-.44-3.28.58-6.54,1.09-1.57.24-2.72.22-4.11.19-2.94-.06-5.13-.1-7.47-1.21-1.77-.84-3.36-2.17-4.25-2.92-.16-.14-.2-.17-1.72-1.48-1.69-1.46-2.53-2.18-2.57-2.22-.36-.29-3.06-2.4-6.72-2.81-2.29-.25-2.25.46-4.11.19-3.08-.45-5.63-2.77-6.83-5.15-.78-1.54-.88-2.92-1.08-5.41-.23-2.98.27-3.53-.26-5.45-.21-.78-.8-2.94-2.68-4.56-1.88-1.62-2.92-.87-6.72-2.81-1.27-.65-2.76-1.42-4.25-2.92-.58-.58-1.76-1.87-2.65-3.78-.48-1.03-.88-2.27-1.19-7.75-.23-4.16-.06-4.55-.33-7.01-.35-3.27-.98-5.7-1.11-6.19-1.08-4.07-2.08-4.72-4.62-10.71-1.64-3.87-2.47-5.86-2.87-8.45-.4-2.6-.9-6.15,1.21-9.43.89-1.39,1.98-2.31,2.75-2.86Z"/>
      <path class="cls-4" d="m350.86,22.81c.34-.17.84-.38,1.51-.56.93-.25,1.7-.29,2.39-.33,1.3-.07,2.3.03,2.98.1.67.07,1.72.21,2.96.51.73.18.79.23,2.95.92,1.62.52,1.44.44,2.95.92,2.14.68,2.23.74,2.95.92.59.14,1.13.25,2.96.51,2.08.3,3.13.45,4.15.55,2.37.24,2.41.05,6.55.23,3.34.14,3.65.28,5.36.19,1.81-.1,1.97-.28,3.59-.28,1.19,0,2.85,0,4.75.57,1.2.36,2.22.67,2.93,1.33.19.18.52.53,1.16.86.43.22.68.27,1.18.45.92.34,1.35.67,1.76.88.66.35,1.33.43,4.75.57,1.9.08,2.85.12,4.17.15,2.61.05,3.27,0,4.76.17,1.39.15,2.09.22,2.96.51.58.19,1.02.41,3.5,2.17,1.62,1.15,2.43,1.73,2.9,2.15.82.73,1.09,1.09,2.31,2.13,1.15.97,1.55,1.19,1.74,1.29.83.42,1.35.48,2.95.92,1.5.42,2.25.62,2.95.92,1.32.56,2.04,1.23,3.49,2.58,1.27,1.18,1.91,1.77,2.3,2.54.43.85.45,1.67.48,3.29.03,1.73-.14,1.74-.1,2.86.06,1.46.4,2.53,1.03,4.54.77,2.42,1.1,2.61,1.06,3.72-.04,1.26-.5,2.39-.69,2.84-.51,1.21-.78,1.18-1.28,2.41-.53,1.32-.66,2.45-.69,2.84-.11,1.22.13,1.24-.07,2.04-.2.8-.51,1.11-1.28,2.41-1.09,1.85-.76,1.76-1.28,2.41-.88,1.11-2.06,1.67-4.27,2.72-1.56.74-3.21,1.5-4.82,1.47-1.05-.02-1.79-.06-1.79-.06-1.11-.06-1.35-.11-1.79-.06-.89.1-1.36.5-1.81.76-1.51.86-3.71.73-5.38.63-1.42-.08-1.18-.26-4.73-.98-3.02-.61-5.76-1-5.92-1.02-1.41-.2-2.12-.27-3.56-.53-1.74-.33-2.64-.5-3.54-.94-.45-.22-1.55-.76-2.32-1.72-.48-.59-.51-.94-1.15-1.27-.39-.2-.65-.2-1.77-.47-1.15-.27-1.28-.36-1.77-.47-1.59-.34-2.4.14-4.78.24-1.14.05-1.97-.02-2.98-.1-2.12-.18-3.7-.31-5.33-1-1.23-.53-2.31-1.3-2.92-1.74-.11-.08-.14-.1-1.16-.86-1.14-.84-1.71-1.27-1.74-1.29-.25-.17-2.08-1.41-4.7-1.8-1.64-.25-1.65.13-2.98-.1-2.2-.39-3.92-1.73-4.66-3.03-.48-.84-.49-1.57-.5-2.88-.01-1.57.38-1.83.1-2.86-.11-.42-.42-1.57-1.7-2.51-1.27-.94-2.06-.6-4.7-1.8-.88-.4-1.92-.88-2.92-1.74-.39-.33-1.18-1.07-1.71-2.11-.29-.56-.52-1.23-.45-4.11.05-2.18.19-2.38.13-3.68-.08-1.73-.41-3.03-.48-3.29-.57-2.18-1.26-2.57-2.78-5.83-.98-2.1-1.47-3.18-1.63-4.56-.15-1.38-.33-3.26,1.36-4.86.71-.68,1.55-1.11,2.13-1.36Z"/>
      <path class="cls-7" d="m372.91,36.52c-2.39-1.43-5.98-1.3-6.69.31s1.63,4.34,4.31,5.12c1.73.5,4.2.38,4.85-1.11s-.93-3.4-2.48-4.32Z"/>
    </g>
    <path class="cls-5" d="m268.19,80.37c-1.59,2.38-3.39,5.08-4,9-.3,1.94-1.05,6.79,2,11,2.65,3.65,6.59,4.64,8,5,5.04,1.28,9.36-.35,11-1,3.65-1.44,3.9-2.81,9-5,2.24-.96,3.8-1.63,6-2,4.7-.78,5.61.94,12,1,4.39.04,5.11-.76,8,0,2.97.79,3.33,1.93,6,3,2.82,1.12,5.92.77,12,0,6.58-.83,9.91-1.28,12-3,2.35-1.94,4.95-5.71,4-9-.21-.73-.84-2.27-8-6-6.66-3.47-8.24-3.23-12-6-3.55-2.62-5.51-5.31-6-6-1.29-1.83-2.51-4.08-4-9-3.29-10.83-1.53-13.54-5-19-.91-1.43-2.67-4.14-6-6-2.54-1.42-4.47-1.5-10-2-12.91-1.17-12.92-1.67-15-1-.31.1-7.35,2.49-10,9-1.79,4.4.41,5.82,0,15-.26,5.93-.44,9.95-3,14-2.21,3.5-3.83,3.25-7,8Z"/>
  </g>
</svg>