<?xml version="1.0" encoding="UTF-8"?>
<svg id="Layer_2" data-name="Layer 2" xmlns="http://www.w3.org/2000/svg" viewBox="0 0 542.83 509.58">
  <defs>
    <style>
      .cls-1 {
        fill: #f8dfff;
      }

      .cls-1, .cls-2, .cls-3, .cls-4, .cls-5, .cls-6, .cls-7, .cls-8, .cls-9, .cls-10, .cls-11 {
        stroke-width: 0px;
      }

      .cls-2 {
        fill: #2c009f;
      }

      .cls-3 {
        fill: #d4debd;
      }

      .cls-4 {
        fill: #bbcac4;
      }

      .cls-5 {
        fill: #bf3b00;
      }

      .cls-6 {
        fill: #a3caf1;
      }

      .cls-7 {
        fill: #a5b8a1;
      }

      .cls-8 {
        fill: #859792;
      }

      .cls-9 {
        fill: #ffefe7;
      }

      .cls-10 {
        fill: #fff5c9;
      }

      .cls-11 {
        fill: #ffbfd3;
      }
    </style>
  </defs>
  <g id="Layer_1-2" data-name="Layer 1">
    <g>
      <g>
        <path class="cls-5" d="m460.6,284.46c-1.31-.52-3.13,1.19-4.39,2.39-.8.75-3.32,3.29-4.66,7.76-.54,1.81-1.12,3.75-.68,6.29.18,1.06.66,3.63,2.88,5.72,2.01,1.89,4.28,2.3,5.45,2.5,1.79.3,4.07.68,5.8-.64,2.15-1.65,2.06-4.89,2.01-6.78-.07-2.51-.82-4.4-1.55-6.21-1.23-3.07-1.84-2.92-2.88-5.72-1.22-3.29-.88-4.87-1.97-5.3Z"/>
        <path class="cls-5" d="m457.64,276.5c-.19-1.04-1.27-1.72-3.22-2.58-3.19-1.4-5.84-2.01-7.69-2.43-6.71-1.51-7.13-1.58-8.11-1.52-1.81.13-4.61.32-6.63,2.46-2.19,2.33-2.06,5.47-2.01,6.78.18,4.31,2.78,7.18,3.86,8.37,1.45,1.6,3.49,3.85,6.86,4.24.59.07,3.67.37,6.21-1.55,2.34-1.77,1.24-3.17,3.83-5.95,1.83-1.96,3.23-2.18,5.64-5.11.96-1.17,1.39-1.93,1.25-2.73Z"/>
        <path class="cls-5" d="m476.32,286.16c-1.1-.38-2.34-.91-4.05-.76-1.4.12-1.85.58-3.56.57-1.29-.01-1.75-.28-2.23.08-.74.55-.88,2.08-.34,3.14.78,1.54,2.61,1.38,5.45,2.5,2.49.98,4.07,2.28,5.95,3.83,2.94,2.42,2.76,3.3,6.02,6.06,2.18,1.85,3.27,2.77,5.04,3.41,3.01,1.09,4.22.07,7.2,1.1,2.27.79,3.68,2.12,5.04,3.41,3.06,2.9,2.92,4.62,6.1,8.3,1.22,1.41,2.35,2.38,4.62,4.32,4.35,3.71,6.52,5.57,9.17,6.4,1.36.43,6.32,1.99,10.26-.79,3.84-2.7,4.09-7.68,4.17-9.09.25-4.79-2.06-8.32-4.43-11.93-1.22-1.86-3.38-5.09-7.42-7.8-3.05-2.05-5.81-2.9-7.27-3.33-3.89-1.16-4.64-.51-10.34-1.44-2.58-.42-6.4-1.07-10.83-2.77-5.18-1.98-4.47-2.83-8.18-3.75-4.55-1.14-6.06.02-10.34-1.44Z"/>
        <path class="cls-5" d="m463.59,280.33c-.5-.86,1.16-2.63,1.25-2.73,1.17-1.24,2.25-1.42,4.39-2.39,2.93-1.32,2.67-1.77,4.39-2.39,2.34-.83,3.69-.31,6.7-.23,2.1.06,4.52-.37,9.36-1.21,6.68-1.17,5.46-1.58,9.77-2.12,3-.37,4.53-.29,6.21-1.55,1.72-1.29,1.4-2.34,2.99-4.13,1.7-1.9,3.95-2.58,8.37-3.86,4.19-1.22,6.29-1.82,8.45-1.63,4.48.41,7.56,2.92,9.09,4.17,3.68,3.01,5.29,6.49,6.1,8.3.96,2.15,2.42,5.41,2.12,9.77-.12,1.68-.5,7.21-5,10.91-.93.76-3.99,3.06-7.95,2.95-2.19-.06-2.23-.79-6.78-2.01-3.25-.87-5.95-1.23-8.11-1.52-4.3-.57-4.02-.17-6.29-.68-3.65-.82-4.25-1.83-7.69-2.43-2.76-.48-2.5.14-5.38-.27-3.22-.46-5.63-1.53-9.51-3.26-3.43-1.53-3.05-1.66-4.55-2.08-2.61-.75-3-.13-8.52-.61-4.41-.38-4-.76-6.29-.68-1.57.05-2.79.27-3.14-.34Z"/>
        <path class="cls-5" d="m462.04,274.12c-1.29-.62-1.44-3.15-1.06-4.89.34-1.57,1.14-2.63,3.41-5.04,3-3.18,4.12-3.98,6.06-6.02.77-.8,3.12-3.29,5.15-6.44,2.31-3.58,2.59-5.53,4.17-9.09,1.58-3.58,3.6-6.35,7.65-11.89,4.8-6.58,7.29-9.92,11.21-12.46,2.03-1.31,5.07-3.22,9.28-3.45,3.58-.19,6.68.91,7.2,1.1,1.52.55,1.73.87,3.64,1.67,3.63,1.52,4.9,1.24,6.78,2.01,4.02,1.64,5.83,6.02,7.5,10.04,1.16,2.79,2.37,5.73,2.12,9.77-.06.96-.54,7.09-5.42,11.82-3.1,3-6.57,4.08-8.79,4.77-3.92,1.22-4.67.42-8.45,1.63-3.65,1.17-3.87,2.21-8.79,4.77-4.22,2.2-7.54,3.93-11.93,4.43-4.36.5-4.29-.85-10.76-.53-4.92.24-7.37.36-9.77,2.12-1.46,1.07-2.3,2.31-5.23,4.2-2.78,1.8-3.56,1.67-3.98,1.48Z"/>
        <path class="cls-5" d="m455.18,269.87c-1.42-.78-.55-5.22.19-7.61.49-1.59,1.44-3.49,3.33-7.27,1.24-2.47,1.44-2.72,1.67-3.64.69-2.74-.2-4.16-.23-6.7-.04-3.13,1.26-4.11,2.43-7.69,1-3.05.98-5.92.95-11.67-.03-5.45-.53-5.9-.95-14.73-.29-6.21-.15-8.09.11-9.85.57-3.78,1.01-6.7,3.26-9.51,3.82-4.78,9.66-5.24,10.11-5.26,5.46-.34,9.24,2.72,10.42,3.68,5.5,4.46,6.35,11.07,6.74,14.09.22,1.67.93,8.55-2.62,15.3-1.68,3.2-2.52,2.94-6.4,9.17-2.7,4.33-2.58,4.92-4.66,7.76-3.39,4.65-4.44,4.09-6.89,7.84-1.92,2.93-1.09,2.99-4.58,10-2.78,5.58-3.76,6.46-4.24,6.86-2.37,1.97-4.5,2.06-5.23,4.2-.56,1.63.25,2.84-.76,4.05-.65.79-1.92,1.39-2.65.98Z"/>
        <path class="cls-5" d="m449.8,269.61c-1.89-.28-2.98-2.57-4.2-5.23-.94-2.04-.68-2.12-1.48-3.98-1.09-2.53-2.46-4.31-5.19-7.88-.72-.93-1.57-2.05-2.8-3.49-3.32-3.87-3.98-3.81-5.11-5.64-.93-1.5-1.3-3.52-2.04-7.54-.73-3.94-1.09-5.91-.72-8.03.2-1.15.7-4.03,2.92-6.36,1.65-1.74,2.38-1.21,4.81-3.29,2.63-2.26,2.21-3.26,4.32-4.62,2.46-1.59,5.1-1.56,6.21-1.55,1.05,0,3.95.08,6.78,2.01,2.95,2.02,4.05,4.87,4.7,6.55,1.07,2.78,1.11,5.1,1.14,7.12.01,1.34-.06,2.99-1.86,11.25-1.08,4.97-1.62,7.46-2.35,9.92-1.18,4.01-1.55,4.23-2.01,6.78-.71,3.92-1.06,5.88-.61,8.52.34,1.98.97,3.39.15,4.47-.58.76-1.7,1.13-2.65.98Z"/>
      </g>
      <path class="cls-2" d="m205.2,422.51c-2.69.47-2.9.69-5,1-3.2.47-4.8.71-6,0-1.19-.7-.81-1.38-3-5-1.52-2.51-2.26-3.11-2-4,.35-1.18,2.17-1.58,4-2,2.4-.55,3.45-.3,5.5-.5,3-.29,3.47-1.09,7-2,3.64-.94,6.59-.99,8-1,3.76-.04,7.43-.07,11,2,.39.22,1.92,1.48,5,4,3.62,2.96,3.83,3.25,5,4,1.09.7,3.62,2.29,7,3,3.16.66,3.6-.17,9,0,3.58.11,5.51.17,8,1,4.21,1.4,6.92,3.96,8,5,2.51,2.42,2.06,3.1,4,5,2.95,2.89,6.01,3.31,12,5,0,0,5.35,1.51,12,4,9.86,3.69,10.67,5.79,20,9,4.81,1.66,8.84,2.56,11,3,5.35,1.08,7.57,1,16,2,6.96.82,10.44,1.23,14,2,4.84,1.04,11.02,2.37,18,6,4.6,2.4,5.25,3.56,12,7,5.75,2.93,4.37,1.63,9,4,.46.24,2.76,1.42,6,2,1.42.25,2.73.49,3,0,.5-.9-2.83-3.93-6-6-4.06-2.64-6-2.51-12-5-4.79-1.99-4.03-2.28-10-5-5.45-2.48-9.84-3.95-13-5-6.71-2.23-7.65-2.04-14-4-4.32-1.34-9.74-3.01-16-6-5.83-2.78-9.88-5.52-18-11-5.4-3.65-5.14-3.73-10-7-8.68-5.83-15.9-9.85-18-11-11.3-6.21-14.47-6.62-21-12-3.96-3.26-6.46-6.14-8-10-.76-1.91-2.51-6.31-1-11,.69-2.15,2.8-4.44,7-9,1.89-2.05,3.53-3.82,6-6,3.13-2.76,5.24-4.62,8-6,5.43-2.72,10.77-2.3,14-2,2.69.25,6.51.92,17,6,6.68,3.23,10.33,5.48,20,11,11.64,6.65,9.98,5.47,16,9,10.53,6.18,17.02,9.98,25,16,3.63,2.74,8.75,7.16,19,16,3.65,3.15,6.5,5.66,10,9,5,4.77,5.55,5.74,9,9,6.93,6.55,8.28,6.04,15,12,6.93,6.15,10.46,9.29,13,15,2.67,6.01,2.84,11.73,3,17,.12,3.83.17,6.57-1,10-1.92,5.61-5.69,8.89-7,10-5.33,4.52-11.15,5.41-15,6-3.08.47-6.63,1.01-11,0-4.78-1.11-6.16-3.06-14-7-3.27-1.65-4.65-2.12-9-4-10.12-4.38-12.83-6.21-27-13-10.96-5.26-16.45-7.88-22-10-8.54-3.25-8.81-2.63-21-7-8.77-3.14-9.09-3.63-21-8-5.55-2.04-10.38-3.8-17-6-11.71-3.88-12.66-3.67-18-6-7.03-3.07-5.61-3.53-15-8-8.64-4.11-11.32-4.42-17-8-2.66-1.68-5.54-3.05-8-5-1.89-1.5-2.95-2.62-5-3-1.27-.23-2.68.01-5.5.5Z"/>
      <path class="cls-2" d="m269.2,352.51c-.65,2.59-13.08,18.7-16.81,21.12-3.57,2.32-3.67,2.75-5.32,3.58-3.94,1.99-7.58,1.65-11.88,1.2-2.17-.23-3.87-.57-16.01-4.17-5.54-1.64-8.34-2.48-9.71-2.98-6.07-2.24-8.5-3.95-14.56-6.96-8.76-4.34-9.5-3.64-19.9-8.35-7.57-3.43-6.17-3.34-15.78-7.95-16.12-7.74-29.35-12.44-33.5-15.51-1.36-1.01-2.04-1.27-3.4-1.79-1.55-.59-3.29-1.26-4.12-.4-.92.96-.29,3.36.01,4.97.78,4.15.13,7.41-1.18,13.93-1.11,5.52-3.71,8.44-8.21,14.13,0,0-7.03,8.9-14.98,20.5-4.87,7.11-7.67,12.7-13.27,23.88-10.56,21.09-8.42,22.32-13.51,27.66-.9.95-6.04,6.24-7.48,12.74-.87,3.91-.47,7.56-.47,7.56.04.41.12.98.98,4.78,1.48,6.51,1.75,6.99,1.72,8.36-.07,2.93-1.4,4.91-2.65,6.77-2.65,3.93-6.18,5.59-8.71,6.77-2.89,1.35-3.37.94-5.57,2.39-2.58,1.69-4.29,3.8-5.08,4.78-1.63,2.03-1.39,2.33-3.86,5.77-2.76,3.84-3.71,4.37-4.11,4.58-2.1,1.07-2.81-.06-4.85,1-2.15,1.12-1.88,2.65-4.11,4.58-.43.37-1,.8-6.54,2.59-5.28,1.71-5.95,1.7-6.78,1.4-2.09-.78-1.82-2.22-4.86-3.98-2.48-1.43-4.16-1.34-4.61-2.78-.36-1.15.34-2.36.48-2.59.98-1.68,2.87-1.88,3.63-1.99.01,0,2.75-1.4,8.23-4.18,4.49-2.28,7.42-6.26,10.88-10.95,4.51-6.12,6.84-11.54,10.86-20.9,3.31-7.71,3.31-8.99,6.75-16.32,2.88-6.14,4.31-9.21,6.51-12.54,1.11-1.68,2.98-4.33,5.31-8.56,1.02-1.86,1.74-3.31,2.17-4.18,5.4-10.95,8.11-16.42,9.89-20.7,1.83-4.4.92-2.78,5.78-16.12,4.02-11.03,4.11-10.66,6.5-17.51,3.41-9.74,3.09-10.09,6.26-18.71.53-1.44,2.12-5.47,5.3-13.53,1.96-4.96,2.73-6.88,4.1-9.55,2.04-3.99,3.68-6.29,5.31-8.56,2.21-3.07,3.22-3.96,4.11-4.58,1.62-1.13,2.2-.94,4.6-2.19,2.93-1.53,3.31-2.47,5.32-3.58,2.15-1.19,3.71-1.24,7.75-1.59,9.98-.89,8.66-1.35,12.85-1.4,3.22-.04,6.27.37,12.37,1.19,5.5.74,9.65,1.49,16.74,2.78,5.39.98,8.08,1.47,9.46,1.79,6.95,1.61,9.4,2.85,14.8,3.18,2.6.16,2.1-.12,6.06,0,4.81.15,7.72.63,12.37,1.19,6.97.84,5.79.4,12.37,1.19,6.44.77,7.22,1.15,17.7,2.58,6.01.82,5.51.66,7.28.99,2.64.49,9.11,1.84,16.26,5.37,2.31,1.14,4.03,2.19,5.83,3.78,2.05,1.82,3.65,3.87,3.89,4.18,2.04,2.63,3.3,7.62,3.41,9.87.27,5.49-2.82,11.77-2,12"/>
      <g>
        <path class="cls-6" d="m274.2,314.51c-1.82,1.42-2.74,3.42-3,4-.33.72-1.07,2.58-1,5,.09,3.32,1.61,3.9,3,9,.46,1.69.68,3.04,1,5,.77,4.73.38,5.33,1,7,.99,2.66,3.1,4.09,6,6,2.46,1.62,4.22,2.36,11,5,13.2,5.15,11.69,4.36,13,5,3.24,1.58,4.91,2.7,8,3,3.72.36,6.45-.77,7-1,3.59-1.54,5.46-4.21,6-5,1.08-1.59.86-1.99,2-4,1.5-2.66,3.07-4.05,5-6,0,0,3.9-3.95,7-8,3.85-5.04,6.04-7.91,6-12-.05-5.08-3.53-8.55-4-9-3.26-3.15-7.32-3.6-11-4-3.86-.42-4.23.34-10,0-1.8-.11-4.57-.28-8-1-4.89-1.02-5.15-1.89-10-3-3.58-.82-6.42-1.47-10-1-4.32.56-3.87,1.98-9,3-5.2,1.03-7.31-.1-10,2Z"/>
        <path class="cls-4" d="m274.2,285.51c-3.48-.43-6.3.45-8,1-2.92.94-5.23,1.69-7,4-1.92,2.51-2,5.27-2,6,0,3,1.38,5.08,2,6,2.26,3.32,5.57,4.51,7,5,4.47,1.53,8.48.61,11,0,3.84-.93,3.75-1.86,8-3,1.97-.53,5.69-1.52,10-1,4.85.59,5.42,2.48,11,4,3.14.85,3.74.46,11,1,5.85.43,10.54.78,16,2,6.97,1.56,10.84,2.48,14,6,3.21,3.57,3.83,7.76,4,9,.71,5.25-1.22,9.28-3,13-2.37,4.96-5.51,8.46-7,10-3.77,3.9-5.4,3.92-7,7-.41.79-2.58,5.16-1,10,2.14,6.55,9.36,8.55,11,9,1.7.47,6.93,1.91,12-1,1.16-.67,4.61-2.88,6-7,1.58-4.69-1.32-6.48,0-12,.47-1.97.79-1.51,4-8,2.2-4.46,3.31-6.68,4-9,.67-2.25,1.93-6.63,1-12-1.2-6.9-5.32-11.37-7-13-.81-.78-3.17-2.96-13-7-7.25-2.98-8.57-2.87-14-5-13.14-5.16-12.24-8.49-20-10-8.41-1.63-8.51,2.47-20,1-7.58-.97-12.2-1.56-17-4-1.03-.52-3.06-1.64-6-2Z"/>
        <path class="cls-4" d="m277.2,282.51c-2.25-1.43-5.05-3.54-13-13-5.76-6.85-8.64-10.28-11-14-4.77-7.51-8.23-12.96-9-21-.84-8.75,1.97-15.58,3-18,2.63-6.19,6.24-10.12,8-12,1.27-1.36,4.68-4.83,10-8,7.93-4.72,15.22-5.86,23-7,7.7-1.13,12.11-1.77,18-1,10.51,1.38,17.55,6.21,26,12,6.44,4.41,15.06,10.33,22,21,4.32,6.65,4.05,9.08,9,15,3.11,3.71,6.62,6.83,16,13,15.89,10.46,17.33,9.09,25,15,7.21,5.55,15.31,11.78,19,23,.46,1.41,5.23,16.69-3,31-1.04,1.8-4.43,7.56-11,12-4.57,3.09-5.68,2.17-15,7-7.06,3.66-10.59,5.49-13,8-2.84,2.96-4.56,4.31-8,7-2.07,1.62-3.24,2.4-4,2-1.54-.81-.29-5.91,0-7,1.43-5.48,3.64-6.22,5-10,1.99-5.52-.2-10.99-3-18-1.63-4.08-2.9-7.15-6-10-2.34-2.15-4.59-3.13-9-5-4.54-1.92-6.03-2-12-4-1.29-.43-6.71-2.26-13-5-8.48-3.69-8.24-4.55-13-6-5.37-1.64-9.9-1.83-14-2-8.6-.36-9.53,1.04-15,0-5.78-1.1-9.85-3.63-12-5Z"/>
        <path class="cls-4" d="m264.7,179.01c-6.31-4.55-9.51-6.86-12-11-1.16-1.92-5.13-8.53-3-16,2.06-7.23,8.54-10.69,11-12,7.67-4.1,15.24-3.18,25-2,3.58.43,10.98,1.57,20,5,9.35,3.56,15.76,7.81,22,12,7.77,5.22,8.03,6.42,21,16,11.12,8.21,9.85,6.54,14,10,6.47,5.4,7.64,7.88,23,26,7.28,8.59,10.92,12.88,13,15,5.6,5.7,9.17,8.47,14,15,6.85,9.26,6.56,13.02,6,15-1.14,4.02-4.83,5.92-5,6-1.22.6-4.22,1.73-14-2-4.89-1.86-9-3.43-14-7-1.61-1.15-6.02-4.44-17-19-7.97-10.57-6.84-10.42-11-15-6.01-6.62-11.7-10.6-18-15-7.28-5.09-10.96-7.66-17-10-3.15-1.22-9.98-3.8-19-4-6.82-.15-6.86,1.24-15,1-9.65-.28-14.6-2.37-16-3-2.81-1.26-4.57-2.53-8-5Z"/>
        <path class="cls-4" d="m289.7,128.01c-1.09-1.98-3.58-6.49-2-11,1.57-4.49,6.24-6.31,8-7,7-2.73,13.84.1,16,1,4.47,1.85,4.6,3.36,11,7,0,0,4.81,2.74,11,5,9.13,3.33,15.06,1.86,32,2,12.51.1,18.76.15,27,2,8.91,2,15.64,3.51,22,9,11.01,9.5,12.45,23.64,13,29,.28,2.74.86,10.62-2,20-2.13,6.98-4.29,14.1-11,18-6.07,3.53-12.61,2.52-16,2-2.01-.31-9.04-1.49-15-7-3.54-3.28-3.49-5.11-7-10-1.42-1.98-3.37-4.37-15-14-8.59-7.11-12.88-10.66-19-15-9.31-6.6-13.96-9.9-19-12-5.78-2.41-11.64-3.83-21-8-1.49-.66-5.29-2.39-9-6-1.2-1.16-2.7-2.65-4-5Z"/>
        <path class="cls-4" d="m337.7,64.01c-2.08-.18-10.18-.62-17,5-5.58,4.6-7.13,10.63-8,14-.81,3.16-2.26,8.79,0,15,1.86,5.1,5.27,7.99,10,12,2.63,2.22,5.97,5.06,11,7,3.81,1.47,6.95,1.8,15,2,9.57.24,14.31,0,24,0,4.2,0,10.79.04,19,1,7.22.85,10.31,1.78,13,4,1.56,1.28,2.45,2.57,5,4,2.32,1.31,4.93,2.77,8,2,2.81-.7,5.25-3.08,6-6,1.22-4.71-2.53-8.54-3-9-2.57-2.55-5.11-2.35-14-4-6.54-1.21-9.81-1.82-13-3-6.35-2.35-10.48-5.91-14-9-4.37-3.83-3.51-4.15-14-16-2.06-2.33-5.72-6.41-11-11-3.28-2.85-5.72-4.63-9-6-3.16-1.32-6.01-1.81-8-2Z"/>
        <path class="cls-4" d="m357.7,39.01c-3.2.44-6.75,2.6-8,6-1.18,3.2.19,6.12,2,10,.95,2.04,2.86,5.57,8,11,5.25,5.53,6.13,4.88,11,10,2.64,2.78,1.89,2.46,9,11,4.99,6,6.51,7.54,9,9,4.17,2.45,8.04,2.9,9,3,2.52.25,10.84,1.08,16-5,4.32-5.08,4.07-12.22,2-17-2.63-6.06-8.37-8.76-11-10-6.21-2.92-9.02-1.22-16-5-3.76-2.04-6.31-4.36-7-5-4.2-3.91-3.64-5.46-8-10-4.71-4.91-8.62-6.5-10-7-1.91-.7-3.69-1.32-6-1Z"/>
        <path class="cls-4" d="m383.7,25.01c-2.13.5-6.36,1.49-8,5-1.67,3.57.32,7.61,1,9,1.12,2.28,2.1,2.76,5,6,4.41,4.92,3.91,5.78,7,9,2.34,2.44,5.33,5.56,10,7,1.33.41,8.98,2.76,15-2,5.18-4.1,6.15-11.07,5-16-1.53-6.56-6.92-10.02-10-12-2.84-1.82-5.23-2.55-10-4-6.46-1.97-10.33-3.09-15-2Z"/>
        <path class="cls-4" d="m402.7,1.01c-2.84,1.36-4.22,3.66-5,5-1.12,1.93-3.42,5.87-2,10,1.69,4.92,7.48,6.74,11,7,1.37.1,4.95.36,8-2,3.99-3.09,5.17-9.23,3-14-2.07-4.55-6.88-7.16-11-7-1.99.08-3.55.78-4,1Z"/>
        <path class="cls-1" d="m408.7,7.01c-.09-.42-.49-2.42-2-3-1.82-.7-4.22,1.08-5,3-.41,1.02-.28,2.01,0,4,.35,2.5.91,2.91,1,5,.09,1.96-.35,2.83,0,3,.59.28,2.84-1.68,3-4,.1-1.36-.57-2.21,0-3,.49-.68,1.18-.33,2-1,1.15-.94,1.24-2.81,1-4Z"/>
        <path class="cls-1" d="m397.7,51.01c-.76-1.15-.52-2.78,0-6,.56-3.49,1.51-7.07,2-7,.45.07-.34,3.21,1,4,1.35.8,3.13-1.79,7-2,1.05-.06,3.03-.17,4,1,1.57,1.88-.42,5.93-2,8-.84,1.11-2.73,3.59-6,4-.21.03-4.35.49-6-2Z"/>
        <path class="cls-1" d="m392.7,45.01c1.12.29,2.66-2.41,3-3,1.44-2.51,2.22-6.24,1-7-.93-.58-2.93.63-4,2-2.23,2.86-1.35,7.65,0,8Z"/>
        <path class="cls-1" d="m385.7,43.01c-.89-.26-.94-2.48-1-5-.06-2.7-.09-4.74,1-7,.5-1.04,1.08-1.79,2-3,1.02-1.34,1.63-2.14,2-2,.46.17.07,1.62,0,5-.05,2.29.11,2.31,0,4-.14,2.08-.24,3.48-1,5-.66,1.32-2.08,3.27-3,3Z"/>
        <path class="cls-1" d="m360.7,59.01c-1.15-.32-1.82-3.01-1-5,.38-.91,1.25-1.61,3-3,2.14-1.7,2.64-1.63,4-3,1.27-1.28,1.61-2.12,2-2,.56.18.79,2.27,0,4-.99,2.17-2.63,1.66-4,4-.96,1.63-.63,2.69-2,4-.42.4-1.26,1.21-2,1Z"/>
        <path class="cls-1" d="m355.7,51.01c-.39-.18-.06-2.27,1-4,.54-.88,1.36-1.6,3-3,1.7-1.46,2.57-2.19,3-2,.78.34,1.02,2.63,0,4-.9,1.22-2.04.69-4,2-2.06,1.38-2.63,3.18-3,3Z"/>
        <path class="cls-1" d="m367.7,63.01c.07-.75.17-1.94,1-3,.99-1.26,1.86-.87,3-2,1.69-1.67,1.13-3.85,2-4,.79-.14,2.13,1.49,2,3-.09,1.05-.82,1.24-2,3-1.16,1.74-.81,2.12-2,4-.71,1.13-2.04,3.25-3,3-.93-.24-1.12-2.63-1-4Z"/>
        <path class="cls-1" d="m372.7,69.01c-.51-.55,1.54-2.34,3-6,1.41-3.52,1.13-5.89,2-6,.76-.1,1.69,1.65,2,3,.53,2.33-.58,4.28-1,5-1.02,1.77-2.42,2.65-3,3-.31.19-2.51,1.53-3,1Z"/>
        <path class="cls-1" d="m377.7,73.01c-.16-.5.23-.94,2-3,2.38-2.78,2.62-3.07,3-3,1.07.19,2.08,2.99,1,5-.92,1.71-2.89,1.99-3,2-1.09.13-2.73-.15-3-1Z"/>
        <path class="cls-1" d="m383.7,80.01c2.87-1.72,4.55-2.74,6-5,1.28-2,1.6-3.78,2-6,.36-1.98.65-3.63,0-4-.93-.53-3.46,1.71-5,4-1.28,1.91-.72,2.15-2,4-1.74,2.51-3.21,2.72-4,5-.05.13-.81,2.41,0,3,.32.23.93.24,3-1Z"/>
        <path class="cls-1" d="m386.7,83.01c.34.44,2.54-.75,3-1,1.53-.83,2.75-1.8,4-3,2.42-2.33,4.57-4.4,4-6-.14-.41-.5-.9-1-1-1.04-.2-1.74,1.52-4,4-1.63,1.79-2.08,1.8-4,4-1.07,1.23-2.29,2.63-2,3Z"/>
        <path class="cls-1" d="m389.7,87.01c1.88-.12,3.17-.89,5-2,1.06-.65.69-.54,5-4,1.6-1.29,2.34-1.85,3-3,.14-.25.62-1.11,1-3,.41-2.05.79-5.77,0-6-.6-.17-1.38,1.79-4,6-2.43,3.9-3.64,5.85-5,7-4.09,3.45-9.07,3.05-9,4,.04.62,2.21,1.11,4,1Z"/>
        <path class="cls-1" d="m394.7,92.01c3.39,1.17,6.56.44,8,0,1.51-.46,5.95-1.82,8-6,1.31-2.67,1.81-6.81,0-8-1.73-1.13-4.84.89-5,1-1.68,1.12-1.6,2.05-4,5-1.7,2.1-2.55,3.14-4,4-3.03,1.79-5.87,1.16-6,2-.11.7,1.81,1.59,3,2Z"/>
        <path class="cls-1" d="m333.7,71.01c-.9-.4-1.89.76-6,4-4.18,3.3-4.28,2.98-5,4-1.09,1.54-1.39,4.02-2,9-.38,3.14-.43,4.93,0,7,.25,1.2.79,3.82,2,4,.83.13,1.43-.99,3-3,3.64-4.65,4.85-4.29,6-7,.92-2.18-.03-2.03,1-6,.89-3.44,1.79-4.25,2-7,.08-1.04.34-4.41-1-5Z"/>
        <path class="cls-1" d="m344.7,67.01c-.5-.77-1.38-2.12-2-2-.78.15-.88,2.54-1,4-.52,6.46-2.69,11.79-4,15-1.49,3.66-2.18,3.91-3,7-.69,2.6-.85,4.88-1,7-.15,2.14-.1,3.76,0,7,.16,5.05.46,5.74,1,6,1.12.54,2.99-.91,4-2,2.09-2.25,1.92-4.47,3-9,.92-3.84,1.15-2.67,3-9,1.84-6.27,1.99-8.69,2-10,0-.83-.04-1.82,0-4,.04-2.53.13-2.86,0-4-.06-.57-.27-2.14-1-4-.41-1.04-.77-1.65-1-2Z"/>
        <path class="cls-1" d="m355.7,75.01c-.2-1.65-.44-2.9-1-3-.94-.17-2.33,2.96-3,5-.69,2.1-.66,3.18-1,5-.57,3.1-1.36,3.76-3,8-.56,1.44-1.99,5.19-3,10-1.17,5.57-.49,6.5-2,9-.56.93-1.42,2.08-1,3,.4.88,1.89,1.36,3,1,1.62-.52,2.06-2.71,3-6,0,0,.6-2.1,3-9,2.48-7.12,3.79-6,5-11,.97-4.01.63-6.82,0-12Z"/>
        <path class="cls-1" d="m356.7,98.01c1.55-4.7,3.2-5.28,4-9,.54-2.54.35-4.94,0-5-.33-.05-.59,2.13-2,5-1.67,3.4-2.84,3.44-4,6-1.2,2.65-.21,3.17-1,8-.91,5.53-2.81,8.49-2,9,.56.35,2.12-.66,3-2,1.37-2.08.37-3.84,1-8,.27-1.78.69-3.06,1-4Z"/>
        <path class="cls-1" d="m359.7,111.01c1.76-5.38,1.73-5.5,2-6,1.19-2.25,2.55-1.47,5-4,2.3-2.37,4.14-6.2,3-9-.05-.12-.81-1.93-2-2-.7-.04-1.36.54-3,3-1.72,2.59-1.92,3.35-3,5-2.27,3.47-3.18,2.82-4,5-.78,2.07-.47,4.01,0,7,.15.93.47,2.98,1,3,.33.01.61-.8,1-2Z"/>
        <path class="cls-1" d="m366.7,112.01c1.38.93,4.98-1.26,7-4,.48-.66,3.23-4.55,2-8-.45-1.27-1.15-1.65-2-4-.63-1.75-.78-3.02-1-3-.34.03.38,2.98-1,6-.26.57-1.17,1.72-3,4-1.56,1.95-2.65,3.19-3,5-.17.89-.1,1.55,0,2,.07.32.34,1.55,1,2Z"/>
        <path class="cls-1" d="m378.7,110.01c.09.67.4,1.12,1,2,.84,1.23,1.32,1.92,2,2,1.36.16,2.6-2.23,3-3,.51-.99,1.45-2.78,1-5-.44-2.2-2.13-4.24-3-4-.41.11-.32.64-1,2-.72,1.43-1.11,1.42-2,3-.72,1.28-1.13,2.04-1,3Z"/>
        <path class="cls-1" d="m389.7,115.01c.22-1.51-.12-1.73,0-3,.14-1.48.74-2.55,1-3,.32-.55,1.23-2.15,2-2,.43.08.61.67,1,2,1.43,4.91,1.38,5.5,1,6-.38.5-.92.67-2,1-.3.09-2.48.77-3,0-.16-.23-.08-.47,0-1Z"/>
        <path class="cls-1" d="m413.7,112.01c-.43-.08-.63.55-2,2-1.9,2.02-2.49,1.85-3,3-.65,1.46-.26,2.98,0,4,.27,1.04.44,1.7,1,2,1.11.59,3.03-.63,4-2,.86-1.2.92-2.43,1-4,.09-1.76-.08-4.83-1-5Z"/>
        <path class="cls-1" d="m405.7,111.01c-.84.03-1.34.89-2,2-.61,1.03-.78,1.9-1,3-.22,1.1-.32,1.66,0,2,.43.44,1.37.32,2,0,.79-.4.78-.97,2-3,.78-1.3,1.03-1.48,1-2-.06-.98-1.03-2.04-2-2Z"/>
        <path class="cls-1" d="m298.2,124.51c1.67-.06,2.67-2.26,3-3,.93-2.05,1.31-5.3,0-6-1.11-.59-3.04.84-4,2-1.36,1.63-2.25,4.43-1,6,.04.05.85,1.04,2,1Z"/>
        <path class="cls-1" d="m309.7,118.01c1.05-.75,1.97-1.19,2-2,.04-.89-.99-1.93-2-2-.79-.06-1.57.47-4,4-2.28,3.3-3.43,5-4,7-.45,1.58-1.06,3.86,0,6,.56,1.12,1.57,2.19,2,2,.47-.2-.05-1.71,0-4,.02-.74.08-2.89,1-5,.86-1.99,2.64-4.32,5-6Z"/>
        <path class="cls-1" d="m316.7,123.01c-.63-1.18-2.62-1.54-4-1-.53.21-.99.55-3,4-1.22,2.1-1.84,3.16-2,4-.14.7-.64,3.32,1,5,1.17,1.19,3.24,1.72,4,1,.61-.58-.13-1.52,0-4,.08-1.44.15-2.79,1-4,1.08-1.54,2.43-1.43,3-3,.09-.24.43-1.19,0-2Z"/>
        <path class="cls-1" d="m324.7,123.01c-.02-.27-.1-1.47-1-2-.62-.36-1.42-.29-2,0-.66.33-.93.91-2,4-.44,1.27-.71,2.1-1,3-.98,3.04-1.03,3.46-1,4,.05.84.37,1.56,1,3,.84,1.92,1.29,2.94,2,3,.89.07,1.69-1.41,2-2,1.01-1.9,1.02-3.83,1-6-.02-2.58-.39-2.8,0-4,.42-1.27,1.08-1.78,1-3Z"/>
        <path class="cls-1" d="m330.7,129.01c-.05-.25-.52-2.77-2-3-.72-.11-1.58.33-2,1-.67,1.06.19,1.99,0,4-.09.92-.27.76-1,3-.69,2.13-1.09,3.4-1,5,.02.38.15,2.82,1,3,1.12.24,2.83-3.62,3-4,.12-.28.41-1.18,1-3,.64-1.99.89-2.86,1-4,.08-.79.13-1.3,0-2Z"/>
        <path class="cls-1" d="m334.7,126.01c-.26.07,1.71,3.84,0,7-.93,1.71-2.16,1.82-3,4-.17.43-1.14,2.96,0,4,.72.65,2.09.53,3,0,1.87-1.09,1.95-3.98,2-6,.14-5.09-1.74-9.07-2-9Z"/>
        <path class="cls-1" d="m341.7,153.01c.81.23,2.38-1.79,3-4,.41-1.48.1-1.99,0-5-.15-4.71.58-4.73,0-7-.4-1.58-.68-1.27-2-5-.47-1.32-.66-1.99-1-2-.57-.02-.82,1.83-2,5-1.29,3.46-1.77,3.33-2,5-.38,2.77.66,5.2,1,6,.76,1.79,1.34,1.97,2,4,.62,1.9.48,2.86,1,3Z"/>
        <path class="cls-1" d="m348.7,155.01c.66,1.45.77,2,1,2,.41,0,.7-1.87,1-4,.67-4.7,1.01-7.05,1-8-.02-2.88-.53-2.07-1-7-.2-2.05-.33-4.5-1-8-.45-2.33-.73-3-1-3-.55,0-.95,2.68-1,3-.28,1.93-.11,3.14,0,5,.12,2,0,4,0,6v6c-.25,2.83-.78,4.34,0,6,.2.42.49.87,1,2Z"/>
        <path class="cls-1" d="m356.7,164.01c.27.45.62,1.04,1,1,.4-.04.6-.74,1-2,.32-1,.72-1.98,1-3,.67-2.47,1.26-2.82,2-5,1.06-3.1,1.02-5.78,1-7-.03-1.26-.09-3.43-1-6-.81-2.27-1.19-1.8-2-4-.85-2.31-.76-3.74-2-8-.39-1.35-.62-1.96-1-2-.74-.07-1.71,2.05-2,4-.18,1.23.03,1.6,0,3-.04,2.22-.61,3.22-1,5-.36,1.66-.24,3.44,0,7,.2,2.87.33,2.06,1,8,.23,2.01.83,3.98,1,6,0,.07.13,1.51,1,3Z"/>
        <path class="cls-1" d="m364.7,154.01v4c-.01,3.23-.06,3.65,0,5,.14,3.13.22,4.7,1,5,.86.33,2.23-.95,3-2,.55-.76,2.02-3.08,1-10-.71-4.8-1.57-4.78-2-9-.25-2.47-.16-4.51,0-8,.18-3.91.49-5.35,0-8-.42-2.27-1.35-5.07-2-5-.66.07-.83,3.06-1,6-.18,3.11-.03,4.17,0,10v12Z"/>
        <path class="cls-1" d="m370.7,174.01c-.76-.15-1.18-2.22-1-4,.21-2.09,1.13-2.76,2-5,.87-2.25.94-4.13,1-6,.06-1.7-.29-3.82-1-8-.34-2-.67-4-1-6-.58-3.48-.87-5.19,0-7,.23-.47.92-1.92,2-2,1.45-.11,2.67,2.33,3,3,1.22,2.45,1.06,4.38,1,10-.05,4.66-.07,6.99,0,8,.29,4.09.87,5.55,0,8-.45,1.28-1.25,2.68-2,4-.08.14-.81,1.42-2,3-1.04,1.39-1.58,2.08-2,2Z"/>
        <path class="cls-1" d="m380.7,179.01c.27.08,1.29.21,4-4,2.31-3.6,4.2-6.54,5-11,.49-2.73,0-6.49-1-14-.57-4.32-1.03-6.26-1-10,.01-1.67-.01-3.33,0-5,.03-4.52.11-6.29-1-7-.62-.4-1.55-.41-2,0-.61.56-.18,1.78,0,3,.24,1.65-.13,2.46-1,6-.94,3.82-1.65,6.69-2,10-.36,3.38-.54,5.07,0,7,.65,2.32,1.63,3.12,2,6,.24,1.87.07,3.43,0,4-.2,1.52-.45,1.66-1,4-.84,3.56-.33,3.53-1,5-.92,2.01-2.07,2.47-2,4,.03.73.35,1.81,1,2Z"/>
        <path class="cls-1" d="m385.7,185.01c.61.07,3.16.21,7-4,.69-.75,3.72-4.18,6-11,1.33-4,2.66-7.98,2-13-.04-.31-.69-2.87-2-8-1.58-6.21-.14-.28-2-7-1.04-3.74-1.29-4.89-2-5-1.06-.16-2.38,2.16-3,4-.93,2.76-.45,4.96,0,8,.49,3.27,1.07,7.18,1,11-.09,4.8-1.21,8.48-2,11-1.45,4.67-2.18,7-4,9-1.47,1.62-3.38,2.94-3,4,.29.82,1.75.97,2,1Z"/>
        <path class="cls-1" d="m395.7,190.01c3.81-.46,8-6,8-6,2.19-2.9,6.09-8.05,6-15-.04-3.34-.95-2.86-2-10-.81-5.54-1-10-1-10-.19-4.55.05-7.71-2-11-.06-.09-1.4-2.23-2-2-.53.21.11,2.06,0,5-.09,2.65-.67,2.86-1,6-.25,2.38-.13,4.19,0,6,.24,3.4.65,3.86,1,7,.32,2.85.63,5.62,0,9-.55,2.94-1.56,5.03-3,8-1.31,2.69-1.96,4.04-3,5-1.83,1.69-3.39,1.77-5,4-.46.64-1.5,2.08-1,3,.41.75,1.7.87,3,1,.97.1,1.75.03,2,0Z"/>
        <path class="cls-1" d="m396.7,197.01c-.27-.49,1.3-1.6,6-6,2.79-2.61,4.2-3.94,5-5,2.73-3.62,3.67-7.31,4-9,.42-2.14.29-4.46,0-9-.36-5.64-1-11-1-11-.22-1.84-.66-5.27,0-9,.2-1.12.59-2.81,2-4,.41-.35,1.19-1,2-1,3.21,0,5.6,10.2,6,12,1.39,6.21,1.14,11.17,1,13-.18,2.41-.74,7.28-3,13-1.95,4.93-3.36,8.48-7,11-1.35.93-3.23,1.62-7,3-3.15,1.15-7.58,2.77-8,2Z"/>
        <path class="cls-1" d="m265.2,174.51c-1.22.77-4.8-2.18-7-5-1.11-1.42-3.72-4.86-4-10-.1-1.8.6-4.2,2-9,.36-1.22.69-2.25,1.5-2.5,1.29-.4,3.09,1.4,4,3,.38.67.91,1.84,1,6,.11,5.24-.69,5.52,0,8,.7,2.51,1.05,3.76,2,5,.28.36.82,1.01,1,2,.14.77.12,2.11-.5,2.5Z"/>
        <path class="cls-1" d="m274.7,176.01c-2.14-1.99-2.4-4.59-3-7-1.26-5.06-2.69-4.01-4-9-1.17-4.47.26-4.24-1-10-.43-1.98-.98-3.73,0-5,.76-.99,2.3-1.51,3-1,.82.6.29,2.44,0,4-.83,4.5.07,8.21,1,12,.86,3.54,1.76,7.21,4,10,.17.21,1.4,1.72,2,4,.1.38.69,2.61,0,3-.57.32-1.76-.77-2-1Z"/>
        <path class="cls-1" d="m281.7,176.01c-2.45.31-5.52-9.41-6-11-.41-1.33-.01-.26-2-11-.41-2.24-1.01-5.41,0-9,.56-1.98,1.23-2.76,2-3,1.31-.42,2.7.75,3,1,.7.59,1.53,1.62,2,4,.51,2.55.17,4.47,0,6-.33,2.95-.93,8.2,1,13,1,2.5,2.18,3.61,2,6-.12,1.6-.87,3.86-2,4Z"/>
        <path class="cls-1" d="m291.7,180.01c-1.35-.16-2.33-2.05-4-8-1.22-4.33-2.26-8.13-3-14-.04-.3-.55-4.6,0-10,.26-2.5.64-4.23,2-5,.86-.49,2.2-.64,3,0,1.17.94.61,3.13,0,7-.59,3.74-.99,6.32-1,9,0,1.82-.02,6.43,2,11,.73,1.64,1.26,3.37,2,5,.87,1.91,1.52,3.07,1,4-.36.65-1.25,1.09-2,1Z"/>
        <path class="cls-1" d="m296.7,176.01c-1.87-.05-3.13-5.95-4-10-.54-2.55-1.1-5.89-1-10,.11-4.44.88-6.04,2-7,.26-.22,1.59-1.37,3-1,1.16.3,1.75,1.48,2,2,1.06,2.2.4,4.18,0,7-.54,3.77-1.23,8.64,0,13,.19.68.71,2.36,0,4-.3.69-1.1,2.02-2,2Z"/>
        <path class="cls-1" d="m305.7,179.01c-1.1.09-3.3-5.39-3-11,.22-4.23,1.63-4.15,3-11,1-5.04.75-7.66,2-8,1.26-.34,3.17,1.91,4,4,.47,1.18.63,2.4,0,7-.64,4.64-.96,6.96-2,10-1.15,3.36-1.48,2.73-3,7-.49,1.37-.64,1.97-1,2Z"/>
        <path class="cls-1" d="m312.7,180.01c.66.1,1.13-1.7,3-5,2.28-4.02,2.78-3.46,4-6,.22-.47,2.61-5.61,1-11-.32-1.06-.85-2.77-2-3-1.24-.24-2.5,1.36-3,2-.76.96-1.42,2.21-2,5-.79,3.76-.2,4.43-1,8-.51,2.28-.82,2.32-1,4-.29,2.69.14,5.87,1,6Z"/>
        <path class="cls-1" d="m319.7,183.01c-.78-.15-1.08-2.36-1-4,.1-2.21.88-3.07,2-6,.49-1.29,1-3.19,2-7,1.2-4.55,1.39-5.96,2-6,.82-.05,1.69,2.36,2,4,.29,1.53.16,2.7,0,4-.37,3.05-1.3,5.32-2,7-.7,1.68-1.32,2.78-2,4-1.47,2.63-2.32,4.14-3,4Z"/>
        <path class="cls-1" d="m329.7,188.01c1.43.06,2.56-2.6,4-6,1.57-3.71,2.35-5.61,2-8-.27-1.84-1.27-4.79-3-5-1.32-.16-2.49,1.35-3,2-1.13,1.45-1.22,2.58-2,8-.58,4.05-.81,5.38,0,7,.27.54.98,1.96,2,2Z"/>
        <path class="cls-1" d="m337.7,192.01c-1.03-.2-1.35-3.97-1-7,.29-2.52.77-2.13,2-7,.8-3.16.91-4.58,2-5,1.02-.4,2.31.32,3,1,1.52,1.5,1.24,3.9,1,6-.06.53-.39,3.14-2,6-.41.72-1.27,1.81-3,4-1.46,1.84-1.72,2.05-2,2Z"/>
        <path class="cls-1" d="m345.7,199.01c.33.06,1.17.01,3-3,1.06-1.75,2.21-3.69,3-7,.77-3.26,1.39-5.83,0-8-.74-1.16-2.15-2.34-3-2-.9.36-.44,2.11-1,5-.64,3.35-1.7,3.32-3,8-.54,1.95-.97,4.13,0,6,.41.79.76.96,1,1Z"/>
        <path class="cls-1" d="m352.7,204.01c-1.81-1.12-.71-5.88,0-8,.34-1.03.84-2.47,2-4,1.33-1.75,2.05-1.67,4-4,1.17-1.4,1.41-2.01,2-2,1.11.03,2.43,2.25,2,4-.34,1.39-1.5,1.3-3,3-1.38,1.56-1.92,3.37-3,7-.63,2.12-.85,3.46-2,4-.51.24-1.36.4-2,0Z"/>
        <path class="cls-1" d="m358.7,211.01c2.23.06,4.16-2.92,5-5,.84-2.08.19-2.26,1-6,.8-3.69,1.79-5.17,1-6-.66-.69-2.12-.47-3,0-.38.2-1.18.73-2,3-.97,2.69-.26,3.08-1,5-.9,2.33-2.17,2.3-3,5-.62,1.99-.16,2.77,0,3,.45.66,1.3.98,2,1Z"/>
        <path class="cls-1" d="m362.7,217.01c2.16.84,4.68-.59,6-2,.99-1.06,1.37-2.17,2-4,.48-1.4.33-1.51,1-4,.75-2.8,1.03-2.96,1-4-.04-1.48-.66-3.72-2-4-1.17-.24-2.42,1.09-3,2-1.07,1.67-.29,2.59-1,5-.62,2.1-1.85,3.61-3,5-1.86,2.26-3.15,2.83-3,4,.16,1.26,1.82,1.93,2,2Z"/>
        <path class="cls-1" d="m367.7,224.01c1.41,1.04,3.74.15,5-1,1.35-1.23,1.37-2.65,2-6,1.11-5.91,2.43-8.83,2-9-.35-.14-1.11,1.88-4,6-2.02,2.87-3.02,4.31-4,5-.85.6-1.71,1.02-2,2-.3,1.03.12,2.35,1,3Z"/>
        <path class="cls-1" d="m373.7,227.01c-1.56,1.48-1.79,1.53-2,2-.67,1.48.18,4.07,2,5,2.11,1.07,4.75-.49,6-2,1.46-1.77.49-2.82,2-6,1.22-2.56,2.16-2.53,3-5,.28-.83,1.33-3.9,0-5-.81-.67-2.2-.37-3,0-.88.41-1.35,1.03-3,4-1.93,3.48-2.03,3.96-3,5-.35.37-1.13,1.17-2,2Z"/>
        <path class="cls-1" d="m381.7,240.01c.82.56,1.8.32,3,0,.92-.24,2.46-.67,4-2,.4-.34,2.34-2.08,3-5,.4-1.77-.17-1.79,0-5,.17-3.12.77-4.3,0-5-.76-.69-2.22-.36-3,0-.84.38-1.41,1.02-2,2-1.51,2.51-.81,3.37-2,6-1.52,3.36-3,5-3,5-.33.37-.98,1.05-1,2-.02.74.35,1.56,1,2Z"/>
        <path class="cls-1" d="m387.7,243.01c-.19.55-.76,2.24,0,3,.23.23.75.54,3,0,2.34-.57,3.68-.89,5-2,2.74-2.31,2.91-5.89,3-8,.08-1.83-.11-4.83-1-5-.68-.13-.98,1.54-3,4-1.33,1.62-1.82,1.66-5,5-.75.79-1.54,1.65-2,3Z"/>
        <path class="cls-1" d="m397.7,250.01c-.14-.92,3.07-1.05,5-4,.97-1.48.93-2.62,2-3,1.05-.37,2.3.29,3,1,.77.79,1.17,1.96,1,3-.4,2.51-3.96,3.71-6,4-2.26.32-4.88-.18-5-1Z"/>
        <path class="cls-1" d="m254.2,248.51c-.76.24-3.78-4.99-5-11-1.02-4.99-.5-9.07,0-13,.06-.49,1.04-8.04,2-8,.84.03,1.39,5.86,1.5,9.5.12,3.88-.3,4.41,0,8,.21,2.49.46,2.88,1,7,.64,4.9.96,7.35.5,7.5Z"/>
        <path class="cls-1" d="m257.7,233.01c-.1.02.03.99,0,1-.08.01-1.62-5.31-2-12-.29-5.07-.47-8.25,1-12,1.77-4.49,5.46-8.61,7-8,.78.31.87,1.78,1,4,.04.73.14,3.18-1,8-.6,2.54-.78,2.48-1,4-.18,1.27-.15,1.95,0,6,.02.52.13,3.45,0,7-.09,2.44-.22,3.43-1,4-.84.61-2.23.62-3,0-.84-.67-.88-2.02-1-2Z"/>
        <path class="cls-1" d="m273.7,273.01c-1.64-.82-2.68-2.52-4-8-1.67-6.91-1.96-12.28-2-13-.07-1.35-.05-4.23,0-10,.07-8.5.16-8.49,0-10-.66-6.38-2.27-6.93-2-11,.22-3.37,1.5-5.61,4-10,1.26-2.2,4.08-6.74,9-11,1.85-1.6,4.01-3.17,7-4,.99-.27,4.22-1.17,5,0,.83,1.25-1.56,4.21-3,6-2.24,2.78-4.34,4.45-5,5-4.24,3.55-5.54,8.39-7,13-1.52,4.79-1.75,8.64-2,13-.25,4.24.17,3.49,0,10-.2,7.83-.8,9.14,0,13,.87,4.16,2,7,2,7,.52,1.3,1.37,3.19,2,6,.66,2.9.37,3.62,0,4-.86.89-2.76.62-4,0Z"/>
        <path class="cls-1" d="m284.7,264.01c-1.02.35-2.92-1.93-4-4-1.98-3.79-1.29-6.98-1-14,0,0,.21-5.25,0-11-.36-9.84-1.64-11.54,0-15,.39-.83.43-.66,6-7,3.79-4.32,5.69-6.48,6-7,2.94-4.9,2.2-7.96,6-12,.57-.61,2.25-2.4,3-2,1.12.6-.58,5.74-1,7-.84,2.55-2.04,6.05-5,10-3.43,4.56-5.08,4.2-7,8-1.35,2.67-1.64,5.02-2,8-.36,2.95-.09,3.61,0,11v18c.05.66.22,2.97,0,6-.26,3.6-.77,3.92-1,4Z"/>
        <path class="cls-1" d="m294.7,284.01c-1.76.18-4.13-5.74-5-11-.56-3.37-.22-4.78,0-11,.16-4.46.11-8.31,0-16-.14-10.17-.5-10.96,0-15,.35-2.85.9-7,3-12,1.17-2.78,2.97-7.06,7-11,3.26-3.18,3.74-2.01,8-6,2.23-2.09,3.85-4.05,7-5,.39-.12,3.38-.99,4,0,.42.66-.38,1.9-2,4-3.69,4.79-6,7-6,7-5.25,5.02-7.87,7.53-9,9-3.05,3.97-4.3,7.79-5,10-2.16,6.8-1.69,12.57-1,21,.62,7.61,1.57,8.91,1,14-.5,4.43-1.44,5.44-1,9,.43,3.47,1.69,5.47,1,9-.14.7-.75,3.87-2,4Z"/>
        <path class="cls-1" d="m303.7,275.01c-1.47-.08-2.73-3.84-3-7-.45-5.21,1.95-6.68,2-12,.03-3.37-.93-2.91-2-9-.88-4.97-1.58-9.23,0-14,1.58-4.79,4.3-6.57,5-7,1.19-.73,3.35-1.69,4-1,.83.89-1.85,3.43-3,8-.64,2.56-.43,4.7,0,9,.58,5.87,1.48,6.35,2,12,.28,3.09.3,6.01,0,9-.28,2.85-.81,5.39-2,8-.85,1.87-1.85,4.06-3,4Z"/>
        <path class="cls-1" d="m317.7,281.01c-1.37.29-4.01-3.62-5-8-.96-4.26.39-5.6,1-13,.09-1.11.06-5.09,0-13-.07-9.16-.13-9.67,0-12,.35-6.13.53-9.19,2-13,2.3-5.95,5.91-9.17,8-11,1.54-1.35,4.44-3.87,6-3,1.22.68,1.06,3.11,1,4-.27,4.19-2.62,6.92-4,9-2.09,3.15-2.73,7.1-4,15-.88,5.44-.92,9.63-1,18-.07,6.86-.1,10.29,0,11,.41,2.86,1.09,5.2,0,8-.45,1.17-.82,1.39-2,4-1.37,3.03-1.4,3.87-2,4Z"/>
        <path class="cls-1" d="m327.7,281.01c-1.42-.2-2.02-4.86-2-8,.02-2.61.46-3.87,1-7,.31-1.8.25-1.88,1-10,1.12-12.15,1.28-12.31,1-14-.82-4.92-2.52-5.49-2-9,.43-2.95,2.02-5.19,4-8,.94-1.34,3.1-4.4,4-4,.43.19.46,1.13,0,5-.33,2.74-.49,4.11-1,7-.74,4.25-.85,7.5-1,12-.1,2.99-.06,5.39,0,9,.07,4.41.2,5.48,0,8-.27,3.48-.64,3.11-1,7-.39,4.23-.04,5.53-1,8-.13.32-1.66,4.19-3,4Z"/>
        <path class="cls-1" d="m334.7,290.01c-1.37-1.12-.79-3.13,0-11,.59-5.85.43-6.34,1-9,.76-3.54,1.23-3.54,2-7,.25-1.14,1.06-5.01,1-10-.04-3.58-.48-3.38-1-10-.37-4.66-.54-7.02,0-9,.89-3.25,2-3.06,3-7,.55-2.18.6-3.77,2-5,.65-.57,2.03-1.44,3-1,1.26.57,1,2.97,1,8,0,8.23.7,8.9,0,13-.66,3.87-1.24,3.05-2,7-1.5,7.86,1.04,9.86-1,16-.84,2.52-1.64,3.3-2,6-.47,3.51.63,4.11,0,7-.79,3.63-2.74,3.72-3,7-.21,2.63.93,4.02,0,5-.84.88-2.86.93-4,0Z"/>
        <path class="cls-1" d="m348.7,288.01c-.47-.36-1-1.07-1-6,0-4.06.37-4.7,0-7-.37-2.32-.81-2.1-1-4-.11-1.1-.04-1.98,1-7,.87-4.19.92-4.08,1-5,.26-3.17-.45-3.74,0-6,.44-2.22,1.8-5.08,3-5,2.03.14,2.96,8.6,3,9,.24,2.24.16,4.82,0,10-.09,2.88-.18,3.97,0,6,.31,3.45.88,3.57,1,6,.05,1.09.35,7.18-3,9-1.17.63-2.93.83-4,0Z"/>
        <path class="cls-1" d="m350.7,297.01c-.39-1.31,3.26-2.42,6-6,.48-.63,2.83-3.81,3-8,.16-3.91-1.77-4.27-2-9-.04-.84.31-3.23,1-8,.86-5.91.9-5.71,1-7,.2-2.68.13-4.87,0-9-.06-1.99-.15-3.59,0-6,.18-2.88.31-4.84,1-5,1.02-.23,2.98,3.56,4,7,.44,1.47.8,3.17,1,10,.14,4.79.23,7.73,0,12-.24,4.45-.69,7.75-1,10-.66,4.77-1.01,7.22-2,10-1.77,4.96-3.85,7.04-5,8-2.68,2.26-4.56,2.06-5,2-.41-.06-1.78-.25-2-1Z"/>
        <path class="cls-1" d="m363.7,302.01c-.89-.5-1.24-1.96-1-3,.33-1.4,1.66-1.77,3-3,1.83-1.67,2.39-3.74,3-6,.67-2.48.21-3.23,0-9-.19-5.29.19-4.7,0-11-.08-2.63-.19-4.28,0-7,.42-5.93,1.57-6.75,2-7,1.46-.84,3.84-.36,5,1,1.3,1.52.45,3.37,0,8-.05.54-.03,4.02,0,11,.04,7.71.14,7.5,0,9-.37,3.9-.71,7.5-3,11-2.52,3.86-7.09,7.07-9,6Z"/>
        <path class="cls-1" d="m375.7,300.01c.45,1.21,1.88,2.22,3,2,1.45-.29,1.93-2.54,3-6,2.52-8.2,3.32-6.95,4-11,.64-3.79-.32-3.31,0-12,.14-3.63.34-4.77,0-7-.17-1.11-.9-7.74-3-8-1.35-.16-2.67,2.36-3,3-1.12,2.14-1.29,4.25-1,9,.25,4.12.55,5.32,1,11,.32,4.11.31,5.38,0,7-.47,2.42-1.44,4.69-2,6-1.5,3.51-2.53,4.59-2,6Z"/>
        <path class="cls-1" d="m378.7,314.01c-1.13-.73-.41-4.33,1-7,1-1.9,1.61-1.91,3-4,1.66-2.48,1.37-3.32,3-7,2.41-5.46,3.75-5.24,4-8,.27-3.02-1.3-3.59-1-7,.22-2.54,1.42-5.87,3-6,1.58-.13,3.59,2.96,4,6,.5,3.68-1.7,4.66-3,11-.77,3.75-.09,3.85-1,7-1.07,3.71-2.78,6.23-4,8-2.33,3.38-4.4,5.01-6,6-1.21.75-2.34,1.43-3,1Z"/>
        <path class="cls-1" d="m382.7,323.01c.58.56,5.67-3.85,7-5,5.17-4.48,7.75-6.72,10-10,1.43-2.09,6.33-9.25,6-18-.13-3.44-.95-4.14-1-9-.03-2.92.25-4.86-1-7-.98-1.67-2.87-3.43-4-3-1.13.44-1.05,2.91-1,8,.07,6.77.1,10.15,0,12-.14,2.57-.48,8.89-4,15-1.72,2.98-2.47,2.93-9,12-2.35,3.26-3.29,4.72-3,5Z"/>
        <path class="cls-1" d="m380.7,328.01c-1.08,1.55-1.93,3.98-1,5,.69.76,2.2.54,4,0,6.36-1.89,11.07-6.14,12-7,4.27-3.93,9.41-8.75,13-17,1.86-4.28,2.56-7.75,3-10,.86-4.4,1.19-9.1,0-14-.32-1.31-.98-3.96-2-4-.88-.03-1.69,1.92-2,3-.57,1.95-.18,3.26,0,6,0,0,.09,1.43,0,5-.19,7.4-6.35,16.1-7,17-3.92,5.45-7.22,10.03-13,12-2.07.7-5.1,1.29-7,4Z"/>
        <path class="cls-1" d="m382.7,337.01c.09.64,1.79.97,3,1,2.01.04,3.55-.76,4-1,7.2-3.77,7.58-2.92,12-6,2.1-1.46,5.01-3.74,8-7,2.99-3.26,8.87-9.84,11-20,1.03-4.89.66-8.12,0-14-.17-1.47-.6-4.75-3-7-.52-.48-1.33-1.23-2-1-1.11.38-1.04,3.17-1,7,.03,3.33-.01,6.67,0,10,.02,7.05-3.09,12.6-5,16-1.79,3.19-5.74,10.23-13,14-3.71,1.93-7.16,4.36-11,6-1.08.46-3.1,1.28-3,2Z"/>
        <path class="cls-8" d="m277.2,296.51c-5.03-1.73-5.85-1.91-7-2-1.75-.13-5.44-.41-8,2-.48.45-2,1.88-2,4,0,2.14,1.54,3.57,2,4,2.13,1.98,4.97,1.99,7,2,1.85,0,3.39-.28,6-1,5.53-1.52,6.23-2.31,9-3,6.16-1.54,11.79.08,15,1,4.28,1.23,3.91,1.99,8,3,4.46,1.1,6.26.53,12,1,2.51.2,5.67.8,12,2,12.37,2.34,14.02,3.33,15,4,1.07.73,6.22,4.26,7,10,.27,2.03-.15,3.68-1,7-.22.86-1.3,4.94-4,10-2.16,4.05-3.77,7.05-7,10-1.82,1.66-3.3,2.53-5,5-.61.89-3.15,4.58-2,6,.71.88,2.69.71,4,0,1.31-.71,1.59-1.78,3-4,1.19-1.88,1.67-2.2,3-4,3.15-4.28,5.06-8.77,6-11,1.19-2.84,1.79-4.89,3-9,1.56-5.32,1.87-7.6,2-9,.29-2.99.43-4.49,0-6-1.58-5.54-8.42-8.05-11-9-1.85-.68-2.49-.69-12-2-10.85-1.49-11.97-1.74-13-2-5.81-1.46-5.46-2.32-12-4-3.67-.94-7.21-1.85-12-2-4.9-.15-5.4.67-9,0-1.79-.33-2.01-.6-9-3Z"/>
      </g>
      <path class="cls-10" d="m190.2,401.51c8.5-.71,9.44,1.13,15,0,4.33-.88,12.61-3.79,13-8,.42-4.46-8.46-5.87-25-17-11.73-7.89-14.76-12.23-23-13-2.37-.22-10.16-.95-15,4-7.16,7.32-1.83,20.88-1,23,1.19,3.03,4.16,10.58,11,13,2.63.93,5.75.62,12,0,7.06-.7,7.48-1.54,13-2Z"/>
      <g>
        <path class="cls-11" d="m137.2,375.51c-.58-5.52,5.9-7.11,7-15,.17-1.21,1.02-7.28-3-11-3.57-3.3-9.71-3.59-13-1-2.6,2.04-1.98,4.74-4,10-1.65,4.31-3.69,6.71-8,12-8.38,10.28-12.82,15.72-16,20-1.26,1.69-6.19,10.48-16,28-5.24,9.35-7.82,14.1-6,18,1.65,3.54,6.15,5.8,10,6,5.54.29,6.74-3.85,13-4,3.18-.08,3.04.98,11,3,5.81,1.47,8.71,2.21,12,2,6.32-.39,6.45-3.22,13-4,6.12-.73,6.65,1.66,14,1,2.25-.2,6.47-.62,11-3,3.71-1.95,3.35-2.97,8-6,6.2-4.04,8.44-3.28,10-6,1.94-3.38.91-8.82-2-12-3.75-4.1-7.82-1.36-16-5-2.58-1.15-8.97-4.45-13-11-2.89-4.69-1.54-6.12-5-12-3.92-6.66-6.63-6.47-7-10Z"/>
        <path class="cls-9" d="m82.2,430.51c-.91.04-1.84,1.03-2,2-.32,1.96,2.39,4.28,5,5,2.61.72,4.99-.21,7-1,3.54-1.38,3.65-2.66,6-3,1.82-.26,2.73.36,7,2,4.38,1.68,6.57,2.52,9,3,.79.16,4.9.92,10,0,4.88-.88,5.18-2.31,10-3,1.5-.21,3.69-.15,8,0,8.69.29,9.5.8,12,0,.76-.24,2.84-1.5,7-4,4.47-2.69,4.95-3.22,7-4,3.42-1.31,4.23-.67,6-2,1.94-1.45,3.97-4.46,3-7-.94-2.47-4.39-3.64-5-3-.48.5,1.08,1.76,1,4-.1,2.8-2.68,4.76-3,5-2.28,1.68-3.55.63-7,2-2.77,1.1-2.65,2.06-6,4-1.19.69-4.34,2.52-8,3-4.43.59-4.94-1.41-11-2-4.84-.47-8.92.37-12,1-5.39,1.11-5.17,1.97-8,2-4.34.04-4.93-2-12-4-5.46-1.54-8.2-2.32-11-1-1.86.88-2.94,2.29-6,3-1.35.31-2.66.6-4,0-1.57-.7-1.9-2.05-3-2Z"/>
        <path class="cls-9" d="m98.2,401.51c-.96.9-2.95,2.61-3,5-.03,1.46.65,3.22,2,4,1.16.67,1.84.05,5,0,3.29-.05,3.93.6,5,0,1.7-.96,1.85-3.6,2-6,.38-5.89.84-11.51,1-13,.97-9.1,6.68-14.53,6-15-.63-.43-5.19,4.51-9,10-6.2,8.93-4.47,10.74-9,15Z"/>
        <path class="cls-9" d="m131.2,363.51c1.01-2.82,1.92-4.25,2-7,.02-.59.15-5.25-2-6-1.01-.35-2.27.23-3,1-1.29,1.35-1.04,3.34-1,5,.07,2.62-.62,5.08-2,10-1.26,4.52-2.92,7.85-4,10-2,3.98-2.71,4.37-4,7-2.63,5.38-2.89,10.39-3,13-.39,9.33,3.21,12.41,2,22-.28,2.19-1.84,4.16-1,5,1.13,1.13,3.89-1.88,9-2,3.75-.09,4.72,1.47,9,1,1.61-.17,4.47-.49,5-2,.54-1.55-1.8-3.16-4-6-2.92-3.77-3.84-7.4-5-12-1.02-4.03-1.01-7.69-1-15,0-5.04.03-9.36,1-15,.75-4.37,1.12-6.55,2-9Z"/>
      </g>
      <path class="cls-9" d="m433.2,339.51c-9.31-2.94-17.34.1-25,3-7.77,2.94-14.51,8.63-28,20-10.67,9-13.02,12.14-13,16,.01,2.75,1.23,5.86,9,13,12.32,11.31,17.62,11.17,30,21,11.29,8.97,11.42,12.7,19,15,7.16,2.18,18.39,2.3,24-4,5.29-5.94.71-12.12,1-32,.31-21.2,5.69-25.82,1-36-.41-.9-5.8-12.15-18-16Z"/>
      <g>
        <path class="cls-7" d="m475.2,321.51c-.67-.42-8.33-5-16-1-4.34,2.27-7.34,6.58-8,11-.48,3.21,1.01,6.85,4,14,3.37,8.05,3.96,7.3,5,11,2.62,9.32-1.06,14.28,2,17,3.93,3.49,13.4-1.67,14-2,7.26-4.04,12.68-12.26,13-21,.21-5.62-1.86-9.75-6-18-2.93-5.84-4.46-8.8-8-11Z"/>
        <path class="cls-3" d="m469.2,323.51c-.9-.42-4.36-2.07-7,0-1.44,1.13-2.4,3.17-2,5,.3,1.37,1.18,1.85,5,5,4.3,3.55,4.73,4.22,5,5,.17.48.21.8,0,6-.17,4.13-.22,4.35,0,5,.74,2.23,2.21,2.29,4,5,.66,1.01,1.83,2.77,2,5,.32,4.05-2.71,8.59-6,9-1.02.13-2.6-.07-3-1-.5-1.16.99-3.09,2-3,.98.09,1.21,2.05,2,2,.6-.04,1.26-1.19,1-2-.4-1.24-3.09-1.99-5-1-1.77.92-2.79,3.32-2,5,.82,1.73,3.21,1.93,4,2,3.85.32,6.7-2.67,7-3,2.82-3.07,3.23-7.71,2-11-.98-2.62-2.19-2.21-4-6-.6-1.26-1.75-3.72-2-7-.26-3.39.72-3.88,0-6-.64-1.88-1.96-3.11-4-5-2.62-2.43-4.09-2.88-4-4,.1-1.18,1.87-2.33,3-2,1.04.3.95,1.69,2,2,1.13.33,2.87-.78,3-2,.16-1.5-2.17-2.61-3-3Z"/>
      </g>
    </g>
  </g>
</svg>