<?xml version="1.0" encoding="UTF-8"?>
<svg id="Layer_2" data-name="Layer 2" xmlns="http://www.w3.org/2000/svg" viewBox="0 0 418.53 476.02">
  <defs>
    <style>
      .cls-1 {
        fill: none;
        stroke: #cee4ff;
        stroke-width: 3px;
      }

      .cls-1, .cls-2 {
        stroke-miterlimit: 10;
      }

      .cls-2 {
        fill: #e1e2df;
        stroke: #a7b1c9;
        stroke-width: 2px;
      }

      .cls-3 {
        fill: #caedff;
      }

      .cls-3, .cls-4, .cls-5, .cls-6, .cls-7, .cls-8, .cls-9, .cls-10, .cls-11, .cls-12, .cls-13, .cls-14 {
        stroke-width: 0px;
      }

      .cls-4 {
        fill: #bc8eae;
      }

      .cls-5 {
        fill: #bc817d;
      }

      .cls-6 {
        fill: #bfd1ff;
      }

      .cls-7 {
        fill: #d8bed8;
      }

      .cls-8 {
        fill: #bc789d;
      }

      .cls-9 {
        fill: #ad6971;
      }

      .cls-10 {
        fill: #b5597a;
      }

      .cls-11 {
        fill: #f2d7e4;
      }

      .cls-12 {
        fill: #ffe9fc;
      }

      .cls-13 {
        fill: #e4adad;
      }

      .cls-14 {
        fill: #fcd3e0;
      }
    </style>
  </defs>
  <g id="Layer_1-2" data-name="Layer 1">
    <g>
      <g>
        <path class="cls-2" d="m120.51,320.51c-.89-.86-2.29-1.89-6-3-5.01-1.49-5.86-.62-10-2-2.49-.83-4.24-1.42-6-3-2.92-2.63-2.61-5.06-5-6-1.65-.65-3.23-.05-6,1-2.59.98-5.71,2.17-8,5-2.08,2.57-2.41,5.41-3,11-.53,5.07-.29,8.9,0,13,.46,6.64.69,9.96,2,13,2.28,5.3,5.98,8.51,8,10,2.15,1.58,5.15,3.8,9,4,2.27.12,5,0,5,0,2.12-.09,2.8-.24,4,0,1.65.34,2.42,1.04,4,2,2.03,1.23,3.69,1.82,7,3,3.34,1.19,3.83.95,7,2,0,0,3.39,1.13,7,3,2.07,1.07,7.66,4.03,12.5,9.5,6.39,7.23,8.17,15.13,9,19,.85,3.97,2.61,12.81-1,23-1.51,4.26-3.76,10.61-10,15-9.25,6.51-20.53,4-25,3-6.64-1.48-11.01-4.34-12-5-5.69-3.82-8.67-8.4-11-12-2.35-3.62-4.78-7.36-6-13-.59-2.7-1.95-9.41,1-17,.97-2.5,2.94-7.36,8-11,6.01-4.32,12.44-4.09,15-4,2.13.08,9.56.45,16,6,4.67,4.02,6.4,8.67,8,13,1.75,4.72,3.1,8.37,2,13-1.45,6.07-6.07,9.36-7,10-.73.5-4.55,3.02-10,3-4.17-.02-7.11-1.52-10-3-4.03-2.06-7.03-3.6-9-7-2.57-4.44-3.06-11.48,1-16,3.15-3.51,7.59-3.88,9-4,1.89-.16,6.87-.58,10,3,.17.19,3.14,3.7,2,8-.14.52-1.05,3.95-4,5-2.07.73-3.99-.11-6-1-1.95-.86-4.23-2.38-4-3,.22-.59,2.68-.28,4,0,2.35.49,2.79,1.23,4,1,1.42-.27,2.63-1.63,3-3,.83-3.09-2.72-5.79-3-6-2.34-1.73-5.5-1.96-8-1-4.94,1.9-5.83,7.88-6,9-.16,1.09-.83,5.52,2,9,2.5,3.07,6.18,3.53,10,4,3.2.4,6.5.8,10-1,4.85-2.51,6.48-7.43,7-9,1.7-5.14.44-9.54,0-11-2.2-7.29-8.09-10.88-10-12-1.77-1.04-7.48-4.28-15-3-1.49.25-9.42,1.77-14,9-2.98,4.7-2.99,9.37-3,12-.02,7.4,3.09,12.73,5,16,1.53,2.62,4.66,7.84,11,12,6.04,3.96,11.73,4.83,13,5,2.88.39,13.59,1.86,21-5,4.23-3.91,5.43-8.73,7-15,1.94-7.74,1.19-13.64,1-15-.29-2.09-.84-5.77-3-10-1.73-3.39-3.69-5.56-5-7-4.28-4.68-8.65-7.15-12-9-1.12-.62-.84-.42-14-6-4.93-2.09-5.98-2.55-8-3-2.77-.62-7.24-1.62-12,0-4.11,1.4-6.48,4.08-9,7-1.6,1.85-5.58,6.84-8,15-2.72,9.19-1.78,16.74-1,23,.64,5.14,1.64,12.63,6,21,2.41,4.63,5.02,7.95,9,13,3.19,4.05,5.42,6.86,9,10,4.84,4.25,9.24,6.57,12,8,8.03,4.17,14.86,5.68,21,7,5.46,1.17,9.89,2.09,16,2,3.23-.05,8.11-.16,14-2,1.65-.52,9.33-3.03,17-10,4.12-3.75,7.08-8.5,13-18,4.08-6.54,6.93-11.12,10-18,2.04-4.57,4.34-9.79,6-17,1.32-5.73,1.55-11.16,2-22,.61-14.54-.5-17.73-1-19-.48-1.21-1.53-3.55-2-7-.34-2.5-.14-3.77,0-8,.11-3.45.22-6.75,0-10-.07-1.07-.41-5.52-2-11-1.05-3.62-4.36-15-11-18-3.17-1.43-6-1-6-1-.49.07-1.6.28-3,1-3.27,1.67-4.5,4.24-6,6-1.09,1.28-2.05,1.82-11,5-8.48,3.01-12.72,4.52-15,5-4.97,1.05-8.87,1.84-14,1-.86-.14-4.63-.8-9-3-2.89-1.46-5.1-2.57-7-5-1.23-1.57-1.18-2.23-2.5-3.5Z"/>
        <path class="cls-10" d="m133.51,319.51c-2.9-8.16-4.35-12.24-5-15-2.11-9.02-3.09-13.52-3-16,.22-6.45,2.67-10.63,6-17,11.51-22.04,8.32-21.91,18-38,4.4-7.31,8.3-10.29,13-19,1.46-2.71,2.93-5.73,6-11,2.77-4.75,3.82-6.14,6-10,2.55-4.51,4.14-7.95,6-12,6.84-14.89,6.42-17.58,12-28,2.66-4.97,3.04-4.89,5-9,3.06-6.41,3.48-9.42,7-13,1.81-1.84,3.9-3.29,5-4,1.18-.76,3.41-2.2,6-3,3.74-1.15,7.01-.58,10,0,10.8,2.1,17,4,17,4,5.96,1.82,12.03,3.25,18,5,24.49,7.19,22.74,6.2,35,10,16.4,5.08,24.61,7.62,35,12,10.14,4.28,16.71,7.81,29,11,2.43.63,7.88,1.97,15,3,0,0,10.36,1.5,26,1,.31,0,3.32-.12,7-1,1.73-.41,2.46-.72,3-1,.42-.22,1.32-.71,4-3,1.87-1.6,2.41-2.19,3-2,.78.25.96,1.64,1,2,.18,1.79-.8,3.02-2,5-1.49,2.46-.6,1.61-3,6-1.82,3.34-2.76,5.03-4,6-.97.76-2.81,2.19-5,2-.82-.07-1.58-.36-3.5-.5-1.07-.08-1.6-.12-2,0-1.63.48-1.93,2.38-3,4-1.98,2.99-5.79,3.76-7,4-3.21.65-6.18-.2-9-1-1.39-.39-2.27-.77-4-1-.77-.1-2.72-.32-5,0-3.91.55-4.58,2.09-8,3-3.4.91-6.29.34-8,0-1.67-.33-6.1-1.42-10-5-3.71-3.4-3.3-5.71-7-8-2.32-1.43-4.45-1.75-6-2-9.97-1.62-3.87-1.88-22-5-11.51-1.98-17.26-2.97-21-3-7.43-.06-7.31,1.08-23,2,0,0-5.45.32-15,0-8.27-.28-10.17-.81-12-2-4.85-3.16-7-5-7-5-.94-.81-2.2-1.96-4-2-.33,0-1.81,0-3,1-1.43,1.2-1.34,2.92-2,7-.27,1.68-.71,3.33-1,5-1,5.68-3.78,10.41-6,15-1.78,3.68-3.19,7.79-6,16-5.84,17.05-4.99,20.9-9,30-.54,1.23-2,4.44-3,9-.83,3.78-.94,6.67-1,8-.42,8.62-2.12,16.58-5,30-1.13,5.26-1.73,8.05-3,12-2.36,7.35-4.82,11.94-6,14-2.67,4.68-4.4,7.64-8,10-1.8,1.18-3.54,1.79-7,3-4.81,1.68-5.25,1.14-11,3-3.36,1.09-4.41,1.66-7,2-1.51.2-3.49.45-6,0-1.35-.24-5.22-.93-8-4-1.45-1.59-2.04-3.21-2.5-4.5Z"/>
        <path class="cls-10" d="m102.51,309.51c2.61.11,4.64.59,6,1,1.62.49,2.95,1.08,5,2,3.65,1.63,3.94,2.06,5,2,2.2-.13,4.11-2.17,5-4,1.54-3.17.21-6.16-1-11-1.8-7.18-2.4-10.85-2-14,.34-2.67,1.17-5.31,2.5-9.5,1.27-4.01,1.6-4.19,2-6,.95-4.31.08-7.84-1-12-.54-2.1-1.1-3.71-6-15-2.24-5.15-3.37-7.75-4-9-2.81-5.56-4.58-7.61-8-13-4.94-7.79-4.5-8.67-10-18-4.01-6.8-3.71-5.43-9-14-8.88-14.38-14.84-26.53-18-30-1.04-1.14-1.36-1.76-2-3-.73-1.42-1.56-3-1-4,.62-1.11,2.65-.97,4-1,3.46-.07,5.98-1.38,11-4,4.26-2.22,6.17-5.39,10-11,0,0,5.99-8.77,14-19,4.91-6.27,8.94-10.18,17-18,15.2-14.75,16.55-12.88,20-19,.61-1.08,4.02-7.25,9-10,3-1.65,6-2,6-2,.33-.04.8-.08,4,0,5.47.14,5.91.31,7,0,2.34-.66,3.72-2.39,5-4,2.72-3.42,3.47-7.26,4-10,.61-3.14.2-3.52,1-6,.93-2.89,2.34-5.02,3-6,1.36-2.03,1.64-1.85,4-5,2.63-3.51,2.9-4.56,3-5,.51-2.3-.52-2.77,0-5,.55-2.36,1.82-2.4,3-5,.23-.5.48-1.15,1-7,.5-5.58.39-6.24,0-7-.97-1.91-2.09-1.35-4-4-1.56-2.16-1.76-3.85-3-4-.98-.12-1.84.82-2,1-1.19,1.31-1.04,3.23-1,4,0,.01-.67,3.01-2,9-1.09,4.91-3.8,8.62-7,13-4.17,5.72-8.15,9.12-15,15-5.65,4.84-6.67,5.11-12,10-4.46,4.1-6.69,6.15-9,9-1.16,1.44-2.99,3.83-6,7-1.33,1.39-2.37,2.4-3,3-7.9,7.58-11.86,11.37-15,14-3.24,2.71-2.08,1.47-12,9-8.2,6.22-7.89,6.24-13,10-7.27,5.35-7.6,5.11-14,10-1.07.82-4.05,3.21-10,8-3.67,2.95-5.07,4.1-7,6-2.87,2.83-4.45,4.92-6,7-2.1,2.81-2.65,4-3,5-.64,1.83-.39,2.37-1,5-.74,3.21-1.43,3.78-2,6-.6,2.37-.38,3.92,0,8,.94,10.06.35,8.85,1,13,.5,3.19,1.33,6.13,3,12,1.5,5.29,2.79,9.25,5,16,1.68,5.13,2.52,7.7,3,9,2.44,6.55,3.84,8.73,5,14,.56,2.54.25,2.1,1,6,.91,4.73,1.78,7.52,3,12,1.83,6.73,1.28,5.65,3,12,1.68,6.22,2.12,6.92,5,17,1.65,5.78,1.44,5.32,2,7,.83,2.51,2.98,8.65,7,15,1.3,2.06,2.42,3.55,4,5,1.8,1.66,3.71,2.82,4,3,2.45,1.48,3.56,1.58,5,3,1.09,1.08,1.68,2.24,2,3"/>
        <path class="cls-1" d="m81.01,333.01c-.24,2.18.1,1.8.5,5.5.43,3.91.79,7.3,3,11,.46.76,2.65,4.32,7,7,2.73,1.68,4.83,2.11,8,3,4.77,1.34,9.33,3.34,14,5,11.11,3.94,16.66,5.91,20,8,11.97,7.47,16.71,20.08,18,24,1.16,3.52,4.42,13.79,1,26-1.29,4.61-3.63,12.94-11.5,18.5-6.94,4.9-14.39,4.97-18,5-3.19.03-9.84-.33-17-4-11.01-5.64-15.66-15.2-18-20-1.48-3.04-3.66-7.64-4-14-.25-4.63.59-8.28,1-10,.81-3.44,1.57-6.62,4-10,3.92-5.46,9.34-7.46,11-8,3.7-1.21,6.74-1.1,9-1,2.2.1,7.99.43,14,4,8.92,5.3,11.98,13.96,13,17,1.17,3.49,2.97,8.83,1,15-1.44,4.5-4.17,7.22-5,8-4.21,3.97-10.1,5.74-15,5-1.5-.23-3.08-.71-4-1-1.53-.47-4.19-1.31-7-3-1.8-1.08-4.08-2.45-6-5-4.21-5.6-3.14-12.24-3-13,.26-1.43.92-5.18,4-8,1.25-1.15,2.49-1.77,3-2,2.22-1.02,4.1-1.03,7-1,3.47.03,5.2.05,7,1,2.52,1.33,3.71,3.45,4,4,1.38,2.62,1.12,5.07,1,6-.12.99-.41,3.06-2,5-.43.53-2.18,2.59-5,3-1.02.15-1.82.03-2,0-1.26-.2-1.66-.66-4-2-2.19-1.25-2.63-1.3-3-2-.45-.86-.52-2.06,0-3,.12-.21.41-.72,1-1,.29-.14.72-.26,2,0,.78.16,1.75.36,3,1,1.19.61,1.35.97,2,1,.84.03,1.54-.53,2-1"/>
      </g>
      <g>
        <path class="cls-9" d="m220.5,91.53c2.08-.01,3.65.99,4.79,1.75,3.38,2.24,5.47,3.88,5.47,3.88,3.8,2.98,5.7,4.48,7.3,5.17,3.14,1.37,4.01.58,8.74,2.36,2.69,1.01,4.63,1.73,4.64,2.74.02,1.44-3.91,3.38-7.53,2.89-1.63-.22-3.59-1.54-7.45-4.18-2.98-2.04-2.82-2.11-5.47-3.88-3.37-2.24-5.05-3.37-6.46-4.03-1.95-.92-3.24-1.26-4.64-2.74-.25-.26-2.1-2.21-1.52-3.27.37-.67,1.56-.68,2.13-.68Z"/>
        <g>
          <path class="cls-5" d="m210.05,90.42c-2.24-.86-3.33-.53-4.79-1.75-1.84-1.53-2.25-3.81-2.36-4.41-.31-1.75.1-3.15.91-5.93.58-1.99.88-2.98,1.6-3.8,1.23-1.4,2.4-1.27,4.41-2.36,2.11-1.14,2.48-2.17,4.71-4.33,2.22-2.15,2.99-2.22,6.84-5.02,1.85-1.34,1.6-1.27,9.28-7.68,6.49-5.41,6.51-5.33,8.14-6.84,4.42-4.09,4.08-4.53,7.15-6.99,2.72-2.18,5.02-3.48,8.97-5.7,2.4-1.35,4.58-2.57,7.68-3.88,3.59-1.51,5.62-2.37,8.52-2.73,1.9-.24,1.42.08,8.06.23,2.69.06,5.37.16,8.06.23,1.98.05,3.76.1,5.93.91,1.45.54,2.44,1.19,2.81,1.45.47.32,2.51,1.71,3.5,3.57,1.15,2.18.34,4.02-.23,8.06-.32,2.23-.81,5.71-.38,9.05.47,3.7,2.06,6.45,5.24,11.94,1.83,3.15,2.19,3.27,4.86,7.83,2.27,3.88,3.42,5.85,3.88,7.68.31,1.23,1.18,5.37-.53,10.04-1.26,3.43-3.31,5.45-5.17,7.3-2.93,2.9-5.74,4.43-11.25,7.37-3.92,2.09-4.24,1.97-7.68,3.88-4.65,2.58-6.58,4.2-8.97,5.7-7.86,4.93-16.16,5.65-20.15,6-5.12.45-10.68.93-16.95-1.6-3.66-1.48-6.67-3.62-9.27-5.48-2.38-1.7-4.7-3.37-7.15-6.16-1.59-1.82-1.21-1.79-4.18-5.7-2.56-3.36-3.88-5.08-6-7-2.26-2.04-3.44-3.1-5.47-3.88Z"/>
          <path class="cls-7" d="m268.45,52.88c-3.13-.89-6.09.56-8.36,1.75-5.77,3-7.9,4.7-12.24,7.22-6.32,3.68-7.53,3.42-11.1,6.38-2.65,2.2-4.81,4-6.16,7.15-2.56,5.97-.11,11.98.83,14.29,1,2.46,3.45,7.24,8.51,10.42,3.26,2.04,6.55,2.77,10.57,3.65,2.68.59,4.85.82,5.93.91,3.52.31,6.23.14,7.07.08,4.27-.31,8.35-.61,12.62-3.11,1.34-.79,4.82-2.88,7.15-6.99,1.14-2.01.72-2.24,2.66-10.72,1.44-6.29,1.97-7.46,1.52-9.88-.36-1.93-1.25-3.47-3.04-6.54-1.71-2.94-3.14-5.39-5.85-7.98-2.13-2.03-4.08-3.22-7.3-5.17-1.89-1.15-2.43-1.34-2.81-1.45Z"/>
          <path class="cls-5" d="m265.29,56.95c-3.18.19-5.15,2.03-7.68,3.88-1.43,1.04-4.27,2.54-9.96,5.55-7.79,4.12-9.08,3.93-11.1,6.38-2.8,3.4-3.22,7.28-3.35,8.59-.16,1.65-.35,6.19,2.43,10.49,2.04,3.16,4.74,4.75,7.15,6.16,1.99,1.17,3.96,1.97,6.61,3.04,2.44.99,3.66,1.48,4.79,1.75,4.16.99,7.67.15,10.19-.45,1.8-.43,5.11-1.26,8.67-3.72,2.65-1.83,4.24-3.75,4.71-4.33,2.57-3.18,3.5-6.2,4.49-9.43,1.23-4,1.87-6.1,1.37-8.9-.36-2-1.25-3.52-3.04-6.54-1.99-3.37-3.92-5.64-5.02-6.84-2.36-2.6-3.8-4.14-6.31-5.02-.63-.22-2.1-.72-3.95-.61Z"/>
          <path class="cls-5" d="m329.92,44.65c-.22-1.68-.27-3.18-.23-5.09.15-6.92,1.23-7.64.69-11.02-.33-2.04-.81-4.99-3.04-6.54-3.19-2.21-7.96-.16-11.33,1.29-2.51,1.08-6.32,2.72-9.13,6.69-3.03,4.28-3.07,8.72-3.12,13.68-.02,2.05.07,8.85,3.49,16.73,2.43,5.59,5.37,9.05,8.21,12.39,4.78,5.63,7.62,6.93,8.97,7.45,1.19.46,3.69,1.4,6.92,1.07,5.24-.53,8.49-3.99,9.96-5.55,1.85-1.96,5.39-5.72,4.49-9.43-.32-1.3-1.93-2.82-5.17-5.86-2.9-2.72-3.36-2.79-5.32-4.87-1.99-2.11-3.25-3.47-4.18-5.7-.77-1.85-.99-3.51-1.22-5.25Z"/>
          <path class="cls-5" d="m352.2,37.96c-.76-2.14-.44-4.04-.07-6.08.9-5.04,2.9-5.9,2.36-8.74-.37-1.96-1.72-3.68-3.34-4.56-3.28-1.79-7.11.19-8.21.76-5.17,2.67-6.93,8.29-7.76,10.95-.68,2.18-3.22,10.3,1.21,18.4.87,1.6,4.95,8.55,12.62,10.04,1.98.38,6.27,1.22,9.35-1.59,2.42-2.2,3.37-5.98,2.36-8.74-.52-1.42-1.09-1.29-5.17-5.86-2.62-2.93-3.05-3.73-3.34-4.56Z"/>
          <path class="cls-5" d="m369.84,28.54c.1-.94.27-2.31.61-3.95.67-3.23,1.29-4.18.76-4.94-.87-1.25-3.99-.83-6.08.07-3.93,1.7-5.55,5.65-6.16,7.15-.64,1.56-1.59,3.89-1.07,6.92.14.8.84,4.27,4.03,6.69,1.02.78,3.54,2.68,6.77,2.05,2.98-.58,5.52-3.1,6.01-6.16.09-.56.41-3-1.22-5.25-1.28-1.77-3.04-2.4-3.65-2.59Z"/>
          <path class="cls-5" d="m379.57,17.9c-1.51,1.13-2.27,2.38-2.43,2.66-.58.99-2.09,3.56-.91,5.93.72,1.45,2.23,2.36,3.65,2.59,2.29.36,4.09-1.13,5.4-2.2,1.5-1.23,2.29-2.65,3.88-5.47,1.49-2.64,2.22-3.98,1.75-4.79-.64-1.1-2.78-.93-4.94-.76-1.77.14-4.12.36-6.39,2.05Z"/>
          <path class="cls-9" d="m217.24,79.89c-.62-.99.68-3,5.32-8.29,5.61-6.37,10.21-10.83,10.87-11.48,3.65-3.52,6.32-5.9,9.43-8.66,5.32-4.73,8.02-7.12,10.42-8.51,3.37-1.96,6.97-4.06,11.79-4.25,5.44-.22,5.75,2.25,13.68,3.12,5.78.64,8.81-.32,9.88,1.52.93,1.59-.03,4.51-1.9,5.78-2.44,1.66-5.26-.3-11.86-1.83-5.2-1.21-9.5-2.21-13.99-1.14-4.11.97-4.02,2.64-12.39,8.21-6.57,4.37-7.14,3.68-13.38,8.06-6.05,4.24-9.08,6.36-10.57,9.5-1.77,3.73-1.69,7.5-4.34,8.44-1.06.37-2.51.27-2.97-.46Z"/>
          <path class="cls-9" d="m277.76,54.82c.61-1.52,4.68-1.37,7.22-.91,2.47.45,2.28.97,5.78,1.9,3.67.98,5.39.81,5.78,1.9.32.91-.44,2.24-1.45,2.81-1.46.84-3.09-.11-5.93-.91-1.44-.41-1.28-.15-6.92-1.07-1.6-.26-2.91-.49-3.8-1.6-.15-.19-1.03-1.27-.68-2.13Z"/>
          <path class="cls-9" d="m299.43,65.24c-.35-.34-1.34-1.28-2.81-1.45-1.42-.16-1.74.58-4.26,1.37-2.55.79-3.43.41-4.26,1.37-.77.89-1.03,2.38-.46,2.97.23.24.62.34,4.11-.38,2.12-.44,2.35-.55,3.12-.53,1.28.03,1.47.36,2.97.46,1.29.08,2.7.17,3.12-.53.52-.87-.72-2.51-1.52-3.27Z"/>
          <path class="cls-9" d="m239.81,110.69c4.78,1.64,10.23,2.71,12.7,2.97,5.23.54,9.6-1.29,13.61-2.96,3.79-1.58,3.49-2.18,7.68-3.88,5.67-2.29,6.65-1.38,10.64-3.42,1.99-1.01,5.71-2.91,8.14-6.84,1.96-3.18,1-4.33,3.35-8.59,1.63-2.97,3.34-6.08,6.01-6.16,2.39-.07,4.9,2.32,5.32,4.87.21,1.27-.05,2.85-3.04,6.61-2.83,3.56-5.88,7.39-11.71,10.34-4.45,2.25-4.98,1.19-11.79,4.25-3.72,1.68-3.71,2.06-7.68,3.88-4.46,2.04-7.53,3.44-11.79,4.25-5.38,1.03-9.36.49-14.14-.16-2.68-.36-5.94-1-8.59-3.35-.3-.27-1.97-1.78-1.67-2.28.29-.48,2.24.21,2.97.46Z"/>
          <path class="cls-9" d="m289.77,81.97c-.92-.96.31-3.37.61-3.95.32-.63,1.77-3.49,4.71-4.33,1.44-.42,1.62.12,4.11-.38,1.83-.37,2.24-.76,3.12-.53,1.48.39,2.83,2.14,2.51,3.42-.3,1.19-1.96,1.66-4.41,2.36-3.29.93-3.75.24-5.25,1.22-1.52.99-1.79,2.19-3.42,2.51-.31.06-1.42.28-1.98-.3Z"/>
          <path class="cls-9" d="m305.97,35.9c.71-1.42,1.79-2.16,2.43-2.66,2.29-1.78,1.7-2.65,3.73-4.48,2.07-1.88,4.34-2.47,6.54-3.04,2.38-.62,4.34-1.1,6.08-.07.73.43,1.82,1.36,1.67,2.28-.03.17-.18.87-2.28,1.67-2.33.89-3.39.51-6.23,1.06-1.91.37-3,.58-4.26,1.37-1.84,1.15-3.24,3.04-3.57,3.5-1.02,1.4-1.33,2.32-2.43,2.66-.65.2-1.6.22-1.98-.3-.4-.56.06-1.49.3-1.98Z"/>
          <path class="cls-9" d="m306.2,40.99c-.39.57-.68,1.48-.3,1.98.19.25.56.41,1.98.3,1.5-.11,2.56-.4,3.12-.53,1.7-.4,1.96-.12,4.11-.38,3.08-.36,2.91-.98,5.25-1.22,3.42-.34,4.5.92,6.08-.07,1.37-.86,2.17-2.82,1.6-3.8-.39-.67-1.91-.71-4.94-.76-2.43-.04-3.65-.06-5.09.23-1.08.21-.78.27-4.26,1.37-1.42.45-2.82.96-4.26,1.37-1.81.51-2.68.67-3.27,1.52Z"/>
          <path class="cls-9" d="m306.5,52.17c-.35-.9.17-1.76.3-1.98.44-.68,1.22-1.17,3.27-1.52,2.83-.48,3.11.14,5.09-.23,2-.37,1.91-1.04,5.4-2.2,2.87-.95,3.65-.74,4.11-.38.59.47.89,1.39.68,2.13-.35,1.28-2.14,1.77-4.41,2.36-3.11.8-3.29.23-6.23,1.06-2.44.69-3.65,1.04-4.26,1.37-.65.36-1.28.79-2.13.68-.65-.08-1.51-.47-1.82-1.29Z"/>
          <path class="cls-9" d="m328.55,53.54c.22-.73-.13-1.62-.68-2.13-1.5-1.38-4.57,0-5.09.23-1.44.64-1.36,1.06-3.42,2.51-.88.62-2.45,1.48-5.55,3.19-2.58,1.42-3.47,1.87-3.42,2.51.04.64.99,1.21,1.82,1.29.96.1,1.4-.49,3.27-1.52.22-.12-.03.02,3.27-1.52,3.09-1.44,2.95-1.4,3.27-1.52,1.87-.7,2.39-.56,4.26-1.37,1.87-.81,2.17-1.3,2.28-1.67Z"/>
          <path class="cls-9" d="m332.88,58.25c-.44-.86-2.66-.51-2.97-.46-2.09.34-3.55,1.59-4.41,2.36-1.45,1.28-1.13,1.55-2.43,2.66-1.76,1.49-3.68,2.12-4.41,2.36-2.5.8-3.85.46-4.26,1.37-.31.68.08,1.65.68,2.13,1,.79,2.59.19,4.11-.38,2.19-.82,2.23-1.43,4.41-2.36,2.35-1,2.6-.42,4.26-1.37,1.51-.86,2.35-1.94,3.57-3.5,1.09-1.38,1.74-2.23,1.45-2.81Z"/>
          <path class="cls-9" d="m339.19,63.27c.16-.79-.05-1.82-.68-2.13-.65-.32-1.5.25-2.13.68-1.38.95-2.08,2.11-2.43,2.66-1.37,2.09-3.32,3.6-4.71,4.33-1.56.83-1.97.45-6.39,2.05-.54.2-1.64.61-2.28,1.67-.35.58-.69,1.58-.3,1.98.38.39,1.14-.08,3.12-.53,2.02-.46,2.07-.16,3.12-.53,1.53-.54,1.46-1.19,3.42-2.51,2.2-1.47,2.73-.95,4.41-2.36,1.19-.99.79-1.14,2.43-2.66,1.44-1.33,2.22-1.65,2.43-2.66Z"/>
          <path class="cls-9" d="m342.84,65.86c-.38,0-.58.31-1.14.84-.89.84-1.25.9-2.28,1.67-1.68,1.26-1.67,1.8-3.57,3.5-1.55,1.39-2.33,2.08-3.42,2.51-1.79.7-2.81.29-4.26,1.37-.09.07-1.54,1.16-1.29,1.82.27.72,2.37.51,2.97.46,1.64-.16,3.05-.71,4.26-1.37,1.17-.64,1.17-.84,3.42-2.51,1.53-1.13,2.49-1.75,4.56-3.34,1.9-1.46,2.39-1.93,2.43-2.66.06-1.08-.89-2.3-1.67-2.28Z"/>
          <path class="cls-9" d="m352.5,22.83c-.96-1.63-2.13-2.22-2.66-2.43-2.18-.88-4.34.16-6.23,1.06-1.83.87-3.58,2.18-3.42,2.51.11.22,1.02-.16,3.12-.53,2.61-.46,3.92-.69,5.09-.23,1.33.52,1.58,1.38,2.81,1.45.88.05,1.62-.33,2.13-.68"/>
          <path class="cls-9" d="m350.6,28.61c.39-.55.62-1.42.3-1.98-.25-.44-.8-.62-3.95-.61-1.98,0-3.05.08-5.09.23-1.55.11-2.24.19-3.12.53-1.02.4-2.4,1.19-2.28,1.67.15.6,2.52.48,2.97.46,1.71-.08,1.74-.44,3.12-.53,2.62-.17,4.94.76,4.94.76.51.2,1.2.53,1.98.3.65-.19,1.03-.68,1.14-.84Z"/>
          <path class="cls-9" d="m349.69,34.54c.52-.21,1.12-.46,1.14-.84.04-.58-1.31-1.1-1.82-1.29-1.48-.57-2.82-.62-3.95-.61-2.28.03-2.2.34-4.11.38-2.92.06-4.46-.64-5.09.23-.2.28-.3.7-.15.99.29.57,1.38.39,2.97.46.56.02,1.69.22,3.95.61,2.31.4,2.69.56,3.95.61.4.02,1.68.05,3.12-.53Z"/>
          <path class="cls-9" d="m349.92,39.63c.54-.57.7-1.59.3-1.98-.44-.43-1.34.12-3.12.53-1.12.26-2.12.3-4.11.38-.92.04-2.7.08-5.09.23-.89.06-1.63.11-2.13.68-.48.55-.7,1.52-.3,1.98.38.44,1.13.18,4.11-.38,1.4-.26,2.15-.4,3.12-.53,2.21-.29,4.11-.38,4.11-.38,1.95-.09,2.6.02,3.12-.53Z"/>
          <path class="cls-9" d="m353.26,44.19c.33-.59-.02-1.63-.68-2.13-.95-.71-2.39-.22-4.11.38-1.73.61-1.66.89-3.27,1.52-2.48.97-4.97,1.19-5.25,1.22-1.87.16-2.77-.06-3.12.53-.35.59.09,1.59.68,2.13.95.85,2.36.57,2.97.46,1.45-.28,1.6-.93,3.27-1.52,1.24-.44,1.15-.08,3.12-.53,2.3-.53,2.19-.96,4.26-1.37,1.25-.25,1.86-.2,2.13-.68Z"/>
          <path class="cls-9" d="m356.91,46.78c-.04-.51-.41-1.08-.84-1.14-.47-.06-.88.51-1.14.84-.75.94-1.64,1.46-3.42,2.51-.66.39-2.2.67-5.25,1.22-3,.54-3.94.63-4.26,1.37-.29.69.08,1.66.68,2.13.93.72,2.34.23,4.11-.38.81-.28,1.14-.46,3.27-1.52,2.62-1.3,3.3-1.61,4.41-2.36,2.39-1.61,2.45-2.35,2.43-2.66Z"/>
          <path class="cls-9" d="m359.26,51.19c.42-.67.67-1.66.3-1.98-.51-.44-2.05.63-2.13.68-1.66,1.18-1.22,2.22-2.59,3.65-1.72,1.79-3.65,1.43-4.56,3.34-.09.19-.36.76-.15.99.29.31,1.39-.19,2.13-.68,1.22-.82,1.11-1.42,2.43-2.66.78-.73,1.59-1.24,2.28-1.67,1.27-.8,1.82-.94,2.28-1.67Z"/>
          <path class="cls-9" d="m368.78,22.3c.11-.03,1.05-.26,1.14-.84.07-.45-.39-.93-.84-1.14-.62-.3-1.22-.09-3.12.53-.84.27-1.38.32-2.13.68-.22.11-1.21.59-1.14.84.05.18.61.16.99.15,1.73-.05,1.99-.61,3.12-.53.96.07,1.17.49,1.98.3Z"/>
          <path class="cls-9" d="m368.32,25.27c.49.11.71.29.99.15.53-.26.77-1.4.3-1.98-.41-.5-1.21-.4-1.98-.3-.39.05-1.05.17-2.13.68-1.87.89-2.31,1.69-3.27,1.52-.35-.06-.56-.22-.99-.15-.58.09-1.2.54-1.14.84.08.44,1.64.67,2.97.46.64-.1.44-.18,2.13-.68,2.27-.68,2.83-.6,3.12-.53Z"/>
          <path class="cls-9" d="m367.71,29.22c.76-.49,1.07-.54,1.14-.84.09-.4-.32-.97-.84-1.14-.56-.18-.97.2-2.13.68-.57.24-1.09.39-2.13.68-1.65.47-2.49.7-3.12.53-.31-.08-.58-.21-.99-.15-.51.08-1.12.43-1.14.84-.03.63,1.38,1.14,1.82,1.29.4.14,1.09.38,1.98.3.7-.06.67-.24,2.13-.68,1.28-.39,1.5-.31,2.13-.68.48-.29.42-.38,1.14-.84Z"/>
          <path class="cls-9" d="m370.37,31.65c.2-.27.32-.7.15-.99-.29-.52-1.37-.38-1.98-.3-1.04.13-1.81.51-2.13.68-1.23.66-1.14,1.1-2.28,1.67-.8.4-1.6.57-2.13.68-1.15.24-1.76.18-2.13.68-.2.27-.32.7-.15.99.31.54,1.47.38,1.98.3.7-.1.94-.27,2.13-.68,1.63-.57,1.52-.38,2.13-.68,1.34-.67,1.15-1.25,2.28-1.67,1.03-.39,1.7-.1,2.13-.68Z"/>
          <path class="cls-9" d="m373.18,33.1s-.48-.29-.99-.15c-.76.21-1.08,1.16-1.29,1.82-.51,1.6.04,2.02-.46,2.97-.54,1.03-1.68,1.45-2.28,1.67-1.71.63-3,.15-3.12.53-.1.34.84,1.04,1.82,1.29,1.48.38,2.77-.34,3.12-.53.83-.46,1.37-1.19,2.43-2.66,1.31-1.8,1.42-2.48,1.45-2.81.02-.28.14-1.62-.68-2.13Z"/>
          <path class="cls-9" d="m368.92,34.47c-.62-.22-1.24.14-2.13.68-1.47.9-1.32,1.31-2.28,1.67-1.03.39-1.7.1-2.13.68-.2.27-.31.7-.15.99.27.5,1.28.51,1.98.3,1.14-.34,1-1.1,2.28-1.67.7-.31.96-.18,2.13-.68.95-.41,1.1-.64,1.14-.84.08-.43-.35-.96-.84-1.14Z"/>
          <path class="cls-9" d="m376.53,24.51c-.39-1.18.15-2.32.46-2.97.22-.47.92-1.89,2.43-2.66.91-.46,1.08-.17,2.13-.68,1.21-.59,1.19-1.09,2.28-1.67,1.42-.76,3.04-.77,3.12-.53.04.12-.31.29-1.14.84-1.39.92-1.41,1.11-2.28,1.67-1.31.84-1.49.55-3.27,1.52-1.33.72-1.99,1.08-2.28,1.67-.39.8-.43,2.06-.46,2.97-.02.53,0,.94-.15.99-.21.06-.64-.56-.84-1.14Z"/>
          <path class="cls-9" d="m389.76,17.44c.23-.31.34-.8.15-.99-.25-.26-.99.1-2.13.68-3.18,1.63-3.17,1.81-4.41,2.36-1.76.78-2.32.65-3.27,1.52-.82.74-1.4,1.73-1.29,1.82.07.07.46-.36,1.14-.84,1.38-.97,1.86-.68,3.27-1.52,1.27-.76,1.08-1.12,2.28-1.67.92-.42,2.03-.66,2.13-.68,1.15-.24,1.76-.18,2.13-.68Z"/>
          <path class="cls-9" d="m378.35,25.8c-.21-.37.48-1.29,1.29-1.82.68-.45,1.05-.37,2.13-.68,1.49-.43,2.54-1.07,3.27-1.52,1.51-.93,2.2-1.75,2.28-1.67.1.1-.81,1.6-2.43,2.66-1.57,1.03-2.03.48-3.27,1.52-.86.73-1.24,1.49-2.28,1.67-.11.02-.82.14-.99-.15Z"/>
          <path class="cls-9" d="m378.2,26.79c-.68-.13-.92-.25-.99-.15-.11.15.31.76.84,1.14,1.17.85,2.72.51,2.97.46,1.13-.26,1.91-1.01,3.42-2.51,1.3-1.28,1.08-1.32,2.43-2.66,1.56-1.56,2.62-2.28,2.43-2.66-.12-.24-.68-.22-.99-.15-.48.1-.79.42-1.14.84-.76.9-.88,1.3-1.29,1.82-.49.62-.62.45-2.28,1.67-1.25.92-1.36,1.15-2.28,1.67-1.2.68-1.77.72-2.13.68-.45-.05-.99-.15-.99-.15Z"/>
        </g>
      </g>
      <g>
        <path class="cls-9" d="m14.28,181.54c.19,1.75-.26,3.19-.6,4.25-1.01,3.13-1.77,5.1-1.77,5.1-1.4,3.58-2.1,5.37-2.37,6.8-.52,2.81,0,3.45-.61,7.65-.35,2.39-.6,4.11-1.19,4.25-.83.2-2.3-2.86-2.33-5.96-.01-1.4.58-3.22,1.78-6.8.92-2.76.98-2.64,1.77-5.1,1.01-3.12,1.51-4.67,1.78-5.95.36-1.75.45-2.88,1.19-4.25.13-.24,1.1-2.05,1.76-1.7.42.22.53,1.22.58,1.7Z"/>
        <path class="cls-4" d="m14.01,172.61c.3-1.99.02-2.86.6-4.25.73-1.74,2.02-2.38,2.35-2.54.99-.49,1.83-.32,3.52.01,1.2.24,1.81.35,2.34.86.92.86.95,1.85,1.75,3.41.84,1.63,1.47,1.81,2.92,3.41,1.44,1.59,1.55,2.23,3.51,5.11.94,1.38.87,1.18,5.26,6.82,3.7,4.76,3.66,4.79,4.68,5.97,2.76,3.19,2.98,2.85,4.68,5.12,1.5,2.01,2.45,3.77,4.09,6.81.99,1.84,1.89,3.52,2.92,5.96,1.19,2.82,1.86,4.42,2.33,6.81.3,1.57.08,1.21.57,6.8.2,2.27.38,4.54.57,6.8.14,1.67.27,3.18-.01,5.1-.19,1.29-.48,2.21-.59,2.55-.15.44-.78,2.33-1.77,3.4-1.16,1.25-2.3.8-4.7.84-1.32.02-3.38.05-5.28.83-2.11.87-3.56,2.56-6.47,5.93-1.67,1.94-1.71,2.26-4.12,5.09-2.05,2.41-3.1,3.62-4.12,4.24-.69.41-3.01,1.68-5.87.83-2.1-.62-3.45-2.08-4.68-3.41-1.94-2.09-3.07-4.26-5.26-8.52-1.56-3.03-1.51-3.31-2.92-5.96-1.9-3.58-3.01-5-4.09-6.81-3.54-5.98-4.68-12.86-5.23-16.17-.7-4.24-1.47-8.86-.54-14.46.54-3.27,1.52-6.07,2.37-8.5.78-2.22,1.55-4.38,2.95-6.79.92-1.57.94-1.24,2.95-4.24,1.73-2.58,2.61-3.91,3.54-5.94.99-2.16,1.5-3.29,1.77-5.1Z"/>
        <path class="cls-12" d="m40.87,216.91c.24-2.74-.86-5.05-1.74-6.81-2.24-4.47-3.41-6.04-5.25-9.37-2.68-4.85-2.64-5.9-4.67-8.52-1.51-1.95-2.74-3.54-4.68-4.26-3.68-1.39-6.96,1.44-8.22,2.53-1.34,1.16-3.9,3.82-5.3,8.49-.9,3-1.04,5.86-1.2,9.35-.11,2.33-.05,4.18-.01,5.1.13,3,.46,5.25.57,5.95.55,3.55,1.08,6.94,2.9,10.21.57,1.03,2.09,3.69,4.68,5.12,1.27.7,1.36.32,6.45.87,3.77.41,4.5.71,5.87.02,1.09-.55,1.9-1.5,3.53-3.39,1.56-1.81,2.86-3.33,4.12-5.94.99-2.05,1.51-3.84,2.37-6.8.5-1.74.56-2.21.59-2.55Z"/>
        <path class="cls-8" d="m38.23,214.77c-.39-2.64-1.63-4.07-2.92-5.96-.73-1.07-1.85-3.27-4.08-7.66-3.07-6.02-3.07-7.13-4.67-8.52-2.21-1.92-4.5-1.78-5.27-1.72-.97.08-3.62.5-5.88,3.38-1.65,2.12-2.34,4.59-2.95,6.79-.51,1.82-.8,3.58-1.19,5.95-.36,2.17-.54,3.26-.6,4.25-.21,3.62.58,6.47,1.15,8.51.41,1.46,1.17,4.13,2.91,6.81,1.29,1.99,2.54,3.09,2.92,3.41,2.07,1.75,3.9,2.15,5.86,2.57,2.42.52,3.7.8,5.28.02,1.13-.56,1.93-1.5,3.53-3.39,1.78-2.1,2.93-4.02,3.53-5.09,1.3-2.32,2.07-3.72,2.36-5.95.07-.56.24-1.86,0-3.4Z"/>
        <path class="cls-4" d="m50.98,267.53c.96-.4,1.82-.63,2.94-.84,4.03-.76,4.54.06,6.46-.83,1.16-.54,2.83-1.32,3.53-3.39,1.01-2.97-.6-6.71-1.73-9.36-.84-1.97-2.13-4.97-4.67-6.82-2.75-2-5.33-1.47-8.21-.87-1.19.25-5.13,1.19-9.4,5.07-3.03,2.75-4.78,5.67-6.48,8.48-2.85,4.74-3.36,7.29-3.54,8.49-.16,1.06-.49,3.28-.02,5.95.76,4.33,3.05,6.63,4.08,7.66,1.3,1.3,3.79,3.8,5.86,2.57.73-.43,1.47-1.99,2.95-5.09,1.33-2.78,1.33-3.18,2.36-5.09,1.05-1.94,1.73-3.17,2.95-4.24,1.01-.89,1.95-1.28,2.94-1.69Z"/>
        <path class="cls-4" d="m56.8,285.4c1.17-.91,2.31-.89,3.52-.84,3,.11,3.68,1.68,5.28.87,1.1-.56,1.99-1.92,2.36-3.39.75-2.99-.73-5.95-1.15-6.81-2-4.01-5.41-4.76-7.02-5.12-1.33-.29-6.26-1.39-10.57,3.37-.85.94-4.53,5.25-4.73,11.89-.05,1.71-.16,5.42,1.74,7.66,1.49,1.75,3.76,2.07,5.28.87.78-.62.65-1.08,2.95-5.09,1.47-2.58,1.9-3.04,2.36-3.39Z"/>
        <path class="cls-4" d="m63.8,299.02c.55-.04,1.36-.07,2.35,0,1.93.15,2.53.55,2.93,0,.65-.89.14-3.46-.57-5.1-1.33-3.09-3.76-3.94-4.68-4.26-.96-.34-2.4-.84-4.11-.01-.45.22-2.41,1.25-3.53,4.24-.36.96-1.25,3.31-.6,5.95.59,2.43,2.28,4.24,4.09,4.26.33,0,1.78-.04,2.94-1.69.92-1.31,1.13-2.86,1.18-3.4Z"/>
        <path class="cls-4" d="m70.82,305.85c-.79-1.13-1.58-1.6-1.76-1.71-.63-.36-2.25-1.31-3.52-.01-.78.79-1.18,2.18-1.18,3.4,0,1.97,1.01,3.3,1.75,4.26.85,1.1,1.73,1.59,3.51,2.56,1.66.91,2.5,1.36,2.93.86.58-.68.3-2.46.01-4.25-.23-1.47-.56-3.42-1.75-5.11Z"/>
        <path class="cls-14" d="m20.74,177.31c.52-.65,1.8.18,5.27,3.42,4.19,3.9,7.17,7.19,7.6,7.67,2.36,2.62,3.97,4.56,5.85,6.82,3.2,3.86,4.83,5.83,5.84,7.67,1.43,2.58,2.96,5.34,3.49,9.36.6,4.54-.8,5.12-.62,11.9.13,4.94.95,7.36-.02,8.5-.84.98-2.62.55-3.52-.86-1.17-1.84-.29-4.46.03-10.2.25-4.52.45-8.27-.55-11.91-.92-3.33-1.88-3.04-5.84-9.37-3.1-4.96-2.76-5.53-5.84-10.22-2.99-4.55-4.48-6.82-6.43-7.67-2.32-1.01-4.5-.46-5.27-2.57-.31-.84-.38-2.07,0-2.55Z"/>
        <path class="cls-14" d="m40.55,224.98c.93.32,1.2,3.76,1.16,5.96-.04,2.13-.36,2.04-.6,5.1-.25,3.21,0,4.63-.6,5.1-.5.39-1.34-.08-1.76-.86-.61-1.12-.2-2.62.01-5.1.11-1.26-.03-1.09.02-5.95.01-1.38.03-2.51.6-3.4.09-.15.65-1.02,1.18-.85Z"/>
        <path class="cls-14" d="m36.39,244.53c.17-.34.63-1.29.59-2.55-.03-1.21-.49-1.39-1.16-3.4-.68-2.04-.53-2.83-1.16-3.4-.58-.53-1.47-.56-1.76,0-.12.23-.14.56.58,3.4.44,1.73.52,1.91.58,2.55.09,1.08-.08,1.28,0,2.55.06,1.1.13,2.29.58,2.55.55.32,1.39-.93,1.76-1.7Z"/>
        <path class="cls-14" d="m4.83,200.22c-.54,4.23-.68,8.95-.62,11.05.14,4.47,1.58,7.91,2.9,11.06,1.25,2.98,1.57,2.66,2.92,5.96,1.82,4.47,1.38,5.41,2.91,8.51.76,1.54,2.18,4.43,4.68,5.97,2.01,1.24,2.6.29,5.27,1.72,1.86.99,3.82,2.03,4.09,4.26.25,2-.92,4.41-2.36,5.09-.72.34-1.66.32-4.1-1.71-2.31-1.93-4.8-4-7.02-8.52-1.69-3.45-1.12-4.03-3.49-9.36-1.3-2.91-1.52-2.85-2.92-5.96-1.57-3.49-2.65-5.89-3.49-9.36-1.07-4.39-1.1-7.8-1.14-11.91-.02-2.3.06-5.12,1.2-7.65.13-.29.86-1.89,1.18-1.7.3.18.07,1.91,0,2.55Z"/>
        <path class="cls-14" d="m25.84,238.54c.48-.89,1.98-.17,2.35,0,.39.19,2.18,1.04,2.92,3.41.37,1.16.07,1.38.58,3.4.37,1.49.64,1.78.58,2.55-.1,1.29-1,2.65-1.77,2.55-.72-.1-1.13-1.44-1.75-3.41-.83-2.64-.46-3.12-1.16-4.25-.71-1.15-1.42-1.23-1.75-2.56-.06-.25-.29-1.16,0-1.7Z"/>
        <path class="cls-14" d="m53.98,246.28c.89.42,1.41,1.23,1.76,1.71,1.23,1.69,1.69,1.09,2.93,2.56,1.27,1.5,1.81,3.33,2.33,5.11.56,1.92,1.01,3.51.57,5.1-.19.67-.63,1.71-1.18,1.7-.1,0-.52-.04-1.17-1.7-.72-1.84-.59-2.78-1.16-5.1-.38-1.56-.6-2.45-1.16-3.4-.83-1.4-2.04-2.34-2.34-2.56-.9-.68-1.46-.82-1.76-1.71-.17-.52-.26-1.32,0-1.7.29-.41.87-.14,1.17,0Z"/>
        <path class="cls-14" d="m51.04,247.12c-.36-.26-.92-.38-1.17,0-.13.19-.19.52,0,1.7.19,1.25.45,2.1.58,2.55.38,1.38.24,1.63.58,3.4.48,2.54.82,2.32,1.16,4.25.49,2.83-.14,3.9.57,5.1.62,1.04,1.82,1.46,2.34.86.36-.42.25-1.7.01-4.25-.19-2.05-.28-3.08-.57-4.25-.22-.88-.22-.62-1.16-3.4-.38-1.14-.8-2.25-1.16-3.4-.46-1.46-.62-2.17-1.17-2.55Z"/>
        <path class="cls-14" d="m44.59,248.8c.49-.4,1.04-.09,1.17,0,.43.28.78.88,1.17,2.55.53,2.31.19,2.63.57,4.25.39,1.63.77,1.47,1.75,4.26.8,2.29.75,2.98.58,3.4-.22.56-.73.92-1.18.85-.77-.13-1.21-1.57-1.75-3.41-.74-2.51-.42-2.73-1.16-5.1-.61-1.96-.92-2.94-1.16-3.4-.26-.5-.57-.97-.58-1.7-.01-.55.14-1.33.59-1.7Z"/>
        <path class="cls-14" d="m45.7,267.51c.44.09.93-.32,1.18-.85.67-1.44-.39-3.85-.57-4.25-.5-1.13-.73-1.01-1.75-2.56-.44-.66-1.07-1.87-2.33-4.26-1.05-1.99-1.39-2.67-1.75-2.56-.36.12-.62.99-.59,1.7.03.82.4,1.11,1.17,2.55.09.17-.01-.02,1.17,2.55,1.1,2.41,1.07,2.3,1.17,2.55.57,1.48.53,1.93,1.16,3.4.63,1.47.94,1.66,1.17,1.7Z"/>
        <path class="cls-14" d="m43.35,271.76c.46-.48.06-2.3,0-2.55-.38-1.71-1.23-2.78-1.75-3.41-.87-1.06-1-.75-1.76-1.71-1.02-1.29-1.55-2.82-1.75-3.41-.68-2-.6-3.17-1.16-3.4-.42-.17-.95.28-1.18.85-.37.94.11,2.2.58,3.4.67,1.74,1.02,1.69,1.75,3.41.78,1.85.47,2.13,1.16,3.4.63,1.16,1.33,1.73,2.34,2.56.9.74,1.45,1.18,1.76.86Z"/>
        <path class="cls-14" d="m40.98,277.7c.47.04,1.05-.28,1.18-.85.13-.59-.28-1.23-.58-1.7-.67-1.04-1.41-1.48-1.76-1.71-1.33-.88-2.37-2.33-2.92-3.41-.62-1.21-.43-1.6-1.75-5.11-.16-.43-.5-1.3-1.17-1.7-.37-.22-.98-.38-1.17,0-.19.36.15.95.58,2.55.44,1.64.27,1.72.58,2.55.45,1.22.82,1.07,1.75,2.56,1.05,1.66.79,2.17,1.75,3.41.68.88.73.52,1.76,1.71.9,1.04,1.15,1.66,1.76,1.71Z"/>
        <path class="cls-14" d="m39.8,281.1c-.04-.32-.23-.45-.58-.85-.56-.64-.63-.93-1.17-1.7-.88-1.25-1.19-1.18-2.34-2.56-.94-1.13-1.41-1.69-1.75-2.56-.56-1.42-.41-2.32-1.16-3.4-.05-.07-.81-1.15-1.17-.85-.39.32-.09,2.06,0,2.55.23,1.36.67,2.47,1.16,3.4.47.91.59.88,1.75,2.56.79,1.14,1.23,1.87,2.34,3.41,1.01,1.41,1.33,1.76,1.76,1.71.63-.08,1.26-1.04,1.18-1.7Z"/>
        <path class="cls-14" d="m65.6,283.72c.86-1.01,1.1-2.07,1.18-2.55.32-1.94-.47-3.63-1.16-5.1-.67-1.42-1.57-2.73-1.75-2.56-.12.12.18.83.58,2.55.49,2.14.74,3.2.57,4.25-.19,1.18-.66,1.5-.59,2.55.05.74.34,1.32.58,1.7"/>
        <path class="cls-14" d="m62.09,282.86c.35.26.88.34,1.17,0,.23-.27.29-.75,0-3.4-.18-1.67-.31-2.55-.57-4.25-.2-1.29-.31-1.86-.58-2.55-.32-.81-.9-1.87-1.17-1.7-.33.2-.06,2.18,0,2.55.2,1.43.41,1.4.58,2.55.32,2.18-.01,4.25-.01,4.25-.07.45-.2,1.08,0,1.7.17.53.48.78.58.85Z"/>
        <path class="cls-14" d="m58.57,282.85c.17.41.36.88.58.85.34-.04.52-1.25.59-1.7.2-1.32.12-2.45,0-3.4-.22-1.92-.39-1.8-.58-3.4-.29-2.44-.02-3.83-.57-4.25-.18-.14-.43-.17-.59,0-.3.32-.11,1.21,0,2.55.03.48.02,1.45,0,3.4-.03,2-.09,2.33,0,3.4.03.34.12,1.42.58,2.55Z"/>
        <path class="cls-14" d="m55.63,283.7c.38.38.98.38,1.17,0,.21-.42-.19-1.11-.58-2.55-.25-.91-.36-1.74-.58-3.4-.1-.77-.28-2.26-.57-4.25-.11-.74-.21-1.35-.58-1.7-.36-.34-.94-.39-1.17,0-.22.38,0,.98.58,3.4.27,1.15.42,1.76.58,2.55.36,1.82.58,3.4.58,3.4.22,1.63.22,2.19.58,2.55Z"/>
        <path class="cls-14" d="m53.27,287.09c.37.2.94-.22,1.18-.85.33-.89-.08-2.04-.58-3.4-.5-1.38-.66-1.28-1.17-2.55-.78-1.96-1.12-4.03-1.16-4.25-.25-1.55-.21-2.34-.58-2.55-.37-.22-.92.28-1.18.85-.41.91-.13,2.06,0,2.55.29,1.18.68,1.23,1.17,2.55.36.98.15.96.58,2.55.51,1.87.75,1.71,1.16,3.4.25,1.02.28,1.53.58,1.7Z"/>
        <path class="cls-14" d="m52.09,290.49c.3-.1.59-.49.59-.85,0-.4-.37-.67-.58-.85-.61-.51-.99-1.2-1.75-2.56-.28-.5-.58-1.76-1.16-4.25-.57-2.45-.71-3.23-1.16-3.4-.42-.16-.95.28-1.18.85-.34.87.07,2,.58,3.4.23.65.37.9,1.17,2.55.98,2.03,1.22,2.57,1.75,3.41,1.14,1.8,1.58,1.76,1.76,1.71Z"/>
        <path class="cls-14" d="m49.74,293.03c.42.27,1.02.35,1.17,0,.21-.49-.54-1.65-.58-1.7-.83-1.25-1.4-.74-2.34-1.71-1.19-1.21-1.15-2.88-2.34-3.41-.12-.05-.47-.21-.59,0-.16.29.23,1.15.58,1.7.58.92.92.75,1.76,1.71.49.57.86,1.18,1.17,1.7.57.97.7,1.41,1.17,1.7Z"/>
        <path class="cls-14" d="m67.32,297.33c.03.09.24.85.58.85.27,0,.5-.45.59-.85.12-.56-.06-1.03-.58-2.55-.23-.67-.31-1.12-.58-1.7-.08-.17-.45-.94-.58-.85-.1.06-.04.53,0,.85.18,1.45.53,1.59.58,2.55.05.81-.18,1.05,0,1.7Z"/>
        <path class="cls-14" d="m65.56,297.33c-.02.43-.11.63,0,.85.2.42.88.47,1.17,0,.26-.41.13-1.07,0-1.7-.06-.32-.19-.86-.58-1.7-.68-1.46-1.18-1.73-1.17-2.55,0-.3.08-.5,0-.85-.1-.48-.41-.94-.58-.85-.25.12-.24,1.46,0,2.55.11.53.14.35.58,1.7.59,1.82.59,2.3.58,2.55Z"/>
        <path class="cls-14" d="m63.22,297.32c.35.58.41.83.58.85.24.03.54-.4.59-.85.06-.49-.2-.79-.58-1.7-.19-.45-.32-.87-.58-1.7-.42-1.33-.62-2-.58-2.55.02-.27.07-.51,0-.85-.09-.42-.35-.89-.58-.85-.37.05-.54,1.31-.59,1.7-.05.36-.13.96,0,1.7.1.58.2.53.58,1.7.34,1.03.31,1.22.58,1.7.21.37.25.31.58.85Z"/>
        <path class="cls-14" d="m62.04,299.87c.18.13.43.18.59,0,.28-.31.1-1.2,0-1.7-.17-.86-.45-1.45-.58-1.7-.49-.95-.74-.82-1.17-1.7-.3-.62-.47-1.28-.58-1.7-.24-.94-.26-1.46-.58-1.7-.17-.13-.43-.18-.59,0-.29.33-.09,1.28,0,1.7.12.58.24.76.58,1.7.47,1.3.35,1.23.58,1.7.51,1.04.83.81,1.17,1.7.31.81.21,1.42.58,1.7Z"/>
        <path class="cls-14" d="m61.44,302.42s.13-.44,0-.85c-.19-.61-.77-.76-1.17-.85-.97-.23-1.17.29-1.76,0-.64-.32-.99-1.23-1.17-1.7-.51-1.35-.35-2.51-.58-2.55-.21-.04-.53.84-.59,1.7-.09,1.29.44,2.29.58,2.55.34.64.81,1,1.76,1.71,1.16.87,1.56.87,1.76.86.16-.02.95-.09,1.18-.85Z"/>
        <path class="cls-14" d="m60.28,299.01c.08-.55-.19-1.03-.58-1.7-.65-1.12-.87-.94-1.17-1.7-.31-.81-.21-1.42-.58-1.7-.18-.13-.43-.17-.59,0-.27.29-.19,1.14,0,1.7.29.92.73.7,1.17,1.7.24.55.19.79.58,1.7.32.75.47.85.58.85.26.01.53-.42.59-.85Z"/>
        <path class="cls-14" d="m66.72,304.13c.65-.48,1.36-.17,1.76,0,.29.13,1.18.53,1.76,1.71.35.7.19.89.58,1.7.45.94.73.86,1.17,1.7.56,1.09.71,2.46.58,2.55-.07.05-.2-.23-.58-.85-.65-1.05-.76-1.04-1.17-1.7-.6-.99-.45-1.18-1.17-2.55-.53-1.02-.8-1.54-1.17-1.7-.5-.23-1.23-.1-1.76,0-.31.05-.55.12-.59,0-.05-.17.27-.61.59-.85Z"/>
        <path class="cls-14" d="m71.97,314.35c.2.16.49.18.59,0,.13-.25-.14-.82-.58-1.7-1.22-2.46-1.33-2.44-1.75-3.41-.6-1.38-.58-1.86-1.17-2.55-.5-.59-1.13-.95-1.17-.85-.03.07.25.34.58.85.68,1.04.55,1.48,1.17,2.55.55.97.75.77,1.17,1.7.33.72.56,1.62.58,1.7.24.93.26,1.45.58,1.7Z"/>
        <path class="cls-14" d="m66.13,305.83c.2-.23.79.24,1.17.85.32.51.31.83.58,1.7.38,1.2.84,2,1.17,2.55.67,1.15,1.21,1.63,1.17,1.7-.05.1-1-.48-1.76-1.71-.73-1.19-.45-1.64-1.17-2.55-.5-.63-.97-.85-1.17-1.7-.02-.09-.15-.67,0-.85Z"/>
        <path class="cls-14" d="m65.54,305.83c.02-.59.06-.81,0-.85-.1-.07-.41.36-.59.85-.39,1.09-.06,2.36,0,2.55.25.91.75,1.47,1.75,2.56.86.93.86.74,1.76,1.71,1.04,1.11,1.55,1.91,1.76,1.71.13-.13.07-.6,0-.85-.1-.39-.31-.61-.58-.85-.59-.52-.83-.57-1.17-.85-.4-.33-.32-.46-1.17-1.7-.64-.94-.78-1-1.17-1.7-.5-.92-.57-1.39-.58-1.7-.01-.39,0-.85,0-.85Z"/>
      </g>
      <path class="cls-11" d="m130.51,243.51c-1.43-.14-5.03-.97-13-17-5.85-11.76-4.27-12.03-8-18-7.07-11.33-13.94-12.3-14-19-.04-4.88,3.55-10.02,8-12,6.52-2.9,10.22,3.06,24,5,11.52,1.62,14.82-1.72,22,2,1.76.91,8.85,4.58,10,11,1.32,7.35-6.82,9.12-12,23-3.28,8.78-1.89,13.09-7,19-1.73,2-5.55,6.42-10,6Z"/>
      <path class="cls-13" d="m135.51,131.51c-6.44-3.77-11.62-6.8-18-6-5.67.71-9.63,4.11-13,7-5.82,5-4.64,7.06-10,12-7.79,7.19-14.53,6.75-15,11-.38,3.45,4.01,4.12,6,11,1.44,4.96.04,7.68,2,9,1.67,1.13,3.59-.25,10-2,4.17-1.14,6.86-1.87,10-2,2.07-.08,3.39.13,14,3,9.94,2.69,10.15,2.86,12,3,6.14.46,7.36-1.21,12,0,4.25,1.11,7.26,3.58,9,5,5.04,4.12,5.23,7.04,9,8,3.3.84,6.24-.62,7-1,3.55-1.76,5.11-4.97,7-9,2.73-5.82,1.44-6.49,4-12,2.6-5.59,4.45-6.05,5-10,.11-.77.8-5.77-2-9-2.56-2.96-6.27-2.38-13-3-3.84-.36-15.19-1.41-25-7-5.38-3.07-4.23-4.04-11-8Z"/>
      <path class="cls-3" d="m150.51,86.51c-.91-.2-3.75-.79-7,0-3.16.77-5.07,2.44-12,10-8.75,9.54-7.56,8.87-10,11-4.98,4.34-8.23,5.61-8,8,.23,2.43,3.87,4.05,6,5,3.68,1.64,5.17.98,9,2,3.07.82,5.72,2.54,11,6,6.71,4.39,6.34,5.06,10,7,4.44,2.36,8.16,3.07,13,4,10.03,1.92,10.66-.23,18,2,1.81.55,4.02,1.36,7,1,3.78-.46,6.41-2.52,7-3,3.33-2.72,2.37-4.61,6-9,2.44-2.95,4.99-4.65,7-6,3.55-2.38,5.33-3.56,8-4,4.04-.66,5.36,1.13,9,0,1.78-.55,4.9-2.04,5-4,.07-1.38-1.39-2.91-8-6-6.34-2.96-11.43-4.57-16-6-9.62-3-14.49-4.51-17-5-7.87-1.53-7.83-.38-14-2-5.21-1.37-9.89-2.6-15-6-3.29-2.18-5.06-4.14-9-5Z"/>
      <path class="cls-6" d="m197.51,38.51c-2.84-1.35-5.93-.35-7,0-4.09,1.33-6.13,4.61-7,6-1.26,2.02-1.86,4.71-3,10-1.46,6.75-1.04,6.97-2,9-.52,1.09-2.98,6.32-8,8-3.68,1.24-4.51-.85-11,0-4.92.65-7.05,2.19-8,3-.93.79-3.39,2.89-3,5,.35,1.89,2.66,2,7,5,3.4,2.35,2.96,2.95,6,5,3.37,2.26,6.43,3.22,9,4,3.56,1.08,4.07.77,11,2,5.39.96,8.88,1.6,13,3,3.17,1.08,4.79,2.81,9,4,2.05.58,3.81.86,5,1,1.65.61,4.11,1.59,7,3,4.26,2.08,6.39,3.61,7,3,.69-.69-1.08-3.53-2-5-.35-.57-1.37-2.15-4-5-1.78-1.93-2.67-2.89-4-4-3.95-3.28-5.73-2.81-9-6-1.32-1.29-2.34-2.29-3-4-1.64-4.28.71-8.5,1-9,.8-1.38,2.2-2.58,5-5,1.35-1.16,2.83-2.44,5-4,8.27-5.95,12.63-6.03,13-9,.26-2.11-1.69-4.13-3-5-2.08-1.38-3.84-.69-7-1-.53-.05-6.13-.66-10-4-4.43-3.82-2.96-8.09-7-10Z"/>
    </g>
  </g>
</svg>