<?xml version="1.0" encoding="UTF-8"?>
<svg id="Layer_2" data-name="Layer 2" xmlns="http://www.w3.org/2000/svg" viewBox="0 0 404.75 533.59">
  <defs>
    <style>
      .cls-1 {
        fill: #ffe9f6;
        stroke: #fffcff;
      }

      .cls-1, .cls-2, .cls-3 {
        stroke-miterlimit: 10;
      }

      .cls-2, .cls-3 {
        fill: #8a002a;
        stroke: #ff9fb4;
      }

      .cls-3 {
        stroke-width: 3px;
      }

      .cls-4 {
        fill: #b2e1cf;
      }

      .cls-4, .cls-5, .cls-6, .cls-7, .cls-8 {
        stroke-width: 0px;
      }

      .cls-5 {
        fill: #f1b1c9;
      }

      .cls-6 {
        fill: #ffe8b0;
      }

      .cls-7 {
        fill: #efd3bf;
      }

      .cls-8 {
        fill: #0004aa;
      }
    </style>
  </defs>
  <g id="Layer_1-2" data-name="Layer 1">
    <g>
      <g>
        <path class="cls-2" d="m129.74,321.9c-.67.22-1.65.48-2.86.57-1.68.12-2.96-.15-4.1-.41-2.14-.48-3.67-1.2-4.71-1.69-1.03-.49-2.61-1.33-4.37-2.63-1.04-.77-1.09-.93-4.03-3.57-2.2-1.99-1.97-1.72-4.03-3.57-2.92-2.63-3-2.81-4.03-3.57-.83-.62-1.63-1.13-4.37-2.63-3.12-1.71-4.68-2.57-6.25-3.31-3.63-1.71-3.84-1.3-10.35-3.72-5.25-1.96-5.66-2.43-8.47-3.05-2.99-.66-3.38-.31-5.98-1.09-1.92-.57-4.58-1.4-7.19-3.65-1.65-1.43-3.06-2.64-3.69-4.51-.17-.52-.42-1.49-1.21-2.56-.52-.71-.89-.95-1.54-1.62-1.22-1.25-1.66-2.21-2.15-2.9-.8-1.13-1.8-1.65-7.19-3.65-2.99-1.11-4.48-1.66-6.59-2.37-4.16-1.4-5.26-1.61-7.53-2.71-2.13-1.03-3.19-1.54-4.37-2.63-.78-.73-1.33-1.44-3.95-6.74-1.72-3.46-2.57-5.19-3.01-6.4-.76-2.09-.91-3.07-2.07-6.06-1.09-2.81-1.57-3.51-1.81-3.84-1-1.38-1.8-1.77-4.03-3.57-2.09-1.7-3.14-2.54-4.03-3.57-1.68-1.95-2.33-3.86-3.62-7.68-1.13-3.36-1.7-5.04-1.73-7-.04-2.17.56-4.1,1.77-7.87,1.29-4.03,1.57-3.96,2.37-6.59,1.04-3.42,1.32-6.06,1.84-11.03.63-5.98.25-6.59,1.16-9.15,1.03-2.9,2.65-5.29,3.31-6.25,1.75-2.55,2.16-2.35,3.91-4.97,1.88-2.81,2.95-5.37,3.31-6.25,1.12-2.77.76-2.94,1.69-4.71.93-1.76,1.68-2.33,3.91-4.97,3.18-3.77,2.57-3.7,3.91-4.97,2.28-2.15,4.6-2.87,8.96-4.22,3.09-.96,6.32-1.92,8.88-1.06,1.68.57,2.82,1.02,2.82,1.02,1.74.68,2.08.92,2.82,1.02,1.51.19,2.57-.49,3.5-.87,3.09-1.25,6.53.12,9.15,1.16,2.22.89,1.7,1.19,6.85,4.59,4.38,2.89,8.49,5.13,8.73,5.27,2.11,1.15,3.2,1.65,5.31,2.97,2.55,1.61,3.85,2.44,4.97,3.91.55.72,1.91,2.52,2.41,5.12.31,1.6.09,2.43.87,3.5.48.66.88.79,2.48,1.96,1.63,1.19,1.77,1.47,2.48,1.96,2.29,1.57,3.96.84,7.87,1.77,1.87.45,3.16,1.01,4.71,1.69,3.28,1.44,5.71,2.51,7.79,4.93,1.57,1.83,2.71,4.15,3.35,5.46.12.24.14.3,1.21,2.56,1.18,2.52,1.77,3.77,1.81,3.84.27.52,2.26,4.28,6.17,6.47,2.45,1.37,2.75.5,4.71,1.69,3.24,1.97,4.98,5.92,5.16,9.29.12,2.19-.43,3.88-1.43,6.93-1.19,3.64-2.02,4.06-2.37,6.59-.14,1.02-.53,3.86.79,6.66,1.32,2.8,2.86,2.39,6.17,6.47,1.11,1.36,2.4,2.98,3.35,5.46.37.96,1.07,3.05,1.13,5.72.03,1.45-.12,3.1-2.44,9.75-1.76,5.04-2.14,5.43-3.05,8.47-1.2,4.04-1.67,7.22-1.77,7.87-.77,5.33.04,6.57-.03,14.87-.05,5.36-.09,8.1-.9,11.37-.81,3.27-1.99,7.71-5.94,10.62-1.67,1.23-3.34,1.81-4.48,2.11Z"/>
        <path class="cls-3" d="m127.06,311.66c-.55.16-1.35.35-2.33.41-1.38.07-2.42-.16-3.36-.38-1.76-.41-3.02-.99-3.87-1.39-.85-.4-2.15-1.08-3.61-2.13-.86-.62-.91-.74-3.34-2.86-1.83-1.59-1.63-1.38-3.34-2.86-2.42-2.1-2.49-2.25-3.34-2.86-.69-.5-1.34-.91-3.61-2.13-2.57-1.39-3.86-2.08-5.15-2.68-2.99-1.39-3.16-1.07-8.51-3.06-4.32-1.61-4.66-1.98-6.97-2.51-2.45-.56-2.77-.29-4.91-.94-1.58-.48-3.77-1.16-5.93-2.96-1.37-1.14-2.54-2.11-3.08-3.59-.15-.41-.37-1.17-1.02-2.02-.43-.56-.74-.76-1.28-1.29-1.01-.99-1.39-1.76-1.79-2.3-.67-.89-1.49-1.32-5.93-2.96-2.46-.91-3.69-1.37-5.42-1.95-3.42-1.15-4.32-1.34-6.19-2.23-1.75-.83-2.63-1.25-3.61-2.13-.65-.58-1.11-1.15-3.32-5.34-1.45-2.74-2.17-4.11-2.55-5.06-.65-1.65-.79-2.42-1.78-4.78-.93-2.22-1.33-2.77-1.53-3.04-.84-1.1-1.5-1.41-3.34-2.86-1.73-1.36-2.6-2.04-3.34-2.86-1.4-1.55-1.96-3.06-3.06-6.07-.97-2.65-1.46-3.98-1.51-5.52-.06-1.7.41-3.21,1.34-6.15,1-3.15,1.23-3.08,1.85-5.14.8-2.67.99-4.74,1.35-8.63.44-4.68.11-5.16.83-7.16.81-2.26,2.1-4.12,2.62-4.86,1.39-1.98,1.74-1.81,3.13-3.85,1.5-2.18,2.34-4.17,2.62-4.86.88-2.16.58-2.29,1.32-3.67.74-1.37,1.34-1.8,3.13-3.85,2.55-2.91,2.05-2.87,3.13-3.85,1.83-1.66,3.72-2.19,7.27-3.19,2.51-.71,5.14-1.42,7.25-.71,1.38.47,2.32.83,2.32.84,1.43.56,1.72.75,2.32.84,1.24.17,2.09-.35,2.85-.63,2.51-.94,5.34.18,7.49,1.04,1.83.73,1.41.96,5.66,3.69,3.62,2.33,7.01,4.15,7.21,4.25,1.74.93,2.64,1.34,4.38,2.4,2.11,1.3,3.18,1.97,4.12,3.14.46.58,1.59,2,2.04,4.05.28,1.26.1,1.91.76,2.76.4.52.73.63,2.06,1.57,1.35.96,1.47,1.18,2.06,1.57,1.9,1.26,3.25.71,6.46,1.49,1.54.38,2.6.84,3.87,1.39,2.7,1.18,4.7,2.05,6.44,3.97,1.31,1.45,2.27,3.29,2.81,4.33.1.19.12.23,1.02,2.02,1,1.99,1.5,2.98,1.53,3.04.22.41,1.91,3.39,5.14,5.16,2.02,1.11,2.25.43,3.87,1.39,2.67,1.59,4.15,4.71,4.34,7.36.13,1.72-.3,3.04-1.07,5.42-.92,2.84-1.6,3.16-1.85,5.14-.1.8-.38,3.02.74,5.24,1.12,2.22,2.37,1.92,5.14,5.16.92,1.08,2,2.37,2.81,4.33.32.76.91,2.41,1,4.5.05,1.14-.05,2.43-1.87,7.62-1.37,3.93-1.68,4.23-2.38,6.61-.92,3.16-1.27,5.64-1.34,6.15-.56,4.17.12,5.16.18,11.67.04,4.2.04,6.36-.58,8.91-.62,2.55-1.52,6.03-4.71,8.25-1.35.94-2.71,1.38-3.63,1.59Z"/>
        <path class="cls-3" d="m119.76,296.97c-.38.02-.93.03-1.61-.06-.95-.13-1.68-.38-2.34-.61-1.23-.44-2.11-.91-2.71-1.23-.59-.32-1.51-.85-2.54-1.6-.61-.44-.64-.52-2.37-1.98-1.3-1.1-1.16-.95-2.37-1.98-1.72-1.45-1.77-1.54-2.37-1.98-.49-.36-.95-.66-2.54-1.6-1.81-1.07-2.72-1.61-3.63-2.1-2.1-1.13-2.21-.97-5.96-2.71-3.03-1.41-3.27-1.65-4.88-2.22-1.71-.6-1.93-.49-3.42-1.11-1.1-.45-2.63-1.09-4.17-2.34-.97-.79-1.8-1.47-2.2-2.35-.11-.24-.28-.69-.75-1.24-.31-.36-.53-.51-.91-.87-.72-.67-1-1.13-1.29-1.48-.48-.57-1.06-.91-4.17-2.34-1.72-.8-2.58-1.2-3.79-1.73-2.4-1.05-3.02-1.26-4.34-1.97-1.23-.67-1.85-1.01-2.54-1.6-.46-.4-.79-.77-2.41-3.34-1.06-1.68-1.59-2.52-1.86-3.09-.48-.99-.59-1.43-1.32-2.85-.69-1.34-.97-1.69-1.12-1.86-.6-.7-1.07-.96-2.37-1.98-1.23-.96-1.84-1.44-2.37-1.98-1-1.02-1.41-1.92-2.24-3.71-.72-1.58-1.09-2.37-1.15-3.22-.07-.94.22-1.72.81-3.22.63-1.61.8-1.55,1.19-2.61.51-1.37.6-2.49.78-4.59.21-2.53-.02-2.83.44-3.84.52-1.15,1.38-2.01,1.73-2.36.93-.92,1.17-.79,2.1-1.74,1-1.02,1.55-2.02,1.73-2.36.57-1.08.36-1.19.85-1.86.49-.67.9-.83,2.1-1.74,1.71-1.3,1.37-1.33,2.1-1.74,1.24-.69,2.54-.76,4.98-.88,1.73-.09,3.54-.16,5.01.48.96.42,1.63.74,1.63.74,1,.48,1.2.62,1.63.74.86.24,1.44.06,1.96,0,1.73-.22,3.71.74,5.22,1.47,1.28.62.99.7,4,2.72,2.56,1.72,4.94,3.13,5.08,3.21,1.22.72,1.86,1.06,3.08,1.85,1.49.97,2.25,1.47,2.91,2.22.33.37,1.14,1.3,1.49,2.48.21.73.11,1.06.58,1.61.29.34.52.43,1.46,1.11.96.69,1.04.83,1.46,1.11,1.34.92,2.27.78,4.51,1.6,1.07.39,1.82.77,2.71,1.23,1.89.97,3.3,1.7,4.54,2.96.94.96,1.64,2.09,2.03,2.72.07.11.09.14.75,1.24.73,1.22,1.1,1.82,1.12,1.86.16.25,1.39,2.1,3.66,3.46,1.42.85,1.57.51,2.71,1.23,1.88,1.2,2.97,3.1,3.15,4.58.12.96-.15,1.64-.64,2.85-.59,1.45-1.05,1.55-1.19,2.61-.06.43-.21,1.62.61,2.97.82,1.35,1.68,1.34,3.66,3.46.66.71,1.43,1.55,2.03,2.72.23.46.68,1.44.78,2.6.05.63,0,1.33-1.15,3.97-.88,2-1.09,2.13-1.52,3.35-.58,1.63-.77,2.95-.81,3.22-.31,2.23.18,2.86.34,6.44.1,2.32.15,3.51-.24,4.83-.38,1.33-.94,3.13-3.12,3.97-.92.36-1.85.43-2.49.44Z"/>
        <path class="cls-1" d="m101.08,272.15c3.1,4.14,9.29,6.51,11.58,4.31s.16-8.49-3.86-11.74c-2.6-2.1-6.89-3.67-9.01-1.63-2.12,2.04-.71,6.39,1.29,9.07Z"/>
      </g>
      <path class="cls-8" d="m285.57,45.41c-.15.2,2.68,2.16,7.11,6.96,0,0,.53.57,1.15,1.27,5.21,5.86,10.7,13.8,10.7,13.8,4.44,6.43,6.24,9.83,9,11.14.05.02,1.68.8,3.64,2.18,1.67,1.17,2.51,1.76,2.67,2.42.61,2.45-5.58,5.97-7.5,7.05-5.31,2.97-7.25,2.88-14.06,5.61-7.16,2.87-11.51,5.57-14.54,7.79-3.22,2.36-8.02,5.88-7.26,8.02.79,2.25,7.29,1.83,9.7,1.68,1.85-.12,9-.71,18.18-5.62,6.95-3.71,11.63-7.06,11.63-7.06,3.64-2.6,5.95-4.67,7.27-3.9.25.14,1.25.86.5,6.06-.73,5.06-2.31,8.65-3.37,11.16-6.13,14.46-4.29,13.96-7,17.23-2.05,2.48-4.7,4.68-5.08,8.5-.06.63-.3,3.04.98,3.88,1.46.95,4.02-.69,4.85-1.22,4.15-2.66,5.52-6.62,8.22-12.39,3.13-6.68,2.71-4.41,6.28-11.9,5.02-10.55,7.54-15.82,7.96-21.6.36-4.87-.62-6.14.71-9.46,1.48-3.7,4.01-5.4,9.92-9.72,15.24-11.14,12.14-9.89,16.47-12.4,6.18-3.58,10.08-4.72,12.11-9.24,1.14-2.54,1.5-5.73.47-6.31-1.23-.7-3.51,2.91-8.72,6.32-4.35,2.85-4.92,1.74-11.15,4.87-4.61,2.32-8.26,4.91-13.32,8.52-4.52,3.21-7.47,5.63-7.99,5.11-.45-.45,1.66-2.34,2.66-5.83.99-3.47-.29-4.41-.51-10.19-.13-3.44.23-6.5.94-12.61.47-4.04.7-4.62.47-6.31-.33-2.47-1.07-3.13-3.17-8.48-1.56-3.99-1.94-5.63-2.44-5.57-.64.08-.51,2.88-1.2,7.52-.47,3.2-.77,3.44-1.92,8.74-1.27,5.84-1.91,8.76-2.16,11.89-.21,2.57-.21,5.52-.22,11.4,0,4.75.08,6.78-1.2,7.52-1.49.86-3.87-.62-5.58-1.69-3.37-2.1-4.6-4.24-6.8-6.53-2.26-2.35-3.85-3.09-8.74-6.05-11.42-6.89-19.42-12.92-19.67-12.57Z"/>
      <path class="cls-5" d="m169.98,409.04c-1.31.96-.88,3.89.07,5.83.67,1.37,1.46,1.99,3.47,3.73,1.84,1.59,3.53,3.33,5.37,4.91,0,0,4.32,3.71,8.32,7.79,4.71,4.8,7.73,9.14,10.09,12.57,2.76,4.01,3.19,5.17,6.29,10.22,7.23,11.76,8.28,10.93,12.92,19.06,3.43,6.01,6.33,12.55,8.79,18.08,1.92,4.33,2.77,6.53,4.92,9.89,3.56,5.55,4.79,5.05,7.15,9.69,2.58,5.08,1.92,7.27,4.92,9.89,1.41,1.23,2.82,1.86,3.47,3.73.83,2.38-.31,4.69-.46,4.98-.9,1.76-2.33,2.63-2.88,2.95-4.91,2.88-11.84-.05-14.94-1.37-1.97-.84-1.6-.9-5.18-2.68-5.37-2.68-8.77-3.83-11.2-4.84-4.58-1.91-5.13-3.12-16.25-11.13-8.54-6.15-8.3-5.5-14.35-9.95-5.58-4.11-9.07-7.09-16.45-13.36-28-23.8-26.61-22.51-29.62-25.21-17.3-15.47-15.46-15.36-20.97-18.79-3.31-2.06-9.52-5.55-15.93-12.51-1.69-1.83-3.3-3.58-5.05-6.29-1.53-2.37-8.53-13.21-5.78-24.63.84-3.46,2.6-7.11,3.66-9.3,2.4-4.97,2.88-4.23,3.86-7.08.22-.63.61-1.89,1.18-1.9.48,0,1,.89,1.05,1.7.03.45-.1.72-.33,1.38-.55,1.56-.9,2.57-.65,2.75.27.19,1.28-.58,2.55-1.57.57-.44.71-.58.85-.52.57.22.08,3-.46,4.98-.81,3.01-1.49,3.35-2.16,6.03-.72,2.9-.54,4.97-.46,4.98.14.02.26-5.56,2.16-6.03.56-.14,1.15.2,1.38.33.26.15,1.14.71,1.57,2.55.18.78.27,1.71-.78,6.36-.76,3.36-1.14,5.03-1.31,5.5-.06.17-.25.68-.33,1.38-.03.24-.11,1.18.2,2.23.29.99.7,1.3,1.57,2.55,1.62,2.33,1.12,2.59,2.1,3.41.71.59.62.16,3.28,1.51.53.27,1.03.54,1.38.33.25-.16.29-.5.33-1.38.08-2.14-.06-2.59.13-3.6.14-.74.26-.72.33-1.38.04-.33.1-1.23-.2-2.23-.16-.53-.63-1.2-1.57-2.55-.94-1.35-1.41-2.03-1.57-2.55-.28-.91-.23-1.71-.2-2.23.09-1.25.4-1.21.65-2.75.23-1.39.07-2.04.65-2.75.13-.15.49-.59.85-.52.36.07.43.6,1.05,1.7.24.43.37.61.52.85.88,1.44,1.62,4.02,2.3,5.63,1.11,2.65,1.81,2.06,3.15,5.11.72,1.64,1.12,2.56,1.25,3.93.16,1.77-.27,2.82.4,4.45.28.69.58,1.06,1.05,1.7,1.67,2.3,1.92,3.21,3.15,5.11,1.26,1.95,2.42,3.2,4.52,5.44,0,0,4,4.26,8.32,7.79,0,0,13.83,11.89,34.73,22.06,1.67.81,3.28,1.51,3.28,1.51,2.31,1,3.89,1.54,4.65,1.83,2.83,1.07,4.78,2.56,7.6,4.71,2.16,1.65,5.27,4.02,8.32,7.79,1.11,1.38,1.84,2.47,3.47,3.73,1.65,1.27,3.13,1.87,5.18,2.68,4.82,1.91,5.21.93,7.4,2.49,1.02.72,1.98,1.67,3.28,1.51.16-.02,1.23-.17,1.7-1.05.55-1.01-.16-2.16-.2-2.23-.64-1.01-1.84-1.21-3.28-1.51,0,0-.84-.17-5.5-1.31-4.49-1.09-7.58-3.81-8.98-5.04-.86-.76-.49-.55-3.47-3.73-2.13-2.28-2.99-3.1-6.42-6.61-5.72-5.85-4.87-5.13-6.42-6.61-3.37-3.23-3.7-3.11-7.8-6.94-1.92-1.79-1.51-1.5-5.9-5.76-4.57-4.43-4.69-4.43-5.9-5.76-1.62-1.78-2.19-2.65-5.57-7.14-3.14-4.18-4.71-6.26-6.1-7.99-2.29-2.86-2.37-2.75-8.52-10.02-2.97-3.52-3.88-4.64-5.05-6.29-.67-.95-2.36-3.39-4.2-6.81-1.47-2.74-3.55-6.64-5.12-12.12-.49-1.73-1.77-6.49-2.04-12.84-.28-6.48.64-11.17,1.37-14.94.58-3,1.2-5.14,2.49-7.4.67-1.18.85-1.22,3.21-4.33,2.83-3.74,4.27-5.65,5.56-8.13,1.33-2.55,1.89-4.37,2.16-6.03.19-1.15.36-2.22.13-3.6-.21-1.27-.55-1.55-1.25-3.93-.39-1.33-.6-2.05-.72-3.08-.15-1.27-.28-2.47.13-3.6.69-1.9,2.35-1.98,4.58-4,1.55-1.4,2.33-2.78,3.21-4.33,1.99-3.52,2.52-6.86,2.81-8.78.34-2.29.2-3.13.78-6.36.58-3.21,1.04-4.1,1.83-4.65,1.13-.79,2.55-.62,4.45-.4,1.64.19,3.28.71,4.13.98,1.02.32,1.67.59,2.75.65.73.04,1.23-.04,2.23-.2,2-.32,3.06-.49,3.93-1.25.68-.59.93-1.27,1.18-1.9,1.01-2.51.91-1.19,3.86-7.08.9-1.79,1.49-3.07,2.68-5.18.66-1.17.92-1.56,1.18-1.9,1.25-1.68,2.5-2.54,3.73-3.47,3.12-2.37,2.8-2.8,4.58-4,2.56-1.72,5.03-2.08,7.86-2.49,5.11-.74,9.07.07,12.19.71,2.57.53,4.81,1.01,7.4,2.49,1.25.71,2.77,1.58,4.33,3.21,1.48,1.55,1.82,2.57,3.47,3.73,1.15.81,1.86.93,3.28,1.51,2.29.93,2.64,1.5,7.6,4.71,1.25.81,3.19,2.06,5.7,3.53,3.19,1.87,4.8,2.82,7.08,3.86,4.35,1.99,5.1,1.58,7.93,3.34.95.59,2.89,1.9,4.85,4.06,1.97,2.18,2.93,4.09,4.72,7.66.38.75,1.55,3.13,2.82,6.48.33.88,1.06,3.22,2.49,7.86.28.92.56,1.83.72,3.08.14,1.09.03,1.18.2,2.23.15.96.29,1.21.72,3.08.36,1.56.37,1.88.2,2.23-.37.74-1.3.96-1.7,1.05-1.74.41-3.32-.5-4.13-.98-1.18-.7-1.54-1.26-2.42-2.03-1.8-1.57-3.49-2.04-5.18-2.68-1.38-.53-3.91-2.03-8.98-5.04-5.93-3.52-5.51-3.69-9.5-5.89-.69-.38-3.29-1.66-8.45-4.19-5.16-2.53-6.31-3.07-8.45-4.19,0,0-4.46-2.24-7.08-3.86,0,0-1.43-.89-1.9-1.18l-1.9-1.18c-1.27-.87-1.38-1.16-1.9-1.18-.71-.02-1.37.51-1.7,1.05-.11.18-.35.63-.33,1.38.04,1.25.78,2.31,2.62,4.26,1.33,1.4,1.99,2.1,2.95,2.88,2.55,2.08,4.33,2.84,7.6,4.71,0,0,3,1.72,5.7,3.53,4.44,2.99,5.1,4.61,10.75,9.82,1.9,1.75,4.5,3.87,9.7,8.12,2.93,2.39,5.01,4.01,9.18,7.27,2.63,2.05,6.7,5.2,10.03,6.74t3.28,1.51c2.18,1,3.28,1.51,3.28,1.51,1.83,1.01,2.31,1.64,3.28,1.51.9-.12,1.49-.8,1.7-1.05.94-1.08.97-2.42.98-4.13.03-4.51.04-6.77-.27-8.06-.43-1.81-.67-1.63-1.77-4.78-.5-1.43-1.38-3.96-1.97-7.01-.9-4.66-.15-5.53-1.31-9.76-.42-1.52-1.07-3.41-1.25-3.93-.55-1.6-.9-2.47-1.77-4.78,0,0-.58-1.55-1.77-4.78-1.49-4.05-2.52-7.22-3.02-8.71-6.44-19.42-11.35-31.77-11.35-31.77-5.22-13.13-6.31-13.43-9.18-22.53-2.14-6.79-3.7-11.74-4.33-18.47-.51-5.49-.27-10.69,2.93-27.65,3.02-15.97,3.56-15.36,5.36-25.62.66-3.75,2.88-16.88,3.72-34,.83-16.92-.84-14.28.18-28.3,1.04-14.24,3.32-24.62,2.34-34.33-.39-3.83-1.14-6.2-.46-10.29.36-2.18,1.13-4.86.59-8.58-.19-1.32-.49-2.38-.72-3.08-1.26-5.75-2.3-10.68-3.09-14.54-2.1-10.23-3.15-15.34-3.28-16.77-.34-3.57-1.33-7.06-1.84-10.61-.14-.97-.34-2.39-1.25-3.93-.81-1.37-1.9-2.34-3.47-3.73-1.65-1.46-2.25-1.72-2.95-2.88-.44-.73-1.19-1.97-.72-3.08.5-1.19,2.11-1.49,2.55-1.57,1.86-.35,3.08.46,5.5,1.31,2.5.87,2.28.38,5.5,1.31,3.22.92,5.61,1.61,7.93,3.34,2.53,1.89,3.8,4.13,4.52,5.44,2.4,4.33,2.67,8.79,2.89,12.31.21,3.48-.15,4.39.59,6.68.42,1.28.92,2.18,3.67,5.96,2.56,3.52,4.64,6.19,7.15,9.69,2.62,3.66,2.92,4.34,3.15,5.11,1.09,3.62-.02,6.9-.59,8.58-1.29,3.81-3.71,6.8-5.89,9.5-.56.7-1.58,1.9-2.36,3.8-.27.65-.72,1.91-.98,4.13-.32,2.72-.08,4.6.27,8.06.22,2.23.36,4.46.59,6.68.67,6.48.13,11.18,0,15.26-.45,14.68,4.5,18.41,5.19,33.21.14,2.92.12,6.45,1.84,10.61.51,1.23,1.26,2.74,2.82,6.48,1.3,3.13,1.57,3.99,1.77,4.78.22.89.62,2.69.59,6.68-.02,3.32-.04,6.21-.91,9.96-.77,3.33-1.46,6.27-3.66,9.3-1.58,2.17-3.54,3.76-7.47,6.95-2.33,1.89-3.19,2.38-4.58,4-.43.5-1.96,2.33-3.53,5.7-1.09,2.33-1.32,3.53-2.49,7.4-2.22,7.42-3.2,9.18-4.12,14.28-.48,2.67-.52,3.88-.46,4.98.24,3.92,1.87,6.73,2.49,7.86,2.8,5.03,4.22,10.7,6.36,16.05,2.59,6.47,3.81,11.31,5.71,18.8,1.09,4.29,2.38,11.3,4.93,25.15,2.16,11.76,2.14,12.05,3.48,19,1.64,8.54,1.89,9.26,3.28,16.77,1.83,9.91,1.63,9.89,2.56,13.69,1.86,7.54,2.82,8.23,2.89,12.31.03,2.16-.14,7.93-1.24,11.33-.06.19-.23.69-.33,1.38-.37,2.57.63,4.66.92,5.31.43.97.29,1.05,1.31,9.76,2.14,18.17,2.34,14.3,2.63,19.52,0,0,.18,3.28,1.64,8.38.76,2.67,1.54,4.52,3.15,5.11.73.27,1.81.33,2.23-.2.57-.73-.31-2.28-.72-3.08-.12-.24-.8-3.24-2.17-9.24-.94-4.14-1.1-8.02-1.38-15.59-.28-7.64.04-7.47-.2-17.49-.22-9.05-.57-12.46-.86-14.74-.53-4.26-.81-4.41-1.84-10.61-1.62-9.74-1.29-11.47-2.63-19.52-.86-5.15-1.7-8.71-3.09-14.54-2.55-10.77-3.14-10.88-5.38-20.18-1.77-7.36-3.39-14.09-4.73-22.93-.52-3.47-.93-6.79-2.36-11.46-.89-2.89-1.18-3.09-4.07-10.41-3.32-8.44-4.24-11.5-4.79-13.49-1.07-3.9-1.61-5.9-1.64-8.38-.05-4.12,1.07-7.46,2.62-11.01,4.47-10.27,9.75-16.58,9.75-16.58,13.21-15.79,30.72-33.87,31.49-34.67,13.16-13.59,19.73-20.39,26.58-29.3,4.03-5.24,17.86-23.69,26.06-30.15.58-.46,2.07-1.59,3.73-3.47,3.05-3.45,4.03-6.4,6.22-10.88.49-.99,2-3.66,5.04-8.98,11.55-20.25,12.44-21.76,12.44-21.76.64-1.09,1.97-3.34,3.01-6.55.31-.96.64-2.48,1.31-5.5.96-4.4.99-5.31.78-6.36-.2-1.03-.49-1.47-.72-3.08-.27-1.85-.41-2.78.13-3.6.78-1.2,2.59-1.63,3.93-1.25.92.26,1.31.82,2.42,2.03,1.56,1.69,3.27,3.55,5.37,4.91,2.09,1.35,2.82,1.09,3.8,2.36.59.77.8,1.49,1.25,3.93.64,3.51.96,5.27,1.12,7.53.1,1.53.22,3.4.07,5.83-.24,3.75-.47,7.36-2.62,11.01-1.18,1.99-2.94,4.02-3.21,4.33-1.35,1.53-2.4,2.44-3.21,4.33-.6,1.39-.65,2.34-.65,2.75-.01,1.14.3,1.95.72,3.08,1.76,4.66,1.28,3.65,1.77,4.78,1.73,4.02,2.23,4.15,2.3,5.63.06,1.27-.29,2.22-.98,4.13-.43,1.2-1.15,3.17-2.68,5.18-1.8,2.35-3.82,3.57-5.44,4.52-3.65,2.15-7.2,3-9.56,3.54-2.81.65-4.4.71-7.01,1.97-1.84.89-3.08,1.84-3.41,2.1-2.65,2.08-3.94,4.43-5.24,6.75-3.46,6.21-5.19,9.31-6.22,10.88-3.21,4.9-3.89,4.38-6.42,8.65-.93,1.58-.66,1.35-4.52,9.83-.38.84-1.76,3.84-4.52,9.83-2.98,6.48-2.94,6.38-3.01,6.55-2.58,6.41-1.84,7.93-4.12,14.28-.21.59-1.65,3.67-4.52,9.83-3.5,7.51-4.11,8.68-5.37,10.35-1.39,1.85-3.61,4.73-7.47,6.95-3.25,1.86-6.4,2.53-8.71,3.02-1.3.27-5.61,1.11-8.38,1.64-.87.17-2.27.43-3.93,1.25-1.2.59-3.28,1.61-3.73,3.47-.23.96.04,1.79.2,2.23,2.99,8.33,12.79,22.66,12.79,22.66,3.15,4.61,4.75,6.98,6.29,10.22.49,1.04,1.69,4.18,4.07,10.41,2.98,7.81,3.16,8.39,4.07,10.41,1.27,2.84,1.85,3.8,3.34,7.34,1.13,2.68,1.12,2.9,2.3,5.63,1.93,4.5,2.18,4.43,2.82,6.48.81,2.61.47,2.93,1.44,6.16.75,2.49,1.54,4.28,1.77,4.78,1.38,3.04,2.54,4.27,4.2,6.81,2.72,4.16,2.25,4.91,5.44,10.74,1.86,3.39,2.91,4.78,4.72,7.66,2.18,3.47,7.01,11.16,10.36,20.63,2.79,7.87,1.83,9.31,4.99,15.72,1.3,2.64,2.47,4.45,3.87,8.19.91,2.43,1.42,4.34,2.69,10.09,1.99,8.98,2.98,13.48,3.28,16.77.1,1.08.5,5.66.14,11.66-.31,5.07-.81,13.39-4.71,22.87-4,9.72-9.57,15.79-13.49,20.05-7.6,8.27-14.89,12.75-17.16,14.09-3.89,2.3-7.9,4.67-13.82,6.16-8.73,2.2-15.91,1.05-19.72.4-12.18-2.08-20.6-7.8-23.79-10.01-6.48-4.51-6.92-6.67-19.4-16.24-2.98-2.28-4.12-3.05-6.75-5.24-5.64-4.69-7.37-6.94-12.65-11-1.29-.99-3.42-2.62-6.23-4.39-2.21-1.39-7.28-4.4-16.38-7.53-7.47-2.57-7.48-1.72-19.79-5.43-8.94-2.69-11.06-3.78-12.06-4.32-6.55-3.53-9.83-5.29-11.4-7.07-.31-.35-1.67-1.94-3.8-2.36-.6-.12-1.54-.3-2.23.2Z"/>
      <path class="cls-4" d="m62.89,340.36c-1.66-4.7-3.3-6.54-4.8-7.69-.82-.63-2.46-1.9-4.64-2.2-4.65-.64-8.52,3.53-12.38,7.7-4.27,4.6-6.84,7.37-7.68,12.09-1.14,6.46,1.83,11.75,2.67,13.19,5.06,8.72,15.02,11.51,21,13.18,9.4,2.63,17.38,1.86,25.23,1.09,6.54-.64,11.05-1.8,12.54-2.2,6.7-1.81,11.68-3.15,15.85-6.6,9.48-7.85,8.64-21.55,8.48-24.18-.27-4.44-.91-14.75-9.79-21.98-9.86-8.03-22.08-5.9-24.21-5.49-4.02.78-12.72,2.28-16.9,9.89-3.22,5.86-3.02,13.97,1.71,19.78.8.98,5.33,6.56,12.79,6.59,5.01.02,9.95-2.47,12.41-6.6.39-.66,3.46-5.79.86-9.89-1.58-2.5-4.37-3.22-4.68-3.3-2.43-.59-5.45-.02-5.7,1.1-.28,1.28,3.31,2.11,3.56,4.4.24,2.15-2.56,4.79-4.46,4.4-2.23-.46-3.84-5.25-2.54-8.79,1.39-3.8,6.05-5.92,10.15-5.5,6.07.63,8.9,6.6,9.38,7.69,2.44,5.51.45,11.7-3,15.39-5.43,5.81-14.05,4.94-19.35,4.4-4.44-.45-11.04-1.12-13.9-5.49-1.83-2.8-.19-4.14-2.6-10.99Z"/>
      <path class="cls-6" d="m158.45,219.24c-4.52,2.76-8.44,4.38-9,8-.66,4.3,4.19,6.37,6,14,.7,2.93.46,5.62,0,11-.53,6.13-1.42,8.22-3,18-1.45,8.96-1.32,11.04,0,13,1.64,2.43,4.88,4.31,8,4,4.73-.47,6.35-5.7,11-11,5-5.69,13.09-11.01,21-12,8.3-1.04,15.76,2.76,30,10,9.19,4.68,12.53,7.55,15,6,4.75-2.99.06-18.51-1-22-6.05-20-15.7-23.62-15-36,.28-4.95,1.81-4.12,8-19,7.02-16.85,10.52-25.28,8-32-3.46-9.21-15.53-16.07-25-14-6.29,1.37-10.19,6.92-18,18-7.89,11.21-5.62,11.49-12,20-6.48,8.64-12.93,17.24-24,24Z"/>
      <path class="cls-7" d="m131.45,165.24c-2,1.72-3.34,3.23-4,4-2.62,3.07-5.5,6.45-6,11-.3,2.72.47,4.82,2,9,1.52,4.15,2.77,7.56,6,10,2.99,2.26,3.79.74,7,3,3.04,2.14,2.95,3.95,8,10,2.01,2.41,3.04,3.62,4,4,4.53,1.77,10.28-2.95,14-6,4.4-3.61,7.03-7.25,9-10,2.21-3.1,3.84-6.11,7-12,5.22-9.72,4.68-9.92,7-13,3.49-4.63,4.84-4.38,9-10,3.18-4.3,4.81-6.56,5-10,.2-3.51-1.14-7.51-4-10-1.09-.95-1.94-1.28-8-3-10.71-3.04-11.13-2.89-13-4-4.59-2.72-4.3-4.99-8-6-3.28-.89-7.23-.13-10,2-2.67,2.05-2.59,4.13-6,12-2.5,5.78-3.75,8.66-5,10-3.95,4.21-7.38,3.3-14,9Z"/>
    </g>
  </g>
</svg>