<?xml version="1.0" encoding="UTF-8"?>
<svg id="Layer_2" data-name="Layer 2" xmlns="http://www.w3.org/2000/svg" viewBox="0 0 415 268.21">
  <defs>
    <style>
      .cls-1 {
        fill: #79204c;
      }

      .cls-1, .cls-2, .cls-3, .cls-4, .cls-5, .cls-6, .cls-7, .cls-8, .cls-9, .cls-10, .cls-11, .cls-12 {
        stroke-width: 0px;
      }

      .cls-2 {
        fill: #13008a;
      }

      .cls-3 {
        fill: #dfece4;
      }

      .cls-4 {
        fill: #d5474a;
      }

      .cls-5 {
        fill: #b0e1c1;
      }

      .cls-6 {
        fill: #fff1af;
      }

      .cls-7 {
        fill: #ffb4b6;
      }

      .cls-8 {
        fill: #ffc4a7;
      }

      .cls-9 {
        fill: #ebb897;
      }

      .cls-10 {
        fill: #f49777;
      }

      .cls-11 {
        fill: #f6797e;
      }

      .cls-12 {
        fill: #eb9675;
      }
    </style>
  </defs>
  <g id="Layer_1-2" data-name="Layer 1">
    <g>
      <path class="cls-5" d="m46.17,156.66c-.61-2.76-.84-2.99-1-4-.5-3.14,1.18-3.83,1-7-.03-.6-.23-3.11-2-5-1.73-1.84-4.08-2.11-7.5-2.5-3.41-.39-6.72-.03-7,0-2.26.25-3.43.64-5,0-1.54-.63-1.39-1.4-3-2-1.35-.5-2.57-.34-5,0-2.44.34-2.84.78-3,1-.64.86-.45,2.16,0,3,.59,1.1,1.68,1.51,3,2,1.97.74,2.37.28,4,1,.78.34.87.53,3,2,1.7,1.17,2.42,1.6,3,2,2.38,1.65,3.86,4.02,5,6,2.44,4.22,3.66,6.33,6,12,2,4.85,4.34,8.57,9,16,2.24,3.57,6.9,10.93,14,19,2.43,2.76,3.36,3.57,20,19,12.32,11.42,13.39,12.44,15,14,9.43,9.15,16,16,16,16,7.24,7.54,7.74,8.5,11,11,4.97,3.8,9.82,7.51,17,8,1.32.09,8.38.46,15-4,5.16-3.47,7.55-8.18,10-13,1.87-3.69,1.73-4.56,4-10,2.65-6.35,4.15-8.3,7-14,4.96-9.92,3.45-10.06,10-25,2.78-6.34,3.93-8.32,6-14,1-2.74,2.62-7.22,4-13,2.16-9.02,2.63-16.5,3-23,.31-5.36.27-8.86,1-16,.38-3.66.88-7.57,3-12,.88-1.84,1.91-3.94,4-6,2.29-2.25,4.2-2.82,9-5,5.44-2.47,8.17-3.71,10-5,1.92-1.35,1.92-1.71,10-10,2.75-2.82,4.14-4.24,5-5,3.2-2.81,5.13-3.79,10-7,2.06-1.36,4.7-3.24,10-7,4.54-3.23,7.41-5.27,11-8,3.58-2.73,3.47-2.79,10-8,9.6-7.66,8.88-6.76,14-11,5.21-4.31,6.35-5.57,10-8,5.81-3.86,5.08-2.1,9-5,1.35-1,3.45-2.69,5-2,.07.03.7.32,1,1,.67,1.51-1.02,3.41-2,5-2.26,3.63-2.1,7.61-2,10,.1,2.41,1.06,4.94,3,10,1.01,2.63,1.88,4.54,3,7,2.1,4.6,3.15,6.91,4,8,2.72,3.5,4.45,2.88,9,7,2.25,2.04,3.53,3.73,6,7,3.79,5.01,6.13,9.33,7,11,3.86,7.38,2.3,7.37,6,14,2.6,4.66,5.92,9.24,8,11,.92.78,1.28,1.18,2,2,1.25,1.41,1.87,2.12,2,3,.2,1.4-.8,2.59-2,4-2.19,2.59-3.43,2.4-4,4-.55,1.56.14,3.11,1,5,.67,1.48,1.68,3.72,4,5,.3.16.34.16,6,1,3.04.45,3.97.59,5,0,.73-.42,1.14-1,2-1,.42,0,.71.14,2,1,2.26,1.5,2.19,1.6,3,2,1.14.57,1.45.45,2,1,.46.46.64.95,1,2,.76,2.21.83,2.57,1,3,.94,2.43,3.34,3.66,4,4,1.36.7,2.57.8,5,1,1.6.13,1.58.02,7,0,3.19,0,4.78-.01,5,0,.79.05,1.71.15,3,0,1.52-.17,2.5-.28,3-1,.73-1.05.17-3.05-1-4-.89-.72-1.6-.41-4-1,0,0-1.39-.34-3-1-2.64-1.08-3.11-2.9-6-6-2.47-2.64-2.66-1.88-7-6-.82-.77-.5-.51-4-4-3.73-3.72-4-3.93-5-5,0,0-2.49-2.65-5-6-3.82-5.1-6.32-11.07-10-21-3.42-9.22-3.05-8.9-5-14-3.23-8.45-6.64-15.62-13-29-.95-2-6.37-13.38-6-20,.02-.42.16-2.37,0-5-.2-3.46-.78-5.98-1-7-2.19-10.07-.15-12.8-3-19-2.17-4.74-5.33-7.44-6-8-1.29-1.08-6.65-5.28-14-5-2.7.1-5.13,1.07-10,3-5.96,2.36-10.34,4.98-12,6-4.67,2.88-4.86,3.7-9,6-3.94,2.19-7.14,3.33-9,4-8.04,2.89-15.97,6.07-24,9-13.43,4.9-20.15,7.35-27,11-5.05,2.69-4.12,2.63-17,10-1.53.87-7.35,3.58-19,9-.51.24-3.26,1.49-7,2-2.48.34-3.59.1-4,0-.61-.15-1.32-.4-5-3-2.04-1.44-3.08-2.18-4-3-1.46-1.31-1.37-1.51-3-3-1.64-1.5-2.54-2.32-4-3-1.74-.81-3.27-.94-4-1-1.01-.08-3.48-.27-6,1-2.14,1.08-3.33,2.71-5,5-1.22,1.67-1.02,1.81-2,3-1.53,1.86-3.01,2.71-5,4-2.41,1.56-4.66,3.35-7,5-2.14,1.51-4.39,3.1-7,5-4.42,3.23-4.06,3.11-8,6-5.03,3.69-6.46,4.48-9,7-2.48,2.46-3.52,4.08-4,6-.12.5-.42,1.83,0,5,.49,3.76.92,7.02,3,10,1,1.44,3.35,2.98,8,6,3.56,2.31,4.26,2.57,8,5,3.98,2.59,5.96,3.88,7,5,3.32,3.59,4.41,7.75,5,10,.76,2.88.9,5.35,1,7,.18,3.11-.11,3.93,0,7,.07,2.07.38,4.05,1,8,.66,4.25,1.35,7.71,2,11,.02.1,0,.05,1,5,.67,3.33,1,5,1,5,1.09,5.9.44,11.36,0,15-.32,2.66-.47,2.25-1,6-.58,4.08-.68,6.26-1,10-.66,7.66-1,11.49-2,16-1.13,5.08-1.82,5.6-2,9-.26,4.91,0,9,0,9,.1,1.54.24,2.95,0,3-.31.07-.84-2.3-2-5-.58-1.34-1.11-2.28-5-8-2.89-4.25-4.35-6.38-5-7-2.69-2.55-3.59-1.98-7-5-2.8-2.48-2.72-3.34-5-5-2.45-1.78-4.49-2.21-7-3-6.63-2.08-6-3.34-15-7-6.58-2.67-6.45-1.8-11-4-3.94-1.9-6.46-3.72-11-7-2.29-1.65-6.13-4.55-10-9-1.91-2.19-3.07-3.91-3-6,.05-1.36.57-1.67,2-5,1.5-3.49,2.24-5.27,2-7-.34-2.4-1.98-4.01-3-5-.94-.92-3.15-3.07-6-3-1.7.04-3.7.87-4,1-1.54.65-2.1,1.24-3,1-1.12-.3-1.8-1.62-2-2-.3-.58-.4-1.06-.5-1.5Z"/>
      <path class="cls-11" d="m95.67,77.16c.92,1,2.47,2.65,5,4,1.38.74,4.23,2.21,8,2,3.59-.2,6.15-1.83,8-3,.91-.58.82-.62,5-4,3.19-2.58,3.13-2.47,5-4,4.02-3.3,4.3-3.83,7-6,1.24-1,3.18-2.35,7-5,8.07-5.61,8-5.31,10-7,3.38-2.85,3.52-3.65,6-5,2.38-1.3,3.71-1.37,6-3,.71-.5,2.77-1.98,4-4,3.01-4.98.49-12.55-3-17-.78-1-2.86-2.67-7-6-3.74-3.01-5.61-4.51-8-6-3.86-2.4-7.04-3.57-11-5-7.16-2.58-12.98-3.65-15-4-9.01-1.54-16.01-1.24-21-1-6.08.3-10.35.5-16,2-6.87,1.82-11.6,4.45-18,8-6.12,3.4-10.42,6.45-14,9-7.48,5.33-11.49,8.2-16,13-4.14,4.41-9.04,9.63-12,18-3.01,8.52-2.46,15.89-2,22,.42,5.6.74,9.87,3,15,3.79,8.61,10.23,13.27,14,16,3.9,2.82,11.71,8.32,23,9,4.61.28,11.87.71,19-4,1.58-1.05,8.97-6.19,11-16,2.93-14.2-8.23-24.33-9-25-2.08-1.83-6.91-6.05-14-6-1.2,0-10.61.24-15,8-3.46,6.12-1.24,12.36-1,13,1.92,5.12,6.91,9.92,13,10,.53,0,7.14,0,10-5,1.38-2.41,2.12-6.38,0-9-2.06-2.55-6.22-3.08-7-2-.51.71.65,1.84,0,3-.52.94-2,1.46-3,1-1.3-.6-1.49-2.69-1-4,1.04-2.74,5.49-2.98,6-3,3.13-.13,7.16,1.37,9,5,2.18,4.3-.23,8.62-1,10-2.09,3.75-5.46,5.29-7,6-5.43,2.49-10.51,1.38-12,1-1.46-.38-7.59-2.05-11-8-4.33-7.55-.64-15.59,0-17,3.32-7.26,9.85-10.07,12-11,1.69-.73,9.07-3.92,17-1,.37.14,8.13,3.1,12,10,.79,1.41,1.73,3.54,4,6Z"/>
      <path class="cls-8" d="m110.17,77.66c-1.4-1.75,3.38-7.72,6-11,3.5-4.38,8.04-9.23,16-16,7.73-6.57,7.37-5.32,11-9,3.97-4.03,8.51-7.55,12-12,1.04-1.32,2.44-3.21,4-3,1.74.24,2.95,3.01,3,5,.01.52.06,2.18-1,3-.11.08-.25.18-.45.26-1.75.77-4-.48-5.55-.26-1.69.23-2.26,2.17-4,5-1.89,3.08-3.93,5.05-8,9-4.2,4.07-7.14,5.8-7,6,.21.31,7.81-2.49,14-9,1.52-1.6,3.43-3.92,7-6,2.01-1.17,5.4-2.77,6-2,.76.98-3.36,5.32-4,6-4.57,4.83-9.06,7.29-12,9-5.85,3.4-10.48,6.09-15,10-7.83,6.77-10.11,12.71-18,15-2.93.85-3.72.35-4,0Z"/>
      <path class="cls-8" d="m99.67,74.16c-.91-.15-1.51-4.77,0-9,.95-2.67,2.45-4.37,3-5,.99-1.14,4.33-5.76,11-15,2.67-3.7,6.63-9.18,10-17,.64-1.49,3.4-8.03,8-13,.75-.81,2.41-2.51,5-3,1.75-.33,4.49-.21,5,1,.69,1.63-3.19,4.04-7,8-5.71,5.93-3.83,7.59-10,16-4.52,6.16-5.96,5.86-13,15-2.38,3.09-3.57,4.63-5,7-5.25,8.69-5.9,15.18-7,15Z"/>
      <path class="cls-8" d="m110.67,61.16c-.72-.57,3.69-7.43,7-12,2.9-4.02,3.51-4.26,8-10,3.9-4.99,7.87-10.44,9-12,6.24-8.6,7.74-11.26,10-11,2.04.24,3.97,2.77,4,5,.02,1.68-1.04,2.91-2,4-5.42,6.15-8.13,9.22-10,11-.93.89-2.95,2.92-7,7-4.88,4.92-7.46,7.64-12,12-6.38,6.12-6.86,6.11-7,6Z"/>
      <path class="cls-8" d="m93.67,56.16c-.58-.32,1.95-4.93,5-14,2.55-7.57,1.9-7.66,4-13,1.88-4.78,3.79-8.21,7-14,2.06-3.72,4.55-8.21,5-8,.51.24-1.94,6.62-4,12-3.27,8.53-5.31,12.84-5,13,.37.19,4.48-5.45,8-13,2.84-6.1,3.93-10.52,7-11,1.07-.17,2.42.14,3,1,1.08,1.59-.78,4.57-3,8-3.92,6.06-5.88,9.1-8,12-4.85,6.64-4.18,6.74-12,18-6.01,8.65-6.77,9.13-7,9Z"/>
      <path class="cls-8" d="m82.67,54.16c-1.26-.46.17-5.02,0-12-.19-7.68-2.05-7.51-2-14,.02-2.83.18-10.2,5-16,2.01-2.42,4.63-4.33,5-4,.38.33-1.84,2.81-4,7-2.18,4.22-5.3,12.11-3,14,.79.65,2.21.58,3,0,1.13-.82.96-2.64,1-4,.16-5.4,3.9-9.5,8-14,1.62-1.77,3.12-3.4,4-3,1.48.67.11,6.55,0,7-.94,3.94-2.41,5.97-4,9-2.74,5.24-3.93,9.86-5,14-1.32,5.14-1.46,7.99-4,12-.44.69-2.81,4.44-4,4Z"/>
      <path class="cls-8" d="m68.67,47.16c-1.2,1.26-2.46.9-3,2-1.11,2.25,2.37,7.43,5,7,1.87-.31,2.8-3.35,3-4,.85-2.77.2-5.23,0-6-2.17-8.37-4.15-16.03-3-23,.58-3.49,1.89-6.51,1-7-.65-.36-2.12.85-3,2-.75.98-2.13,3.31-1,11,.65,4.41,1.39,5.59,2,11,.37,3.3.4,5.54-1,7Z"/>
      <path class="cls-8" d="m59.67,55.16c.73-.29-1.87-8.59-2-9-2.31-7.33-3.46-7.75-4-12-.5-3.96.11-6.6-1-7-.89-.32-2.16,1.04-4,3-2.2,2.34-2.08,2.97-4,5-2.43,2.56-3.53,2.5-4,4-.69,2.19.95,4.52,2,6,2.35,3.33,4.32,3.51,10,8,3.31,2.61,4.75,4.22,5,4,.4-.36-2.29-5.63-7-10-1.55-1.44-3.14-2.62-4-5-.74-2.06-.81-4.67,0-5,1.03-.41,3.25,2.89,6,7,4.57,6.85,6.46,11.21,7,11Z"/>
      <path class="cls-8" d="m34.67,47.16c-1.47-.08-2.71,2.41-4,5-1.29,2.59-2.73,5.49-2,9,.23,1.08.8,3.85,3,5,1.17.61,2.78.41,6,0,2.51-.32,3.93-.5,4-1,.15-1.08-6.12-2.4-6-3,.1-.48,4.42-.51,9,1,3.01.99,4.85,2.23,5,2,.25-.4-5.97-2.93-10-9-3.17-4.76-3.12-8.9-5-9Z"/>
      <path class="cls-8" d="m27.67,71.16c-1,.52-1,2.31-1,5,0,3.37,0,6.28,2,8,1.87,1.61,4.49,1.3,7,1,2.89-.34,4.96-1.42,8-3,1.8-.94,3.1-1.79,3-2-.15-.35-3.63,1.59-8,1-1.7-.23-3.03-.77-3-1,.06-.39,3.9.62,8-1,2.13-.84,4.22-2.35,4-3-.34-.98-5.41,1.73-11,0-5.17-1.6-7.26-5.91-9-5Z"/>
      <path class="cls-8" d="m32.67,92.16c-.17.46.55,1.3,2,3,1.45,1.71,2.65,2.71,3,3,1.36,1.12,2.03,1.68,3,2,1.86.62,3.55.14,4,0,3.76-1.19,5.37-5.72,5-6-.32-.25-2.08,2.88-6,4-1.91.54-3.86.47-4,0-.2-.69,3.76-1.46,6-5,.84-1.32,1.66-3.37,1-4-.72-.69-2.44,1.09-6,2-4.42,1.13-7.59-.11-8,1Z"/>
      <path class="cls-8" d="m47.67,105.16c.45-1.26,3.72.07,6-2,2.37-2.15,1.52-5.99,2-6,.54-.01,2.11,4.84,0,9-.5.98-1.36,2.68-3,3-2.58.51-5.47-2.69-5-4Z"/>
      <path class="cls-8" d="m67.67,102.16c-.42-.04-.71.86-2,4-1.84,4.47-2.47,5.57-2,6,.53.49,2.1-.25,3-1,1.87-1.55,1.96-3.98,2-5,.06-1.72-.35-3.94-1-4Z"/>
      <path class="cls-8" d="m78.67,96.16c-.54.34.04,1.33,1,7,.34,1.99.41,2.72,1,3,1.18.56,3.68-1.02,4-3,.18-1.1-.37-2-1-3-1.42-2.24-4.07-4.59-5-4Z"/>
      <path class="cls-8" d="m88.67,89.16c-1.03-.28-3.37-.92-4,0-.62.9.64,2.92,2,4,.59.47,1.86,1.47,3,1,1.33-.55,1.83-2.83,1-4-.39-.55-.97-.72-2-1Z"/>
      <path class="cls-8" d="m76.67,69.16c-1.05.45-2.23,1.63-2,3,.17,1.02,1.09,1.83,2,2,2.1.4,4.56-2.51,4-4-.4-1.07-2.45-1.66-4-1Z"/>
      <path class="cls-8" d="m65.67,67.16c-1.77-.4-3.99.93-4,2,0,.75,1.09.97,4,3,2.27,1.58,2.67,2.19,3,2,.89-.52.09-6.3-3-7Z"/>
      <path class="cls-8" d="m56.67,75.16c-1.01.7-1.51,2.3-1,3,.56.77,2.08,0,6,0,2.25,0,2.91.24,3,0,.26-.75-5.47-4.75-8-3Z"/>
      <path class="cls-3" d="m101.17,76.66c.41.5,4.06-1.59,7-4,3.58-2.94,5.41-5.76,7-8,3.66-5.13,7.44-8.75,15-16,2.29-2.19,5.47-5.24,10-9,2.33-1.93,6.86-5.58,12-11,3.42-3.6,4.47-5.21,4-6-.48-.81-2.53-.68-4,0-1.97.92-2.57,2.68-4,5-.36.58-1.9,2.39-5,6-4.14,4.84-8.8,8.35-13,12-5.87,5.1-4.13,4.63-18,19-7.75,8.03-11.45,11.45-11,12Z"/>
      <path class="cls-3" d="m94.17,67.66c-.2-.13.89-1.97,3-6,2.92-5.57,3.06-6.29,5-10,1.88-3.61,2.14-3.68,9-15,3.7-6.1,5.55-9.15,6-10,2.53-4.72,3.75-7.76,7-12,1.5-1.95,4.38-5.39,5-5,.6.38-1.15,4.17-2,6-1.97,4.25-3.76,6.9-7,12-2.43,3.83-1.38,2.27-5,8-5.19,8.21-5.02,7.74-7,11-4.06,6.7-3.92,7.34-7,12-3.12,4.72-6.67,9.22-7,9Z"/>
      <path class="cls-3" d="m86.17,58.66c-.28-.14.44-2.02,3-9,1.82-4.97,3.04-8.29,4-11,2.75-7.78,2.21-7.3,4-12,.49-1.29,2.52-6.54,6-13,.78-1.45,5.07-9.41,6-9,.34.15.11,1.39,0,2-.55,2.93-2.14,4.86-3,6-1.62,2.14-2.62,4.69-4,7-3.41,5.71-5.15,11.9-8,22-.95,3.38-1.79,6.7-4,11-1.55,3.02-3.62,6.19-4,6Z"/>
      <path class="cls-3" d="m78.17,55.66c.58-.21.31-2.17,0-5-.43-3.99-.62-8-1-12-.48-5.11-.53-6.15-.52-7.5.01-1.17.05-3.71.52-6.5,1.32-7.81,5.14-12.04,4-13-.6-.5-2.14.27-3,1-1.46,1.25-1.74,3.06-2,5-.6,4.47-.9,7.94-1,9-.46,5.03-.8,5.1-1,9-.12,2.29-.08,3.86,0,7,.16,6.41.63,8.79,2,11,.18.28,1.38,2.22,2,2Z"/>
      <path class="cls-3" d="m65.17,55.66c-.45.19-3.68-5.7-6-12-2.19-5.95-2.79-10.12-3-12-.43-3.81-.42-7.95,0-8,.36-.04.75,2.86,2,8,1.01,4.15,2.34,8.43,5,17,1.71,5.51,2.21,6.91,2,7Z"/>
      <path class="cls-3" d="m56.17,58.66c-.06.61-2.05,1.25-4,1-2.91-.37-3.46-2.41-8-5-2.37-1.35-2.33-.86-4-2,0,0-4.16-2.85-5-7-.06-.31-.09-.64,0-1,.1-.39.33-.8,2-2,1.4-1.01,1.72-1.07,2-1,.58.13.88.76,1,1,.98,2.01,2.17,3.92,3,6,1.22,3.07,3.57,4.89,5,6,3.99,3.09,8.09,3.11,8,4Z"/>
      <path class="cls-3" d="m26.17,67.66c.27.49.65.77,1,1,2.12,1.43,4,2,4,2,4.93,1.5,4,1.63,6,2,1.64.3,4.11.74,7,0,2.05-.52,4.11-1.58,4-2-.1-.37-1.83-.04-4,0-1.82.03-6.7.12-10-2-4.3-2.76-4.35-8.24-6-8-.97.14-1.49,2.1-2,4-.48,1.8-.25,2.56,0,3Z"/>
      <path class="cls-3" d="m29.17,85.66c-.64.54-.27,1.96,0,3,.2.75.68,2.62,2,3,.43.12.81.04,1,0,4.42-1.01,9-4,9-4,.26-.17,1.96-1.28,4-3,1.08-.91,2.13-1.79,2-2-.17-.27-2.05.84-5,2-4.29,1.68-6.47,2.54-9,2-2.1-.45-3.28-1.6-4-1Z"/>
      <path class="cls-3" d="m53.17,95.66c-.18-.05-.42.47-.91,1.11-.56.73-1.07,1.12-2.09,1.89-2.93,2.21-4.52,2.42-5,4-.04.13-.25.82,0,1,.43.3,1.59-1.36,4-3,2.24-1.52,3.48-1.6,4-3,.32-.87.24-1.93,0-2Z"/>
      <path class="cls-3" d="m63.17,102.66c.02-1.84.09-2.99,0-3-.12-.01,0,1.95-1,4-.25.51-1.46,2.84-4,4-1.72.78-2.92.52-3,1-.11.67,2.24,1.62,4,2,1.4.31,2.29.5,3,0,.77-.55.86-1.71,1-4,.09-1.41-.02-1.61,0-4Z"/>
      <path class="cls-3" d="m76.17,97.66c-.45-.07-.93.86-1,1-.38.73-.51,1.64,0,4,.58,2.71.98,2.62,1,4,.02,1.64-.54,2.45,0,3,.47.48,1.5.47,2,0,.45-.43.35-1.13,0-3-.56-3.01-.74-3.58-1-5-.48-2.6-.49-3.92-1-4Z"/>
      <path class="cls-3" d="m84.17,91.66c-.83-.11-1.81.36-2,1-.28.92,1.06,2.14,2,3,1.16,1.06,1.77,1.19,2,2,.28.99-.34,1.74,0,2,.37.29,1.4-.39,2-1,.36-.37,1.11-1.14,1-2-.1-.77-.79-.91-2-2-1.87-1.69-1.86-2.84-3-3Z"/>
      <path class="cls-3" d="m87.17,76.66c-.28.4-.99.08-3,0-1.83-.07-2.98.13-3,0-.02-.14,1.37-.12,3-1,1.12-.6,1.44-1.13,2-1,.78.19,1.36,1.49,1,2Z"/>
      <path class="cls-3" d="m71.17,66.66c-.22-.25-1.09-1.24-2-1-.48.12-.85.56-1,1-.32.94.43,1.66,1,3,1.13,2.63.38,4.87,1,5,.31.06.64-.45,1-1,1.07-1.64,1.04-3.37,1-4-.05-.83-.13-2.01-1-3Z"/>
      <path class="cls-3" d="m60.17,70.66c-.28-.09-.72-.22-1,0-.44.34-.26,1.37,0,2,.45,1.12,1.63,1.75,4,3,0,0,1.22.65,3,1,.72.14.91.11,1,0,.41-.54-1.79-2.78-2-3,0,0-1.97-2.02-5-3Z"/>
      <path class="cls-3" d="m61.17,80.66c-.96-.32-2.72-.91-4,0-.75.54-1.29,1.56-1,2,.23.36.86.08,3,0,1.53-.06,3,0,3,0,1.5.06,1.93.17,2,0,.14-.35-1.36-1.45-3-2Z"/>
      <path class="cls-3" d="m69.17,85.66c-.46.11-.3.99-1,3-.68,1.96-1.31,2.49-1,3,.4.66,2,.73,3,0,1.23-.89,1.04-2.62,1-3-.17-1.61-1.35-3.15-2-3Z"/>
      <path class="cls-3" d="m75.17,80.66c-.74-.57-2.37-1.54-3-1-.42.36-.33,1.32,0,2,.72,1.51,2.33,1.11,4,3,.49.56.78,1.08,1,1,.3-.11.21-1.21,0-2-.47-1.78-1.74-2.8-2-3Z"/>
      <path class="cls-4" d="m188.17,18.66c-1.6.33-10.79,5.25-14,9-3.42,4.01-5.27,12.54-4,17,2.29,8.05,17.27,10.79,24,11,6.5.2,27.02-8.74,29-16,1.93-7.08-10.34-10.9-12-12-3-2-13.24-10.99-23-9Z"/>
      <path class="cls-12" d="m250.17,2.66c-5.17-4.13-12.79-2.29-14-2-1.67.4-7.31,1.76-11,7-2.73,3.87-2.84,7.67-3,13-.16,5.34-.3,10.22,3,13,2.12,1.79,4.7,1.9,7,2,2.89.13,4.79-.48,14-4,5.72-2.19,8.6-3.29,10-4,5.61-2.84,5.32-3.82,10-6,2.24-1.05,5.5-2.03,12-4,6.59-2,8.55-2.39,9-4,.57-2.05-1.67-4.79-4-6-1.57-.81-3.23-.95-9,0-8.67,1.43-8.18,2.26-11,2-5.82-.54-10.22-4.31-11-5-1.32-1.16-1.01-1.21-2-2Z"/>
      <path class="cls-9" d="m237.17,3.66c-1.03.06-3.59.23-6,2-2.39,1.75-3.28,4.07-4,6-.72,1.95-2.77,7.48,0,13,.62,1.24,2.38,4.74,6,6,1.14.39,3.79,1.03,14-4,7.78-3.84,7.53-4.84,13-7,6.11-2.41,11.09-2.99,11-4-.05-.59-1.83-.95-3-1-2.38-.11-4.05.96-6,2-2.24,1.19-4.71,1.91-7,3-13.61,6.46-14.52,7.16-17,7-.71-.05-6.66-.52-9-5-2.32-4.44.67-9.46,1-10,1.87-3.03,4.79-4.42,6-5,3.3-1.58,6.01-1.45,6-2,0-.54-2.59-1.13-5-1Z"/>
      <g>
        <path class="cls-1" d="m263.17,89.66c-.19.16,2.07,2.75,5.2,8.49,0,0,.37.69.8,1.51,3.62,6.96,7,16,7,16,2.74,7.32,3.65,11.06,6,13,.04.04,1.43,1.18,3,3,1.34,1.55,2,2.32,2,3-.01,2.53-6.87,4.43-9,5-5.87,1.58-7.74,1.02-15,2-7.65,1.03-12.52,2.59-16,4-3.7,1.5-9.21,3.74-9,6,.22,2.37,6.62,3.56,9,4,1.82.34,8.9,1.51,19-1,7.64-1.9,13-4,13-4,4.16-1.63,6.91-3.07,8-2,.2.2,1.01,1.14-1,6-1.95,4.73-4.35,7.82-6,10-9.48,12.52-7.57,12.49-11,15-2.59,1.9-5.7,3.39-7,7-.21.59-1.04,2.87,0,4,1.18,1.28,4.07.31,5,0,4.67-1.56,6.97-5.07,11-10,4.67-5.71,3.71-3.61,9-10,7.45-9,11.18-13.5,13-19,1.54-4.64.9-6.11,3-9,2.34-3.23,5.21-4.25,12-7,17.5-7.08,14.19-6.63,19-8,6.86-1.96,10.93-2.11,14-6,1.73-2.18,2.85-5.19,2-6-1.03-.98-4.11,1.97-10,4-4.91,1.7-5.2.49-12,2-5.03,1.12-9.21,2.75-15,5-5.17,2.01-8.62,3.63-9,3-.33-.54,2.18-1.87,4-5,1.81-3.12.8-4.35,2-10,.71-3.37,1.81-6.24,4-12,1.45-3.8,1.81-4.3,2-6,.28-2.48-.27-3.29-1-9-.54-4.25-.5-5.94-1-6-.64-.08-1.2,2.67-3,7-1.24,2.99-1.58,3.14-4,8-2.66,5.35-3.99,8.03-5,11-.83,2.44-1.55,5.3-3,11-1.17,4.6-1.58,6.6-3,7-1.66.47-3.6-1.55-5-3-2.76-2.86-3.42-5.24-5-8-1.62-2.83-2.97-3.94-7-8-9.38-9.47-15.67-17.28-16-17Z"/>
        <path class="cls-6" d="m272.17,134.66c.57-1.33.05-3.24-1-7-1.98-7.08-2.98-10.62-6-14-.65-.72-6.93-7.52-16-7-6.71.38-11.3,4.55-14,7-6.49,5.88-5.03,9.64-12,15-4.08,3.14-5.87,2.85-8,6-1.96,2.9-1.51,4.72-3,12-1.69,8.24-2.63,7.64-3,12-.33,3.84-.87,10.26,3,15,3.96,4.84,10.57,5.54,15,6,7.2.75,8.47-1.52,15,0,5.15,1.2,5.84,2.96,10,3,5.77.06,10.09-3.27,11-4,3.68-2.96,2.95-4.85,8-12,4.06-5.74,8-6,7-10-.14-.55-2-1-11,1-4.92,1.09-6.73.82-10,1-3.65.2-3.42-.11-8,0-6.99.17-7.99.82-10,0-3.17-1.3-6.25-4.62-6-8,.06-.88.42-2.7,3-5,4.06-3.62,8.65-3.97,16-5,17.26-2.42,19.28-4.32,20-6Z"/>
      </g>
      <path class="cls-7" d="m314.17,68.66c0-4.76,0-9.18-3-12-3.9-3.68-10.3-2.17-11-2-5.25,1.31-5.62,4.63-12,10-9.64,8.1-16.78,7.24-19,14-.31.93-1.33,4.05,0,7,1.99,4.41,7.12,3.69,11,9,1.71,2.34.46,2.14,3,7,2.84,5.45,4.47,5.81,7,11,1.94,3.99,2.06,5.98,3,6,1.52.03,2.13-5.18,5-13,.48-1.31,2.56-6.88,6-13,4.63-8.24,7.28-9.57,9-16,.21-.8,1-3.89,1-8Z"/>
      <path class="cls-10" d="m30.17,172.66c-4.77-.57-9.72-1.17-15-5-4.37-3.17-6.5-6.78-9-11-1.56-2.63-3.79-6.47-5-12-1.1-5-1.97-9,0-13,1.99-4.04,5.84-5.94,10-8,3.6-1.78,6.85-2.6,9-3,7.42-1.38,13.54-.03,18,1,3.21.74,2.54.87,7,2,9.32,2.35,10.35,1.3,14,3,7.06,3.29,9.74,10.3,10,11,.93,2.55,2.79,7.61,0,12-2.45,3.86-7.29,4.42-12,5-3.29.41-6.64.82-8-1-1.46-1.95.95-4.31,0-9-.65-3.21-2.42-5.33-3-6-3.58-4.18-8.7-4.85-10-5-4.35-.51-4.48,1.26-10,1-3.95-.18-4.76-1.12-9-1-3.25.1-5.66.2-7,2-1.26,1.69-1.2,4.38,0,6,1.13,1.53,3.06,1.81,4,2,4.05.81,6.7,3.21,12,8,0,0,6.75,6.11,10,16,.36,1.1.85,2.83,0,4-.88,1.21-2.85,1.38-6,1Z"/>
      <path class="cls-2" d="m110.64,148.61c3.69-2.54,4.88-4.36,5.5-5.89.34-.84,1.03-2.52.73-4.41-.64-4.03-5.29-6.23-9.94-8.44-5.13-2.43-8.23-3.89-12.58-3.43-5.95.64-9.82,4.41-10.87,5.46-6.34,6.36-6.21,15.35-6.13,20.75.12,8.49,2.86,14.95,5.56,21.31,2.24,5.29,4.43,8.77,5.17,9.92,3.31,5.15,5.78,8.97,9.87,11.6,9.33,5.98,21.12,1.91,23.38,1.13,3.82-1.32,12.69-4.38,16.74-13.56,4.49-10.2-.53-19.86-1.44-21.54-1.72-3.16-5.28-10.05-13.04-11.66-5.97-1.24-13.02.91-16.9,6.28-.65.9-4.37,6.06-2.48,12.28,1.28,4.19,4.74,7.69,8.99,8.73.68.17,5.96,1.46,8.89-1.71,1.78-1.93,1.7-4.44,1.68-4.71-.11-2.17-1.39-4.55-2.44-4.48-1.2.08-.99,3.28-2.93,4.05-1.82.73-4.86-.96-5-2.64-.17-1.97,3.61-4.49,7.05-4.28,3.69.23,6.75,3.59,7.44,7.12,1.02,5.22-3.49,9.05-4.32,9.71-4.2,3.39-10.14,3.25-14.26,1.28-6.5-3.1-7.95-10.5-8.85-15.05-.75-3.82-1.87-9.48,1.22-12.94,1.98-2.22,3.58-1.17,8.96-4.87Z"/>
    </g>
  </g>
</svg>