<svg width="193" height="146" viewBox="0 0 193 146" fill="none" xmlns="http://www.w3.org/2000/svg">
<g clip-path="url(#clip0_928_3785)">
<path d="M102.645 93.1402C105.949 91.2689 108.838 90.6395 108.991 90.6057C112.578 89.8201 117.164 87.2687 126.335 82.1576C143.798 72.4296 159.644 57.8905 163.35 54.4901C167.035 51.1109 171.189 48.2597 174.772 44.7748C177.099 42.5149 179.205 40.2382 182.81 38.8611C183.918 38.4387 185.111 38.1219 187.04 37.1715C189.591 35.917 191.211 35.1186 192.116 33.7923C194.016 31.0086 192.573 26.1932 190.424 23.2322C186.934 18.421 180.783 17.3988 175.195 16.4737C168.253 15.3247 168.063 16.9088 163.773 15.6289C156.819 13.5549 157.072 9.31815 148.967 4.64636C146.92 3.46785 140.325 -0.0550102 131.623 -9.76085e-05C127.676 0.0252467 123.027 0.0548151 118.932 2.95674C117.134 4.2324 116.563 5.26729 114.278 6.33597C113.305 6.79217 110.742 7.85663 105.395 7.60319C100.572 7.37509 100.077 6.38666 93.9729 5.49116C89.1334 4.78152 86.7179 4.4267 83.8201 5.06876C78.5365 6.23882 74.6911 9.63496 73.6674 10.56C71.1799 12.803 71.4211 13.5464 69.437 14.7841C66.6154 16.5455 64.0095 16.3723 59.7073 16.4737C52.575 16.6427 49.0088 16.7229 45.7472 17.7409C44.0509 18.2689 38.1284 20.1148 34.3254 25.3442C32.7178 27.5534 30.7084 31.4437 28.4029 35.9043C27.5907 37.4757 27.0661 38.5528 25.8647 39.706C23.9822 41.5181 22.2055 41.8264 18.2501 43.0852C13.0765 44.7326 10.4917 45.5563 8.94343 46.8868C8.34696 47.3979 4.93309 50.3421 4.71311 54.4901C4.57774 57.0119 5.73685 57.9538 5.13615 60.8262C5.06 61.2021 4.9627 61.5401 3.44402 65.0502C1.48961 69.57 1.405 69.5531 1.32886 70.1191C0.812756 73.9461 4.24778 77.2831 4.71311 77.7224C6.59561 79.5007 8.52463 80.0541 12.7507 81.1016C20.1834 82.9391 25.1033 83.9148 29.249 84.9033C32.1764 85.6002 35.4972 86.3944 39.8248 87.8601C48.4758 90.7916 50.2018 92.7093 55.9 93.7738C57.3552 94.0441 59.2673 94.5172 63.0916 95.4634C66.0655 96.1984 66.9115 96.4518 66.8988 96.7306C66.8735 97.3515 62.5839 97.4614 58.4382 97.9978C53.8229 98.5934 50.426 99.6621 43.6321 101.799C29.0755 106.378 20.8095 111.122 18.2501 112.782C15.0605 114.852 13.4699 115.887 12.7507 117.006C12.3573 117.623 11.6635 118.89 10.2125 119.54C9.29455 119.95 8.41887 119.963 8.09737 119.963C6.54484 119.963 6.1345 119.321 4.71311 119.118C4.47198 119.084 2.18338 118.784 0.905823 119.963C0.165517 120.647 -0.134836 121.733 0.0597584 124.609C0.360111 129.007 0.508172 131.207 1.75189 133.057C5.22498 138.219 13.3345 137.78 14.4429 137.704C18.5716 137.425 18.6182 135.909 23.3265 135.592C24.8241 135.49 29.0332 135.258 33.4793 137.281C37.4558 139.094 36.9778 140.597 40.6709 142.35C45.6457 144.712 50.6756 143.955 52.9388 143.618C57.9475 142.866 57.7571 141.391 63.5146 139.816C66.7762 138.925 73.367 137.117 80.0128 139.393C84.5224 140.935 84.057 142.646 89.3196 144.462C91.1597 145.096 95.7327 146.617 101.164 145.73C102.903 145.447 103.318 145.142 112.586 141.083C119.727 137.953 120.188 137.822 121.047 137.704C126.513 136.948 131.69 139.001 133.738 139.816C137.055 141.134 137.118 141.81 139.66 142.35C140.811 142.595 145.003 143.487 148.967 141.506C150.236 140.872 150.054 140.656 154.89 136.437C157.495 134.164 158.811 133.019 159.543 132.635C163.638 130.481 168.084 131.169 169.273 131.368C173.173 132.023 173.524 133.48 176.887 133.48C178.266 133.48 181.236 133.48 183.233 131.368C185.107 129.387 185.915 125.771 184.925 123.765C184.777 123.46 184.417 122.861 184.502 122.075C184.595 121.192 185.196 120.558 185.771 119.963C186.782 118.92 187.175 119.038 187.886 118.273C188.571 117.534 189.21 116.343 189.155 115.316C189.054 113.458 186.685 112.182 185.348 111.515C178.292 108.005 170.707 106.894 170.542 106.868C158.942 105.17 166.041 105.669 155.313 104.334C142.161 102.699 131.314 101.926 129.508 101.799C121.724 101.255 114.02 99.8395 106.241 99.265C103.288 99.0454 98.4994 98.7328 98.2032 97.153C97.9494 95.8013 101.088 94.023 102.645 93.1402Z" fill="#95BFCA"/>
<path d="M11.0583 78.145C10.5802 78.8546 7.64015 77.9845 5.55883 76.4553C4.81007 75.902 3.69749 75.0614 3.02064 73.4985C2.27187 71.7624 2.513 70.1953 2.59761 69.6969C2.78797 68.5648 3.11794 68.3494 4.28974 65.8952C5.3304 63.7156 5.85073 62.6258 5.98187 61.6712C6.17646 60.2561 5.77458 60.1547 5.55883 57.0247C5.43192 55.1493 5.36847 54.2115 5.55883 53.2231C6.03263 50.7774 7.54285 49.1595 8.09703 48.5766C8.5116 48.1416 9.85261 46.811 14.4425 45.1974C19.3751 43.4613 19.9546 44.2512 22.9032 42.663C25.9448 41.024 27.565 38.9838 27.9795 38.4389C28.7664 37.4082 29.0329 36.762 30.0947 34.6373C31.6388 31.5453 32.8867 29.0489 33.902 27.4564C36.474 23.4224 40.0529 21.302 41.0935 20.6979C45.3323 18.2437 49.44 17.9734 52.9384 17.7411C56.4496 17.5088 58.734 17.8551 64.3603 17.3187C65.8029 17.1793 68.2141 16.9132 70.2828 15.2067C71.2811 14.383 71.3911 13.8888 72.3979 12.6722C74.8092 9.75341 77.707 8.31301 79.1664 7.60337C82.8934 5.79548 86.1253 5.53781 86.781 5.49135C89.26 5.31816 91.2567 5.66453 92.7035 5.91375C94.6325 6.24745 94.7129 6.45443 97.7799 7.18096C100.102 7.73009 102.057 8.19474 104.548 8.44818C107.362 8.73119 108.88 8.88748 110.894 8.44818C113.432 7.89905 115.276 6.72899 117.239 5.49135C119.672 3.95379 119.718 3.45535 121.47 2.53451C122.083 2.20926 123.995 1.2673 127.815 0.844893C134.812 0.0718927 140.663 1.88823 141.352 2.11211C143.95 2.94847 149.018 4.57473 153.197 8.87058C154.589 10.3025 155.913 12.0597 158.697 13.9394C161.539 15.8572 163.591 16.3429 164.196 16.4739C165.651 16.7864 167.246 16.8625 168.003 16.8963C169.378 16.9596 170.11 16.9047 170.964 16.8963C172.868 16.8794 174.374 17.1666 177.31 17.7411C180.935 18.4507 182.746 18.8013 184.078 19.4307C187.069 20.8415 188.778 22.7888 189.155 23.2323C190.31 24.5883 192.264 26.8819 192.116 29.9908C192.082 30.6582 191.989 32.69 190.424 34.2149C189.899 34.726 189.227 35.4314 188.309 35.4821C186.617 35.5708 185.584 33.3996 183.655 31.258C183.655 31.258 181.303 28.6434 177.31 26.6116C174.903 25.3866 173.896 25.6865 165.465 24.922C156.658 24.1236 155.278 23.5703 154.043 22.8099C151.996 21.5512 152.398 20.9894 148.121 16.8963C144.821 13.7409 143.175 12.1611 140.929 10.9826C139.669 10.3194 135.1 8.11026 129.507 8.87058C127.35 9.16204 124.824 10.3321 119.778 12.6722C114.443 15.1433 114.693 15.4685 112.586 16.0515C108.182 17.2722 104.311 16.6175 101.164 16.0515C95.1063 14.9617 95.3728 13.4875 90.5883 13.0946C88.5324 12.9257 83.7606 12.5371 79.5895 15.2067C77.4659 16.5668 77.8508 17.2131 74.9361 19.4307C73.7136 20.3642 70.7312 22.4636 66.8985 23.6548C63.1166 24.829 62.6174 23.8364 56.3227 24.4996C51.2379 25.036 47.9974 25.3782 44.4778 27.4564C40.772 29.6445 38.4707 32.7449 37.7093 33.7925C35.5137 36.8042 36.0256 37.5857 33.902 40.1285C31.4949 43.0093 28.7368 44.53 26.7104 45.6198C24.2949 46.9208 22.1205 47.6769 19.5189 48.5766C14.764 50.224 13.2538 50.2156 11.9043 51.9559C10.5506 53.7004 10.2841 56.0025 10.2122 56.6023C9.9626 58.7397 10.5929 59.1959 10.2122 61.2488C10.0726 62.0007 9.55649 63.158 8.52006 65.4728C7.42441 67.9185 7.09021 68.4212 6.82793 69.6969C6.53181 71.1288 6.32452 72.1172 6.82793 73.0761C7.44133 74.2419 8.43122 74.0814 9.78916 75.6105C9.98798 75.8344 11.4728 77.5325 11.0583 78.145Z" fill="#B3D6E3"/>
<path d="M7.88574 76.6665C7.75883 76.8185 6.62933 76.3539 5.77058 75.3992C4.10806 73.5491 4.38726 70.8668 4.50148 69.908C4.78068 67.5425 5.59713 67.4918 6.61664 64.4167C7.45002 61.8992 7.63615 59.7196 7.88574 56.8134C8.21147 52.9907 7.80113 52.902 8.30877 51.7446C9.42981 49.1848 12.133 48.0443 15.5003 46.6757C20.454 44.6651 20.7628 45.7506 23.961 44.1413C28.6862 41.7674 31.2202 37.7925 31.9986 36.538C33.4411 34.2148 32.9166 34.0543 34.5368 31.0467C35.8862 28.5419 38.0141 24.5966 41.7283 22.1762C44.4611 20.3937 47.2193 20.1402 52.7272 19.6418C59.8468 18.9955 60.9805 20.2712 65.4181 18.797C69.2508 17.5213 72.1993 15.3079 72.6097 14.9953C74.9279 13.2297 75.1394 12.3976 77.263 10.7713C78.0668 10.1546 81.2776 7.74688 85.3006 6.96965C87.1831 6.60639 88.3888 6.76267 98.4146 9.08168C105.416 10.6995 105.873 10.8642 107.298 10.7713C108.318 10.7037 110.657 10.4503 117.874 6.96965C124.084 3.9748 123.56 3.58197 125.912 2.74561C134.186 -0.190108 142.736 3.96213 143.679 4.43522C150.503 7.86515 149.03 11.3458 156.793 14.9953C162.432 17.648 168.638 18.3746 168.638 18.3746C171.43 18.7041 171.574 18.3957 174.56 18.797C178.778 19.3672 182.607 19.8826 185.982 22.5986C186.955 23.3843 189.938 25.7793 190.213 29.3571C190.361 31.3002 189.68 33.1799 189.367 33.1588C189.003 33.1334 189.515 30.6074 188.521 28.0899C186.951 24.1108 182.501 22.3748 180.906 21.7538C177.492 20.4232 176.642 21.2512 169.907 20.4866C164.606 19.8868 161.666 19.5531 158.062 17.9522C153.066 15.7346 149.394 12.237 148.755 11.6161C146.336 9.27176 146.247 8.44385 144.102 6.96965C140.659 4.60841 137.143 4.17756 135.641 4.01282C131.149 3.51861 127.68 4.67177 125.912 5.28003C122.709 6.38251 122.726 7.10482 117.874 9.50408C113.077 11.878 110.683 13.065 107.721 13.3057C106.913 13.3733 106.08 13.3775 96.7225 11.1937C90.2882 9.69416 89.421 9.39848 87.4158 9.50408C83.2405 9.72796 80.1016 11.3753 78.9552 12.0385C75.4736 14.0492 75.9347 15.2995 72.1866 17.9522C71.0106 18.7843 67.2541 21.3863 62.0339 22.1762C59.4534 22.5648 59.6776 22.0368 53.9963 22.1762C48.9833 22.2987 46.4367 22.3832 44.2665 23.4434C41.2757 24.905 39.5666 27.2535 38.3441 28.9347C36.2289 31.8409 36.7577 32.6265 34.1137 36.9604C32.4005 39.7694 31.4021 41.3703 29.4604 42.8741C28.0898 43.9343 26.4315 44.5679 23.1149 45.8309C19.6968 47.1361 18.4404 47.3389 15.0773 48.7877C11.8199 50.1901 11.0119 50.8533 10.4239 51.7446C9.70055 52.8386 9.51864 54.0256 9.15484 56.391C8.81218 58.6129 9.04062 58.7565 8.7318 61.0375C8.40184 63.4536 8.2157 64.8349 7.46271 66.5287C6.70971 68.2268 6.09208 68.6577 5.77058 70.3304C5.63944 71.0147 5.44484 72.0707 5.77058 73.2872C6.33321 75.4035 8.05072 76.4679 7.88574 76.6665Z" fill="#F4FDFF"/>
<path d="M90.7999 75.3993C91.4895 75.3486 91.3879 71.1034 92.069 65.6839C92.8601 59.4028 93.7485 59.0902 96.2994 47.9429C97.2343 43.8498 98.1776 39.2456 98.8375 33.5812C99.9036 24.4319 99.1464 21.8594 97.5684 20.0642C95.8806 18.1465 93.2028 17.0652 90.7999 17.1074C88.7948 17.1412 88.4479 17.9311 83.1854 20.4866C78.4474 22.7845 77.3771 22.8014 76.4168 24.2883C74.9531 26.5524 75.5877 29.3909 75.9938 31.0468C78.054 39.4357 80.7445 43.9343 83.1854 50.4774C86.8404 60.2772 89.1078 70.3304 89.1078 70.3304C89.5731 72.4002 90.2119 75.4415 90.7999 75.3993Z" fill="#7297A4"/>
<path d="M143.679 22.5987C143.489 20.4909 141.864 19.0041 140.718 17.9523C140.371 17.6355 136.022 13.7705 130.565 14.573C127.27 15.0588 127.274 16.702 122.104 17.9523C119.727 18.5268 118.927 18.3747 117.874 19.2195C115.598 21.0443 115.751 24.6347 115.759 26.8228C115.759 27.5198 115.057 32.6393 113.644 42.8742C112.629 50.2451 111.791 56.3109 108.144 62.7272C104.883 68.4677 103.994 71.2006 102.222 76.6665C101.879 77.7141 101.367 79.3784 101.799 79.6234C102.531 80.0373 105.513 76.1174 107.298 73.7097C114.93 63.4115 116.863 58.8622 122.104 51.3223C130.307 39.5287 134.406 33.6277 138.18 30.6244C139.914 29.2432 144.001 26.2018 143.679 22.5987Z" fill="#7297A4"/>
<path d="M171.176 37.8052C174.294 36.7576 177.022 37.1251 177.521 35.6932C178.004 34.3119 176.104 32.1281 174.137 31.0467C171.662 29.6824 168.93 30.1217 163.561 31.0467C159.983 31.6634 158.193 31.9718 156.793 32.7363C153.041 34.7766 151.687 38.2994 150.024 41.6068C148.552 44.5341 145.519 48.4836 139.449 56.391C135.865 61.0586 131.779 66.3302 125.488 72.02C120.831 76.2314 117.739 78.1618 117.874 78.3561C118.157 78.7616 132.371 70.9048 146.64 58.9254C156.433 50.7054 161.328 46.5954 162.292 45.4085C164.539 42.6375 166.747 39.2963 171.176 37.8052Z" fill="#7297A4"/>
<path d="M62.0337 29.7796C60.2781 28.618 58.0361 29.0615 54.4191 29.7796C50.0238 30.654 47.308 32.4999 45.9585 33.5813C44.5413 34.7175 43.3315 35.7144 42.9973 37.3829C42.7519 38.6079 43.0353 39.9173 44.2664 42.0294C46.3308 45.5818 48.9113 47.7023 50.1888 48.7878C50.1888 48.7878 54.7829 52.6909 59.4955 58.0807C62.0633 61.0165 64.5338 63.8466 66.6871 68.2185C68.3031 71.4963 69.5087 75.1839 73.0326 80.0458C74.6062 82.2127 75.2619 82.7196 75.5708 82.5802C76.2391 82.2761 75.3 78.8926 74.3017 75.3993C71.8015 66.6598 69.7371 60.0534 69.6483 59.7704C66.5348 49.8058 64.9738 44.8257 64.5719 40.7622C64.0093 35.0808 64.5592 31.4524 62.0337 29.7796Z" fill="#7297A4"/>
<path d="M26.4988 49.6327C24.8236 49.7003 22.4715 50.6972 20.9994 51.3223C18.7192 52.2897 17.4078 52.8683 16.346 54.2792C15.8892 54.8874 14.4339 57.0417 15.0769 59.348C15.3731 60.4125 16.1387 61.5995 18.8842 63.1497C22.6238 65.2659 25.9785 65.7644 27.7679 66.1065C33.225 67.1498 36.9858 69.1858 42.9971 72.4426C47.1089 74.6687 46.6182 74.9517 53.5729 79.2011C54.8081 79.9529 64.9821 86.1707 65.4178 85.5371C65.6843 85.1527 62.1266 82.5338 55.688 77.089C45.6326 68.5818 40.6027 64.3324 37.9207 61.0377C32.7935 54.7396 30.5768 49.4722 26.4988 49.6327Z" fill="#7297A4"/>
<path d="M13.8081 68.6408C13.0085 68.4718 11.3079 68.1508 10.4238 69.0632C9.19278 70.3304 10.3561 73.1309 10.4238 73.2872C11.6591 76.168 14.6964 77.4395 15.9232 77.9337C22.9794 80.7722 29.3926 81.8789 34.1136 83.0025C35.9284 83.4334 34.6255 83.1842 51.0349 88.4938C62.1903 92.1011 64.0093 92.6122 64.1489 92.2954C64.4831 91.5351 54.783 86.6099 49.3428 83.8473C33.6314 75.8681 36.2288 78.6095 29.4603 74.5544C29.4603 74.5544 22.7467 70.5331 13.8081 68.6408Z" fill="#7297A4"/>
<path d="M56.9573 102.011C56.8727 101.681 51.0899 102.86 49.1439 103.274C48.1498 103.485 46.1573 103.916 43.8433 104.545C40.9202 105.339 35.4927 106.818 29.0372 110.036C20.4581 114.311 22.6494 115.384 16.3462 118.062C15.0306 118.62 12.2047 119.735 12.1159 121.441C12.0736 122.261 12.6658 123.131 13.385 123.553C13.9223 123.87 14.7387 124.065 16.3462 123.553C18.9563 122.721 20.6104 120.981 21.4226 120.174C22.146 119.456 24.2992 117.864 28.6142 114.683C32.0069 112.182 34.8031 110.767 37.9209 109.192C48.3063 103.941 57.0588 102.412 56.9573 102.011Z" fill="#7297A4"/>
<path d="M41.7281 126.088C41.8465 126.722 42.5699 126.751 43.8432 128.2C45.1843 129.721 45.0024 130.388 45.9584 131.157C47.0202 132.01 48.2555 132.006 50.1887 132.002C51.9908 131.997 54.0552 131.989 56.1112 130.734C57.8287 129.687 58.6832 128.289 59.4954 126.933C61.1876 124.103 61.086 122.392 62.0336 119.752C62.7401 117.792 64.0473 114.949 66.687 112.571C68.9121 110.569 71.0358 109.918 70.9173 109.614C70.7692 109.234 67.3215 109.931 63.7258 111.304C56.4792 114.071 56.5088 116.567 47.6505 121.442C44.9558 122.924 41.4489 124.618 41.7281 126.088Z" fill="#7297A4"/>
<path d="M87.4155 121.864C87.3267 123.207 87.6651 123.706 87.4155 125.665C87.0559 128.508 86.121 129.214 86.5694 130.734C87.1194 132.584 89.0823 133.484 89.5307 133.691C89.941 133.877 90.9098 134.27 93.761 134.114C96.333 133.974 98.7232 133.843 101.376 132.424C103.068 131.516 104.388 130.81 104.76 129.467C105.242 127.723 103.791 126.143 101.376 123.131C95.2205 115.452 95.0935 113.779 93.338 113.838C90.5206 113.931 87.6524 118.337 87.4155 121.864Z" fill="#7297A4"/>
<path d="M133.103 127.778C135.155 128.686 136.919 128.981 137.334 129.045C139.542 129.391 141.247 129.193 142.41 129.045C145.443 128.665 147.355 128.424 148.332 126.933C148.899 126.067 149.195 124.719 148.755 123.553C147.829 121.099 144.199 120.905 138.603 119.329C134.592 118.202 131.809 116.989 128.45 115.528C122.515 112.947 121.373 111.591 115.336 109.192C112.087 107.899 108.161 106.34 107.721 107.08C107.226 107.908 111.77 110.48 119.566 117.64C121.867 119.752 127.976 125.509 133.103 127.778Z" fill="#7297A4"/>
<path d="M164.831 119.33C166.819 120.035 167.597 120.309 168.638 121.019C170.609 122.358 171.307 123.756 172.445 123.554C173.207 123.418 173.659 122.658 174.137 121.864C174.23 121.708 175.432 119.651 174.983 118.062C174.357 115.853 170.698 115.122 168.638 114.683C163.354 113.555 158.291 111.494 152.986 110.459C145.722 109.044 153.1 110.286 131.411 105.813C119.308 103.316 117.916 103.118 117.874 103.278C117.811 103.519 120.856 104.482 138.603 110.037C139.208 110.227 140.016 110.501 164.831 119.33Z" fill="#7297A4"/>
<path d="M108.677 95.113C107.882 90.6946 103.969 88.101 100.771 85.9806C93.8331 81.3806 86.595 81.3764 83.2996 81.4186C76.6241 81.5073 71.8269 83.501 69.4918 84.4979C64.5381 86.6142 61.1834 88.0504 59.889 91.438C57.8076 96.8659 62.7063 102.877 63.472 103.814C67.4697 108.719 72.9099 110.032 77.5759 111.16C83.6761 112.634 91.904 114.624 99.4129 110.113C103.867 107.435 109.815 101.419 108.681 95.113H108.677Z" fill="#FFE2FF" stroke="#FFF4FE" stroke-width="5" stroke-miterlimit="10"/>
<path d="M85.8375 85.4906C85.7656 85.0724 81.6157 84.8865 76.81 86.2847C72.9689 87.4041 66.1073 89.402 65.2908 94.1414C64.4532 98.9948 70.3545 104.482 72.2413 103.73C73.2142 103.346 72.5924 101.508 73.7769 97.1236C74.4199 94.7412 75.2067 91.8224 77.2246 89.6048C80.6469 85.8412 85.9137 85.9637 85.8333 85.4906H85.8375Z" fill="white" stroke="#FFF4FE" stroke-width="5" stroke-miterlimit="10"/>
<path d="M8.73179 123.976C8.2453 122.126 8.94753 121.53 8.30875 120.597C7.06504 118.78 2.72896 118.578 1.11721 120.597C0.330368 121.581 0.288064 122.966 0.271143 123.554C0.254222 124.158 0.334598 124.432 0.694175 126.51C1.08336 128.762 1.00299 128.542 1.11721 129.045C1.3668 130.151 1.73483 131.807 2.80934 133.269C4.12497 135.06 5.91439 135.778 7.03966 136.226C9.2225 137.096 11.1092 137.083 12.5391 137.07C14.1043 137.058 15.3015 136.842 16.3464 136.648C18.6138 136.226 19.8914 135.71 20.9997 135.381C26.4695 133.763 31.6771 135.681 31.9986 135.803C35.0655 136.978 37.2399 138.946 37.498 139.182C38.5598 140.158 38.7375 140.593 39.6131 141.295C41.5252 142.832 43.6023 143.086 45.9586 143.407C48.1034 143.698 51.8599 144.213 55.6884 142.562C56.6571 142.144 56.6148 142.025 58.2266 141.295C59.3095 140.805 61.4162 139.909 64.149 139.182C65.8919 138.718 68.9631 137.924 73.0327 137.915C76.8865 137.907 78.9424 137.903 81.0703 139.182C81.9417 139.706 82.5932 140.31 84.8776 141.717C86.0748 142.452 86.832 142.921 87.8388 143.407C88.2449 143.601 90.1486 144.505 92.9152 145.096C94.7469 145.489 97.3443 146.047 100.53 145.519C102.628 145.172 104.126 144.496 105.606 143.829C108.119 142.697 109.549 141.569 112.798 140.45C113.356 140.255 113.403 140.26 114.067 140.027C117.007 138.997 117.214 138.545 119.143 137.915C119.896 137.67 121.588 137.176 123.797 137.07C124.055 137.058 124.693 137.032 125.489 137.07C126.225 137.104 129.44 137.303 133.526 139.182C135.121 139.917 135.151 140.124 136.911 140.872C138.315 141.468 139.301 141.886 140.718 142.139C141.331 142.249 143.116 142.524 145.371 142.139C146.416 141.962 147.74 141.725 149.178 140.872C149.47 140.699 149.72 140.526 151.294 139.182C152.914 137.797 154.204 136.648 154.678 136.226C157.618 133.607 157.707 133.522 158.062 133.269C159.187 132.462 160.27 131.681 161.869 131.157C163.769 130.532 165.321 130.62 167.369 130.734C168.926 130.823 170.339 130.912 172.022 131.579C173.376 132.116 173.494 132.466 174.56 132.846C176.773 133.636 178.812 133.049 179.637 132.846C180.276 132.69 180.969 132.509 181.752 132.002C182.67 131.406 183.173 130.696 183.444 130.312C184.358 129.007 184.582 127.74 184.713 126.933C184.878 125.919 184.992 125.226 184.713 124.398C184.413 123.507 183.998 123.461 183.867 122.709C183.66 121.496 184.531 120.402 184.713 120.174C185.06 119.739 185.102 119.874 186.828 118.485C187.624 117.847 187.869 117.61 188.097 117.217C188.237 116.972 188.584 116.36 188.52 115.528C188.474 114.907 188.224 114.459 188.097 114.261C188.097 114.261 187.784 113.771 187.251 113.416C185.915 112.525 183.609 113.107 183.233 113.205C180.982 113.796 179.544 115.169 179.002 115.739C177.221 117.619 176.718 119.731 176.464 120.808C176.083 122.417 175.859 123.355 176.041 124.187C176.058 124.255 176.176 124.795 176.041 125.454C175.978 125.754 175.897 126.156 175.618 126.299C175.242 126.493 174.7 126.105 174.349 125.877C173.448 125.294 172.352 125.078 171.388 124.61C169.319 123.608 166.861 123.439 165.465 123.342C162.377 123.127 160.038 123.651 159.543 123.765C156.324 124.512 154.005 125.957 152.774 126.722C152.178 127.093 151.201 127.74 150.236 128.411C148.455 129.653 148.222 129.94 147.275 130.523C146.505 130.996 145.219 131.79 143.468 132.213C141.445 132.703 139.77 132.466 137.968 132.213C136.653 132.027 136.246 131.858 134.161 131.368C132.316 130.933 129.96 130.38 127.815 130.101C124.215 129.632 121.309 129.953 120.201 130.101C117.988 130.396 116.186 131.005 112.586 132.213C110.336 132.969 108.407 133.704 104.549 135.17C101.405 136.365 100.246 136.842 98.2031 137.282C96.3121 137.691 94.7258 138.017 92.7037 137.704C91.35 137.497 90.2501 137.003 88.0503 136.014C85.2922 134.777 84.8987 134.304 82.9739 133.48C80.3469 132.352 78.1387 131.972 77.0515 131.79C75.7486 131.575 72.3812 131.11 68.1678 131.79C64.9147 132.314 62.4061 133.32 60.9763 133.902C59.0599 134.684 59.0261 134.887 57.169 135.592C55.1342 136.365 53.1036 137.134 50.4005 137.282C48.7253 137.37 46.6609 137.484 44.478 136.437C43.0524 135.753 42.0667 134.811 40.6707 133.48C38.9701 131.854 38.4963 130.941 36.8634 130.101C36.4489 129.89 35.9497 129.674 34.3252 129.256C32.4004 128.762 30.3868 128.246 27.5567 127.989C24.4094 127.706 21.8669 127.887 20.7882 127.989C19.5614 128.103 18.7069 128.246 16.5579 128.411C13.1144 128.677 12.611 128.517 12.3276 128.411C9.68361 127.406 8.76986 124.115 8.73179 123.976Z" fill="#B3D6E3"/>
<path d="M8.30831 122.286C8.48175 121.898 7.06883 120.605 5.34708 120.174C4.721 120.018 3.06271 119.604 1.96283 120.597C0.968701 121.492 1.07446 122.949 1.11676 123.553C1.22252 125.061 2.06012 126.105 2.38586 126.51C4.08645 128.626 8.35907 130.958 15.4999 131.157C20.8216 131.304 20.3817 130.063 25.6526 130.312C28.9227 130.468 33.1192 130.713 37.0745 133.269C39.7946 135.026 39.3377 135.9 42.1509 137.493C43.2931 138.139 46.91 140.002 51.4576 139.605C53.247 139.448 53.5643 139.085 59.0722 137.07C63.9751 135.279 66.4287 134.38 67.9559 134.113C73.5187 133.138 78.1932 134.481 79.8008 134.958C84.7841 136.445 84.6445 137.987 89.5305 139.182C94.4631 140.386 98.4226 139.753 99.2602 139.605C102.205 139.094 103.025 138.316 108.144 136.225C113.529 134.025 116.224 132.922 119.143 132.424C120.945 132.115 126.922 131.093 133.526 133.269C136.673 134.308 137.786 135.351 140.717 135.381C143.839 135.41 146.28 134.261 148.332 133.269C153.324 130.853 152.655 129.383 156.37 127.777C156.907 127.545 163.684 124.719 169.484 127.355C170.651 127.883 171.692 128.597 173.714 129.045C175.093 129.349 178.443 130.092 179.636 128.622C180.85 127.127 178.359 125.163 179.213 121.441C179.344 120.871 180.174 117.255 182.598 116.372C183.346 116.102 184.395 116.035 185.136 115.105C185.203 115.017 185.804 114.256 185.559 113.838C185.195 113.221 183.236 113.775 183.021 113.838C180.838 114.467 178.562 116.334 177.521 118.907C176.569 121.26 176.527 124.5 176.675 125.243C176.692 125.319 176.768 125.665 176.675 126.088C176.599 126.438 176.417 126.789 176.252 126.933C175.601 127.499 173.638 126.295 173.291 126.088C171.214 124.842 169.187 124.525 165.676 123.976C165.384 123.929 159.69 123.114 154.677 126.088C153.345 126.878 151.069 128.525 149.178 129.889C147.621 131.013 146.987 131.516 145.794 132.001C145.379 132.17 143.552 132.88 140.717 132.846C138.611 132.821 137.189 132.394 135.641 132.001C132.13 131.106 128.559 130.51 126.334 130.312C121.981 129.927 118.538 130.705 116.605 131.157C114.574 131.634 111.867 132.741 106.452 134.958C101.007 137.189 100.407 137.594 98.4142 137.915C96.9801 138.143 93.6931 138.637 89.9535 137.493C86.7173 136.504 86.4085 135.292 82.339 133.691C79.2804 132.487 76.738 132.103 75.9935 132.001C69.5168 131.114 64.1401 133.062 62.4564 133.691C59.2837 134.878 58.5561 135.786 54.4188 137.07C51.5803 137.953 49.8712 138.16 48.0733 137.915C45.9201 137.619 44.3803 136.766 43.42 136.225C40.3065 134.468 39.9765 132.91 37.4975 131.157C35.2724 129.585 33.1911 129.18 30.306 128.622C24.5104 127.499 19.0533 128.436 18.0381 128.622C17.0185 128.808 16.1006 129.028 14.6538 129.045C11.8406 129.078 9.74662 128.318 8.30831 127.777C6.0324 126.924 4.55178 126.345 3.65496 124.821C3.19385 124.039 2.75813 122.793 3.23192 122.286C3.52382 121.974 4.01453 122.109 6.19315 122.286C8.10949 122.442 8.26601 122.383 8.30831 122.286Z" fill="#F4FDFF"/>
</g>
<defs>
<clipPath id="clip0_928_3785">
<rect width="193" height="146" fill="white"/>
</clipPath>
</defs>
</svg>
