<?xml version="1.0" encoding="UTF-8"?>
<svg id="Layer_2" data-name="Layer 2" xmlns="http://www.w3.org/2000/svg" viewBox="0 0 456.23 345.64">
  <defs>
    <style>
      .cls-1 {
        fill: #ffe2ff;
      }

      .cls-1, .cls-2 {
        stroke: #fff4fe;
        stroke-miterlimit: 10;
        stroke-width: 5px;
      }

      .cls-2 {
        fill: #fff;
      }

      .cls-3 {
        fill: #95bfca;
      }

      .cls-3, .cls-4, .cls-5, .cls-6 {
        stroke-width: 0px;
      }

      .cls-4 {
        fill: #7297a4;
      }

      .cls-5 {
        fill: #b3d6e3;
      }

      .cls-6 {
        fill: #f4fdff;
      }
    </style>
  </defs>
  <g id="Layer_1-2" data-name="Layer 1">
    <path class="cls-3" d="m242.64,220.5c7.81-4.43,14.64-5.92,15-6,8.48-1.86,19.32-7.9,41-20,41.28-23.03,78.74-57.45,87.5-65.5,8.71-8,18.53-14.75,27-23,5.5-5.35,10.48-10.74,19-14,2.62-1,5.44-1.75,10-4,6.03-2.97,9.86-4.86,12-8,4.49-6.59,1.08-17.99-4-25-8.25-11.39-22.79-13.81-36-16-16.41-2.72-16.86,1.03-27-2-16.44-4.91-15.84-14.94-35-26C347.3,8.21,331.71-.13,311.14,0c-9.33.06-20.32.13-30,7-4.25,3.02-5.6,5.47-11,8-2.3,1.08-8.36,3.6-21,3-11.4-.54-12.57-2.88-27-5-11.44-1.68-17.15-2.52-24-1-12.49,2.77-21.58,10.81-24,13-5.88,5.31-5.31,7.07-10,10-6.67,4.17-12.83,3.76-23,4-16.86.4-25.29.59-33,3-4.01,1.25-18.01,5.62-27,18-3.8,5.23-8.55,14.44-14,25-1.92,3.72-3.16,6.27-6,9-4.45,4.29-8.65,5.02-18,8-12.23,3.9-18.34,5.85-22,9-1.41,1.21-9.48,8.18-10,18-.32,5.97,2.42,8.2,1,15-.18.89-.41,1.69-4,10-4.62,10.7-4.82,10.66-5,12-1.22,9.06,6.9,16.96,8,18,4.45,4.21,9.01,5.52,19,8,17.57,4.35,29.2,6.66,39,9,6.92,1.65,14.77,3.53,25,7,20.45,6.94,24.53,11.48,38,14,3.44.64,7.96,1.76,17,4,7.03,1.74,9.03,2.34,9,3-.06,1.47-10.2,1.73-20,3-10.91,1.41-18.94,3.94-35,9-34.41,10.84-53.95,22.07-60,26-7.54,4.9-11.3,7.35-13,10-.93,1.46-2.57,4.46-6,6-2.17.97-4.24,1-5,1-3.67,0-4.64-1.52-8-2-.57-.08-5.98-.79-9,2-1.75,1.62-2.46,4.19-2,11,.71,10.41,1.06,15.62,4,20,8.21,12.22,27.38,11.18,30,11,9.76-.66,9.87-4.25,21-5,3.54-.24,13.49-.79,24,4,9.4,4.29,8.27,7.85,17,12,11.76,5.59,23.65,3.8,29,3,11.84-1.78,11.39-5.27,25-9,7.71-2.11,23.29-6.39,39-1,10.66,3.65,9.56,7.7,22,12,4.35,1.5,15.16,5.1,28,3,4.11-.67,5.09-1.39,27-11,16.88-7.41,17.97-7.72,20-8,12.92-1.79,25.16,3.07,30,5,7.84,3.12,7.99,4.72,14,6,2.72.58,12.63,2.69,22-2,3-1.5,2.57-2.01,14-12,6.16-5.38,9.27-8.09,11-9,9.68-5.1,20.19-3.47,23-3,9.22,1.55,10.05,5,18,5,3.26,0,10.28,0,15-5,4.43-4.69,6.34-13.25,4-18-.35-.72-1.2-2.14-1-4,.22-2.09,1.64-3.59,3-5,2.39-2.47,3.32-2.19,5-4,1.62-1.75,3.13-4.57,3-7-.24-4.4-5.84-7.42-9-9-16.68-8.31-34.61-10.94-35-11-27.42-4.02-10.64-2.84-36-6-31.09-3.87-56.73-5.7-61-6-18.4-1.29-36.61-4.64-55-6-6.98-.52-18.3-1.26-19-5-.6-3.2,6.82-7.41,10.5-9.5Z"/>
    <path class="cls-5" d="m26.14,185c-1.13,1.68-8.08-.38-13-4-1.77-1.31-4.4-3.3-6-7-1.77-4.11-1.2-7.82-1-9,.45-2.68,1.23-3.19,4-9,2.46-5.16,3.69-7.74,4-10,.46-3.35-.49-3.59-1-11-.3-4.44-.45-6.66,0-9,1.12-5.79,4.69-9.62,6-11,.98-1.03,4.15-4.18,15-8,11.66-4.11,13.03-2.24,20-6,7.19-3.88,11.02-8.71,12-10,1.86-2.44,2.49-3.97,5-9,3.65-7.32,6.6-13.23,9-17,6.08-9.55,14.54-14.57,17-16,10.02-5.81,19.73-6.45,28-7,8.3-.55,13.7.27,27-1,3.41-.33,9.11-.96,14-5,2.36-1.95,2.62-3.12,5-6,5.7-6.91,12.55-10.32,16-12,8.81-4.28,16.45-4.89,18-5,5.86-.41,10.58.41,14,1,4.56.79,4.75,1.28,12,3,5.49,1.3,10.11,2.4,16,3,6.65.67,10.24,1.04,15,0,6-1.3,10.36-4.07,15-7,5.75-3.64,5.86-4.82,10-7,1.45-.77,5.97-3,15-4,16.54-1.83,30.37,2.47,32,3,6.14,1.98,18.12,5.83,28,16,3.29,3.39,6.42,7.55,13,12,6.72,4.54,11.57,5.69,13,6,3.44.74,7.21.92,9,1,3.25.15,4.98.02,7,0,4.5-.04,8.06.64,15,2,8.57,1.68,12.85,2.51,16,4,7.07,3.34,11.11,7.95,12,9,2.73,3.21,7.35,8.64,7,16-.08,1.58-.3,6.39-4,10-1.24,1.21-2.83,2.88-5,3-4,.21-6.44-4.93-11-10,0,0-5.56-6.19-15-11-5.69-2.9-8.07-2.19-28-4-20.82-1.89-24.08-3.2-27-5-4.84-2.98-3.89-4.31-14-14-7.8-7.47-11.69-11.21-17-14-2.98-1.57-13.78-6.8-27-5-5.1.69-11.07,3.46-23,9-12.61,5.85-12.02,6.62-17,8-10.41,2.89-19.56,1.34-27,0-14.32-2.58-13.69-6.07-25-7-4.86-.4-16.14-1.32-26,5-5.02,3.22-4.11,4.75-11,10-2.89,2.21-9.94,7.18-19,10-8.94,2.78-10.12.43-25,2-12.02,1.27-19.68,2.08-28,7-8.76,5.18-14.2,12.52-16,15-5.19,7.13-3.98,8.98-9,15-5.69,6.82-12.21,10.42-17,13-5.71,3.08-10.85,4.87-17,7-11.24,3.9-14.81,3.88-18,8-3.2,4.13-3.83,9.58-4,11-.59,5.06.9,6.14,0,11-.33,1.78-1.55,4.52-4,10-2.59,5.79-3.38,6.98-4,10-.7,3.39-1.19,5.73,0,8,1.45,2.76,3.79,2.38,7,6,.47.53,3.98,4.55,3,6Z"/>
    <path class="cls-6" d="m18.64,181.5c-.3.36-2.97-.74-5-3-3.93-4.38-3.27-10.73-3-13,.66-5.6,2.59-5.72,5-13,1.97-5.96,2.41-11.12,3-18,.77-9.05-.2-9.26,1-12,2.65-6.06,9.04-8.76,17-12,11.71-4.76,12.44-2.19,20-6,11.17-5.62,17.16-15.03,19-18,3.41-5.5,2.17-5.88,6-13,3.19-5.93,8.22-15.27,17-21,6.46-4.22,12.98-4.82,26-6,16.83-1.53,19.51,1.49,30-2,9.06-3.02,16.03-8.26,17-9,5.48-4.18,5.98-6.15,11-10,1.9-1.46,9.49-7.16,19-9,4.45-.86,7.3-.49,31,5,16.55,3.83,17.63,4.22,21,4,2.41-.16,7.94-.76,25-9,14.68-7.09,13.44-8.02,19-10,19.56-6.95,39.77,2.88,42,4,16.13,8.12,12.65,16.36,31,25,13.33,6.28,28,8,28,8,6.6.78,6.94.05,14,1,9.97,1.35,19.02,2.57,27,9,2.3,1.86,9.35,7.53,10,16,.35,4.6-1.26,9.05-2,9-.86-.06.35-6.04-2-12-3.71-9.42-14.23-13.53-18-15-8.07-3.15-10.08-1.19-26-3-12.53-1.42-19.48-2.21-28-6-11.81-5.25-20.49-13.53-22-15-5.72-5.55-5.93-7.51-11-11-8.14-5.59-16.45-6.61-20-7-10.62-1.17-18.82,1.56-23,3-7.57,2.61-7.53,4.32-19,10-11.34,5.62-17,8.43-24,9-1.91.16-3.88.17-26-5-15.21-3.55-17.26-4.25-22-4-9.87.53-17.29,4.43-20,6-8.23,4.76-7.14,7.72-16,14-2.78,1.97-11.66,8.13-24,10-6.1.92-5.57-.33-19,0-11.85.29-17.87.49-23,3-7.07,3.46-11.11,9.02-14,13-5,6.88-3.75,8.74-10,19-4.05,6.65-6.41,10.44-11,14-3.24,2.51-7.16,4.01-15,7-8.08,3.09-11.05,3.57-19,7-7.7,3.32-9.61,4.89-11,7-1.71,2.59-2.14,5.4-3,11-.81,5.26-.27,5.6-1,11-.78,5.72-1.22,8.99-3,13-1.78,4.02-3.24,5.04-4,9-.31,1.62-.77,4.12,0,7,1.33,5.01,5.39,7.53,5,8Z"/>
    <path class="cls-4" d="m214.64,178.5c1.63-.12,1.39-10.17,3-23,1.87-14.87,3.97-15.61,10-42,2.21-9.69,4.44-20.59,6-34,2.52-21.66.73-27.75-3-32-3.99-4.54-10.32-7.1-16-7-4.74.08-5.56,1.95-18,8-11.2,5.44-13.73,5.48-16,9-3.46,5.36-1.96,12.08-1,16,4.87,19.86,11.23,30.51,17,46,8.64,23.2,14,47,14,47,1.1,4.9,2.61,12.1,4,12Z"/>
    <path class="cls-4" d="m339.64,53.5c-.45-4.99-4.29-8.51-7-11-.82-.75-11.1-9.9-24-8-7.79,1.15-7.78,5.04-20,8-5.62,1.36-7.51,1-10,3-5.38,4.32-5.02,12.82-5,18,0,1.65-1.66,13.77-5,38-2.4,17.45-4.38,31.81-13,47-7.71,13.59-9.81,20.06-14,33-.81,2.48-2.02,6.42-1,7,1.73.98,8.78-8.3,13-14,18.04-24.38,22.61-35.15,35-53,19.39-27.92,29.08-41.89,38-49,4.1-3.27,13.76-10.47,13-19Z"/>
    <path class="cls-4" d="m404.64,89.5c7.37-2.48,13.82-1.61,15-5,1.14-3.27-3.35-8.44-8-11-5.85-3.23-12.31-2.19-25,0-8.46,1.46-12.69,2.19-16,4-8.87,4.83-12.07,13.17-16,21-3.48,6.93-10.65,16.28-25,35-8.47,11.05-18.13,23.53-33,37-11.01,9.97-18.32,14.54-18,15,.67.96,34.27-17.64,68-46,23.15-19.46,34.72-29.19,37-32,5.31-6.56,10.53-14.47,21-18Z"/>
    <path class="cls-4" d="m146.64,70.5c-4.15-2.75-9.45-1.7-18,0-10.39,2.07-16.81,6.44-20,9-3.35,2.69-6.21,5.05-7,9-.58,2.9.09,6,3,11,4.88,8.41,10.98,13.43,14,16,0,0,10.86,9.24,22,22,6.07,6.95,11.91,13.65,17,24,3.82,7.76,6.67,16.49,15,28,3.72,5.13,5.27,6.33,6,6,1.58-.72-.64-8.73-3-17-5.91-20.69-10.79-36.33-11-37-7.36-23.59-11.05-35.38-12-45-1.33-13.45-.03-22.04-6-26Z"/>
    <path class="cls-4" d="m62.64,117.5c-3.96.16-9.52,2.52-13,4-5.39,2.29-8.49,3.66-11,7-1.08,1.44-4.52,6.54-3,12,.7,2.52,2.51,5.33,9,9,8.84,5.01,16.77,6.19,21,7,12.9,2.47,21.79,7.29,36,15,9.72,5.27,8.56,5.94,25,16,2.92,1.78,26.97,16.5,28,15,.63-.91-7.78-7.11-23-20-23.77-20.14-35.66-30.2-42-38-12.12-14.91-17.36-27.38-27-27Z"/>
    <path class="cls-4" d="m32.64,162.5c-1.89-.4-5.91-1.16-8,1-2.91,3-.16,9.63,0,10,2.92,6.82,10.1,9.83,13,11,16.68,6.72,31.84,9.34,43,12,4.29,1.02,1.21.43,40,13,26.37,8.54,30.67,9.75,31,9,.79-1.8-22.14-13.46-35-20-37.14-18.89-31-12.4-47-22,0,0-15.87-9.52-37-14Z"/>
    <path class="cls-4" d="m134.64,241.5c-.2-.78-13.87,2.01-18.47,2.99-2.35.5-7.06,1.52-12.53,3.01-6.91,1.88-19.74,5.38-35,13-20.28,10.12-15.1,12.66-30,19-3.11,1.32-9.79,3.96-10,8-.1,1.94,1.3,4,3,5,1.27.75,3.2,1.21,7,0,6.17-1.97,10.08-6.09,12-8,1.71-1.7,6.8-5.47,17-13,8.02-5.92,14.63-9.27,22-13,24.55-12.43,45.24-16.05,45-17Z"/>
    <path class="cls-4" d="m98.64,298.5c.28,1.5,1.99,1.57,5,5,3.17,3.6,2.74,5.18,5,7,2.51,2.02,5.43,2.01,10,2,4.26-.01,9.14-.03,14-3,4.06-2.48,6.08-5.79,8-9,4-6.7,3.76-10.75,6-17,1.67-4.64,4.76-11.37,11-17,5.26-4.74,10.28-6.28,10-7-.35-.9-8.5.75-17,4-17.13,6.55-17.06,12.46-38,24-6.37,3.51-14.66,7.52-14,11Z"/>
    <path class="cls-4" d="m206.64,288.5c-.21,3.18.59,4.36,0,9-.85,6.73-3.06,8.4-2,12,1.3,4.38,5.94,6.51,7,7,.97.44,3.26,1.37,10,1,6.08-.33,11.73-.64,18-4,4-2.15,7.12-3.82,8-7,1.14-4.13-2.29-7.87-8-15-14.55-18.18-14.85-22.14-19-22-6.66.22-13.44,10.65-14,19Z"/>
    <path class="cls-4" d="m314.64,302.5c4.85,2.15,9.02,2.85,10,3,5.22.82,9.25.35,12,0,7.17-.9,11.69-1.47,14-5,1.34-2.05,2.04-5.24,1-8-2.19-5.81-10.77-6.27-24-10-9.48-2.67-16.06-5.54-24-9-14.03-6.11-16.73-9.32-31-15-7.68-3.06-16.96-6.75-18-5-1.17,1.96,9.57,8.05,28,25,5.44,5,19.88,18.63,32,24Z"/>
    <path class="cls-4" d="m389.64,282.5c4.7,1.67,6.54,2.32,9,4,4.66,3.17,6.31,6.48,9,6,1.8-.32,2.87-2.12,4-4,.22-.37,3.06-5.24,2-9-1.48-5.23-10.13-6.96-15-8-12.49-2.67-24.46-7.55-37-10-17.17-3.35.27-.41-51-11-28.61-5.91-31.9-6.38-32-6-.15.57,7.05,2.85,49,16,1.43.45,3.34,1.1,62,22Z"/>
    <g>
      <path class="cls-1" d="m256.9,225.17c-1.88-10.46-11.13-16.6-18.69-21.62-16.4-10.89-33.51-10.9-41.3-10.8-15.78.21-27.12,4.93-32.64,7.29-11.71,5.01-19.64,8.41-22.7,16.43-4.92,12.85,6.66,27.08,8.47,29.3,9.45,11.61,22.31,14.72,33.34,17.39,14.42,3.49,33.87,8.2,51.62-2.48,10.53-6.34,24.59-20.58,21.91-35.51Z"/>
      <path class="cls-2" d="m202.91,202.39c-.17-.99-9.98-1.43-21.34,1.88-9.08,2.65-25.3,7.38-27.23,18.6-1.98,11.49,11.97,24.48,16.43,22.7,2.3-.91.83-5.26,3.63-15.64,1.52-5.64,3.38-12.55,8.15-17.8,8.09-8.91,20.54-8.62,20.35-9.74Z"/>
    </g>
    <path class="cls-5" d="m20.64,293.5c-1.15-4.38.51-5.79-1-8-2.94-4.3-13.19-4.78-17,0-1.86,2.33-1.96,5.61-2,7-.04,1.43.15,2.08,1,7,.92,5.33.73,4.81,1,6,.59,2.62,1.46,6.54,4,10,3.11,4.24,7.34,5.94,10,7,5.16,2.06,9.62,2.03,13,2,3.7-.03,6.53-.54,9-1,5.36-1,8.38-2.22,11-3,12.93-3.83,25.24.71,26,1,7.25,2.78,12.39,7.44,13,8,2.51,2.31,2.93,3.34,5,5,4.52,3.64,9.43,4.24,15,5,5.07.69,13.95,1.91,23-2,2.29-.99,2.19-1.27,6-3,2.56-1.16,7.54-3.28,14-5,4.12-1.1,11.38-2.98,21-3,9.11-.02,13.97-.03,19,3,2.06,1.24,3.6,2.67,9,6,2.83,1.74,4.62,2.85,7,4,.96.46,5.46,2.6,12,4,4.33.93,10.47,2.25,18,1,4.96-.82,8.5-2.42,12-4,5.94-2.68,9.32-5.35,17-8,1.32-.46,1.43-.45,3-1,6.95-2.44,7.44-3.51,12-5,1.78-.58,5.78-1.75,11-2,.61-.03,2.12-.09,4,0,1.74.08,9.34.55,19,5,3.77,1.74,3.84,2.23,8,4,3.32,1.41,5.65,2.4,9,3,1.45.26,5.67.91,11,0,2.47-.42,5.6-.98,9-3,.69-.41,1.28-.82,5-4,3.83-3.28,6.88-6,8-7,6.95-6.2,7.16-6.4,8-7,2.66-1.91,5.22-3.76,9-5,4.49-1.48,8.16-1.27,13-1,3.68.21,7.02.42,11,2,3.2,1.27,3.48,2.1,6,3,5.23,1.87,10.05.48,12,0,1.51-.37,3.15-.8,5-2,2.17-1.41,3.36-3.09,4-4,2.16-3.09,2.69-6.09,3-8,.39-2.4.66-4.04,0-6-.71-2.11-1.69-2.22-2-4-.49-2.87,1.57-5.46,2-6,.82-1.03.92-.71,5-4,1.88-1.51,2.46-2.07,3-3,.33-.58,1.15-2.03,1-4-.11-1.47-.7-2.53-1-3,0,0-.74-1.16-2-2-3.16-2.11-8.61-.73-9.5-.5-5.32,1.4-8.72,4.65-10,6-4.21,4.45-5.4,9.45-6,12-.9,3.81-1.43,6.03-1,8,.04.16.32,1.44,0,3-.15.71-.34,1.66-1,2-.89.46-2.17-.46-3-1-2.13-1.38-4.72-1.89-7-3-4.89-2.37-10.7-2.77-14-3-7.3-.51-12.83.73-14,1-7.61,1.77-13.09,5.19-16,7-1.41.88-3.72,2.41-6,4-4.21,2.94-4.76,3.62-7,5-1.82,1.12-4.86,3-9,4-4.78,1.16-8.74.6-13,0-3.11-.44-4.07-.84-9-2-4.36-1.03-9.93-2.34-15-3-8.51-1.11-15.38-.35-18,0-5.23.7-9.49,2.14-18,5-5.32,1.79-9.88,3.53-19,7-7.43,2.83-10.17,3.96-15,5-4.47.97-8.22,1.74-13,1-3.2-.49-5.8-1.66-11-4-6.52-2.93-7.45-4.05-12-6-6.21-2.67-11.43-3.57-14-4-3.08-.51-11.04-1.61-21,0-7.69,1.24-13.62,3.62-17,5-4.53,1.85-4.61,2.33-9,4-4.81,1.83-9.61,3.65-16,4-3.96.21-8.84.48-14-2-3.37-1.62-5.7-3.85-9-7-4.02-3.85-5.14-6.01-9-8-.98-.5-2.16-1.01-6-2-4.55-1.17-9.31-2.39-16-3-7.44-.67-13.45-.24-16,0-2.9.27-4.92.61-10,1-8.14.63-9.33.25-10,0-6.25-2.38-8.41-10.17-8.5-10.5Z"/>
    <path class="cls-6" d="m19.64,289.5c.41-.92-2.93-3.98-7-5-1.48-.37-5.4-1.35-8,1-2.35,2.12-2.1,5.57-2,7,.25,3.57,2.23,6.04,3,7,4.02,5.01,14.12,10.53,31,11,12.58.35,11.54-2.59,24-2,7.73.37,17.65.95,27,7,6.43,4.16,5.35,6.23,12,10,2.7,1.53,11.25,5.94,22,5,4.23-.37,4.98-1.23,18-6,11.59-4.24,17.39-6.37,21-7,13.15-2.31,24.2.87,28,2,11.78,3.52,11.45,7.17,23,10,11.66,2.85,21.02,1.35,23,1,6.96-1.21,8.9-3.05,21-8,12.73-5.21,19.1-7.82,26-9,4.26-.73,18.39-3.15,34,2,7.44,2.46,10.07,4.93,17,5,7.38.07,13.15-2.65,18-5,11.8-5.72,10.22-9.2,19-13,1.27-.55,17.29-7.24,31-1,2.76,1.25,5.22,2.94,10,4,3.26.72,11.18,2.48,14-1,2.87-3.54-3.02-8.19-1-17,.31-1.35,2.27-9.91,8-12,1.77-.64,4.25-.8,6-3,.16-.21,1.58-2.01,1-3-.86-1.46-5.49-.15-6,0-5.16,1.49-10.54,5.91-13,12-2.25,5.57-2.35,13.24-2,15,.04.18.22,1,0,2-.18.83-.61,1.66-1,2-1.54,1.34-6.18-1.51-7-2-4.91-2.95-9.7-3.7-18-5-.69-.11-14.15-2.04-26,5-3.15,1.87-8.53,5.77-13,9-3.68,2.66-5.18,3.85-8,5-.98.4-5.3,2.08-12,2-4.98-.06-8.34-1.07-12-2-8.3-2.12-16.74-3.53-22-4-10.29-.91-18.43.93-23,2-4.8,1.13-11.2,3.75-24,9-12.87,5.28-14.29,6.24-19,7-3.39.54-11.16,1.71-20-1-7.65-2.34-8.38-5.21-18-9-7.23-2.85-13.24-3.76-15-4-15.31-2.1-28.02,2.51-32,4-7.5,2.81-9.22,4.96-19,8-6.71,2.09-10.75,2.58-15,2-5.09-.7-8.73-2.72-11-4-7.36-4.16-8.14-7.85-14-12-5.26-3.72-10.18-4.68-17-6-13.7-2.66-26.6-.44-29,0-2.41.44-4.58.96-8,1-6.65.08-11.6-1.72-15-3-5.38-2.02-8.88-3.39-11-7-1.09-1.85-2.12-4.8-1-6,.69-.74,1.85-.42,7,0,4.53.37,4.9.23,5,0Z"/>
  </g>
</svg>