<?xml version="1.0" encoding="UTF-8"?>
<svg id="Layer_2" data-name="Layer 2" xmlns="http://www.w3.org/2000/svg" viewBox="0 0 250.67 209.65">
  <defs>
    <style>
      .cls-1 {
        fill: #faffff;
        stroke: #bce2ff;
        stroke-width: .5px;
      }

      .cls-1, .cls-2, .cls-3, .cls-4, .cls-5, .cls-6 {
        stroke-miterlimit: 10;
      }

      .cls-2 {
        stroke: #0009aa;
      }

      .cls-2, .cls-5, .cls-6 {
        fill: #0009aa;
      }

      .cls-3 {
        fill: #fff;
      }

      .cls-3, .cls-6 {
        stroke: #ffb4c3;
      }

      .cls-4 {
        fill: #f7fbff;
        stroke: #b7d0db;
      }

      .cls-5 {
        stroke: #ffbec3;
      }

      .cls-5, .cls-6 {
        stroke-width: 3px;
      }

      .cls-7 {
        fill: #f6e7c7;
      }

      .cls-7, .cls-8, .cls-9, .cls-10, .cls-11, .cls-12 {
        stroke-width: 0px;
      }

      .cls-8 {
        fill: #7fbae1;
      }

      .cls-9 {
        fill: #b48aac;
      }

      .cls-10 {
        fill: #994559;
      }

      .cls-11 {
        fill: #f2d7e4;
      }

      .cls-12 {
        fill: #e77a78;
      }
    </style>
  </defs>
  <g id="Layer_1-2" data-name="Layer 1">
    <g>
      <path class="cls-2" d="m127.8,8.83c-.23.45-.52,1.11-.7,1.94-.25,1.16-.17,2.06-.09,2.87.16,1.52.55,2.63.82,3.38.27.75.75,1.9,1.56,3.21.48.77.6.82,2.31,3.05,1.28,1.67,1.11,1.49,2.31,3.05,1.7,2.21,1.83,2.28,2.31,3.05.39.62.69,1.21,1.56,3.21.99,2.28,1.48,3.42,1.89,4.57.94,2.64.61,2.75,1.81,7.44.97,3.78,1.28,4.1,1.48,6.09.21,2.12-.09,2.37.24,4.23.25,1.37.61,3.28,2.06,5.24.91,1.25,1.69,2.31,3.05,2.88.37.16,1.08.4,1.81,1.02.49.41.63.69,1.07,1.18.82.93,1.51,1.31,1.98,1.69.77.63,1.07,1.36,2.06,5.24.55,2.15.82,3.23,1.15,4.73.65,2.98.71,3.76,1.31,5.41.57,1.55.85,2.32,1.56,3.21.47.59.96,1.03,4.7,3.22,2.44,1.43,3.67,2.15,4.53,2.54,1.5.68,2.23.85,4.37,1.87,2.01.96,2.49,1.34,2.72,1.53.94.79,1.16,1.38,2.31,3.05,1.08,1.57,1.62,2.36,2.31,3.05,1.31,1.31,2.68,1.89,5.44,3.05,2.43,1.02,3.64,1.54,5.11,1.7,1.63.18,3.14-.1,6.1-.67,3.16-.6,3.14-.81,5.2-1.17,2.68-.48,4.69-.48,8.49-.49,4.57-.01,4.99.29,7.01-.16,2.28-.51,4.25-1.46,5.03-1.85,2.09-1.03,1.98-1.33,4.13-2.36,2.3-1.1,4.33-1.67,5.03-1.85,2.2-.58,2.29-.32,3.71-.84,1.42-.52,1.92-1,4.13-2.36,3.15-1.94,3.04-1.52,4.13-2.36,1.84-1.43,2.61-2.99,4.05-5.91,1.02-2.07,2.06-4.24,1.66-6.08-.26-1.2-.49-2.03-.49-2.03-.34-1.25-.49-1.51-.49-2.03,0-1.06.62-1.74.99-2.36,1.24-2.06.54-4.53,0-6.42-.45-1.6-.73-1.26-2.8-5.07-1.76-3.24-3.05-6.25-3.13-6.43-.66-1.54-.93-2.34-1.73-3.89-.96-1.88-1.47-2.84-2.47-3.72-.49-.43-1.72-1.5-3.63-2.03-1.18-.33-1.82-.23-2.56-.85-.45-.38-.51-.67-1.23-1.86-.74-1.22-.94-1.33-1.23-1.86-.96-1.7-.25-2.81-.57-5.58-.15-1.33-.46-2.26-.82-3.38-.77-2.37-1.34-4.14-2.96-5.75-1.22-1.22-2.86-2.17-3.79-2.71-.17-.1-.21-.12-1.81-1.02-1.78-1-2.67-1.5-2.72-1.53-.36-.22-3.01-1.87-4.28-4.74-.8-1.8-.11-1.94-.82-3.38-1.17-2.38-3.98-3.87-6.51-4.24-1.64-.24-2.97.02-5.36.5-2.86.57-3.26,1.11-5.2,1.17-.78.03-2.96.09-4.95-1.02-1.98-1.12-1.53-2.15-4.28-4.74-.92-.86-2.01-1.87-3.79-2.71-.69-.32-2.19-.96-4.2-1.19-1.09-.13-2.35-.14-7.59,1-3.97.86-4.3,1.1-6.68,1.51-3.16.54-5.6.65-6.1.67-4.09.16-4.95-.49-11.21-1.03-4.04-.35-6.12-.52-8.66-.18-2.54.33-6.01.83-8.58,3.36-1.09,1.07-1.69,2.19-2.02,2.95Z"/>
      <path class="cls-5" d="m135.26,11.41c-.18.37-.4.91-.53,1.59-.19.95-.11,1.69-.04,2.36.14,1.25.46,2.16.67,2.78.22.61.6,1.57,1.25,2.65.38.64.47.68,1.83,2.52,1.02,1.38.88,1.23,1.83,2.52,1.35,1.83,1.45,1.89,1.83,2.52.31.51.55,1,1.25,2.65.8,1.88,1.19,2.82,1.52,3.76.76,2.17.5,2.27,1.48,6.12.79,3.11,1.04,3.37,1.21,5.01.18,1.74-.05,1.94.23,3.47.21,1.13.51,2.69,1.66,4.32.73,1.03,1.35,1.91,2.41,2.39.29.13.85.34,1.43.85.38.34.5.57.85.98.65.77,1.19,1.09,1.56,1.41.61.52.85,1.13,1.66,4.32.45,1.77.67,2.65.94,3.89.54,2.45.59,3.09,1.08,4.45.46,1.27.69,1.91,1.25,2.65.38.49.76.85,3.7,2.68,1.93,1.2,2.89,1.8,3.57,2.13,1.18.57,1.75.72,3.43,1.57,1.58.8,1.96,1.12,2.14,1.28.75.66.92,1.14,1.83,2.52.86,1.3,1.29,1.95,1.83,2.52,1.03,1.08,2.12,1.57,4.28,2.55,1.91.86,2.86,1.29,4.01,1.44,1.28.16,2.46-.05,4.77-.49,2.47-.47,2.44-.63,4.05-.92,2.09-.37,3.67-.35,6.64-.33,3.57.03,3.91.29,5.48-.06,1.78-.4,3.31-1.16,3.92-1.47,1.62-.82,1.54-1.07,3.2-1.9,1.79-.88,3.37-1.33,3.92-1.47,1.71-.46,1.79-.24,2.89-.65,1.11-.42,1.49-.8,3.2-1.9,2.44-1.56,2.36-1.22,3.2-1.9,1.43-1.15,2.01-2.43,3.11-4.81.78-1.69,1.57-3.46,1.24-4.97-.22-.99-.4-1.67-.4-1.67-.28-1.03-.4-1.24-.4-1.67,0-.87.46-1.42.75-1.93.95-1.67.38-3.71-.06-5.27-.37-1.32-.59-1.04-2.24-4.19-1.41-2.68-2.45-5.16-2.51-5.3-.53-1.27-.75-1.93-1.39-3.21-.77-1.55-1.17-2.35-1.97-3.08-.39-.36-1.36-1.25-2.86-1.7-.92-.28-1.43-.21-2.01-.72-.35-.31-.4-.55-.98-1.54-.59-1-.75-1.1-.98-1.54-.77-1.4-.22-2.3-.5-4.58-.13-1.09-.38-1.86-.67-2.78-.63-1.95-1.09-3.41-2.37-4.74-.97-1.01-2.26-1.81-2.99-2.26-.13-.08-.16-.1-1.43-.85-1.4-.84-2.11-1.25-2.14-1.28-.29-.18-2.37-1.56-3.4-3.93-.64-1.48-.11-1.59-.67-2.78-.94-1.97-3.15-3.21-5.13-3.53-1.29-.21-2.32,0-4.19.36-2.23.44-2.54.88-4.05.92-.61.01-2.31.05-3.88-.88-1.56-.93-1.22-1.78-3.4-3.93-.73-.72-1.59-1.56-2.99-2.26-.54-.27-1.73-.8-3.3-1.01-.85-.11-1.84-.14-5.92.75-3.1.67-3.35.86-5.21,1.18-2.47.42-4.38.48-4.77.49-3.2.09-3.88-.45-8.78-.95-3.17-.32-4.79-.48-6.77-.23-1.99.25-4.69.63-6.68,2.68-.84.87-1.3,1.78-1.55,2.4Z"/>
      <path class="cls-6" d="m145.63,17.52c-.06.26-.11.64-.11,1.12,0,.67.12,1.19.24,1.66.21.88.48,1.53.67,1.97.18.43.5,1.11.96,1.88.28.45.33.48,1.26,1.78.7.98.61.87,1.26,1.78.93,1.29.99,1.34,1.26,1.78.22.36.41.7.96,1.88.63,1.33.95,2,1.23,2.66.65,1.54.52,1.6,1.47,4.33.77,2.2.93,2.38,1.2,3.54.29,1.23.19,1.37.5,2.45.23.8.57,1.9,1.36,3.05.5.73.93,1.35,1.56,1.69.17.09.49.24.86.6.24.24.33.4.56.7.44.55.76.77.99,1,.39.37.58.8,1.36,3.05.43,1.25.65,1.88.93,2.75.56,1.73.66,2.18,1.07,3.15.39.9.58,1.35.96,1.88.26.35.5.6,2.29,1.9,1.17.85,1.75,1.28,2.15,1.51.7.41,1.02.51,2.02,1.12.94.57,1.18.8,1.29.91.47.47.62.81,1.26,1.78.6.92.91,1.38,1.26,1.78.67.77,1.31,1.12,2.58,1.81,1.12.61,1.68.92,2.32,1.03.71.12,1.32-.03,2.51-.33,1.28-.32,1.25-.44,2.08-.64,1.08-.25,1.93-.24,3.54-.21,1.93.03,2.13.21,2.94-.03.91-.28,1.65-.81,1.95-1.03.78-.58.71-.75,1.52-1.33.87-.62,1.67-.93,1.95-1.03.87-.32.93-.16,1.49-.45.55-.29.71-.56,1.52-1.33,1.14-1.1,1.14-.86,1.52-1.33.64-.81.82-1.71,1.15-3.39.23-1.19.47-2.44.12-3.51-.23-.7-.4-1.18-.4-1.18-.26-.73-.35-.88-.4-1.18-.1-.61.09-1,.19-1.36.33-1.18-.2-2.62-.61-3.72-.34-.93-.43-.74-1.66-2.96-1.05-1.89-1.88-3.65-1.93-3.75-.43-.9-.62-1.36-1.1-2.27-.59-1.1-.89-1.66-1.39-2.18-.25-.25-.87-.88-1.72-1.21-.53-.2-.79-.15-1.16-.51-.23-.22-.28-.39-.7-1.09-.43-.71-.52-.78-.7-1.09-.57-.99-.37-1.63-.77-3.24-.19-.77-.41-1.31-.67-1.97-.55-1.38-.96-2.41-1.8-3.36-.63-.72-1.41-1.28-1.86-1.6-.08-.06-.1-.07-.86-.6-.85-.59-1.27-.89-1.29-.91-.17-.13-1.45-1.11-2.26-2.78-.51-1.05-.23-1.13-.67-1.97-.72-1.39-2.05-2.28-3.15-2.51-.72-.15-1.25-.01-2.21.24-1.15.3-1.27.62-2.08.64-.33,0-1.24.03-2.18-.63-.94-.66-.85-1.26-2.26-2.78-.47-.51-1.03-1.1-1.86-1.6-.32-.19-1.02-.57-1.89-.73-.47-.08-1-.1-3.1.52-1.59.47-1.71.6-2.67.82-1.28.29-2.3.33-2.51.33-1.71.06-2.14-.33-4.83-.69-1.74-.24-2.63-.35-3.67-.18-1.04.17-2.45.43-3.3,1.88-.36.61-.5,1.25-.57,1.69Z"/>
      <path class="cls-3" d="m160.07,29.51c-1.53-1.31-2.14-3.73-1.1-4.53s3.51.23,4.61,1.86c.71,1.05,1.11,2.73.15,3.46s-2.68.05-3.66-.79Z"/>
    </g>
    <g>
      <path class="cls-8" d="m20.19,134.4c-4.81,1.94-5.61,1.39-8,3-4.07,2.74-5.63,6.96-6,8-.8,2.24-.87,4.5-1,9-.1,3.46.15,3.91,0,7-.17,3.57-.67,6.26-1,8-1.13,5.98-1.7,8.97-3,12-.74,1.72-1.58,3.28-1,5,.62,1.84,2.47,2.74,3,3,2.28,1.11,4.61.79,8,0,4.38-1.03,6.15-1.82,10-3,3.15-.97,6.1-1.64,12-3,5.67-1.3,5.49-1.11,9-2,5.52-1.4,8.44-2.16,12-4,2.74-1.42,4.91-2.55,7-5,2.96-3.48,3.76-7.27,4-9,.55-3.9-.35-6.9-1-9-1.32-4.25-3.48-7.05-5-9-2.03-2.6-3.89-4.2-6-6-3.85-3.29-6.27-5.35-10-7-2.76-1.22-8.8-3.89-15-2-2.97.91-2.69,1.86-8,4Z"/>
      <path class="cls-8" d="m39.19,109.4c-3.94,1.57-5.67,5.28-6,6-.78,1.67-1.81,3.9-1,6,.44,1.15,1.48,2.37,9,5,6.36,2.22,6.67,1.71,9,3,3.07,1.69,4.75,3.82,8,8,5.18,6.67,4.47,8.28,8,11,1.24.95,6.21,4.77,11,3,3.26-1.2,4.7-4.35,5-5,1.98-4.32.27-8.73-1-12-.36-.93-1.74-4.32-5-8-1.89-2.14-3.77-3.65-9-7-12.3-7.88-17.21-9.34-20-10-3.57-.84-5.82-.87-8,0Z"/>
      <path class="cls-8" d="m68.19,98.4c-1.72-.16-2.72-.25-4,0-.94.18-4.63.89-6,4-1.04,2.36-.13,4.7,0,5,.48,1.17,1.31,2.18,6,5,4.18,2.52,4.47,2.29,7,4,1.56,1.05,3.74,2.55,6,5,2.17,2.36,1.92,2.9,4,5,2.16,2.18,3.67,3.7,6,4,2.78.36,5.45-1.18,7-3,2.51-2.95,2.74-7.38,1-10-.5-.75-2.34-1.85-6-4-3.99-2.35-4.07-2.24-5-3-2.3-1.87-2.04-2.69-5-6-2.38-2.66-3.7-4.1-6-5-1.81-.71-3.7-.88-5-1Z"/>
      <path class="cls-8" d="m93.19,90.4c-2.81-2.13-5.7-2.78-7-3-2.71-.46-5.77-.98-8,1-1.68,1.49-2.37,3.95-2,6,.14.76.52,2.06,5,6,2.65,2.33,4.68,4.11,8,6,3.68,2.09,5.51,3.13,8,3,.6-.03,5.37-.36,7-4,1.1-2.45.28-5.29-1-7-1.48-1.97-2.79-1.39-6-4-2.31-1.89-1.91-2.42-4-4Z"/>
      <path class="cls-8" d="m96.19,73.4c-2.69.91-3.8,3.52-4,4-.2.48-1.43,3.52,0,6,1.3,2.24,3.42,1.67,7,5,1.23,1.15,1.05,1.28,2,2,.95.72,3.64,2.76,7,2,.22-.05,3.55-.86,5-4,1.59-3.46-.3-7.18-2-9-.56-.6-.38-.23-5-3-3.19-1.91-4.14-2.61-6-3-1.14-.24-2.46-.52-4,0Z"/>
      <path class="cls-8" d="m115.19,59.4c-.78.1-1.87.73-4,2-3.4,2.02-3.77,2.51-4,3-.8,1.67-.19,3.44,0,4,1.01,2.93,3.83,3.94,4,4,2.3.78,4.58.06,6-1,1.91-1.42,2.31-3.46,3-7,.39-1.97.21-2.59,0-3-.83-1.64-3.23-2.22-5-2Z"/>
      <path class="cls-4" d="m31.19,152.4c-3.95-.51-9.77,2.79-10,7-.21,3.77,4.17,6.49,5,7,4.45,2.76,9.34,1.62,12,1,2.86-.67,4.98-1.16,6-3,1.76-3.16-.7-8.55-4-10-.99-.43-1.27-.17-5-1-2.89-.64-3.09-.88-4-1Z"/>
      <g>
        <path class="cls-1" d="m31.69,146.9c-.65,0-1.66.25-2,1-.51,1.13.67,3,2,3s2.51-1.87,2-3c-.34-.75-1.35-1-2-1Z"/>
        <path class="cls-1" d="m31.45,148.66c-.42.42-.25,1.13,0,1.24.39.17,1.41-.85,1.24-1.24-.11-.25-.81-.42-1.24,0Z"/>
      </g>
      <g>
        <path class="cls-1" d="m23.69,148.9c-.65,0-1.66.25-2,1-.51,1.13.67,3,2,3s2.51-1.87,2-3c-.34-.75-1.35-1-2-1Z"/>
        <path class="cls-1" d="m23.45,150.66c-.42.42-.25,1.13,0,1.24.39.17,1.41-.85,1.24-1.24-.11-.25-.81-.42-1.24,0Z"/>
      </g>
      <g>
        <path class="cls-1" d="m17.69,152.9c-.65,0-1.66.25-2,1-.51,1.13.67,3,2,3s2.51-1.87,2-3c-.34-.75-1.35-1-2-1Z"/>
        <path class="cls-1" d="m17.45,154.66c-.42.42-.25,1.13,0,1.24.39.17,1.41-.85,1.24-1.24-.11-.25-.81-.42-1.24,0Z"/>
      </g>
      <g>
        <path class="cls-1" d="m16.69,158.9c-.65,0-1.66.25-2,1-.51,1.13.67,3,2,3s2.51-1.87,2-3c-.34-.75-1.35-1-2-1Z"/>
        <path class="cls-1" d="m16.45,160.66c-.42.42-.25,1.13,0,1.24.39.17,1.41-.85,1.24-1.24-.11-.25-.81-.42-1.24,0Z"/>
      </g>
      <g>
        <path class="cls-1" d="m19.69,166.9c-.65,0-1.66.25-2,1-.51,1.13.67,3,2,3s2.51-1.87,2-3c-.34-.75-1.35-1-2-1Z"/>
        <path class="cls-1" d="m19.45,168.66c-.42.42-.25,1.13,0,1.24.39.17,1.41-.85,1.24-1.24-.11-.25-.81-.42-1.24,0Z"/>
      </g>
      <g>
        <path class="cls-1" d="m14.69,172.9c-.65,0-1.66.25-2,1-.51,1.13.67,3,2,3s2.51-1.87,2-3c-.34-.75-1.35-1-2-1Z"/>
        <path class="cls-1" d="m14.45,174.66c-.42.42-.25,1.13,0,1.24.39.17,1.41-.85,1.24-1.24-.11-.25-.81-.42-1.24,0Z"/>
      </g>
      <g>
        <path class="cls-1" d="m27.69,170.9c-.65,0-1.66.25-2,1-.51,1.13.67,3,2,3s2.51-1.87,2-3c-.34-.75-1.35-1-2-1Z"/>
        <path class="cls-1" d="m27.45,172.66c-.42.42-.25,1.13,0,1.24.39.17,1.41-.85,1.24-1.24-.11-.25-.81-.42-1.24,0Z"/>
      </g>
      <g>
        <path class="cls-1" d="m41.69,148.9c-.65,0-1.66.25-2,1-.51,1.13.67,3,2,3s2.51-1.87,2-3c-.34-.75-1.35-1-2-1Z"/>
        <path class="cls-1" d="m41.45,150.66c-.42.42-.25,1.13,0,1.24.39.17,1.41-.85,1.24-1.24-.11-.25-.81-.42-1.24,0Z"/>
      </g>
      <g>
        <path class="cls-1" d="m41.69,169.9c-.65,0-1.66.25-2,1-.51,1.13.67,3,2,3s2.51-1.87,2-3c-.34-.75-1.35-1-2-1Z"/>
        <path class="cls-1" d="m41.45,171.66c-.42.42-.25,1.13,0,1.24.39.17,1.41-.85,1.24-1.24-.11-.25-.81-.42-1.24,0Z"/>
      </g>
      <g>
        <path class="cls-1" d="m48.69,163.9c-.65,0-1.66.25-2,1-.51,1.13.67,3,2,3s2.51-1.87,2-3c-.34-.75-1.35-1-2-1Z"/>
        <path class="cls-1" d="m48.45,165.66c-.42.42-.25,1.13,0,1.24.39.17,1.41-.85,1.24-1.24-.11-.25-.81-.42-1.24,0Z"/>
      </g>
      <g>
        <path class="cls-1" d="m47.69,154.9c-.65,0-1.66.25-2,1-.51,1.13.67,3,2,3s2.51-1.87,2-3c-.34-.75-1.35-1-2-1Z"/>
        <path class="cls-1" d="m47.45,156.66c-.42.42-.25,1.13,0,1.24.39.17,1.41-.85,1.24-1.24-.11-.25-.81-.42-1.24,0Z"/>
      </g>
      <g>
        <path class="cls-1" d="m52.88,153.43c-.4,0-1.03.15-1.24.62-.32.7.41,1.85,1.24,1.85s1.55-1.16,1.24-1.85c-.21-.46-.84-.62-1.24-.62Z"/>
        <path class="cls-1" d="m52.73,154.51c-.26.26-.16.7,0,.76.24.11.87-.52.76-.76-.07-.16-.5-.26-.76,0Z"/>
      </g>
      <g>
        <path class="cls-1" d="m57.88,151.43c-.4,0-1.03.15-1.24.62-.32.7.41,1.85,1.24,1.85s1.55-1.16,1.24-1.85c-.21-.46-.84-.62-1.24-.62Z"/>
        <path class="cls-1" d="m57.73,152.51c-.26.26-.16.7,0,.76.24.11.87-.52.76-.76-.07-.16-.5-.26-.76,0Z"/>
      </g>
      <g>
        <path class="cls-1" d="m46.88,145.43c-.4,0-1.03.15-1.24.62-.32.7.41,1.85,1.24,1.85s1.55-1.16,1.24-1.85c-.21-.46-.84-.62-1.24-.62Z"/>
        <path class="cls-1" d="m46.73,146.51c-.26.26-.16.7,0,.76.24.11.87-.52.76-.76-.07-.16-.5-.26-.76,0Z"/>
      </g>
      <g>
        <path class="cls-1" d="m49.88,140.43c-.4,0-1.03.15-1.24.62-.32.7.41,1.85,1.24,1.85s1.55-1.16,1.24-1.85c-.21-.46-.84-.62-1.24-.62Z"/>
        <path class="cls-1" d="m49.73,141.51c-.26.26-.16.7,0,.76.24.11.87-.52.76-.76-.07-.16-.5-.26-.76,0Z"/>
      </g>
      <g>
        <path class="cls-1" d="m33.88,141.43c-.4,0-1.03.15-1.24.62-.32.7.41,1.85,1.24,1.85s1.55-1.16,1.24-1.85c-.21-.46-.84-.62-1.24-.62Z"/>
        <path class="cls-1" d="m33.73,142.51c-.26.26-.16.7,0,.76.24.11.87-.52.76-.76-.07-.16-.5-.26-.76,0Z"/>
      </g>
      <g>
        <path class="cls-1" d="m38.88,120.43c-.4,0-1.03.15-1.24.62-.32.7.41,1.85,1.24,1.85s1.55-1.16,1.24-1.85c-.21-.46-.84-.62-1.24-.62Z"/>
        <path class="cls-1" d="m38.73,121.51c-.26.26-.16.7,0,.76.24.11.87-.52.76-.76-.07-.16-.5-.26-.76,0Z"/>
      </g>
      <g>
        <path class="cls-1" d="m40.88,114.43c-.4,0-1.03.15-1.24.62-.32.7.41,1.85,1.24,1.85s1.55-1.16,1.24-1.85c-.21-.46-.84-.62-1.24-.62Z"/>
        <path class="cls-1" d="m40.73,115.51c-.26.26-.16.7,0,.76.24.11.87-.52.76-.76-.07-.16-.5-.26-.76,0Z"/>
      </g>
      <g>
        <path class="cls-1" d="m45.88,123.43c-.4,0-1.03.15-1.24.62-.32.7.41,1.85,1.24,1.85s1.55-1.16,1.24-1.85c-.21-.46-.84-.62-1.24-.62Z"/>
        <path class="cls-1" d="m45.73,124.51c-.26.26-.16.7,0,.76.24.11.87-.52.76-.76-.07-.16-.5-.26-.76,0Z"/>
      </g>
      <g>
        <path class="cls-1" d="m48.88,118.43c-.4,0-1.03.15-1.24.62-.32.7.41,1.85,1.24,1.85s1.55-1.16,1.24-1.85c-.21-.46-.84-.62-1.24-.62Z"/>
        <path class="cls-1" d="m48.73,119.51c-.26.26-.16.7,0,.76.24.11.87-.52.76-.76-.07-.16-.5-.26-.76,0Z"/>
      </g>
      <g>
        <path class="cls-1" d="m52.88,126.43c-.4,0-1.03.15-1.24.62-.32.7.41,1.85,1.24,1.85s1.55-1.16,1.24-1.85c-.21-.46-.84-.62-1.24-.62Z"/>
        <path class="cls-1" d="m52.73,127.51c-.26.26-.16.7,0,.76.24.11.87-.52.76-.76-.07-.16-.5-.26-.76,0Z"/>
      </g>
      <g>
        <path class="cls-1" d="m60.88,102.43c-.4,0-1.03.15-1.24.62-.32.7.41,1.85,1.24,1.85s1.55-1.16,1.24-1.85c-.21-.46-.84-.62-1.24-.62Z"/>
        <path class="cls-1" d="m60.73,103.51c-.26.26-.16.7,0,.76.24.11.87-.52.76-.76-.07-.16-.5-.26-.76,0Z"/>
      </g>
      <g>
        <path class="cls-1" d="m65.88,107.43c-.4,0-1.03.15-1.24.62-.32.7.41,1.85,1.24,1.85s1.55-1.16,1.24-1.85c-.21-.46-.84-.62-1.24-.62Z"/>
        <path class="cls-1" d="m65.73,108.51c-.26.26-.16.7,0,.76.24.11.87-.52.76-.76-.07-.16-.5-.26-.76,0Z"/>
      </g>
      <g>
        <path class="cls-1" d="m71.88,111.43c-.4,0-1.03.15-1.24.62-.32.7.41,1.85,1.24,1.85s1.55-1.16,1.24-1.85c-.21-.46-.84-.62-1.24-.62Z"/>
        <path class="cls-1" d="m71.73,112.51c-.26.26-.16.7,0,.76.24.11.87-.52.76-.76-.07-.16-.5-.26-.76,0Z"/>
      </g>
      <g>
        <path class="cls-1" d="m78.88,91.43c-.4,0-1.03.15-1.24.62-.32.7.41,1.85,1.24,1.85s1.55-1.16,1.24-1.85c-.21-.46-.84-.62-1.24-.62Z"/>
        <path class="cls-1" d="m78.73,92.51c-.26.26-.16.7,0,.76.24.11.87-.52.76-.76-.07-.16-.5-.26-.76,0Z"/>
      </g>
      <g>
        <path class="cls-1" d="m84.88,95.43c-.4,0-1.03.15-1.24.62-.32.7.41,1.85,1.24,1.85s1.55-1.16,1.24-1.85c-.21-.46-.84-.62-1.24-.62Z"/>
        <path class="cls-1" d="m84.73,96.51c-.26.26-.16.7,0,.76.24.11.87-.52.76-.76-.07-.16-.5-.26-.76,0Z"/>
      </g>
      <g>
        <path class="cls-1" d="m108.88,65.43c-.4,0-1.03.15-1.24.62-.32.7.41,1.85,1.24,1.85s1.55-1.16,1.24-1.85c-.21-.46-.84-.62-1.24-.62Z"/>
        <path class="cls-1" d="m108.73,66.51c-.26.26-.16.7,0,.76.24.11.87-.52.76-.76-.07-.16-.5-.26-.76,0Z"/>
      </g>
      <g>
        <path class="cls-1" d="m115.88,67.43c-.4,0-1.03.15-1.24.62-.32.7.41,1.85,1.24,1.85s1.55-1.16,1.24-1.85c-.21-.46-.84-.62-1.24-.62Z"/>
        <path class="cls-1" d="m115.73,68.51c-.26.26-.16.7,0,.76.24.11.87-.52.76-.76-.07-.16-.5-.26-.76,0Z"/>
      </g>
      <g>
        <path class="cls-1" d="m93.88,79.43c-.4,0-1.03.15-1.24.62-.32.7.41,1.85,1.24,1.85s1.55-1.16,1.24-1.85c-.21-.46-.84-.62-1.24-.62Z"/>
        <path class="cls-1" d="m93.73,80.51c-.26.26-.16.7,0,.76.24.11.87-.52.76-.76-.07-.16-.5-.26-.76,0Z"/>
      </g>
      <g>
        <path class="cls-1" d="m99.88,83.43c-.4,0-1.03.15-1.24.62-.32.7.41,1.85,1.24,1.85s1.55-1.16,1.24-1.85c-.21-.46-.84-.62-1.24-.62Z"/>
        <path class="cls-1" d="m99.73,84.51c-.26.26-.16.7,0,.76.24.11.87-.52.76-.76-.07-.16-.5-.26-.76,0Z"/>
      </g>
      <g>
        <path class="cls-1" d="m109.88,87.43c-.4,0-1.03.15-1.24.62-.32.7.41,1.85,1.24,1.85s1.55-1.16,1.24-1.85c-.21-.46-.84-.62-1.24-.62Z"/>
        <path class="cls-1" d="m109.73,88.51c-.26.26-.16.7,0,.76.24.11.87-.52.76-.76-.07-.16-.5-.26-.76,0Z"/>
      </g>
      <g>
        <path class="cls-1" d="m85.88,99.43c-.4,0-1.03.15-1.24.62-.32.7.41,1.85,1.24,1.85s1.55-1.16,1.24-1.85c-.21-.46-.84-.62-1.24-.62Z"/>
        <path class="cls-1" d="m85.73,100.51c-.26.26-.16.7,0,.76.24.11.87-.52.76-.76-.07-.16-.5-.26-.76,0Z"/>
      </g>
      <g>
        <path class="cls-1" d="m91.88,102.43c-.4,0-1.03.15-1.24.62-.32.7.41,1.85,1.24,1.85s1.55-1.16,1.24-1.85c-.21-.46-.84-.62-1.24-.62Z"/>
        <path class="cls-1" d="m91.73,103.51c-.26.26-.16.7,0,.76.24.11.87-.52.76-.76-.07-.16-.5-.26-.76,0Z"/>
      </g>
      <g>
        <path class="cls-1" d="m98.88,103.43c-.4,0-1.03.15-1.24.62-.32.7.41,1.85,1.24,1.85s1.55-1.16,1.24-1.85c-.21-.46-.84-.62-1.24-.62Z"/>
        <path class="cls-1" d="m98.73,104.51c-.26.26-.16.7,0,.76.24.11.87-.52.76-.76-.07-.16-.5-.26-.76,0Z"/>
      </g>
      <g>
        <path class="cls-1" d="m78.88,117.43c-.4,0-1.03.15-1.24.62-.32.7.41,1.85,1.24,1.85s1.55-1.16,1.24-1.85c-.21-.46-.84-.62-1.24-.62Z"/>
        <path class="cls-1" d="m78.73,118.51c-.26.26-.16.7,0,.76.24.11.87-.52.76-.76-.07-.16-.5-.26-.76,0Z"/>
      </g>
      <g>
        <path class="cls-1" d="m81.88,121.43c-.4,0-1.03.15-1.24.62-.32.7.41,1.85,1.24,1.85s1.55-1.16,1.24-1.85c-.21-.46-.84-.62-1.24-.62Z"/>
        <path class="cls-1" d="m81.73,122.51c-.26.26-.16.7,0,.76.24.11.87-.52.76-.76-.07-.16-.5-.26-.76,0Z"/>
      </g>
      <g>
        <path class="cls-1" d="m88.88,126.43c-.4,0-1.03.15-1.24.62-.32.7.41,1.85,1.24,1.85s1.55-1.16,1.24-1.85c-.21-.46-.84-.62-1.24-.62Z"/>
        <path class="cls-1" d="m88.73,127.51c-.26.26-.16.7,0,.76.24.11.87-.52.76-.76-.07-.16-.5-.26-.76,0Z"/>
      </g>
      <g>
        <path class="cls-1" d="m59.88,125.43c-.4,0-1.03.15-1.24.62-.32.7.41,1.85,1.24,1.85s1.55-1.16,1.24-1.85c-.21-.46-.84-.62-1.24-.62Z"/>
        <path class="cls-1" d="m59.73,126.51c-.26.26-.16.7,0,.76.24.11.87-.52.76-.76-.07-.16-.5-.26-.76,0Z"/>
      </g>
      <g>
        <path class="cls-1" d="m56.88,119.43c-.4,0-1.03.15-1.24.62-.32.7.41,1.85,1.24,1.85s1.55-1.16,1.24-1.85c-.21-.46-.84-.62-1.24-.62Z"/>
        <path class="cls-1" d="m56.73,120.51c-.26.26-.16.7,0,.76.24.11.87-.52.76-.76-.07-.16-.5-.26-.76,0Z"/>
      </g>
      <g>
        <path class="cls-1" d="m59.88,133.43c-.4,0-1.03.15-1.24.62-.32.7.41,1.85,1.24,1.85s1.55-1.16,1.24-1.85c-.21-.46-.84-.62-1.24-.62Z"/>
        <path class="cls-1" d="m59.73,134.51c-.26.26-.16.7,0,.76.24.11.87-.52.76-.76-.07-.16-.5-.26-.76,0Z"/>
      </g>
      <g>
        <path class="cls-1" d="m64.88,140.43c-.4,0-1.03.15-1.24.62-.32.7.41,1.85,1.24,1.85s1.55-1.16,1.24-1.85c-.21-.46-.84-.62-1.24-.62Z"/>
        <path class="cls-1" d="m64.73,141.51c-.26.26-.16.7,0,.76.24.11.87-.52.76-.76-.07-.16-.5-.26-.76,0Z"/>
      </g>
      <g>
        <path class="cls-1" d="m69.88,136.43c-.4,0-1.03.15-1.24.62-.32.7.41,1.85,1.24,1.85s1.55-1.16,1.24-1.85c-.21-.46-.84-.62-1.24-.62Z"/>
        <path class="cls-1" d="m69.73,137.51c-.26.26-.16.7,0,.76.24.11.87-.52.76-.76-.07-.16-.5-.26-.76,0Z"/>
      </g>
      <g>
        <path class="cls-1" d="m70.88,147.43c-.4,0-1.03.15-1.24.62-.32.7.41,1.85,1.24,1.85s1.55-1.16,1.24-1.85c-.21-.46-.84-.62-1.24-.62Z"/>
        <path class="cls-1" d="m70.73,148.51c-.26.26-.16.7,0,.76.24.11.87-.52.76-.76-.07-.16-.5-.26-.76,0Z"/>
      </g>
      <g>
        <path class="cls-1" d="m77.88,146.43c-.4,0-1.03.15-1.24.62-.32.7.41,1.85,1.24,1.85s1.55-1.16,1.24-1.85c-.21-.46-.84-.62-1.24-.62Z"/>
        <path class="cls-1" d="m77.73,147.51c-.26.26-.16.7,0,.76.24.11.87-.52.76-.76-.07-.16-.5-.26-.76,0Z"/>
      </g>
      <g>
        <path class="cls-1" d="m21.88,143.43c-.4,0-1.03.15-1.24.62-.32.7.41,1.85,1.24,1.85s1.55-1.16,1.24-1.85c-.21-.46-.84-.62-1.24-.62Z"/>
        <path class="cls-1" d="m21.73,144.51c-.26.26-.16.7,0,.76.24.11.87-.52.76-.76-.07-.16-.5-.26-.76,0Z"/>
      </g>
      <g>
        <path class="cls-1" d="m10.88,146.43c-.4,0-1.03.15-1.24.62-.32.7.41,1.85,1.24,1.85s1.55-1.16,1.24-1.85c-.21-.46-.84-.62-1.24-.62Z"/>
        <path class="cls-1" d="m10.73,147.51c-.26.26-.16.7,0,.76.24.11.87-.52.76-.76-.07-.16-.5-.26-.76,0Z"/>
      </g>
      <g>
        <path class="cls-1" d="m9.88,154.43c-.4,0-1.03.15-1.24.62-.32.7.41,1.85,1.24,1.85s1.55-1.16,1.24-1.85c-.21-.46-.84-.62-1.24-.62Z"/>
        <path class="cls-1" d="m9.73,155.51c-.26.26-.16.7,0,.76.24.11.87-.52.76-.76-.07-.16-.5-.26-.76,0Z"/>
      </g>
      <g>
        <path class="cls-1" d="m9.88,163.43c-.4,0-1.03.15-1.24.62-.32.7.41,1.85,1.24,1.85s1.55-1.16,1.24-1.85c-.21-.46-.84-.62-1.24-.62Z"/>
        <path class="cls-1" d="m9.73,164.51c-.26.26-.16.7,0,.76.24.11.87-.52.76-.76-.07-.16-.5-.26-.76,0Z"/>
      </g>
      <g>
        <path class="cls-1" d="m25.88,177.43c-.4,0-1.03.15-1.24.62-.32.7.41,1.85,1.24,1.85s1.55-1.16,1.24-1.85c-.21-.46-.84-.62-1.24-.62Z"/>
        <path class="cls-1" d="m25.73,178.51c-.26.26-.16.7,0,.76.24.11.87-.52.76-.76-.07-.16-.5-.26-.76,0Z"/>
      </g>
      <g>
        <path class="cls-1" d="m37.88,176.43c-.4,0-1.03.15-1.24.62-.32.7.41,1.85,1.24,1.85s1.55-1.16,1.24-1.85c-.21-.46-.84-.62-1.24-.62Z"/>
        <path class="cls-1" d="m37.73,177.51c-.26.26-.16.7,0,.76.24.11.87-.52.76-.76-.07-.16-.5-.26-.76,0Z"/>
      </g>
      <g>
        <path class="cls-1" d="m47.88,174.43c-.4,0-1.03.15-1.24.62-.32.7.41,1.85,1.24,1.85s1.55-1.16,1.24-1.85c-.21-.46-.84-.62-1.24-.62Z"/>
        <path class="cls-1" d="m47.73,175.51c-.26.26-.16.7,0,.76.24.11.87-.52.76-.76-.07-.16-.5-.26-.76,0Z"/>
      </g>
      <g>
        <path class="cls-1" d="m10.88,178.43c-.4,0-1.03.15-1.24.62-.32.7.41,1.85,1.24,1.85s1.55-1.16,1.24-1.85c-.21-.46-.84-.62-1.24-.62Z"/>
        <path class="cls-1" d="m10.73,179.51c-.26.26-.16.7,0,.76.24.11.87-.52.76-.76-.07-.16-.5-.26-.76,0Z"/>
      </g>
      <g>
        <path class="cls-1" d="m17.88,180.43c-.4,0-1.03.15-1.24.62-.32.7.41,1.85,1.24,1.85s1.55-1.16,1.24-1.85c-.21-.46-.84-.62-1.24-.62Z"/>
        <path class="cls-1" d="m17.73,181.51c-.26.26-.16.7,0,.76.24.11.87-.52.76-.76-.07-.16-.5-.26-.76,0Z"/>
      </g>
      <g>
        <path class="cls-1" d="m30.88,136.43c-.4,0-1.03.15-1.24.62-.32.7.41,1.85,1.24,1.85s1.55-1.16,1.24-1.85c-.21-.46-.84-.62-1.24-.62Z"/>
        <path class="cls-1" d="m30.73,137.51c-.26.26-.16.7,0,.76.24.11.87-.52.76-.76-.07-.16-.5-.26-.76,0Z"/>
      </g>
      <g>
        <path class="cls-1" d="m33.37,133.4c-.24,0-.62.09-.75.38-.19.42.25,1.12.75,1.12s.94-.7.75-1.12c-.13-.28-.51-.38-.75-.38Z"/>
        <path class="cls-1" d="m33.28,134.06c-.16.16-.1.42,0,.46.15.06.53-.32.46-.46-.04-.1-.31-.16-.46,0Z"/>
      </g>
      <g>
        <path class="cls-1" d="m40.37,138.4c-.24,0-.62.09-.75.38-.19.42.25,1.12.75,1.12s.94-.7.75-1.12c-.13-.28-.51-.38-.75-.38Z"/>
        <path class="cls-1" d="m40.28,139.06c-.16.16-.1.42,0,.46.15.06.53-.32.46-.46-.04-.1-.31-.16-.46,0Z"/>
      </g>
      <g>
        <path class="cls-1" d="m8.37,169.4c-.24,0-.62.09-.75.38-.19.42.25,1.12.75,1.12s.94-.7.75-1.12c-.13-.28-.51-.38-.75-.38Z"/>
        <path class="cls-1" d="m8.28,170.06c-.16.16-.1.42,0,.46.15.06.53-.32.46-.46-.04-.1-.31-.16-.46,0Z"/>
      </g>
      <g>
        <path class="cls-1" d="m13.37,167.4c-.24,0-.62.09-.75.38-.19.42.25,1.12.75,1.12s.94-.7.75-1.12c-.13-.28-.51-.38-.75-.38Z"/>
        <path class="cls-1" d="m13.28,168.06c-.16.16-.1.42,0,.46.15.06.53-.32.46-.46-.04-.1-.31-.16-.46,0Z"/>
      </g>
      <g>
        <path class="cls-1" d="m6.37,181.4c-.24,0-.62.09-.75.38-.19.42.25,1.12.75,1.12s.94-.7.75-1.12c-.13-.28-.51-.38-.75-.38Z"/>
        <path class="cls-1" d="m6.28,182.06c-.16.16-.1.42,0,.46.15.06.53-.32.46-.46-.04-.1-.31-.16-.46,0Z"/>
      </g>
      <g>
        <path class="cls-1" d="m13.37,185.4c-.24,0-.62.09-.75.38-.19.42.25,1.12.75,1.12s.94-.7.75-1.12c-.13-.28-.51-.38-.75-.38Z"/>
        <path class="cls-1" d="m13.28,186.06c-.16.16-.1.42,0,.46.15.06.53-.32.46-.46-.04-.1-.31-.16-.46,0Z"/>
      </g>
      <g>
        <path class="cls-1" d="m31.37,181.4c-.24,0-.62.09-.75.38-.19.42.25,1.12.75,1.12s.94-.7.75-1.12c-.13-.28-.51-.38-.75-.38Z"/>
        <path class="cls-1" d="m31.28,182.06c-.16.16-.1.42,0,.46.15.06.53-.32.46-.46-.04-.1-.31-.16-.46,0Z"/>
      </g>
      <g>
        <path class="cls-1" d="m15.37,141.4c-.24,0-.62.09-.75.38-.19.42.25,1.12.75,1.12s.94-.7.75-1.12c-.13-.28-.51-.38-.75-.38Z"/>
        <path class="cls-1" d="m15.28,142.06c-.16.16-.1.42,0,.46.15.06.53-.32.46-.46-.04-.1-.31-.16-.46,0Z"/>
      </g>
      <g>
        <path class="cls-1" d="m22.37,137.4c-.24,0-.62.09-.75.38-.19.42.25,1.12.75,1.12s.94-.7.75-1.12c-.13-.28-.51-.38-.75-.38Z"/>
        <path class="cls-1" d="m22.28,138.06c-.16.16-.1.42,0,.46.15.06.53-.32.46-.46-.04-.1-.31-.16-.46,0Z"/>
      </g>
      <g>
        <path class="cls-1" d="m15.37,149.4c-.24,0-.62.09-.75.38-.19.42.25,1.12.75,1.12s.94-.7.75-1.12c-.13-.28-.51-.38-.75-.38Z"/>
        <path class="cls-1" d="m15.28,150.06c-.16.16-.1.42,0,.46.15.06.53-.32.46-.46-.04-.1-.31-.16-.46,0Z"/>
      </g>
      <g>
        <path class="cls-1" d="m53.37,146.4c-.24,0-.62.09-.75.38-.19.42.25,1.12.75,1.12s.94-.7.75-1.12c-.13-.28-.51-.38-.75-.38Z"/>
        <path class="cls-1" d="m53.28,147.06c-.16.16-.1.42,0,.46.15.06.53-.32.46-.46-.04-.1-.31-.16-.46,0Z"/>
      </g>
      <g>
        <path class="cls-1" d="m45.37,137.4c-.24,0-.62.09-.75.38-.19.42.25,1.12.75,1.12s.94-.7.75-1.12c-.13-.28-.51-.38-.75-.38Z"/>
        <path class="cls-1" d="m45.28,138.06c-.16.16-.1.42,0,.46.15.06.53-.32.46-.46-.04-.1-.31-.16-.46,0Z"/>
      </g>
      <g>
        <path class="cls-1" d="m65.37,132.4c-.24,0-.62.09-.75.38-.19.42.25,1.12.75,1.12s.94-.7.75-1.12c-.13-.28-.51-.38-.75-.38Z"/>
        <path class="cls-1" d="m65.28,133.06c-.16.16-.1.42,0,.46.15.06.53-.32.46-.46-.04-.1-.31-.16-.46,0Z"/>
      </g>
      <g>
        <path class="cls-1" d="m67.37,127.4c-.24,0-.62.09-.75.38-.19.42.25,1.12.75,1.12s.94-.7.75-1.12c-.13-.28-.51-.38-.75-.38Z"/>
        <path class="cls-1" d="m67.28,128.06c-.16.16-.1.42,0,.46.15.06.53-.32.46-.46-.04-.1-.31-.16-.46,0Z"/>
      </g>
      <g>
        <path class="cls-1" d="m72.37,127.4c-.24,0-.62.09-.75.38-.19.42.25,1.12.75,1.12s.94-.7.75-1.12c-.13-.28-.51-.38-.75-.38Z"/>
        <path class="cls-1" d="m72.28,128.06c-.16.16-.1.42,0,.46.15.06.53-.32.46-.46-.04-.1-.31-.16-.46,0Z"/>
      </g>
      <g>
        <path class="cls-1" d="m72.37,142.4c-.24,0-.62.09-.75.38-.19.42.25,1.12.75,1.12s.94-.7.75-1.12c-.13-.28-.51-.38-.75-.38Z"/>
        <path class="cls-1" d="m72.28,143.06c-.16.16-.1.42,0,.46.15.06.53-.32.46-.46-.04-.1-.31-.16-.46,0Z"/>
      </g>
      <g>
        <path class="cls-1" d="m76.37,138.4c-.24,0-.62.09-.75.38-.19.42.25,1.12.75,1.12s.94-.7.75-1.12c-.13-.28-.51-.38-.75-.38Z"/>
        <path class="cls-1" d="m76.28,139.06c-.16.16-.1.42,0,.46.15.06.53-.32.46-.46-.04-.1-.31-.16-.46,0Z"/>
      </g>
      <g>
        <path class="cls-1" d="m78.37,134.4c-.24,0-.62.09-.75.38-.19.42.25,1.12.75,1.12s.94-.7.75-1.12c-.13-.28-.51-.38-.75-.38Z"/>
        <path class="cls-1" d="m78.28,135.06c-.16.16-.1.42,0,.46.15.06.53-.32.46-.46-.04-.1-.31-.16-.46,0Z"/>
      </g>
      <g>
        <path class="cls-1" d="m80.37,142.4c-.24,0-.62.09-.75.38-.19.42.25,1.12.75,1.12s.94-.7.75-1.12c-.13-.28-.51-.38-.75-.38Z"/>
        <path class="cls-1" d="m80.28,143.06c-.16.16-.1.42,0,.46.15.06.53-.32.46-.46-.04-.1-.31-.16-.46,0Z"/>
      </g>
      <g>
        <path class="cls-1" d="m62.37,120.4c-.24,0-.62.09-.75.38-.19.42.25,1.12.75,1.12s.94-.7.75-1.12c-.13-.28-.51-.38-.75-.38Z"/>
        <path class="cls-1" d="m62.28,121.06c-.16.16-.1.42,0,.46.15.06.53-.32.46-.46-.04-.1-.31-.16-.46,0Z"/>
      </g>
      <g>
        <path class="cls-1" d="m92.37,123.4c-.24,0-.62.09-.75.38-.19.42.25,1.12.75,1.12s.94-.7.75-1.12c-.13-.28-.51-.38-.75-.38Z"/>
        <path class="cls-1" d="m92.28,124.06c-.16.16-.1.42,0,.46.15.06.53-.32.46-.46-.04-.1-.31-.16-.46,0Z"/>
      </g>
      <g>
        <path class="cls-1" d="m93.37,118.4c-.24,0-.62.09-.75.38-.19.42.25,1.12.75,1.12s.94-.7.75-1.12c-.13-.28-.51-.38-.75-.38Z"/>
        <path class="cls-1" d="m93.28,119.06c-.16.16-.1.42,0,.46.15.06.53-.32.46-.46-.04-.1-.31-.16-.46,0Z"/>
      </g>
      <g>
        <path class="cls-1" d="m86.37,121.4c-.24,0-.62.09-.75.38-.19.42.25,1.12.75,1.12s.94-.7.75-1.12c-.13-.28-.51-.38-.75-.38Z"/>
        <path class="cls-1" d="m86.28,122.06c-.16.16-.1.42,0,.46.15.06.53-.32.46-.46-.04-.1-.31-.16-.46,0Z"/>
      </g>
      <g>
        <path class="cls-1" d="m87.37,115.4c-.24,0-.62.09-.75.38-.19.42.25,1.12.75,1.12s.94-.7.75-1.12c-.13-.28-.51-.38-.75-.38Z"/>
        <path class="cls-1" d="m87.28,116.06c-.16.16-.1.42,0,.46.15.06.53-.32.46-.46-.04-.1-.31-.16-.46,0Z"/>
      </g>
      <g>
        <path class="cls-1" d="m101.37,100.4c-.24,0-.62.09-.75.38-.19.42.25,1.12.75,1.12s.94-.7.75-1.12c-.13-.28-.51-.38-.75-.38Z"/>
        <path class="cls-1" d="m101.28,101.06c-.16.16-.1.42,0,.46.15.06.53-.32.46-.46-.04-.1-.31-.16-.46,0Z"/>
      </g>
      <g>
        <path class="cls-1" d="m99.37,97.4c-.24,0-.62.09-.75.38-.19.42.25,1.12.75,1.12s.94-.7.75-1.12c-.13-.28-.51-.38-.75-.38Z"/>
        <path class="cls-1" d="m99.28,98.06c-.16.16-.1.42,0,.46.15.06.53-.32.46-.46-.04-.1-.31-.16-.46,0Z"/>
      </g>
      <g>
        <path class="cls-1" d="m90.37,99.4c-.24,0-.62.09-.75.38-.19.42.25,1.12.75,1.12s.94-.7.75-1.12c-.13-.28-.51-.38-.75-.38Z"/>
        <path class="cls-1" d="m90.28,100.06c-.16.16-.1.42,0,.46.15.06.53-.32.46-.46-.04-.1-.31-.16-.46,0Z"/>
      </g>
      <g>
        <path class="cls-1" d="m88.37,93.4c-.24,0-.62.09-.75.38-.19.42.25,1.12.75,1.12s.94-.7.75-1.12c-.13-.28-.51-.38-.75-.38Z"/>
        <path class="cls-1" d="m88.28,94.06c-.16.16-.1.42,0,.46.15.06.53-.32.46-.46-.04-.1-.31-.16-.46,0Z"/>
      </g>
      <g>
        <path class="cls-1" d="m104.37,84.4c-.24,0-.62.09-.75.38-.19.42.25,1.12.75,1.12s.94-.7.75-1.12c-.13-.28-.51-.38-.75-.38Z"/>
        <path class="cls-1" d="m104.28,85.06c-.16.16-.1.42,0,.46.15.06.53-.32.46-.46-.04-.1-.31-.16-.46,0Z"/>
      </g>
      <g>
        <path class="cls-1" d="m106.37,79.4c-.24,0-.62.09-.75.38-.19.42.25,1.12.75,1.12s.94-.7.75-1.12c-.13-.28-.51-.38-.75-.38Z"/>
        <path class="cls-1" d="m106.28,80.06c-.16.16-.1.42,0,.46.15.06.53-.32.46-.46-.04-.1-.31-.16-.46,0Z"/>
      </g>
      <g>
        <path class="cls-1" d="m110.37,84.4c-.24,0-.62.09-.75.38-.19.42.25,1.12.75,1.12s.94-.7.75-1.12c-.13-.28-.51-.38-.75-.38Z"/>
        <path class="cls-1" d="m110.28,85.06c-.16.16-.1.42,0,.46.15.06.53-.32.46-.46-.04-.1-.31-.16-.46,0Z"/>
      </g>
      <g>
        <path class="cls-1" d="m97.37,80.4c-.24,0-.62.09-.75.38-.19.42.25,1.12.75,1.12s.94-.7.75-1.12c-.13-.28-.51-.38-.75-.38Z"/>
        <path class="cls-1" d="m97.28,81.06c-.16.16-.1.42,0,.46.15.06.53-.32.46-.46-.04-.1-.31-.16-.46,0Z"/>
      </g>
      <g>
        <path class="cls-1" d="m97.37,75.4c-.24,0-.62.09-.75.38-.19.42.25,1.12.75,1.12s.94-.7.75-1.12c-.13-.28-.51-.38-.75-.38Z"/>
        <path class="cls-1" d="m97.28,76.06c-.16.16-.1.42,0,.46.15.06.53-.32.46-.46-.04-.1-.31-.16-.46,0Z"/>
      </g>
      <g>
        <path class="cls-1" d="m116.37,64.4c-.24,0-.62.09-.75.38-.19.42.25,1.12.75,1.12s.94-.7.75-1.12c-.13-.28-.51-.38-.75-.38Z"/>
        <path class="cls-1" d="m116.28,65.06c-.16.16-.1.42,0,.46.15.06.53-.32.46-.46-.04-.1-.31-.16-.46,0Z"/>
      </g>
      <g>
        <path class="cls-1" d="m116.37,64.4c-.24,0-.62.09-.75.38-.19.42.25,1.12.75,1.12s.94-.7.75-1.12c-.13-.28-.51-.38-.75-.38Z"/>
        <path class="cls-1" d="m116.28,65.06c-.16.16-.1.42,0,.46.15.06.53-.32.46-.46-.04-.1-.31-.16-.46,0Z"/>
      </g>
      <g>
        <path class="cls-1" d="m110.37,68.4c-.24,0-.62.09-.75.38-.19.42.25,1.12.75,1.12s.94-.7.75-1.12c-.13-.28-.51-.38-.75-.38Z"/>
        <path class="cls-1" d="m110.28,69.06c-.16.16-.1.42,0,.46.15.06.53-.32.46-.46-.04-.1-.31-.16-.46,0Z"/>
      </g>
      <g>
        <path class="cls-1" d="m116.37,60.4c-.24,0-.62.09-.75.38-.19.42.25,1.12.75,1.12s.94-.7.75-1.12c-.13-.28-.51-.38-.75-.38Z"/>
        <path class="cls-1" d="m116.28,61.06c-.16.16-.1.42,0,.46.15.06.53-.32.46-.46-.04-.1-.31-.16-.46,0Z"/>
      </g>
      <g>
        <path class="cls-1" d="m82.37,89.4c-.24,0-.62.09-.75.38-.19.42.25,1.12.75,1.12s.94-.7.75-1.12c-.13-.28-.51-.38-.75-.38Z"/>
        <path class="cls-1" d="m82.28,90.06c-.16.16-.1.42,0,.46.15.06.53-.32.46-.46-.04-.1-.31-.16-.46,0Z"/>
      </g>
      <g>
        <path class="cls-1" d="m87.37,88.4c-.24,0-.62.09-.75.38-.19.42.25,1.12.75,1.12s.94-.7.75-1.12c-.13-.28-.51-.38-.75-.38Z"/>
        <path class="cls-1" d="m87.28,89.06c-.16.16-.1.42,0,.46.15.06.53-.32.46-.46-.04-.1-.31-.16-.46,0Z"/>
      </g>
      <g>
        <path class="cls-1" d="m95.37,100.4c-.24,0-.62.09-.75.38-.19.42.25,1.12.75,1.12s.94-.7.75-1.12c-.13-.28-.51-.38-.75-.38Z"/>
        <path class="cls-1" d="m95.28,101.06c-.16.16-.1.42,0,.46.15.06.53-.32.46-.46-.04-.1-.31-.16-.46,0Z"/>
      </g>
      <g>
        <path class="cls-1" d="m81.37,112.4c-.24,0-.62.09-.75.38-.19.42.25,1.12.75,1.12s.94-.7.75-1.12c-.13-.28-.51-.38-.75-.38Z"/>
        <path class="cls-1" d="m81.28,113.06c-.16.16-.1.42,0,.46.15.06.53-.32.46-.46-.04-.1-.31-.16-.46,0Z"/>
      </g>
      <g>
        <path class="cls-1" d="m79.37,106.4c-.24,0-.62.09-.75.38-.19.42.25,1.12.75,1.12s.94-.7.75-1.12c-.13-.28-.51-.38-.75-.38Z"/>
        <path class="cls-1" d="m79.28,107.06c-.16.16-.1.42,0,.46.15.06.53-.32.46-.46-.04-.1-.31-.16-.46,0Z"/>
      </g>
      <g>
        <path class="cls-1" d="m70.37,106.4c-.24,0-.62.09-.75.38-.19.42.25,1.12.75,1.12s.94-.7.75-1.12c-.13-.28-.51-.38-.75-.38Z"/>
        <path class="cls-1" d="m70.28,107.06c-.16.16-.1.42,0,.46.15.06.53-.32.46-.46-.04-.1-.31-.16-.46,0Z"/>
      </g>
      <g>
        <path class="cls-1" d="m71.37,101.4c-.24,0-.62.09-.75.38-.19.42.25,1.12.75,1.12s.94-.7.75-1.12c-.13-.28-.51-.38-.75-.38Z"/>
        <path class="cls-1" d="m71.28,102.06c-.16.16-.1.42,0,.46.15.06.53-.32.46-.46-.04-.1-.31-.16-.46,0Z"/>
      </g>
      <g>
        <path class="cls-1" d="m76.37,111.4c-.24,0-.62.09-.75.38-.19.42.25,1.12.75,1.12s.94-.7.75-1.12c-.13-.28-.51-.38-.75-.38Z"/>
        <path class="cls-1" d="m76.28,112.06c-.16.16-.1.42,0,.46.15.06.53-.32.46-.46-.04-.1-.31-.16-.46,0Z"/>
      </g>
      <g>
        <path class="cls-1" d="m64.37,100.4c-.24,0-.62.09-.75.38-.19.42.25,1.12.75,1.12s.94-.7.75-1.12c-.13-.28-.51-.38-.75-.38Z"/>
        <path class="cls-1" d="m64.28,101.06c-.16.16-.1.42,0,.46.15.06.53-.32.46-.46-.04-.1-.31-.16-.46,0Z"/>
      </g>
      <g>
        <path class="cls-1" d="m51.37,114.4c-.24,0-.62.09-.75.38-.19.42.25,1.12.75,1.12s.94-.7.75-1.12c-.13-.28-.51-.38-.75-.38Z"/>
        <path class="cls-1" d="m51.28,115.06c-.16.16-.1.42,0,.46.15.06.53-.32.46-.46-.04-.1-.31-.16-.46,0Z"/>
      </g>
      <g>
        <path class="cls-1" d="m45.37,111.4c-.24,0-.62.09-.75.38-.19.42.25,1.12.75,1.12s.94-.7.75-1.12c-.13-.28-.51-.38-.75-.38Z"/>
        <path class="cls-1" d="m45.28,112.06c-.16.16-.1.42,0,.46.15.06.53-.32.46-.46-.04-.1-.31-.16-.46,0Z"/>
      </g>
      <g>
        <path class="cls-1" d="m34.37,120.4c-.24,0-.62.09-.75.38-.19.42.25,1.12.75,1.12s.94-.7.75-1.12c-.13-.28-.51-.38-.75-.38Z"/>
        <path class="cls-1" d="m34.28,121.06c-.16.16-.1.42,0,.46.15.06.53-.32.46-.46-.04-.1-.31-.16-.46,0Z"/>
      </g>
      <g>
        <path class="cls-1" d="m53.88,161.43c-.4,0-1.03.15-1.24.62-.32.7.41,1.85,1.24,1.85s1.55-1.16,1.24-1.85c-.21-.46-.84-.62-1.24-.62Z"/>
        <path class="cls-1" d="m53.73,162.51c-.26.26-.16.7,0,.76.24.11.87-.52.76-.76-.07-.16-.5-.26-.76,0Z"/>
      </g>
      <g>
        <path class="cls-1" d="m52.88,168.43c-.4,0-1.03.15-1.24.62-.32.7.41,1.85,1.24,1.85s1.55-1.16,1.24-1.85c-.21-.46-.84-.62-1.24-.62Z"/>
        <path class="cls-1" d="m52.73,169.51c-.26.26-.16.7,0,.76.24.11.87-.52.76-.76-.07-.16-.5-.26-.76,0Z"/>
      </g>
      <g>
        <path class="cls-1" d="m62.88,156.43c-.4,0-1.03.15-1.24.62-.32.7.41,1.85,1.24,1.85s1.55-1.16,1.24-1.85c-.21-.46-.84-.62-1.24-.62Z"/>
        <path class="cls-1" d="m62.73,157.51c-.26.26-.16.7,0,.76.24.11.87-.52.76-.76-.07-.16-.5-.26-.76,0Z"/>
      </g>
      <g>
        <path class="cls-1" d="m57.88,171.43c-.4,0-1.03.15-1.24.62-.32.7.41,1.85,1.24,1.85s1.55-1.16,1.24-1.85c-.21-.46-.84-.62-1.24-.62Z"/>
        <path class="cls-1" d="m57.73,172.51c-.26.26-.16.7,0,.76.24.11.87-.52.76-.76-.07-.16-.5-.26-.76,0Z"/>
      </g>
      <g>
        <path class="cls-1" d="m60.88,163.43c-.4,0-1.03.15-1.24.62-.32.7.41,1.85,1.24,1.85s1.55-1.16,1.24-1.85c-.21-.46-.84-.62-1.24-.62Z"/>
        <path class="cls-1" d="m60.73,164.51c-.26.26-.16.7,0,.76.24.11.87-.52.76-.76-.07-.16-.5-.26-.76,0Z"/>
      </g>
    </g>
    <g>
      <path class="cls-10" d="m215.29,186.37c-.23,1.18.3,2.18.46,2.45.73,1.27,2.09,1.88,4.7,2.51,2.64.64,4.47,1.08,7.82,1.09,5.22.01,7.84.02,9.82-1.83.14-.13,2.91-2.8,2.21-6.34-.57-2.87-3.03-4.27-3.37-4.45-1.57-.86-3.06-.76-6.03-.57-.99.06-3.43.27-6.54,1.22-1.48.45-3.77,1.26-6.24,2.85-2.03,1.31-2.64,2.15-2.82,3.06Z"/>
      <path class="cls-10" d="m210.65,189.45c-.97-.07-1.73.45-1.93.61-.95.71-1.31,1.87-1.56,4.04-.25,2.19-.43,3.71-.11,6.41.5,4.21.75,6.32,2.44,7.74.12.1,2.54,2.08,5.33,1.16,2.26-.74,3.14-2.86,3.26-3.15.54-1.35.32-2.54-.13-4.92-.15-.79-.56-2.74-1.62-5.16-.51-1.15-1.39-2.92-2.91-4.75-1.26-1.51-1.99-1.91-2.75-1.97Z"/>
      <path class="cls-10" d="m223.28,174.73c.8,1.37,1.35,2.11,2.09,2.15,1.2.06,2.34-1.75,2.82-3.06,1.14-3.16-.69-5.88-2.95-11.3-2.45-5.88-1.22-4.92-3.77-11.15-.59-1.44-2.77-6.69-6.68-13.15-3.84-6.35-5.76-9.53-9.13-12.69-3.43-3.21-5.55-3.96-8.22-7.78-.77-1.1-1.55-2.4-3.21-3.63-.6-.45-2.96-2.09-6.34-2.21-1.34-.05-2.71-.09-4.09.76-1.69,1.05-2.28,2.76-2.66,3.88-.69,2.02-1.2,5.64.4,6.7.87.58,1.46-.2,3.42.21,1.44.3,1.72.85,3.73,1.85,1.97.98,2.09.65,4.55,1.69,1.02.43,2.74,1.18,4.7,2.51.84.57,2.46,1.7,4.03,3.48,1.84,2.09,1.83,3.08,3.67,6.09,1.5,2.46,1.63,1.99,4.49,5.94,2.47,3.4,3.7,5.1,4.79,7.57,1.08,2.43.6,2.35,2.19,7.21,1.59,4.88,1.72,3.88,3.31,8.69.11.34,1.01,3.06,2.85,6.24Z"/>
      <path class="cls-10" d="m218.34,177.76c.87-2.89-.59-6.01-1.52-8.18-2.21-5.15-.61-3.02-3.61-10.33-2.44-5.95-3.66-8.92-5.55-11.66-1.57-2.27-3.84-4.38-8.37-8.6-6.68-6.22-10.68-8.82-11.95-9.63-.51-.33-2.67-1.68-5.67-3.18-3.29-1.64-4.94-2.46-7.31-2.87-1.86-.33-4.62-.81-7.51.55-.87.41-3.27,1.54-4.3,4.19-.16.4-1.13,2.9.09,5.06.83,1.46,2.27,2.08,3.88,2.66,4.72,1.7,8.69,2.25,9.76,2.42,5.55.86,9.5,3.24,12.82,5.23,2.43,1.46,7.09,4.32,11.13,9.78,3.22,4.35,4.78,8.65,5.25,10.03,1.14,3.35.85,4.1,2.34,8.03,2.29,6.04,4.26,7.58,5.76,8.24.54.24,2.16.94,3.42.21.34-.19.95-.66,1.33-1.94Z"/>
      <path class="cls-10" d="m212.56,183.07c.3-1.8-1.44-3.4-2.55-4.6-1.7-1.84-.65-1.41-5.1-9.21-2.74-4.81-4.11-7.21-6.07-9.87-2.24-3.05-4.91-6.68-9.49-10.08-2.97-2.2-5.51-3.4-10.37-5.69-3.93-1.85-6.01-2.51-7.31-2.87-5.86-1.65-8.75-.96-9.46-.78-1.39.36-3.21.86-4.6,2.55-1.27,1.54-2.09,3.94-1.39,6.18.64,2.05,2.27,3.1,4.19,4.3,2.72,1.7,4.22,1.74,7.31,2.87,4.64,1.71,4,2.64,9.4,5.02,4.27,1.88,4.79,1.35,9.09,3.39,1.6.76,3.92,1.87,6.64,3.84,2.33,1.69,5.06,3.67,7.25,7.12,1.21,1.91.98,2.24,2.55,4.6,2.34,3.52,4.02,4.51,5.16,4.97.84.34,2.24.89,3.42.21.71-.4,1.2-1.17,1.33-1.94Z"/>
      <path class="cls-10" d="m205.29,189.5c.16-.88,0-2.21-3.67-6.09-2.8-2.97-5.39-5.02-7.1-6.3-.91-.68-2.14-1.59-3.88-2.66-3.71-2.29-5.05-2.42-8.43-4.36-1.33-.76-.87-.6-5.82-4-6.56-4.51-7.51-4.9-8.58-5.18-1.4-.37-5.03-1.32-8.33.7-.57.35-3.52,2.24-4,5.82-.42,3.16,1.37,5.51,2.04,6.39.91,1.2,2.21,2.36,5.82,4,3.33,1.51,6.19,2.33,9.91,3.24,7.41,1.81,7.47,1.35,12.37,2.78,4.35,1.27,6.52,1.9,9.09,3.39,1.54.89,3.16,1.62,4.7,2.51,2.31,1.33,3.48,2.16,4.55,1.69,1.04-.45,1.31-1.84,1.33-1.94Z"/>
      <path class="cls-10" d="m203.9,195.68c-.25-.84-1.39-1.17-1.94-1.33-2.14-.64-4.18-1.6-6.34-2.21-3.42-.96-2.85-1.22-6.34-2.21-2.52-.71-2.43-.47-6.18-1.39-3.89-.96-5.84-1.44-7.15-2.06-1.79-.84-2.72-1.59-4.55-1.69-.64-.03-1.95-.09-3.27.61-2.06,1.09-3.21,3.51-3.18,5.67.04,2.83,2.12,4.69,3.67,6.09,1.11.99,2.84,2.23,5.67,3.18,3.44,1.15,4.44.5,16.15.38,2.51-.03,5-.64,7.51-.55.63.02,1.93.09,3.27-.61,1.31-.68,1.94-1.73,2.15-2.09.34-.59.69-1.19.51-1.79Z"/>
    </g>
    <path class="cls-11" d="m148.89,76.37c-1.88-2.46.52-4.78-1-8-1.64-3.5-5.26-2.46-7-6-1.52-3.07.71-4.89-1-8-1.16-2.12-3.57-3.79-6-4-2.36-.2-2.33,1.17-8,3-2.3.74-3.57.93-4,2-.44,1.09.45,1.9,1,4,.65,2.45.27,4.52,0,6-.43,2.38-1.31,3.96-3,7-1.95,3.52-2.29,3.15-3,5-1.26,3.32,0,4.07-1,8-.99,3.92-2.69,4.92-2,7,.55,1.66,2.12,2.52,3,3,2.48,1.36,4.23.71,9,1,2.33.14,4.45.27,7,1,3.96,1.14,6.75,3.1,8,4,2.78,1.99,2.68,2.68,6,5,.58.4,2.41,1.67,5,3,3.52,1.81,3.88,1.41,7,3,3.97,2.01,3.87,2.9,7,4,1.02.36,3.2,1.02,6,1,1.94-.01,3.52-.03,5-1,1.78-1.17,1.4-2.41,3-4,2.8-2.79,6.82-1.83,7-3,.13-.89-2.19-1.39-6-4-2.73-1.87-4.78-3.83-6-5-2.67-2.55-2.45-2.86-4-4-2.63-1.94-3.79-1.44-7-3-2.01-.97-6.2-3.01-8-7-1.44-3.19-.11-4.88-2-7-1.8-2.02-3.56-1.11-5-3Z"/>
    <path class="cls-7" d="m143.89,107.37c-2.01-2.13-3.02-3.2-4-4-2-1.63-3.84-2.48-5-3-1.15-.52-3.64-1.62-7-2-3.62-.41-3.52.54-7,0-.92-.14-2.64-.47-6-1-1.05-.16-1.92-.29-3,0-.31.08-1.94.55-3,2-.86,1.19-.7,2.14-1,4-.37,2.29-.9,5.55-3,7-1.8,1.24-3.5.3-5,2-.7.8-.92,1.68-1,2-.48,2.03.65,3.17,1,5,.73,3.85-3.01,5.82-2,8,1.01,2.17,5.59,2.04,7,2,2.67-.08,4.26-.72,10-3,9.14-3.63,10.1-3.97,12-4,2.77-.05,2.63.65,8,1,3.61.23,6.51.1,8,0,.62-.04,1.14-.08,8-1,7.85-1.05,8.04-1.11,9-1,.75.08,2.59.33,5,0,.57-.08,2.97-.41,3-1,.03-.69-3.23-.53-6-3-.93-.83-.9-1.14-2-2-.33-.26-1.64-1.24-4-2-2.46-.79-2.69-.25-5-1-2.22-.72-3.66-1.75-4-2-.94-.69-1.17-1.06-3-3Z"/>
    <path class="cls-12" d="m111.89,132.37c1.35-1.2.6-2.26,2-4,1.25-1.55,2.95-2.07,6-3,1.35-.41,2.92-.89,5-1,2.85-.15,3.76.53,7,1,2.94.42,5.09.27,9,0,2.45-.17,4.85-.34,8-1,2.73-.57,6.22-1.56,10-1,.65.1,1.62.28,2,1,.54,1.02-.66,2.1-1,4-.41,2.26.92,2.74,1,5,.06,1.65-.61,2.32-5,9-2.1,3.19-2.27,3.53-3,4-2.38,1.53-5.24.92-9,0-9.96-2.43-10.61-3.2-15-4-4.96-.91-4.11.07-13-1-4.94-.6-7.93-.96-12-2-3.79-.97-4.71-1.56-8-2-3.58-.48-5.8-.22-6-1-.23-.89,2.4-2.34,4-3,.88-.36,2.58-.94,5-1,3.07-.07,3.47.8,7,1,2.58.15,4.58.26,6-1Z"/>
    <path class="cls-9" d="m192.89,109.37c.12-.54.81-1.08,7-2,4.14-.61,6.2-.92,9-1,5.36-.16,5.56.58,9,0,3.12-.52,6.08-1.65,7-2,3.35-1.29,3.38-1.8,5-2,2.77-.35,6.04.74,8,3,1.89,2.18,2.04,4.87,2,8-.1,7.77-1.33,12.4-2,17-.3,2.07-1.68,12.36,1,24,.81,3.53,1.62,5.54,3,12,2.42,11.31,1.57,12.78,1,13-.97.38-2.02-2.52-6-4-2.22-.83-2.64-.2-4-1-1.6-.94-2.29-2.56-4-9-1.23-4.64-2-8-2-8-1.86-8.14-1.59-7.55-2-9-2.24-7.97-6.72-13.46-8-15-.02-.03,0,0-8-8,0,0-5.77-5.77-6-6l-6-6c-2.84-2.47-4.19-3.13-4-4Z"/>
  </g>
</svg>