<?xml version="1.0" encoding="UTF-8"?>
<svg id="Layer_2" data-name="Layer 2" xmlns="http://www.w3.org/2000/svg" viewBox="0 0 323.66 425.77">
  <defs>
    <style>
      .cls-1 {
        fill: #f8f4ff;
      }

      .cls-1, .cls-2, .cls-3, .cls-4, .cls-5, .cls-6, .cls-7, .cls-8, .cls-9, .cls-10 {
        stroke-width: 0px;
      }

      .cls-2 {
        fill: #100094;
      }

      .cls-3 {
        fill: #c8eecb;
      }

      .cls-4 {
        fill: #e0d6a3;
      }

      .cls-5 {
        fill: #be9d5f;
      }

      .cls-6 {
        fill: #b1eaff;
      }

      .cls-7 {
        fill: #cf8a81;
      }

      .cls-8 {
        fill: #fed4ea;
      }

      .cls-9 {
        fill: #74002a;
      }

      .cls-10 {
        fill: #e9eadb;
      }
    </style>
  </defs>
  <g id="Layer_1-2" data-name="Layer 1">
    <g>
      <path class="cls-5" d="m229.63,71c-3.08-4.24-1.02-9.26,1-19,4.08-19.65,2.61-32.63,2-37C232.51,14.16,230.47,0,227.63,0c-3.35,0-5.84,19.72-6,21-.38,3.06-1.24,11.09-1,33,.14,12.43.49,17.13-3,20-3.79,3.11-9.52,1.96-14,1-11.44-2.45-14.78-7.73-26-14-4.36-2.44-17.12-9.05-33-10-11.01-.66-22.81,1.45-23,4-.11,1.55,4.1,2.56,19,8,1.23.45,7.82,2.97,21,8,24.53,9.37,22.06,9.04,26,10,11.05,2.7,16.47,1.87,21,7,.55.62,4.45,5.16,4,11-.27,3.49-2.12,7.86-15,17-14.88,10.56-18.56,9.09-27,17-6.88,6.44-10.31,12.92-13,18-1.34,2.53-10.26,19.37-6,23,1.96,1.67,6.1.05,8-1,3.87-2.13,5.39-5.7,7-9,2.07-4.24,6.43-13.19,12-19,1.33-1.39,1.52-1.34,16-10,14.51-8.68,15.52-9.46,17-11,6.75-7.05,5.58-11.68,11-14,5.48-2.35,12.11.07,16,3,7.2,5.42,7.74,14.65,8,19,.29,4.85-.75,4.87-2,15-1.45,11.8-1.09,20.24-1,22,.37,7.67-.76,11.82,2,16,.12.18,3.11,4.64,5,4,2.04-.7.95-6.75,1-21,.03-7.89.06-11.92,1-16,1.61-7.03,3.41-7.13,5-14,1.08-4.68,2.59-11.18,0-18-2.69-7.09-8.57-11.27-11-13-4.98-3.54-7.17-3.06-11-7-3.07-3.15-2.65-7.57-1-10,1.26-1.86,1.13-2.28,3-2,5.37.8,7.69,3.33,14,7,3.01,1.75,7.32,4.26,13,6,2.41.74,7.94,2.38,15,2,4.94-.26,4.14-1.17,14-3,8.92-1.66,13.38-2.48,17-2,3,.4,5.22,1.16,8,0,2.58-1.08,5.36-3.69,5-6-.57-3.67-8.74-4.82-10-5-4.21-.59-6.89.12-12,1-3.31.57-10.31,1.77-17,2-3.4.11-10.5.3-19-2-2.98-.81-6.32-2.2-13-5-1.72-.72-6.67-2.81-13-6-5.93-2.98-8.91-4.51-10-6Z"/>
      <g>
        <path class="cls-9" d="m120.58,375.83c-1.49,1.17-2.25,2.81-2.47,3.29-.27.6-.88,2.12-.82,4.11.08,2.73,1.32,3.2,2.47,7.4.38,1.39.56,2.5.82,4.11.63,3.89.31,4.38.82,5.75.82,2.19,2.54,3.36,4.93,4.93,2.02,1.33,3.47,1.94,9.04,4.11,10.85,4.23,9.61,3.58,10.68,4.11,2.66,1.3,4.04,2.22,6.57,2.47,3.06.3,5.3-.63,5.75-.82,2.95-1.26,4.49-3.46,4.93-4.11.89-1.31.71-1.64,1.64-3.29,1.24-2.19,2.52-3.33,4.11-4.93,0,0,3.21-3.24,5.75-6.57,3.16-4.14,4.97-6.5,4.93-9.86-.04-4.18-2.9-7.02-3.29-7.4-2.68-2.59-6.02-2.95-9.04-3.29-3.17-.35-3.48.28-8.22,0-1.48-.09-3.75-.23-6.57-.82-4.02-.84-4.23-1.55-8.22-2.47-2.94-.67-5.28-1.2-8.22-.82-3.55.46-3.18,1.63-7.4,2.47-4.27.85-6.01-.08-8.22,1.64Z"/>
        <path class="cls-8" d="m120.58,351.99c-2.86-.35-5.18.37-6.57.82-2.4.77-4.3,1.39-5.75,3.29-1.58,2.06-1.64,4.33-1.64,4.93,0,2.47,1.13,4.18,1.64,4.93,1.86,2.73,4.58,3.71,5.75,4.11,3.67,1.26,6.97.5,9.04,0,3.16-.77,3.08-1.53,6.57-2.47,1.62-.43,4.67-1.25,8.22-.82,3.98.48,4.45,2.04,9.04,3.29,2.58.7,3.08.38,9.04.82,4.81.36,8.66.64,13.15,1.64,5.73,1.28,8.91,2.04,11.51,4.93,2.64,2.94,3.15,6.37,3.29,7.4.58,4.31-1,7.63-2.47,10.68-1.95,4.07-4.53,6.96-5.75,8.22-3.1,3.2-4.44,3.23-5.75,5.75-.34.65-2.12,4.24-.82,8.22,1.76,5.38,7.69,7.02,9.04,7.4,1.4.39,5.69,1.57,9.86-.82.95-.55,3.79-2.37,4.93-5.75,1.3-3.85-1.09-5.33,0-9.86.39-1.62.65-1.24,3.29-6.57,1.81-3.66,2.72-5.49,3.29-7.4.55-1.85,1.59-5.45.82-9.86-.99-5.67-4.37-9.35-5.75-10.68-.66-.64-2.61-2.43-10.68-5.75-5.96-2.45-7.04-2.36-11.51-4.11-10.8-4.24-10.06-6.98-16.44-8.22-6.91-1.34-6.99,2.03-16.44.82-6.23-.79-10.02-1.28-13.97-3.29-.85-.43-2.52-1.35-4.93-1.64Z"/>
        <path class="cls-8" d="m122.22,349.53c-1.85-1.17-4.15-2.91-10.68-10.68-4.73-5.63-7.1-8.45-9.04-11.51-3.92-6.17-6.76-10.65-7.4-17.26-.69-7.19,1.62-12.8,2.47-14.79,2.16-5.09,5.13-8.32,6.57-9.86,1.05-1.12,3.84-3.97,8.22-6.57,6.52-3.88,12.51-4.82,18.9-5.75,6.33-.93,9.96-1.46,14.79-.82,8.63,1.13,14.42,5.1,21.37,9.86,5.29,3.63,12.38,8.49,18.08,17.26,3.55,5.46,3.33,7.46,7.4,12.33,2.55,3.05,5.44,5.61,13.15,10.68,13.06,8.59,14.24,7.47,20.55,12.33,5.92,4.56,12.58,9.68,15.61,18.9.38,1.16,4.3,13.72-2.47,25.48-.85,1.48-3.64,6.21-9.04,9.86-3.75,2.54-4.67,1.78-12.33,5.75-5.8,3.01-8.7,4.51-10.68,6.57-2.34,2.43-3.75,3.54-6.57,5.75-1.7,1.33-2.66,1.97-3.29,1.64-1.26-.67-.23-4.85,0-5.75,1.18-4.5,2.99-5.12,4.11-8.22,1.63-4.54-.16-9.04-2.47-14.79-1.34-3.35-2.38-5.88-4.93-8.22-1.93-1.77-3.78-2.57-7.4-4.11-3.73-1.58-4.95-1.65-9.86-3.29-1.06-.35-5.52-1.86-10.68-4.11-6.97-3.03-6.77-3.74-10.68-4.93-4.42-1.34-8.14-1.5-11.51-1.64-7.07-.3-7.83.86-12.33,0-4.75-.9-8.09-2.99-9.86-4.11Z"/>
        <path class="cls-8" d="m110.31,263.65c-5.18-3.74-7.81-5.64-9.86-9.04-.95-1.58-4.22-7.01-2.47-13.15,1.7-5.94,7.02-8.78,9.04-9.86,6.31-3.37,12.52-2.62,20.55-1.64,2.94.36,9.03,1.29,16.44,4.11,7.69,2.92,12.95,6.41,18.08,9.86,6.38,4.29,6.6,5.28,17.26,13.15,9.14,6.75,8.1,5.37,11.51,8.22,5.32,4.44,6.28,6.48,18.9,21.37,5.98,7.06,8.97,10.59,10.68,12.33,4.6,4.69,7.54,6.96,11.51,12.33,5.63,7.61,5.39,10.7,4.93,12.33-.93,3.3-3.97,4.86-4.11,4.93-1.01.5-3.47,1.42-11.51-1.64-4.02-1.53-7.39-2.82-11.51-5.75-1.32-.94-4.95-3.65-13.97-15.61-6.55-8.68-5.62-8.56-9.04-12.33-4.94-5.44-9.62-8.71-14.79-12.33-5.98-4.18-9.01-6.3-13.97-8.22-2.59-1-8.21-3.12-15.61-3.29-5.6-.12-5.64,1.02-12.33.82-7.93-.23-12-1.95-13.15-2.47-2.31-1.03-3.76-2.08-6.57-4.11Z"/>
        <path class="cls-8" d="m134.14,222.56c-.9-1.63-2.94-5.33-1.64-9.04,1.29-3.69,5.13-5.19,6.57-5.75,5.76-2.25,11.37.08,13.15.82,3.67,1.52,3.78,2.76,9.04,5.75,0,0,3.95,2.25,9.04,4.11,7.5,2.74,12.38,1.53,26.3,1.64,10.28.08,15.42.12,22.19,1.64,7.33,1.64,12.86,2.89,18.08,7.4,9.05,7.81,10.23,19.43,10.68,23.83.23,2.25.7,8.72-1.64,16.44-1.75,5.74-3.53,11.59-9.04,14.79-4.99,2.9-10.37,2.07-13.15,1.64-1.65-.25-7.43-1.22-12.33-5.75-2.91-2.69-2.87-4.2-5.75-8.22-1.17-1.63-2.77-3.59-12.33-11.51-7.06-5.84-10.59-8.76-15.61-12.33-7.65-5.42-11.47-8.13-15.61-9.86-4.75-1.98-9.57-3.15-17.26-6.57-1.22-.54-4.35-1.97-7.4-4.93-.98-.95-2.22-2.17-3.29-4.11Z"/>
        <path class="cls-8" d="m175.23,170.78c-1.71-.15-8.36-.51-13.97,4.11-4.59,3.78-5.86,8.73-6.57,11.51-.67,2.59-1.86,7.22,0,12.33,1.53,4.19,4.33,6.57,8.22,9.86,2.16,1.83,4.91,4.16,9.04,5.75,3.13,1.21,5.71,1.48,12.33,1.64,7.87.2,11.76,0,19.72,0,3.45,0,8.87.03,15.61.82,5.93.7,8.48,1.47,10.68,3.29,1.28,1.06,2.01,2.11,4.11,3.29,1.91,1.07,4.05,2.28,6.57,1.64,2.31-.58,4.31-2.53,4.93-4.93,1-3.87-2.08-7.01-2.47-7.4-2.12-2.09-4.2-1.93-11.51-3.29-5.38-1-8.06-1.49-10.68-2.47-5.22-1.93-8.61-4.86-11.51-7.4-3.59-3.15-2.88-3.41-11.51-13.15-1.69-1.91-4.7-5.27-9.04-9.04-2.69-2.34-4.7-3.81-7.4-4.93-2.6-1.09-4.94-1.48-6.57-1.64Z"/>
        <path class="cls-8" d="m189.2,149.41c-2.63.36-5.55,2.14-6.57,4.93-.97,2.63.15,5.03,1.64,8.22.78,1.67,2.35,4.58,6.57,9.04,4.31,4.55,5.04,4.01,9.04,8.22,2.17,2.28,1.56,2.02,7.4,9.04,4.1,4.93,5.35,6.19,7.4,7.4,3.43,2.01,6.6,2.39,7.4,2.47,2.07.21,8.91.89,13.15-4.11,3.55-4.18,3.35-10.04,1.64-13.97-2.16-4.98-6.88-7.2-9.04-8.22-5.1-2.4-7.41-1-13.15-4.11-3.09-1.68-5.19-3.58-5.75-4.11-3.45-3.21-2.99-4.49-6.57-8.22-3.87-4.04-7.08-5.34-8.22-5.75-1.57-.57-3.03-1.08-4.93-.82Z"/>
        <path class="cls-8" d="m209.75,137.91c-1.75.41-5.22,1.22-6.57,4.11-1.37,2.93.26,6.25.82,7.4.92,1.87,1.73,2.27,4.11,4.93,3.62,4.04,3.22,4.75,5.75,7.4,1.92,2.01,4.38,4.57,8.22,5.75,1.09.34,7.38,2.27,12.33-1.64,4.26-3.37,5.05-9.1,4.11-13.15-1.25-5.39-5.68-8.24-8.22-9.86-2.33-1.5-4.29-2.09-8.22-3.29-5.31-1.62-8.49-2.54-12.33-1.64Z"/>
        <path class="cls-8" d="m224.54,119.83c-2.33,1.12-3.47,3.01-4.11,4.11-.92,1.58-2.81,4.82-1.64,8.22,1.39,4.04,6.15,5.54,9.04,5.75,1.12.08,4.07.3,6.57-1.64,3.28-2.54,4.25-7.58,2.47-11.51-1.7-3.74-5.65-5.88-9.04-5.75-1.63.06-2.91.64-3.29.82Z"/>
        <path class="cls-1" d="m231.12,123.11c-.07-.35-.4-1.99-1.64-2.47-1.5-.57-3.47.89-4.11,2.47-.34.84-.23,1.66,0,3.29.28,2.05.75,2.39.82,4.11.07,1.61-.29,2.33,0,2.47.49.23,2.33-1.38,2.47-3.29.08-1.12-.47-1.81,0-2.47.41-.56.97-.27,1.64-.82.94-.77,1.02-2.31.82-3.29Z"/>
        <path class="cls-1" d="m222.08,159.28c-.62-.94-.42-2.28,0-4.93.46-2.87,1.24-5.81,1.64-5.75.37.05-.28,2.63.82,3.29,1.11.66,2.58-1.47,5.75-1.64.86-.05,2.49-.14,3.29.82,1.29,1.55-.35,4.87-1.64,6.57-.69.91-2.24,2.95-4.93,3.29-.18.02-3.57.4-4.93-1.64Z"/>
        <path class="cls-1" d="m217.97,154.34c.92.24,2.19-1.98,2.47-2.47,1.18-2.06,1.83-5.13.82-5.75-.77-.48-2.41.51-3.29,1.64-1.83,2.35-1.11,6.28,0,6.57Z"/>
        <path class="cls-1" d="m212.21,152.7c-.73-.21-.77-2.04-.82-4.11-.05-2.22-.07-3.9.82-5.75.41-.86.88-1.47,1.64-2.47.84-1.1,1.34-1.75,1.64-1.64.38.14.06,1.33,0,4.11-.04,1.88.09,1.9,0,3.29-.11,1.71-.2,2.86-.82,4.11-.54,1.09-1.71,2.69-2.47,2.47Z"/>
        <path class="cls-1" d="m191.67,165.85c-.95-.27-1.5-2.48-.82-4.11.31-.75,1.03-1.32,2.47-2.47,1.76-1.4,2.17-1.34,3.29-2.47,1.04-1.05,1.33-1.74,1.64-1.64.46.15.65,1.86,0,3.29-.82,1.78-2.16,1.37-3.29,3.29-.79,1.34-.52,2.21-1.64,3.29-.34.33-1.03.99-1.64.82Z"/>
        <path class="cls-1" d="m187.56,159.28c-.32-.15-.05-1.86.82-3.29.44-.72,1.12-1.31,2.47-2.47,1.4-1.2,2.11-1.8,2.47-1.64.64.28.84,2.16,0,3.29-.74,1-1.68.57-3.29,1.64-1.69,1.13-2.16,2.61-2.47,2.47Z"/>
        <path class="cls-1" d="m197.42,169.14c.05-.62.14-1.6.82-2.47.81-1.03,1.53-.72,2.47-1.64,1.39-1.37.93-3.16,1.64-3.29.65-.11,1.75,1.23,1.64,2.47-.07.87-.68,1.02-1.64,2.47-.95,1.43-.67,1.74-1.64,3.29-.58.93-1.68,2.67-2.47,2.47-.77-.2-.92-2.16-.82-3.29Z"/>
        <path class="cls-1" d="m201.53,174.07c-.42-.45,1.26-1.93,2.47-4.93,1.16-2.89.93-4.84,1.64-4.93.63-.08,1.39,1.35,1.64,2.47.44,1.92-.48,3.52-.82,4.11-.84,1.46-1.99,2.18-2.47,2.47-.26.16-2.07,1.25-2.47.82Z"/>
        <path class="cls-1" d="m205.64,177.36c-.13-.41.19-.77,1.64-2.47,1.96-2.28,2.15-2.52,2.47-2.47.88.16,1.71,2.46.82,4.11-.75,1.41-2.37,1.63-2.47,1.64-.9.11-2.24-.12-2.47-.82Z"/>
        <path class="cls-1" d="m210.57,183.11c2.36-1.42,3.74-2.25,4.93-4.11,1.05-1.65,1.32-3.1,1.64-4.93.29-1.63.54-2.98,0-3.29-.77-.44-2.85,1.4-4.11,3.29-1.05,1.57-.59,1.76-1.64,3.29-1.43,2.07-2.64,2.24-3.29,4.11-.04.11-.67,1.98,0,2.47.26.19.77.2,2.47-.82Z"/>
        <path class="cls-1" d="m213.04,185.57c.28.36,2.09-.62,2.47-.82,1.26-.68,2.26-1.48,3.29-2.47,1.99-1.91,3.75-3.61,3.29-4.93-.12-.33-.41-.74-.82-.82-.85-.17-1.43,1.25-3.29,3.29-1.34,1.47-1.71,1.48-3.29,3.29-.88,1.01-1.88,2.16-1.64,2.47Z"/>
        <path class="cls-1" d="m215.5,188.86c1.54-.1,2.61-.73,4.11-1.64.87-.53.57-.45,4.11-3.29,1.32-1.06,1.92-1.52,2.47-2.47.12-.2.51-.92.82-2.47.34-1.68.65-4.74,0-4.93-.49-.14-1.13,1.47-3.29,4.93-1.99,3.21-2.99,4.81-4.11,5.75-3.36,2.83-7.45,2.51-7.4,3.29.04.51,1.82.91,3.29.82Z"/>
        <path class="cls-1" d="m219.61,192.97c2.79.96,5.39.36,6.57,0,1.24-.38,4.89-1.49,6.57-4.93,1.08-2.2,1.49-5.6,0-6.57-1.42-.93-3.98.73-4.11.82-1.38.92-1.32,1.68-3.29,4.11-1.4,1.72-2.1,2.58-3.29,3.29-2.49,1.47-4.83.95-4.93,1.64-.09.58,1.49,1.31,2.47,1.64Z"/>
        <path class="cls-1" d="m169.48,175.71c-.74-.33-1.55.63-4.93,3.29-3.44,2.71-3.51,2.45-4.11,3.29-.89,1.26-1.14,3.31-1.64,7.4-.32,2.58-.35,4.05,0,5.75.2.99.65,3.14,1.64,3.29.68.1,1.18-.82,2.47-2.47,2.99-3.83,3.99-3.53,4.93-5.75.76-1.79-.03-1.66.82-4.93.73-2.83,1.47-3.49,1.64-5.75.07-.85.28-3.63-.82-4.11Z"/>
        <path class="cls-1" d="m178.52,172.42c-.41-.63-1.13-1.74-1.64-1.64-.64.12-.72,2.08-.82,3.29-.43,5.31-2.21,9.69-3.29,12.33-1.22,3-1.79,3.21-2.47,5.75-.57,2.14-.7,4.01-.82,5.75-.12,1.76-.08,3.09,0,5.75.13,4.15.38,4.72.82,4.93.92.44,2.45-.74,3.29-1.64,1.72-1.85,1.58-3.68,2.47-7.4.76-3.16.94-2.2,2.47-7.4,1.51-5.15,1.63-7.14,1.64-8.22,0-.68-.03-1.49,0-3.29.03-2.08.11-2.35,0-3.29-.05-.47-.22-1.76-.82-3.29-.33-.85-.64-1.36-.82-1.64Z"/>
        <path class="cls-1" d="m187.56,179c-.16-1.35-.36-2.38-.82-2.47-.77-.14-1.91,2.43-2.47,4.11-.57,1.73-.55,2.61-.82,4.11-.47,2.55-1.12,3.09-2.47,6.57-.46,1.18-1.64,4.26-2.47,8.22-.96,4.58-.4,5.34-1.64,7.4-.46.76-1.17,1.71-.82,2.47.33.72,1.56,1.11,2.47.82,1.33-.43,1.7-2.22,2.47-4.93,0,0,.49-1.72,2.47-7.4,2.04-5.85,3.12-4.93,4.11-9.04.8-3.29.52-5.6,0-9.86Z"/>
        <path class="cls-1" d="m188.38,197.9c1.27-3.86,2.63-4.34,3.29-7.4.45-2.09.28-4.06,0-4.11-.28-.04-.49,1.75-1.64,4.11-1.37,2.79-2.33,2.82-3.29,4.93-.99,2.18-.17,2.61-.82,6.57-.75,4.54-2.31,6.98-1.64,7.4.46.29,1.74-.55,2.47-1.64,1.13-1.71.31-3.15.82-6.57.22-1.46.57-2.52.82-3.29Z"/>
        <path class="cls-1" d="m190.85,208.59c1.45-4.43,1.43-4.52,1.64-4.93.98-1.85,2.09-1.21,4.11-3.29,1.89-1.95,3.41-5.09,2.47-7.4-.04-.1-.67-1.59-1.64-1.64-.58-.03-1.12.44-2.47,2.47-1.41,2.13-1.58,2.76-2.47,4.11-1.87,2.85-2.61,2.32-3.29,4.11-.64,1.7-.39,3.3,0,5.75.12.76.39,2.45.82,2.47.28,0,.5-.65.82-1.64Z"/>
        <path class="cls-1" d="m196.6,209.41c1.14.76,4.09-1.03,5.75-3.29.4-.54,2.66-3.74,1.64-6.57-.37-1.05-.95-1.36-1.64-3.29-.52-1.44-.64-2.48-.82-2.47-.28.02.31,2.45-.82,4.93-.22.47-.97,1.41-2.47,3.29-1.28,1.6-2.18,2.62-2.47,4.11-.14.73-.08,1.28,0,1.64.06.26.28,1.28.82,1.64Z"/>
        <path class="cls-1" d="m206.46,207.76c.07.55.33.92.82,1.64.69,1.01,1.08,1.58,1.64,1.64,1.11.13,2.14-1.83,2.47-2.47.42-.81,1.19-2.29.82-4.11-.36-1.81-1.75-3.48-2.47-3.29-.34.09-.26.53-.82,1.64-.59,1.18-.92,1.16-1.64,2.47-.59,1.06-.93,1.67-.82,2.47Z"/>
        <path class="cls-1" d="m215.5,211.87c.18-1.24-.1-1.42,0-2.47.12-1.22.61-2.1.82-2.47.26-.45,1.01-1.77,1.64-1.64.35.07.5.55.82,1.64,1.18,4.04,1.14,4.52.82,4.93-.31.41-.76.55-1.64.82-.25.08-2.04.63-2.47,0-.13-.19-.06-.38,0-.82Z"/>
        <path class="cls-1" d="m235.23,209.41c-.35-.07-.52.45-1.64,1.64-1.56,1.66-2.04,1.52-2.47,2.47-.54,1.2-.21,2.45,0,3.29.22.86.36,1.4.82,1.64.91.48,2.49-.52,3.29-1.64.71-.99.76-2,.82-3.29.07-1.44-.07-3.97-.82-4.11Z"/>
        <path class="cls-1" d="m228.65,208.59c-.69.03-1.1.73-1.64,1.64-.5.85-.64,1.56-.82,2.47-.18.91-.27,1.37,0,1.64.35.36,1.13.26,1.64,0,.65-.33.64-.8,1.64-2.47.64-1.07.85-1.21.82-1.64-.05-.81-.85-1.68-1.64-1.64Z"/>
        <path class="cls-1" d="m140.3,219.68c1.38-.05,2.19-1.86,2.47-2.47.76-1.69,1.08-4.36,0-4.93-.91-.48-2.49.69-3.29,1.64-1.11,1.34-1.85,3.64-.82,4.93.03.04.7.86,1.64.82Z"/>
        <path class="cls-1" d="m149.76,214.34c.87-.62,1.62-.97,1.64-1.64.03-.73-.81-1.58-1.64-1.64-.65-.05-1.29.39-3.29,3.29-1.87,2.72-2.82,4.11-3.29,5.75-.37,1.3-.87,3.17,0,4.93.46.92,1.29,1.8,1.64,1.64.38-.16-.04-1.41,0-3.29.01-.61.07-2.37.82-4.11.71-1.63,2.17-3.55,4.11-4.93Z"/>
        <path class="cls-1" d="m155.51,218.45c-.52-.97-2.15-1.26-3.29-.82-.43.17-.81.45-2.47,3.29-1.01,1.72-1.51,2.6-1.64,3.29-.11.58-.53,2.73.82,4.11.96.98,2.66,1.42,3.29.82.5-.48-.11-1.25,0-3.29.06-1.18.12-2.29.82-3.29.89-1.26,2-1.17,2.47-2.47.07-.2.35-.98,0-1.64Z"/>
        <path class="cls-1" d="m162.08,218.45c-.01-.22-.08-1.21-.82-1.64-.51-.3-1.17-.24-1.64,0-.54.27-.77.75-1.64,3.29-.36,1.05-.58,1.73-.82,2.47-.8,2.5-.85,2.84-.82,3.29.04.69.3,1.28.82,2.47.69,1.58,1.06,2.42,1.64,2.47.73.06,1.39-1.16,1.64-1.64.83-1.56.84-3.15.82-4.93-.02-2.12-.32-2.3,0-3.29.34-1.04.89-1.46.82-2.47Z"/>
        <path class="cls-1" d="m167.01,223.38c-.04-.2-.43-2.27-1.64-2.47-.59-.09-1.3.27-1.64.82-.55.87.16,1.64,0,3.29-.07.76-.23.62-.82,2.47-.57,1.75-.89,2.79-.82,4.11.02.31.12,2.32.82,2.47.92.2,2.33-2.98,2.47-3.29.1-.23.34-.97.82-2.47.53-1.64.73-2.35.82-3.29.07-.65.11-1.07,0-1.64Z"/>
        <path class="cls-1" d="m170.3,220.91c-.21.05,1.4,3.15,0,5.75-.76,1.41-1.77,1.5-2.47,3.29-.14.35-.94,2.44,0,3.29.59.54,1.72.44,2.47,0,1.53-.9,1.6-3.27,1.64-4.93.11-4.18-1.43-7.45-1.64-7.4Z"/>
        <path class="cls-1" d="m176.05,243.1c.67.19,1.96-1.47,2.47-3.29.34-1.22.08-1.64,0-4.11-.13-3.87.47-3.89,0-5.75-.33-1.3-.56-1.04-1.64-4.11-.38-1.08-.54-1.63-.82-1.64-.47-.02-.67,1.51-1.64,4.11-1.06,2.84-1.46,2.73-1.64,4.11-.31,2.27.54,4.28.82,4.93.63,1.47,1.1,1.62,1.64,3.29.51,1.56.4,2.35.82,2.47Z"/>
        <path class="cls-1" d="m181.81,244.75c.54,1.19.64,1.65.82,1.64.34,0,.57-1.54.82-3.29.55-3.86.83-5.8.82-6.57-.02-2.37-.44-1.7-.82-5.75-.16-1.68-.27-3.7-.82-6.57-.37-1.92-.6-2.46-.82-2.47-.45,0-.78,2.2-.82,2.47-.23,1.58-.09,2.58,0,4.11.09,1.64,0,3.29,0,4.93v4.93c-.21,2.33-.64,3.56,0,4.93.16.34.4.71.82,1.64Z"/>
        <path class="cls-1" d="m188.38,252.14c.22.37.51.85.82.82.33-.03.49-.61.82-1.64.26-.83.59-1.63.82-2.47.55-2.03,1.03-2.32,1.64-4.11.87-2.55.84-4.75.82-5.75-.02-1.03-.07-2.82-.82-4.93-.66-1.87-.98-1.48-1.64-3.29-.7-1.9-.63-3.07-1.64-6.57-.32-1.11-.51-1.61-.82-1.64-.6-.06-1.41,1.68-1.64,3.29-.15,1.01.02,1.32,0,2.47-.04,1.82-.5,2.65-.82,4.11-.3,1.36-.2,2.82,0,5.75.16,2.36.27,1.7.82,6.57.19,1.66.68,3.27.82,4.93,0,.06.1,1.24.82,2.47Z"/>
        <path class="cls-1" d="m194.96,243.92v3.29c-.01,2.65-.05,3,0,4.11.11,2.57.18,3.86.82,4.11.7.27,1.83-.78,2.47-1.64.46-.62,1.66-2.53.82-8.22-.58-3.95-1.29-3.93-1.64-7.4-.21-2.03-.13-3.71,0-6.57.14-3.21.4-4.4,0-6.57-.34-1.86-1.11-4.17-1.64-4.11-.54.06-.68,2.51-.82,4.93-.15,2.56-.03,3.43,0,8.22v9.86Z"/>
        <path class="cls-1" d="m199.89,260.36c-.62-.12-.97-1.82-.82-3.29.17-1.72.93-2.27,1.64-4.11.72-1.85.77-3.39.82-4.93.05-1.4-.24-3.14-.82-6.57-.28-1.64-.55-3.29-.82-4.93-.48-2.86-.72-4.26,0-5.75.19-.39.76-1.58,1.64-1.64,1.19-.09,2.19,1.92,2.47,2.47,1,2.02.87,3.6.82,8.22-.04,3.83-.06,5.75,0,6.57.24,3.36.71,4.56,0,6.57-.37,1.05-1.03,2.2-1.64,3.29-.06.11-.67,1.17-1.64,2.47-.86,1.14-1.29,1.71-1.64,1.64Z"/>
        <path class="cls-1" d="m208.11,264.47c.22.06,1.06.18,3.29-3.29,1.9-2.96,3.46-5.37,4.11-9.04.4-2.24,0-5.33-.82-11.51-.47-3.55-.85-5.14-.82-8.22.01-1.37,0-2.74,0-4.11.02-3.72.09-5.17-.82-5.75-.51-.32-1.27-.34-1.64,0-.5.46-.14,1.46,0,2.47.2,1.36-.1,2.02-.82,4.93-.77,3.14-1.35,5.5-1.64,8.22-.29,2.78-.44,4.16,0,5.75.53,1.91,1.34,2.56,1.64,4.93.2,1.54.06,2.82,0,3.29-.16,1.25-.37,1.37-.82,3.29-.69,2.92-.27,2.9-.82,4.11-.76,1.65-1.7,2.03-1.64,3.29.03.6.28,1.49.82,1.64Z"/>
        <path class="cls-1" d="m212.21,269.4c.51.05,2.6.17,5.75-3.29.56-.62,3.06-3.43,4.93-9.04,1.1-3.29,2.19-6.56,1.64-10.68-.03-.26-.57-2.36-1.64-6.57-1.3-5.1-.11-.23-1.64-5.75-.85-3.07-1.06-4.02-1.64-4.11-.87-.13-1.96,1.77-2.47,3.29-.76,2.27-.37,4.08,0,6.57.4,2.69.88,5.9.82,9.04-.08,3.94-1,6.97-1.64,9.04-1.2,3.83-1.79,5.75-3.29,7.4-1.21,1.33-2.78,2.41-2.47,3.29.24.67,1.44.8,1.64.82Z"/>
        <path class="cls-1" d="m220.43,273.51c3.13-.38,6.57-4.93,6.57-4.93,1.8-2.38,5-6.62,4.93-12.33-.04-2.74-.78-2.35-1.64-8.22-.67-4.55-.82-8.22-.82-8.22-.16-3.74.04-6.33-1.64-9.04-.05-.07-1.15-1.84-1.64-1.64-.43.17.09,1.69,0,4.11-.08,2.18-.55,2.35-.82,4.93-.21,1.96-.1,3.44,0,4.93.19,2.79.53,3.17.82,5.75.26,2.34.52,4.62,0,7.4-.45,2.42-1.28,4.14-2.47,6.57-1.07,2.21-1.61,3.32-2.47,4.11-1.51,1.39-2.78,1.45-4.11,3.29-.38.53-1.24,1.71-.82,2.47.34.61,1.39.72,2.47.82.8.08,1.44.02,1.64,0Z"/>
        <path class="cls-1" d="m221.25,279.26c-.22-.41,1.07-1.32,4.93-4.93,2.29-2.15,3.45-3.24,4.11-4.11,2.24-2.97,3.01-6.01,3.29-7.4.35-1.76.24-3.66,0-7.4-.29-4.63-.82-9.04-.82-9.04-.18-1.51-.54-4.33,0-7.4.16-.92.48-2.31,1.64-3.29.34-.29.98-.82,1.64-.82,2.63,0,4.6,8.39,4.93,9.86,1.14,5.1.93,9.18.82,10.68-.15,1.98-.61,5.98-2.47,10.68-1.6,4.05-2.76,6.97-5.75,9.04-1.11.77-2.66,1.33-5.75,2.47-2.59.95-6.23,2.28-6.57,1.64Z"/>
        <path class="cls-1" d="m113.18,260.77c-1,.63-3.94-1.79-5.75-4.11-.91-1.17-3.05-3.99-3.29-8.22-.08-1.48.49-3.45,1.64-7.4.29-1,.57-1.85,1.23-2.05,1.06-.33,2.54,1.15,3.29,2.47.31.55.75,1.51.82,4.93.09,4.31-.57,4.54,0,6.57.57,2.06.86,3.09,1.64,4.11.23.3.68.83.82,1.64.11.64.09,1.74-.41,2.05Z"/>
        <path class="cls-1" d="m120.99,262c-1.76-1.63-1.97-3.77-2.47-5.75-1.03-4.16-2.21-3.29-3.29-7.4-.96-3.67.21-3.48-.82-8.22-.36-1.63-.8-3.06,0-4.11.62-.81,1.89-1.24,2.47-.82.67.49.24,2.01,0,3.29-.68,3.7.06,6.75.82,9.86.71,2.91,1.45,5.93,3.29,8.22.14.17,1.15,1.42,1.64,3.29.08.31.57,2.15,0,2.47-.47.27-1.44-.64-1.64-.82Z"/>
        <path class="cls-1" d="m126.74,262c-2.02.25-4.53-7.74-4.93-9.04-.33-1.09-.01-.21-1.64-9.04-.34-1.84-.83-4.45,0-7.4.46-1.63,1.01-2.26,1.64-2.47,1.08-.34,2.22.62,2.47.82.58.48,1.26,1.33,1.64,3.29.42,2.1.14,3.67,0,4.93-.27,2.42-.76,6.74.82,10.68.82,2.05,1.79,2.97,1.64,4.93-.1,1.32-.71,3.17-1.64,3.29Z"/>
        <path class="cls-1" d="m134.96,265.29c-1.11-.13-1.92-1.68-3.29-6.57-1-3.56-1.86-6.68-2.47-11.51-.03-.25-.46-3.78,0-8.22.21-2.05.52-3.48,1.64-4.11.71-.4,1.81-.53,2.47,0,.96.77.5,2.57,0,5.75-.48,3.07-.81,5.19-.82,7.4,0,1.5-.02,5.28,1.64,9.04.6,1.35,1.03,2.77,1.64,4.11.71,1.57,1.25,2.53.82,3.29-.3.53-1.03.89-1.64.82Z"/>
        <path class="cls-1" d="m139.07,262c-1.54-.04-2.58-4.89-3.29-8.22-.45-2.09-.9-4.84-.82-8.22.09-3.65.72-4.96,1.64-5.75.21-.18,1.31-1.12,2.47-.82.95.25,1.44,1.21,1.64,1.64.87,1.81.33,3.43,0,5.75-.44,3.1-1.01,7.1,0,10.68.16.56.59,1.94,0,3.29-.25.57-.9,1.66-1.64,1.64Z"/>
        <path class="cls-1" d="m146.47,264.47c-.9.07-2.71-4.43-2.47-9.04.18-3.48,1.34-3.41,2.47-9.04.83-4.14.62-6.3,1.64-6.57,1.04-.28,2.6,1.57,3.29,3.29.38.97.52,1.98,0,5.75-.53,3.81-.79,5.72-1.64,8.22-.95,2.76-1.22,2.25-2.47,5.75-.4,1.12-.53,1.62-.82,1.64Z"/>
        <path class="cls-1" d="m152.22,265.29c.55.08.93-1.4,2.47-4.11,1.87-3.31,2.28-2.84,3.29-4.93.18-.38,2.14-4.61.82-9.04-.26-.87-.7-2.28-1.64-2.47-1.02-.2-2.05,1.12-2.47,1.64-.62.79-1.16,1.82-1.64,4.11-.65,3.09-.17,3.64-.82,6.57-.42,1.87-.67,1.91-.82,3.29-.24,2.21.12,4.83.82,4.93Z"/>
        <path class="cls-1" d="m157.97,267.76c-.64-.13-.88-1.94-.82-3.29.09-1.82.72-2.52,1.64-4.93.41-1.06.82-2.63,1.64-5.75.99-3.74,1.14-4.9,1.64-4.93.67-.04,1.39,1.94,1.64,3.29.24,1.25.13,2.22,0,3.29-.3,2.51-1.07,4.37-1.64,5.75-.57,1.38-1.08,2.28-1.64,3.29-1.21,2.16-1.9,3.4-2.47,3.29Z"/>
        <path class="cls-1" d="m166.19,271.87c1.18.05,2.11-2.14,3.29-4.93,1.29-3.05,1.93-4.61,1.64-6.57-.22-1.51-1.04-3.94-2.47-4.11-1.08-.13-2.05,1.11-2.47,1.64-.93,1.19-1,2.12-1.64,6.57-.48,3.33-.67,4.42,0,5.75.22.45.8,1.61,1.64,1.64Z"/>
        <path class="cls-1" d="m172.77,275.15c-.85-.17-1.11-3.26-.82-5.75.24-2.07.63-1.75,1.64-5.75.66-2.6.75-3.76,1.64-4.11.84-.33,1.9.26,2.47.82,1.25,1.23,1.02,3.2.82,4.93-.05.43-.32,2.58-1.64,4.93-.33.59-1.04,1.49-2.47,3.29-1.2,1.51-1.42,1.69-1.64,1.64Z"/>
        <path class="cls-1" d="m179.34,280.91c.27.05.96.01,2.47-2.47.87-1.44,1.82-3.03,2.47-5.75.64-2.68,1.14-4.79,0-6.57-.61-.96-1.77-1.92-2.47-1.64-.74.29-.37,1.73-.82,4.11-.53,2.76-1.39,2.73-2.47,6.57-.45,1.6-.79,3.39,0,4.93.33.65.63.79.82.82Z"/>
        <path class="cls-1" d="m185.09,285.02c-1.49-.92-.58-4.83,0-6.57.28-.84.69-2.03,1.64-3.29,1.09-1.44,1.68-1.37,3.29-3.29.96-1.15,1.16-1.66,1.64-1.64.92.02,1.99,1.85,1.64,3.29-.28,1.14-1.23,1.07-2.47,2.47-1.13,1.28-1.58,2.77-2.47,5.75-.52,1.75-.7,2.84-1.64,3.29-.42.2-1.12.33-1.64,0Z"/>
        <path class="cls-1" d="m190.03,290.77c1.84.05,3.42-2.4,4.11-4.11.69-1.71.16-1.86.82-4.93.66-3.03,1.47-4.25.82-4.93-.54-.57-1.74-.38-2.47,0-.32.17-.97.6-1.64,2.47-.8,2.21-.21,2.53-.82,4.11-.74,1.92-1.78,1.89-2.47,4.11-.51,1.64-.13,2.27,0,2.47.37.54,1.07.81,1.64.82Z"/>
        <path class="cls-1" d="m193.31,295.7c1.78.69,3.84-.48,4.93-1.64.81-.87,1.13-1.79,1.64-3.29.4-1.15.27-1.24.82-3.29.62-2.3.84-2.43.82-3.29-.03-1.22-.54-3.06-1.64-3.29-.96-.2-1.99.9-2.47,1.64-.88,1.37-.24,2.13-.82,4.11-.51,1.73-1.52,2.97-2.47,4.11-1.53,1.86-2.59,2.32-2.47,3.29.13,1.03,1.5,1.59,1.64,1.64Z"/>
        <path class="cls-1" d="m197.42,301.45c1.16.86,3.08.12,4.11-.82,1.11-1.01,1.12-2.18,1.64-4.93.92-4.86,2-7.26,1.64-7.4-.29-.11-.91,1.54-3.29,4.93-1.66,2.36-2.48,3.54-3.29,4.11-.7.5-1.41.83-1.64,1.64-.25.85.1,1.93.82,2.47Z"/>
        <path class="cls-1" d="m202.35,303.92c-1.28,1.22-1.47,1.26-1.64,1.64-.55,1.22.15,3.35,1.64,4.11,1.74.88,3.9-.4,4.93-1.64,1.2-1.45.4-2.32,1.64-4.93,1-2.1,1.77-2.08,2.47-4.11.23-.68,1.09-3.2,0-4.11-.66-.55-1.8-.3-2.47,0-.72.33-1.11.84-2.47,3.29-1.59,2.86-1.67,3.25-2.47,4.11-.29.31-.93.96-1.64,1.64Z"/>
        <path class="cls-1" d="m208.93,314.6c.68.46,1.48.26,2.47,0,.76-.2,2.02-.55,3.29-1.64.33-.28,1.93-1.71,2.47-4.11.33-1.46-.14-1.47,0-4.11.14-2.57.63-3.53,0-4.11-.62-.57-1.82-.29-2.47,0-.69.31-1.16.84-1.64,1.64-1.24,2.06-.66,2.77-1.64,4.93-1.25,2.76-2.47,4.11-2.47,4.11-.27.3-.81.86-.82,1.64-.01.61.29,1.28.82,1.64Z"/>
        <path class="cls-1" d="m213.86,317.07c-.15.45-.63,1.84,0,2.47.19.19.62.45,2.47,0,1.93-.47,3.02-.73,4.11-1.64,2.26-1.89,2.39-4.84,2.47-6.57.07-1.51-.09-3.97-.82-4.11-.56-.1-.81,1.27-2.47,3.29-1.09,1.33-1.5,1.36-4.11,4.11-.62.65-1.27,1.35-1.64,2.47Z"/>
        <path class="cls-1" d="m222.08,322.82c-.11-.76,2.53-.87,4.11-3.29.79-1.21.76-2.15,1.64-2.47.86-.3,1.89.24,2.47.82.64.65.96,1.61.82,2.47-.33,2.06-3.26,3.05-4.93,3.29-1.85.26-4.01-.15-4.11-.82Z"/>
        <path class="cls-1" d="m104.14,321.59c-.63.2-3.1-4.1-4.11-9.04-.83-4.1-.41-7.45,0-10.68.05-.4.85-6.61,1.64-6.57.69.03,1.14,4.81,1.23,7.81.09,3.19-.25,3.62,0,6.57.17,2.05.38,2.37.82,5.75.53,4.03.79,6.04.41,6.16Z"/>
        <path class="cls-1" d="m107.02,308.85c-.09.02.03.82,0,.82-.07.01-1.33-4.36-1.64-9.86-.24-4.17-.39-6.78.82-9.86,1.45-3.69,4.48-7.08,5.75-6.57.64.25.71,1.46.82,3.29.04.6.12,2.62-.82,6.57-.5,2.09-.64,2.04-.82,3.29-.15,1.04-.13,1.6,0,4.93.02.43.1,2.84,0,5.75-.07,2.01-.18,2.82-.82,3.29-.69.51-1.83.51-2.47,0-.69-.55-.72-1.66-.82-1.64Z"/>
        <path class="cls-1" d="m120.17,341.72c-1.35-.67-2.2-2.07-3.29-6.57-1.37-5.68-1.61-10.09-1.64-10.68-.06-1.11-.04-3.48,0-8.22.06-6.99.13-6.98,0-8.22-.54-5.24-1.86-5.69-1.64-9.04.18-2.77,1.23-4.61,3.29-8.22,1.03-1.81,3.35-5.54,7.4-9.04,1.52-1.31,3.29-2.61,5.75-3.29.81-.22,3.47-.96,4.11,0,.68,1.02-1.28,3.46-2.47,4.93-1.84,2.28-3.57,3.66-4.11,4.11-3.48,2.92-4.55,6.9-5.75,10.68-1.25,3.93-1.43,7.1-1.64,10.68-.2,3.48.14,2.87,0,8.22-.16,6.43-.66,7.51,0,10.68.71,3.42,1.64,5.75,1.64,5.75.42,1.06,1.12,2.63,1.64,4.93.54,2.38.3,2.97,0,3.29-.7.73-2.27.51-3.29,0Z"/>
        <path class="cls-1" d="m129.21,334.33c-.84.29-2.4-1.58-3.29-3.29-1.63-3.12-1.06-5.73-.82-11.51,0,0,.18-4.31,0-9.04-.3-8.09-1.35-9.48,0-12.33.32-.68.36-.54,4.93-5.75,3.11-3.55,4.67-5.32,4.93-5.75,2.42-4.03,1.81-6.54,4.93-9.86.47-.5,1.85-1.97,2.47-1.64.92.49-.48,4.72-.82,5.75-.69,2.09-1.67,4.98-4.11,8.22-2.82,3.75-4.17,3.45-5.75,6.57-1.11,2.19-1.34,4.13-1.64,6.57-.3,2.42-.07,2.97,0,9.04v14.79c.04.55.18,2.44,0,4.93-.22,2.96-.64,3.22-.82,3.29Z"/>
        <path class="cls-1" d="m137.43,350.76c-1.44.15-3.39-4.72-4.11-9.04-.46-2.77-.18-3.92,0-9.04.13-3.67.09-6.83,0-13.15-.12-8.36-.41-9.01,0-12.33.29-2.35.74-5.76,2.47-9.86.96-2.28,2.44-5.8,5.75-9.04,2.68-2.62,3.07-1.65,6.57-4.93,1.83-1.72,3.16-3.33,5.75-4.11.32-.1,2.78-.81,3.29,0,.34.54-.31,1.56-1.64,3.29-3.03,3.93-4.93,5.75-4.93,5.75-4.31,4.13-6.47,6.19-7.4,7.4-2.5,3.26-3.53,6.4-4.11,8.22-1.78,5.59-1.39,10.33-.82,17.26.51,6.25,1.29,7.32.82,11.51-.41,3.64-1.18,4.47-.82,7.4.35,2.85,1.39,4.49.82,7.4-.11.57-.62,3.18-1.64,3.29Z"/>
        <path class="cls-1" d="m144.82,343.37c-1.21-.06-2.24-3.16-2.47-5.75-.37-4.28,1.6-5.49,1.64-9.86.03-2.77-.76-2.39-1.64-7.4-.72-4.09-1.3-7.58,0-11.51,1.3-3.94,3.53-5.4,4.11-5.75.98-.6,2.76-1.39,3.29-.82.68.73-1.52,2.82-2.47,6.57-.53,2.1-.35,3.87,0,7.4.48,4.82,1.22,5.22,1.64,9.86.23,2.54.24,4.94,0,7.4-.23,2.34-.67,4.43-1.64,6.57-.7,1.53-1.52,3.34-2.47,3.29Z"/>
        <path class="cls-1" d="m156.33,348.3c-1.13.24-3.3-2.97-4.11-6.57-.79-3.5.32-4.6.82-10.68.07-.91.05-4.18,0-10.68-.06-7.53-.11-7.95,0-9.86.29-5.04.43-7.56,1.64-10.68,1.89-4.89,4.85-7.54,6.57-9.04,1.27-1.11,3.65-3.18,4.93-2.47,1,.56.87,2.56.82,3.29-.22,3.45-2.15,5.69-3.29,7.4-1.72,2.59-2.24,5.83-3.29,12.33-.72,4.47-.75,7.91-.82,14.79-.06,5.64-.08,8.46,0,9.04.34,2.35.89,4.27,0,6.57-.37.96-.67,1.14-1.64,3.29-1.13,2.49-1.15,3.18-1.64,3.29Z"/>
        <path class="cls-1" d="m164.55,348.3c-1.16-.16-1.66-3.99-1.64-6.57.01-2.14.38-3.18.82-5.75.26-1.48.21-1.55.82-8.22.92-9.99,1.05-10.11.82-11.51-.68-4.04-2.07-4.51-1.64-7.4.36-2.42,1.66-4.27,3.29-6.57.77-1.1,2.55-3.61,3.29-3.29.35.16.38.93,0,4.11-.27,2.25-.41,3.38-.82,5.75-.61,3.49-.7,6.16-.82,9.86-.08,2.46-.05,4.43,0,7.4.06,3.62.16,4.5,0,6.57-.22,2.86-.53,2.55-.82,5.75-.32,3.48-.03,4.54-.82,6.57-.1.27-1.37,3.44-2.47,3.29Z"/>
        <path class="cls-1" d="m170.3,355.69c-1.13-.92-.65-2.57,0-9.04.48-4.8.35-5.21.82-7.4.63-2.91,1.01-2.91,1.64-5.75.21-.94.87-4.12.82-8.22-.04-2.94-.39-2.77-.82-8.22-.3-3.83-.44-5.77,0-7.4.73-2.67,1.65-2.52,2.47-5.75.45-1.79.49-3.1,1.64-4.11.54-.47,1.67-1.19,2.47-.82,1.04.47.82,2.44.82,6.57,0,6.77.57,7.32,0,10.68-.54,3.18-1.02,2.5-1.64,5.75-1.24,6.46.86,8.1-.82,13.15-.69,2.07-1.35,2.71-1.64,4.93-.38,2.88.51,3.38,0,5.75-.65,2.98-2.25,3.06-2.47,5.75-.17,2.16.76,3.3,0,4.11-.69.73-2.35.76-3.29,0Z"/>
        <path class="cls-1" d="m181.81,354.05c-.38-.3-.83-.88-.82-4.93,0-3.34.3-3.86,0-5.75-.31-1.91-.67-1.72-.82-3.29-.09-.91-.03-1.62.82-5.75.71-3.44.76-3.35.82-4.11.22-2.61-.37-3.07,0-4.93.36-1.82,1.48-4.18,2.47-4.11,1.66.11,2.43,7.07,2.47,7.4.19,1.84.13,3.96,0,8.22-.07,2.37-.15,3.26,0,4.93.26,2.84.72,2.93.82,4.93.04.89.29,5.9-2.47,7.4-.96.52-2.41.68-3.29,0Z"/>
        <path class="cls-1" d="m183.45,361.45c-.32-1.07,2.68-1.99,4.93-4.93.4-.52,2.33-3.13,2.47-6.57.13-3.22-1.45-3.51-1.64-7.4-.03-.69.25-2.66.82-6.57.71-4.86.74-4.69.82-5.75.17-2.2.11-4,0-7.4-.05-1.64-.13-2.95,0-4.93.15-2.37.25-3.98.82-4.11.84-.19,2.45,2.93,3.29,5.75.36,1.21.65,2.61.82,8.22.12,3.94.19,6.36,0,9.86-.2,3.65-.57,6.37-.82,8.22-.54,3.92-.83,5.93-1.64,8.22-1.45,4.07-3.17,5.78-4.11,6.57-2.21,1.86-3.75,1.69-4.11,1.64-.33-.05-1.46-.21-1.64-.82Z"/>
        <path class="cls-1" d="m194.13,365.56c-.73-.41-1.02-1.61-.82-2.47.27-1.15,1.36-1.46,2.47-2.47,1.5-1.37,1.96-3.07,2.47-4.93.55-2.03.17-2.65,0-7.4-.16-4.35.16-3.87,0-9.04-.06-2.16-.16-3.52,0-5.75.34-4.87,1.29-5.55,1.64-5.75,1.2-.69,3.15-.29,4.11.82,1.07,1.25.37,2.77,0,6.57-.04.44-.03,3.31,0,9.04.03,6.33.12,6.17,0,7.4-.3,3.2-.58,6.17-2.47,9.04-2.07,3.17-5.83,5.81-7.4,4.93Z"/>
        <path class="cls-1" d="m204,363.91c.37,1,1.54,1.82,2.47,1.64,1.19-.23,1.59-2.09,2.47-4.93,2.07-6.74,2.73-5.71,3.29-9.04.52-3.12-.27-2.72,0-9.86.11-2.98.28-3.92,0-5.75-.14-.91-.74-6.36-2.47-6.57-1.11-.13-2.19,1.94-2.47,2.47-.92,1.76-1.06,3.49-.82,7.4.21,3.38.46,4.37.82,9.04.27,3.38.26,4.42,0,5.75-.39,1.99-1.18,3.86-1.64,4.93-1.23,2.89-2.08,3.77-1.64,4.93Z"/>
        <path class="cls-1" d="m206.46,375.42c-.93-.6-.33-3.56.82-5.75.82-1.56,1.32-1.57,2.47-3.29,1.36-2.04,1.13-2.73,2.47-5.75,1.98-4.49,3.08-4.31,3.29-6.57.22-2.48-1.07-2.95-.82-5.75.18-2.09,1.17-4.83,2.47-4.93,1.3-.1,2.95,2.43,3.29,4.93.41,3.03-1.39,3.83-2.47,9.04-.63,3.08-.08,3.17-.82,5.75-.88,3.05-2.28,5.12-3.29,6.57-1.92,2.77-3.62,4.12-4.93,4.93-1,.62-1.92,1.17-2.47.82Z"/>
        <path class="cls-1" d="m209.75,382.81c.48.46,4.66-3.16,5.75-4.11,4.25-3.68,6.37-5.52,8.22-8.22,1.18-1.72,5.2-7.6,4.93-14.79-.11-2.82-.78-3.4-.82-7.4-.02-2.4.2-4-.82-5.75-.8-1.37-2.36-2.82-3.29-2.47-.93.36-.86,2.39-.82,6.57.05,5.56.08,8.34,0,9.86-.11,2.11-.39,7.3-3.29,12.33-1.41,2.45-2.03,2.41-7.4,9.86-1.93,2.68-2.71,3.88-2.47,4.11Z"/>
        <path class="cls-1" d="m208.11,386.92c-.89,1.27-1.59,3.27-.82,4.11.57.62,1.81.44,3.29,0,5.23-1.56,9.09-5.05,9.86-5.75,3.51-3.23,7.73-7.19,10.68-13.97,1.53-3.51,2.1-6.37,2.47-8.22.7-3.62.98-7.48,0-11.51-.26-1.08-.81-3.26-1.64-3.29-.73-.03-1.39,1.58-1.64,2.47-.47,1.61-.15,2.68,0,4.93,0,0,.08,1.18,0,4.11-.16,6.08-5.22,13.23-5.75,13.97-3.22,4.47-5.93,8.25-10.68,9.86-1.7.58-4.2,1.06-5.75,3.29Z"/>
        <path class="cls-1" d="m209.75,394.32c.07.52,1.47.8,2.47.82,1.66.04,2.92-.63,3.29-.82,5.91-3.1,6.23-2.4,9.86-4.93,1.72-1.2,4.12-3.07,6.57-5.75,2.45-2.68,7.29-8.09,9.04-16.44.84-4.02.54-6.67,0-11.51-.14-1.21-.49-3.91-2.47-5.75-.43-.4-1.1-1.01-1.64-.82-.91.31-.85,2.61-.82,5.75.03,2.74,0,5.48,0,8.22.02,5.79-2.54,10.35-4.11,13.15-1.47,2.62-4.72,8.4-10.68,11.51-3.05,1.58-5.88,3.59-9.04,4.93-.89.38-2.55,1.05-2.47,1.64Z"/>
        <path class="cls-7" d="m123.05,361.04c-4.14-1.42-4.81-1.57-5.75-1.64-1.44-.11-4.47-.34-6.57,1.64-.39.37-1.64,1.54-1.64,3.29,0,1.76,1.27,2.94,1.64,3.29,1.75,1.63,4.09,1.64,5.75,1.64,1.52,0,2.78-.23,4.93-.82,4.54-1.25,5.12-1.9,7.4-2.47,5.06-1.27,9.69.06,12.33.82,3.52,1.01,3.21,1.64,6.57,2.47,3.66.9,5.15.44,9.86.82,2.06.17,4.66.66,9.86,1.64,10.17,1.93,11.52,2.74,12.33,3.29.88.6,5.11,3.5,5.75,8.22.23,1.67-.12,3.03-.82,5.75-.18.71-1.07,4.06-3.29,8.22-1.78,3.33-3.1,5.79-5.75,8.22-1.49,1.37-2.71,2.08-4.11,4.11-.5.73-2.59,3.76-1.64,4.93.59.72,2.21.59,3.29,0,1.07-.59,1.31-1.46,2.47-3.29.98-1.54,1.37-1.81,2.47-3.29,2.59-3.52,4.16-7.21,4.93-9.04.98-2.33,1.47-4.02,2.47-7.4,1.28-4.37,1.53-6.25,1.64-7.4.24-2.46.35-3.69,0-4.93-1.3-4.55-6.92-6.62-9.04-7.4-1.52-.56-2.04-.57-9.86-1.64-8.92-1.23-9.84-1.43-10.68-1.64-4.78-1.2-4.48-1.91-9.86-3.29-3.02-.77-5.93-1.52-9.86-1.64-4.03-.13-4.43.55-7.4,0-1.47-.27-1.65-.49-7.4-2.47Z"/>
      </g>
      <g>
        <path class="cls-2" d="m26.92,266.15c-1.11-.6-2.95.81-4.22,1.79-.8.62-3.37,2.72-5.09,6.7-.69,1.61-1.44,3.34-1.34,5.7.04.99.17,3.39,1.92,5.5,1.58,1.91,3.57,2.49,4.61,2.78,1.57.43,3.58.99,5.28-.07,2.12-1.32,2.42-4.29,2.59-6.03.23-2.3-.23-4.1-.67-5.83-.75-2.92-1.31-2.84-1.92-5.5-.71-3.13-.22-4.54-1.15-5.04Z"/>
        <path class="cls-2" d="m25.19,258.6c-.05-.97-.94-1.69-2.59-2.65-2.7-1.57-5.01-2.36-6.62-2.91-5.85-1.98-6.22-2.09-7.1-2.11-1.64-.05-4.18-.12-6.24,1.66-2.24,1.94-2.49,4.83-2.59,6.03-.34,3.97,1.66,6.83,2.5,8.02,1.12,1.6,2.69,3.84,5.66,4.5.52.12,3.26.67,5.76-.87,2.3-1.41,1.48-2.8,4.13-5.11,1.87-1.63,3.16-1.71,5.66-4.18,1-.98,1.47-1.64,1.44-2.39Z"/>
        <path class="cls-2" d="m40.84,269.12c-.94-.44-1.99-1.04-3.55-1.06-1.27-.01-1.73.37-3.26.2-1.16-.13-1.54-.42-2.02-.13-.73.44-1.03,1.83-.67,2.85.52,1.48,2.19,1.5,4.61,2.78,2.12,1.12,3.39,2.46,4.9,4.04,2.36,2.48,2.09,3.27,4.7,6.09,1.74,1.89,2.62,2.83,4.13,3.57,2.57,1.27,3.78.44,6.34,1.65,1.95.93,3.06,2.27,4.13,3.57,2.41,2.93,2.09,4.49,4.51,8.15.93,1.4,1.84,2.39,3.65,4.37,3.47,3.79,5.21,5.69,7.49,6.69,1.17.51,5.45,2.38,9.31.19,3.76-2.14,4.57-6.67,4.8-7.96.78-4.36-.89-7.81-2.59-11.33-.88-1.81-2.44-4.96-5.76-7.81-2.5-2.15-4.89-3.18-6.14-3.7-3.36-1.41-4.11-.88-9.12-2.24-2.27-.62-5.62-1.55-9.41-3.5-4.42-2.28-3.69-2.99-6.91-4.17-3.96-1.45-5.45-.53-9.12-2.24Z"/>
        <path class="cls-2" d="m30.08,262.63c-.35-.83,1.35-2.31,1.44-2.39,1.2-1.03,2.19-1.1,4.22-1.79,2.78-.95,2.6-1.39,4.22-1.79,2.19-.55,3.35.05,6.05.39,1.88.24,4.1.07,8.54-.27,6.13-.47,5.09-.96,9.02-1.07,2.74-.07,4.11.14,5.76-.87,1.69-1.03,1.53-2.02,3.17-3.52,1.75-1.59,3.85-2.01,7.97-2.79,3.91-.74,5.86-1.11,7.78-.74,3.98.77,6.45,3.35,7.68,4.63,2.96,3.08,4,6.42,4.51,8.15.61,2.05,1.55,5.17.77,9.14-.3,1.53-1.29,6.56-5.76,9.55-.92.62-3.94,2.45-7.49,2-1.96-.25-1.91-.92-5.86-2.45-2.82-1.09-5.2-1.66-7.1-2.11-3.8-.91-3.59-.52-5.57-1.19-3.18-1.08-3.61-2.05-6.62-2.91-2.42-.69-2.26-.09-4.8-.72-2.84-.71-4.88-1.91-8.16-3.84-2.9-1.7-2.55-1.79-3.84-2.32-2.26-.92-2.68-.39-7.58-1.32-3.91-.74-3.51-1.06-5.57-1.19-1.41-.09-2.54,0-2.78-.59Z"/>
        <path class="cls-2" d="m29.41,256.8c-1.09-.68-.93-3.01-.38-4.57.49-1.41,1.33-2.31,3.65-4.31,3.06-2.65,4.16-3.28,6.14-4.98.78-.67,3.18-2.74,5.37-5.44,2.49-3.08,2.97-4.83,4.8-7.96,1.83-3.14,3.97-5.49,8.25-10.21,5.08-5.6,7.7-8.44,11.52-10.42,1.98-1.02,4.92-2.5,8.73-2.33,3.24.15,5.9,1.43,6.34,1.65,1.3.64,1.45.95,3.07,1.85,3.09,1.72,4.25,1.57,5.86,2.45,3.42,1.86,4.54,6.04,5.57,9.87.71,2.66,1.47,5.47.77,9.14-.16.87-1.31,6.45-6.24,10.34-3.13,2.47-6.37,3.15-8.45,3.59-3.67.77-4.24-.03-7.78.74-3.41.74-3.73,1.68-8.45,3.59-4.04,1.64-7.23,2.93-11.23,2.99-3.98.07-3.76-1.16-9.6-1.45-4.44-.22-6.66-.33-9.02,1.07-1.44.85-2.34,1.91-5.18,3.38-2.7,1.4-3.39,1.22-3.74,1Z"/>
        <path class="cls-2" d="m23.75,252.3c-1.19-.84.11-4.84,1.05-6.96.63-1.41,1.7-3.06,3.84-6.37,1.4-2.15,1.61-2.36,1.92-3.18.94-2.45.31-3.83.57-6.16.33-2.87,1.6-3.65,3.07-6.83,1.25-2.71,1.57-5.34,2.21-10.61.6-4.99.21-5.45.86-13.59.46-5.72.8-7.43,1.25-9.01.95-3.41,1.69-6.05,4.03-8.42,3.99-4.04,9.28-3.93,9.69-3.92,4.95.18,7.98,3.32,8.93,4.3,4.42,4.58,4.42,10.71,4.42,13.51,0,1.55-.15,7.92-4.12,13.79-1.88,2.79-2.61,2.47-6.81,7.83-2.93,3.73-2.89,4.28-5.09,6.7-3.59,3.96-4.46,3.35-7.1,6.57-2.06,2.52-1.32,2.64-5.28,8.75-3.15,4.86-4.13,5.58-4.61,5.9-2.36,1.59-4.28,1.48-5.18,3.38-.69,1.45-.11,2.63-1.15,3.65-.68.66-1.89,1.1-2.5.67Z"/>
        <path class="cls-2" d="m18.95,251.58c-1.67-.43-2.38-2.62-3.17-5.17-.6-1.95-.36-2-.86-3.78-.69-2.41-1.71-4.17-3.75-7.68-.53-.92-1.17-2.02-2.11-3.44-2.53-3.84-3.13-3.85-3.94-5.63-.66-1.46-.76-3.34-.96-7.09-.2-3.67-.29-5.51.29-7.42.31-1.04,1.1-3.63,3.36-5.57,1.68-1.44,2.28-.89,4.7-2.59,2.62-1.84,2.36-2.79,4.41-3.85,2.39-1.23,4.76-.98,5.76-.87.94.1,3.54.42,5.86,2.45,2.42,2.12,3.07,4.82,3.46,6.42.64,2.64.41,4.77.19,6.63-.14,1.23-.4,2.73-2.97,10.14-1.55,4.46-2.32,6.69-3.26,8.88-1.53,3.56-1.88,3.74-2.59,6.03-1.09,3.53-1.64,5.29-1.53,7.75.08,1.85.48,3.19-.38,4.11-.61.65-1.66.88-2.5.67Z"/>
      </g>
      <path class="cls-6" d="m124.97,208.7c1.8-2.29,3.15-2.18,4.27-4.66,1.14-2.52,1.3-6.06-.39-8.94-2.99-5.11-9.9-4.93-10.96-4.9-2.59.07-2.71.8-8.84,2.62-7.2,2.14-8.28,1.5-10.16,3.13-2.89,2.5-4.76,7.85-3.07,11.77,2.52,5.85,11.42,4.95,14.39,11.91.38.89.73,2.07,1.92,3.05,2.12,1.75,6.18,2.29,8.53.53,3.72-2.8-.13-8.89,4.29-14.51Z"/>
      <path class="cls-4" d="m56.63,162c.93,3.6,8.12,1.89,12,8,2.86,4.51.11,7.31,3,14,.81,1.88,3.42,7.93,9,10,3.11,1.15,7.11.12,15-2,3.89-1.04,4.17-1.31,13-4,9.48-2.89,11.35-3.25,14-3,4.21.4,4.56,1.8,9,2,2.22.1,8.33.38,11-3,2.36-2.98-.21-5.94,0-13,.19-6.24,2.39-10.7,6-18,2.63-5.32,4.72-9.54,9-14,4.75-4.95,7.94-5.76,9-10,1.2-4.8-1.51-9.21-2-10-1.98-3.22-4.62-4.65-9-7-2.73-1.47-6.18-3.33-11-4-1.56-.22-4.71-.51-12,1-11.38,2.36-10.89,4.58-17,5-8.99.62-11.2-4.1-18-2-5.21,1.61-8.3,5.74-10,8-4.54,6.05-3.97,10.47-6,16-6.02,16.41-26.55,19.97-25,26Z"/>
      <path class="cls-10" d="m151.63,136c1.71-.33,3.4-.67,5-2,.43-.36,3.06-2.63,3-6-.06-3.06-2.31-5.98-5-7-3.49-1.32-5.79,1.29-15,4-4.42,1.3-6.62,1.95-9,2-6.97.14-8.35-3.49-17-5-4.45-.78-9.3-1.62-13,1-1.86,1.32-2.13,2.59-6,12-4.15,10.09-4.83,11.03-6,12-3.49,2.9-5.65,1.34-11,5-2.75,1.88-5.89,4.03-6,7-.1,2.82,2.63,3.34,5,9,.55,1.32,1.48,3.6,1.69,6.63.29,4.24-1,7.28-.69,7.37.27.08,1.42-2.26,2-5,.36-1.69.89-4.22,0-7-.67-2.1-1.39-1.96-3-5-1.53-2.89-2.68-5.07-2-7,.22-.63.72-1.45,6-4,5.15-2.49,6.02-2.36,8-4,.51-.43,2.5-2.14,4-5,1.22-2.33.95-3.18,2-6,.56-1.51,1.66-4.46,4-7,3.25-3.54,7.35-4.6,9-5,4-.98,7.3-.44,10,0,4.3.7,4.45,1.59,8,2,4,.46,7.13-.3,10-1,3.17-.77,6.46-1.97,12-4,3-1.1,4.42-1.67,6-1,2.17.92,3.97,3.93,3,6-.51,1.1-1.79,1.89-3,2-1.71.15-2.24-1.15-4-1-1.1.09-2.55.73-3,2-.54,1.54.63,3.36,2,4,.87.4,1.67.26,3,0Z"/>
      <path class="cls-3" d="m137.63,102c1.29-.3,4.53-.85,12,2,8.64,3.3,9.07,5.87,17,9,3.93,1.55,7.78,3.08,13,3,7.42-.11,12.72-3.37,17-6,5.64-3.47,9.63-5.92,10-10,.45-4.95-4.71-8.99-6-10-3.83-3-6.49-2.78-17-5-10.91-2.3-16.36-3.45-21-6-5.23-2.87-6.16-4.84-11-6-5.19-1.25-6.73.38-12-1-3.1-.81-4.52-1.89-11-6-7.75-4.92-11.62-7.37-13-8-10.13-4.62-20.35-2.57-23-2-9.72,2.08-15.93,7.33-19,10-6.17,5.35-4.95,7.09-11,13-10.02,9.78-15.3,6.87-22,15-.36.43-8.61,10.73-7,23,.85,6.5,3.53,6.33,6,17,1.78,7.67,1.05,10.58,4,14,2.87,3.33,7.6,5.28,12,5,5.52-.36,9.26-4.16,15-10,2.29-2.33,3.63-3.7,5-6,3.52-5.94,1.9-9.14,4-15,.19-.53,4.11-11.01,13-14,3.44-1.15,7.29-.77,15,0,5.71.57,6.34,1.22,10,1,1.11-.07,6.02-.42,12-3,4.86-2.1,4.9-3.28,8-4Z"/>
    </g>
  </g>
</svg>