<?xml version="1.0" encoding="UTF-8"?>
<svg id="Layer_2" data-name="Layer 2" xmlns="http://www.w3.org/2000/svg" viewBox="0 0 179.84 150.98">
  <defs>
    <style>
      .cls-1 {
        fill: #9d004c;
      }

      .cls-1, .cls-2, .cls-3, .cls-4, .cls-5, .cls-6, .cls-7, .cls-8, .cls-9 {
        stroke-width: 0px;
      }

      .cls-2 {
        fill: #c9f2ff;
      }

      .cls-3 {
        fill: #b3403c;
      }

      .cls-4 {
        fill: #ad6971;
      }

      .cls-5 {
        fill: #ff957f;
      }

      .cls-6 {
        fill: #ffe9fc;
      }

      .cls-7 {
        fill: #ffa9bb;
      }

      .cls-8 {
        fill: #fcd3e0;
      }

      .cls-9 {
        fill: #0500c9;
      }
    </style>
  </defs>
  <g id="Layer_1-2" data-name="Layer 1">
    <g>
      <path class="cls-5" d="m54.23,8c-.19.16,2.07,2.75,5.2,8.49,0,0,.37.69.8,1.51,3.62,6.96,7,16,7,16,2.74,7.32,3.65,11.06,6,13,.04.04,1.43,1.18,3,3,1.34,1.55,2,2.32,2,3-.01,2.53-6.87,4.43-9,5-5.87,1.58-7.74,1.02-15,2-7.65,1.03-12.52,2.59-16,4-3.7,1.5-9.21,3.74-9,6,.22,2.37,6.62,3.56,9,4,1.82.34,8.9,1.51,19-1,7.64-1.9,13-4,13-4,4.16-1.63,6.91-3.07,8-2,.2.2,1.01,1.14-1,6-1.95,4.73-4.35,7.82-6,10-9.48,12.52-7.57,12.49-11,15-2.59,1.9-5.7,3.39-7,7-.21.59-1.04,2.87,0,4,1.18,1.28,4.07.31,5,0,4.67-1.56,6.97-5.07,11-10,4.67-5.71,3.71-3.61,9-10,7.45-9,11.18-13.5,13-19,1.54-4.64.9-6.11,3-9,2.34-3.23,5.21-4.25,12-7,17.5-7.08,14.19-6.63,19-8,6.86-1.96,10.93-2.11,14-6,1.73-2.18,2.85-5.19,2-6-1.03-.98-4.11,1.97-10,4-4.91,1.7-5.2.49-12,2-5.03,1.12-9.21,2.75-15,5-5.17,2.01-8.62,3.63-9,3-.33-.54,2.18-1.87,4-5,1.81-3.12.8-4.35,2-10,.71-3.37,1.81-6.24,4-12,1.45-3.8,1.81-4.3,2-6,.28-2.48-.27-3.29-1-9-.54-4.25-.5-5.94-1-6-.64-.08-1.2,2.67-3,7-1.24,2.99-1.58,3.14-4,8-2.66,5.35-3.99,8.03-5,11-.83,2.44-1.55,5.3-3,11-1.17,4.6-1.58,6.6-3,7-1.66.47-3.6-1.55-5-3-2.76-2.86-3.42-5.24-5-8-1.62-2.83-2.97-3.94-7-8-9.38-9.47-15.67-17.28-16-17Z"/>
      <path class="cls-9" d="m63.23,53c.57-1.33.05-3.24-1-7-1.98-7.08-2.98-10.62-6-14-.65-.72-6.93-7.52-16-7-6.71.38-11.3,4.55-14,7-6.49,5.88-5.03,9.64-12,15-4.08,3.14-5.87,2.85-8,6-1.96,2.9-1.51,4.72-3,12-1.69,8.24-2.63,7.64-3,12-.33,3.84-.87,10.26,3,15,3.96,4.84,10.57,5.54,15,6,7.2.75,8.47-1.52,15,0,5.15,1.2,5.84,2.96,10,3,5.77.06,10.09-3.27,11-4,3.68-2.96,2.95-4.85,8-12,4.06-5.74,8-6,7-10-.14-.55-2-1-11,1-4.92,1.09-6.73.82-10,1-3.65.2-3.42-.11-8,0-6.99.17-7.99.82-10,0-3.17-1.3-6.25-4.62-6-8,.06-.88.42-2.7,3-5,4.06-3.62,8.65-3.97,16-5,17.26-2.42,19.28-4.32,20-6Z"/>
      <g>
        <path class="cls-4" d="m112.74,144.91c1.23-1.05,2.65-1.28,3.7-1.44,3.09-.46,5.13-.61,5.13-.61,3.7-.26,5.55-.39,6.84-.81,2.53-.82,2.67-1.69,6.34-3.08,2.09-.79,3.59-1.36,4.08-.81.7.78-.7,3.82-3.09,5.36-1.08.7-2.88.95-6.45,1.43-2.75.37-2.69.25-5.13.61-3.09.45-4.63.67-5.79,1.02-1.6.47-2.54.93-4.08.81-.28-.02-2.32-.17-2.48-1.04-.11-.56.6-1.16.94-1.44Z"/>
        <path class="cls-1" d="m105.98,149.54c-1.75.65-2.24,1.37-3.7,1.44-1.83.08-3.18-.97-3.53-1.25-1.03-.81-1.46-1.78-2.31-3.72-.61-1.39-.92-2.08-.88-2.89.06-1.39.82-1.9,1.49-3.51.71-1.68.43-2.44.72-4.75.29-2.3.71-2.72,1.66-6.19.45-1.66.34-1.5,1.82-8.88,1.25-6.23,1.31-6.2,1.55-7.84.66-4.47.25-4.54.89-7.43.57-2.56,1.31-4.43,2.6-7.63.78-1.94,1.49-3.71,2.71-5.98,1.41-2.63,2.2-4.12,3.75-5.77,1.02-1.08.89-.67,4.91-3.91,1.63-1.31,3.27-2.61,4.91-3.91,1.21-.96,2.29-1.83,3.97-2.47,1.12-.43,2.03-.57,2.37-.61.43-.06,2.32-.31,3.8.22,1.74.62,2.14,2.04,3.75,4.55.89,1.39,2.27,3.55,4.13,5.17,2.06,1.8,4.33,2.52,8.88,3.95,2.61.82,2.88.71,6.67,1.88,3.22.99,4.86,1.51,6.01,2.29.77.52,3.29,2.36,4.52,5.8.9,2.52.66,4.66.44,6.61-.35,3.06-1.29,5.32-3.15,9.7-1.32,3.12-1.57,3.2-2.71,5.98-1.53,3.75-1.9,5.61-2.6,7.63-2.31,6.65-6.9,11.21-9.11,13.4-2.83,2.81-5.91,5.86-10.87,7.61-2.89,1.02-5.72,1.35-8.16,1.63-2.24.26-4.43.5-7.22.19-1.83-.2-1.58-.38-5.24-1.05-3.14-.57-4.76-.86-6.95-.85-2.33.01-3.54.02-5.13.61Z"/>
        <path class="cls-6" d="m122.67,99.61c-2.29,1.08-3.36,3.36-4.14,5.15-1.99,4.54-2.44,6.54-3.81,10.11-1.99,5.19-2.84,5.66-3.53,9.08-.52,2.54-.94,4.62-.22,7.02,1.35,4.57,5.71,6.65,7.38,7.46,1.78.85,5.54,2.26,10.09,1.47,2.93-.51,5.23-1.76,8.05-3.28,1.88-1.02,3.28-1.98,3.97-2.47,2.25-1.59,3.78-3.04,4.25-3.5,2.39-2.31,4.68-4.52,6.02-8.04.42-1.11,1.48-4.01.89-7.43-.29-1.68-.65-1.59-3.58-7.24-2.17-4.19-2.42-5.1-3.86-6.21-1.14-.88-2.42-1.28-4.96-2.08-2.43-.76-4.47-1.4-7.33-1.47-2.25-.05-3.98.27-6.84.81-1.68.31-2.09.48-2.37.61Z"/>
        <path class="cls-1" d="m122.75,103.43c-1.8,1.7-2.09,3.7-2.71,5.98-.35,1.29-1.32,3.54-3.26,8.05-2.66,6.17-3.51,6.72-3.53,9.08-.03,3.27,1.59,5.62,2.15,6.41.7.99,2.77,3.58,6.5,4.56,2.73.72,5.11.24,7.22-.19,1.75-.35,3.31-.9,5.4-1.64,1.93-.68,2.89-1.02,3.7-1.44,2.95-1.54,4.64-3.76,5.85-5.35.87-1.14,2.44-3.25,3.37-6.39.69-2.33.72-4.19.72-4.75,0-3.04-.91-5.17-1.87-7.44-1.19-2.82-1.82-4.3-3.47-5.59-1.18-.92-2.44-1.31-4.96-2.08-2.81-.86-5.05-1.14-6.29-1.26-2.66-.25-4.26-.38-6.18.4-.48.19-1.6.66-2.65,1.64Z"/>
        <path class="cls-1" d="m155.3,64.28c-.94-.82-1.69-1.62-2.59-2.69-3.25-3.89-2.95-4.83-4.9-6.42-1.18-.96-2.89-2.35-4.96-2.08-2.97.38-4.82,3.9-6.12,6.39-.97,1.85-2.45,4.66-2.21,8.26.26,3.88,2.37,6.34,4.74,9.1.98,1.14,4.31,4.84,10.14,7.46,4.14,1.86,7.56,2.3,10.86,2.71,5.56.7,7.88,0,8.93-.39.93-.34,2.87-1.08,4.63-2.88,2.86-2.92,3.13-6.45,3.26-8.05.16-2,.45-5.85-1.87-7.44-.81-.56-2.51-.58-5.9-.64-3.04-.05-3.35.15-5.51-.02-2.2-.17-3.61-.28-5.24-1.05-1.35-.63-2.28-1.44-3.25-2.28Z"/>
        <path class="cls-1" d="m165.35,49.43c-1.48-.8-2.21-2.01-2.98-3.31-1.89-3.23-1.12-4.7-2.81-6-1.16-.89-2.8-1.16-4.19-.84-2.82.66-4.14,3.67-4.52,4.53-1.79,4.06-.13,8.03.66,9.92.65,1.55,3.05,7.29,9.59,9.53,1.29.44,7.07,2.23,12.35-.79,1.36-.78,4.32-2.47,4.8-5.56.38-2.43-.87-4.99-2.81-6-.99-.52-1.27-.16-5.9-.64-2.97-.3-3.61-.53-4.19-.84Z"/>
        <path class="cls-1" d="m171.31,35.4c-.39-.56-.95-1.41-1.54-2.48-1.16-2.11-1.24-2.95-1.93-3.1-1.12-.26-2.77,1.54-3.59,3.09-1.52,2.9-.58,5.89-.22,7.02.37,1.18.93,2.94,2.7,4.34.47.37,2.56,1.93,5.62,1.67.98-.09,3.4-.29,5.02-2.26,1.5-1.81,1.79-4.47.61-6.4-.21-.35-1.2-1.86-3.25-2.28-1.62-.33-2.96.2-3.42.4Z"/>
        <path class="cls-1" d="m171.98,24.67c-.36,1.38-.2,2.45-.17,2.68.13.84.47,3.01,2.31,3.72,1.13.44,2.47.19,3.42-.4,1.54-.95,1.89-2.67,2.15-3.92.3-1.43.09-2.61-.33-4.96-.39-2.2-.6-3.31-1.27-3.51-.91-.29-2.1.88-3.31,2.06-.99.96-2.28,2.26-2.81,4.33Z"/>
        <path class="cls-8" d="m105.19,140.14c-.85-.24-1.04-1.99-.82-7.23.27-6.32.86-11.08.94-11.77.48-3.77.92-6.42,1.44-9.5.89-5.27,1.35-7.94,2.1-9.91,1.06-2.77,2.19-5.72,4.97-8.25,3.13-2.85,4.51-1.64,9.65-5.14,3.75-2.55,5.09-4.59,6.62-4.11,1.32.41,2.15,2.5,1.65,4.14-.65,2.14-3.28,2.47-7.94,4.93-3.68,1.94-6.72,3.54-8.88,6.38-1.98,2.6-1.12,3.47-3.43,10.73-1.81,5.7-2.48,5.61-4.09,11.14-1.56,5.37-2.34,8.05-1.72,10.53.74,2.94,2.61,4.98,1.48,6.82-.45.74-1.36,1.41-1.99,1.23Z"/>
        <path class="cls-8" d="m129.15,96.01c-.37-1.14,2.13-3.1,3.86-4.12,1.68-.99,1.82-.61,4.36-1.85,2.66-1.3,3.6-2.25,4.36-1.85.63.34.82,1.45.49,2.27-.47,1.19-1.9,1.49-3.97,2.47-1.05.5-.83.56-4.63,2.88-1.08.66-1.97,1.19-3.03,1.02-.18-.03-1.22-.19-1.43-.83Z"/>
        <path class="cls-8" d="m147.07,90.9c-.37,0-1.42-.03-2.37.61-.92.62-.76,1.2-1.88,2.89-1.14,1.71-1.84,1.94-1.88,2.89-.03.88.54,1.82,1.16,1.86.25.02.53-.12,2.26-2.27,1.05-1.3,1.14-1.48,1.6-1.85.77-.62,1.05-.54,1.99-1.23.81-.6,1.69-1.26,1.6-1.85-.11-.74-1.64-1.02-2.48-1.04Z"/>
        <path class="cls-8" d="m133.47,145.8c3.64-1.49,7.4-3.63,8.99-4.73,3.38-2.32,5.1-5.52,6.68-8.45,1.49-2.77,1.03-2.95,2.71-5.98,2.27-4.1,3.29-4.09,4.69-7.22.7-1.55,2-4.46,1.55-7.84-.36-2.73-1.49-2.89-2.15-6.41-.46-2.45-.94-5.02.61-6.4,1.39-1.24,4.04-1.17,5.51.02.74.59,1.35,1.6,1.38,5.17.03,3.38.06,7.02-1.99,11.56-1.56,3.47-2.39,3.15-4.97,8.25-1.41,2.78-1.21,2.99-2.71,5.98-1.67,3.35-2.82,5.66-4.97,8.25-2.71,3.26-5.33,4.96-8.5,7-1.77,1.14-4.02,2.43-6.73,2.46-.31,0-2.03,0-2.1-.42-.06-.41,1.43-1.01,1.99-1.23Z"/>
        <path class="cls-8" d="m149.38,104.95c-1.01-.07-1.44-2.01-1.54-2.48-.11-.51-.62-2.81.72-4.75.66-.95,1.02-.74,2.26-2.27.91-1.12.97-1.54,1.6-1.85,1.07-.53,2.72-.24,3.14.63.4.8-.37,1.9-1.49,3.51-1.51,2.16-2.12,2.01-2.54,3.3-.43,1.3-.01,2.1-.83,3.1-.15.19-.71.86-1.32.82Z"/>
        <path class="cls-8" d="m136.83,71.45c-.26-1.14.03-2.08.17-2.68.5-2.13-.26-2.31.06-4.34.33-2.07,1.39-3.53,2.43-4.95,1.12-1.53,2.06-2.78,3.59-3.09.64-.13,1.74-.16,2.1.42.07.11.31.57-.55,2.06-.96,1.66-1.77,1.98-3.2,3.71-.96,1.16-1.51,1.82-1.88,2.89-.54,1.56-.46,3.3-.44,3.72.07,1.28.32,1.94-.17,2.68-.29.44-.85.92-1.32.82-.51-.11-.68-.85-.77-1.24Z"/>
        <path class="cls-8" d="m139.42,74.15c.04.51.31,1.16.77,1.24.23.04.53-.06,1.32-.82.84-.81,1.33-1.5,1.6-1.85.82-1.08,1.11-1.05,2.26-2.27,1.66-1.74,1.26-2,2.54-3.3,1.87-1.9,3.12-1.75,3.59-3.09.4-1.16-.07-2.64-.88-2.89-.56-.17-1.48.57-3.31,2.06-1.47,1.2-2.2,1.8-2.92,2.68-.54.66-.33.54-1.88,2.89-.63.96-1.22,1.94-1.88,2.89-.83,1.19-1.27,1.71-1.21,2.48Z"/>
        <path class="cls-8" d="m144.98,80.15c-.64-.32-.75-1.05-.77-1.24-.07-.59.16-1.26,1.21-2.48,1.45-1.68,1.92-1.48,2.92-2.68,1.01-1.21.63-1.53,2.15-3.92,1.25-1.96,1.82-2.24,2.26-2.27.58-.04,1.2.32,1.43.83.41.88-.42,2.04-1.49,3.51-1.46,2-1.85,1.77-3.2,3.71-1.12,1.6-1.68,2.4-1.88,2.89-.22.52-.38,1.07-.94,1.44-.42.28-1.12.5-1.71.2Z"/>
        <path class="cls-8" d="m158.77,69.86c-.22-.51-.86-.83-1.43-.83-1.56,0-2.73,2.29-2.92,2.68-.55,1.08-.3,1.27-.83,3.1-.23.78-.74,2.04-1.77,4.54-.85,2.07-1.16,2.77-.83,3.1.33.33,1.17.17,1.71-.2.62-.43.6-.97,1.21-2.48.07-.18,0,.02,1.21-2.48,1.14-2.34,1.08-2.25,1.21-2.48.78-1.32,1.15-1.5,1.88-2.89.72-1.38.67-1.81.55-2.06Z"/>
        <path class="cls-8" d="m163.63,70.29c-.68-.26-1.83,1.05-1.99,1.23-1.08,1.23-1.34,2.66-1.49,3.51-.25,1.44.08,1.42-.17,2.68-.33,1.7-1.17,3.01-1.49,3.51-1.1,1.69-2.07,2.18-1.88,2.89.14.53.85.87,1.43.83.98-.07,1.63-1.19,2.26-2.27.91-1.55.64-1.91,1.49-3.51.92-1.73,1.35-1.53,1.88-2.89.48-1.23.47-2.25.44-3.72-.02-1.31-.04-2.1-.49-2.27Z"/>
        <path class="cls-8" d="m169.8,69.89c-.28-.51-.91-.98-1.43-.83-.54.15-.77.89-.94,1.44-.36,1.22-.22,2.2-.17,2.68.19,1.84-.25,3.65-.72,4.75-.53,1.24-.95,1.24-2.81,4.33-.23.38-.68,1.16-.55,2.06.07.5.35,1.22.77,1.24.41.02.64-.62,1.6-1.85.98-1.26,1.15-1.13,1.6-1.85.65-1.07.29-1.39.83-3.1.6-1.91,1.16-1.89,1.49-3.51.23-1.14-.08-1.03.17-2.68.22-1.46.53-2.02.17-2.68Z"/>
        <path class="cls-8" d="m173.22,69.49c-.22.19-.2.46-.28,1.03-.13.91-.31,1.12-.55,2.06-.39,1.54-.13,1.83-.44,3.72-.26,1.54-.39,2.31-.83,3.1-.73,1.28-1.53,1.57-1.88,2.89-.02.09-.36,1.41.11,1.65.51.26,1.66-.9,1.99-1.23.9-.91,1.47-1.92,1.88-2.89.39-.94.29-1.05.83-3.1.36-1.39.64-2.21,1.11-4.13.43-1.76.49-2.26.17-2.68-.48-.63-1.64-.82-2.1-.42Z"/>
        <path class="cls-8" d="m158.24,40.95c-1.36-.42-2.34-.16-2.76,0-1.72.61-2.51,2.26-3.2,3.71-.67,1.4-1.08,2.99-.83,3.1.17.07.53-.6,1.6-1.85,1.33-1.56,2-2.34,2.92-2.68,1.04-.38,1.6-.03,2.37-.61.54-.41.8-1,.94-1.44"/>
        <path class="cls-8" d="m159.89,45.08c-.03-.5-.32-1.09-.77-1.24-.36-.12-.78.06-2.65,1.64-1.18,1-1.78,1.57-2.92,2.68-.87.84-1.24,1.23-1.6,1.85-.42.73-.86,1.86-.55,2.06.37.25,1.73-1,1.99-1.23.98-.9.82-1.11,1.6-1.85,1.48-1.41,3.31-2.06,3.31-2.06.4-.14.97-.31,1.32-.82.3-.43.29-.89.28-1.03Z"/>
        <path class="cls-8" d="m162.21,48.8c.21-.38.44-.81.28-1.03-.26-.34-1.31.05-1.71.2-1.15.43-1.98,1.07-2.65,1.64-1.35,1.16-1.14,1.29-2.26,2.27-1.71,1.49-2.96,1.88-2.92,2.68.01.25.15.53.39.62.45.17,1.01-.48,1.99-1.23.35-.27,1.11-.73,2.65-1.64,1.57-.94,1.87-1.04,2.65-1.64.24-.19,1.03-.82,1.6-1.85Z"/>
        <path class="cls-8" d="m164.79,51.5c.05-.58-.35-1.22-.77-1.24-.47-.02-.74.74-1.6,1.85-.54.71-1.12,1.23-2.26,2.27-.53.48-1.57,1.39-2.92,2.68-.5.48-.91.88-.94,1.44-.02.54.32,1.19.77,1.24.44.05.76-.47,2.26-2.27.71-.85,1.09-1.3,1.6-1.85,1.18-1.27,2.26-2.27,2.26-2.27,1.12-1.03,1.56-1.29,1.6-1.85Z"/>
        <path class="cls-8" d="m168.99,52.33c-.09-.49-.8-.89-1.43-.83-.91.08-1.53,1.08-2.26,2.27-.74,1.2-.56,1.32-1.21,2.48-1.01,1.78-2.39,3.15-2.54,3.3-1.04,1.02-1.68,1.35-1.6,1.85.08.5.82.83,1.43.83.98,0,1.68-.87,1.99-1.23.73-.88.51-1.31,1.21-2.48.53-.86.65-.62,1.6-1.85,1.12-1.44.84-1.62,1.88-2.89.63-.76,1.01-1.04.94-1.44Z"/>
        <path class="cls-8" d="m172.4,51.93c-.27-.27-.77-.39-1.05-.21-.31.2-.28.72-.28,1.03,0,.89-.27,1.63-.83,3.1-.21.54-.99,1.47-2.54,3.3-1.53,1.8-2.04,2.32-1.88,2.89.16.53.85.87,1.43.83.9-.07,1.51-1.04,2.26-2.27.35-.56.46-.83,1.21-2.48.93-2.03,1.19-2.54,1.49-3.51.65-2.08.33-2.53.17-2.68Z"/>
        <path class="cls-8" d="m175.93,53.18c-.07-.58-.4-1.25-.77-1.24-.52.01-.92,1.38-.94,1.44-.42,1.48.34,1.84.22,3.31-.16,1.85-1.48,2.61-1.11,4.13.04.15.15.6.39.62.33.02.74-.8.94-1.44.33-1.06-.03-1.34.17-2.68.11-.79.35-1.48.55-2.06.37-1.08.63-1.43.55-2.06Z"/>
        <path class="cls-8" d="m167.67,32.5c.06-.07.5-.67.28-1.03-.17-.28-.68-.31-1.05-.21-.51.15-.77.56-1.6,1.85-.37.57-.67.87-.94,1.44-.08.17-.44.93-.28,1.03.11.07.44-.21.66-.41,1.01-.9.89-1.33,1.6-1.85.6-.44.94-.32,1.32-.82Z"/>
        <path class="cls-8" d="m168.83,34.37c.35-.18.56-.2.66-.41.19-.41-.22-1.16-.77-1.24-.48-.07-.92.39-1.32.82-.21.22-.55.62-.94,1.44-.68,1.43-.56,2.09-1.21,2.48-.24.14-.44.16-.66.41-.3.34-.45.89-.28,1.03.26.2,1.29-.45,1.99-1.23.33-.38.18-.32.94-1.44,1.03-1.51,1.4-1.75,1.6-1.85Z"/>
        <path class="cls-8" d="m170.37,36.85c.22-.65.38-.84.28-1.03-.14-.27-.66-.37-1.05-.21-.42.18-.48.59-.94,1.44-.22.42-.46.76-.94,1.44-.76,1.08-1.14,1.63-1.6,1.85-.23.11-.45.17-.66.41-.27.3-.46.8-.28,1.03.28.36,1.37-.07,1.71-.2.31-.12.83-.34,1.32-.82.39-.38.28-.47.94-1.44.58-.86.75-.92.94-1.44.15-.4.07-.42.28-1.03Z"/>
        <path class="cls-8" d="m173.13,36.86c-.01-.25-.15-.54-.39-.62-.42-.14-1,.47-1.32.82-.56.59-.83,1.19-.94,1.44-.41.98-.15,1.18-.55,2.06-.28.62-.68,1.12-.94,1.44-.57.71-.96.99-.94,1.44.01.25.15.54.39.62.44.14,1.06-.53,1.32-.82.37-.4.43-.62.94-1.44.69-1.13.72-.97.94-1.44.47-1.04.09-1.27.55-2.06.43-.73.97-.91.94-1.44Z"/>
        <path class="cls-8" d="m175.5,36.24s-.43.08-.66.41c-.35.49-.08,1.18.11,1.65.47,1.14,1,1.1,1.16,1.86.18.84-.3,1.64-.55,2.06-.71,1.2-1.72,1.59-1.6,1.85.1.24,1,.15,1.71-.2,1.06-.53,1.49-1.58,1.6-1.85.27-.67.24-1.34.17-2.68-.09-1.65-.35-2.08-.49-2.27-.12-.16-.7-.96-1.43-.83Z"/>
        <path class="cls-8" d="m173.62,39.13c-.47.18-.67.7-.94,1.44-.45,1.23-.15,1.38-.55,2.06-.43.73-.97.91-.94,1.44.01.25.15.54.39.62.4.14,1.01-.36,1.32-.82.52-.76.06-1.11.55-2.06.27-.52.49-.58.94-1.44.37-.7.35-.91.28-1.03-.16-.28-.67-.36-1.05-.21Z"/>
        <path class="cls-8" d="m173.35,29.83c-.8-.45-1.03-1.35-1.16-1.86-.09-.37-.36-1.5.17-2.68.32-.71.56-.63.94-1.44.43-.93.18-1.19.55-2.06.48-1.13,1.44-1.95,1.6-1.85.08.05-.05.32-.28,1.03-.39,1.2-.3,1.31-.55,2.06-.37,1.12-.62,1.05-1.21,2.48-.44,1.06-.66,1.59-.55,2.06.15.64.74,1.35,1.16,1.86.24.3.46.52.39.62-.09.14-.65.02-1.05-.21Z"/>
        <path class="cls-8" d="m177.83,19.31c-.01-.29-.18-.61-.39-.62-.28-.01-.54.55-.94,1.44-1.1,2.49-1.02,2.59-1.49,3.51-.68,1.31-1.06,1.52-1.21,2.48-.13.82,0,1.65.11,1.65.08,0,.1-.43.28-1.03.36-1.23.78-1.31,1.21-2.48.39-1.06.1-1.16.55-2.06.35-.7.89-1.38.94-1.44.56-.71.96-.98.94-1.44Z"/>
        <path class="cls-8" d="m175.06,29.63c-.31-.1-.33-.95-.11-1.65.19-.59.44-.73.94-1.44.68-.98,1-1.87,1.21-2.48.45-1.27.47-2.07.55-2.06.11,0,.29,1.29-.17,2.68-.44,1.35-.98,1.28-1.21,2.48-.17.83-.02,1.44-.55,2.06-.06.07-.42.49-.66.41Z"/>
        <path class="cls-8" d="m175.45,30.25c-.47.27-.67.33-.66.41,0,.14.55.26,1.05.21,1.11-.12,1.87-1.08,1.99-1.23.54-.71.65-1.51.83-3.1.16-1.36.01-1.27.17-2.68.18-1.64.46-2.57.17-2.68-.19-.07-.51.22-.66.41-.23.3-.27.62-.28,1.03-.02.87.1,1.15.11,1.65,0,.59-.15.56-.55,2.06-.3,1.13-.26,1.32-.55,2.06-.39.98-.71,1.28-.94,1.44-.29.2-.66.41-.66.41Z"/>
      </g>
      <path class="cls-2" d="m134.16,49.27c-5.55-.35-9.92,1.53-18,5-2.51,1.08-3.78,1.66-5.41,2.64-3.55,2.13-4.66,3.78-9.59,5.36-1.24.4-3.42,1.02-5,3-1.7,2.13-1.32,4.09-2,7-.5,2.14-2.33,4.76-6,10-4.05,5.78-6.07,8.67-8,10-2.86,1.97-5.41,2.57-6,5-.32,1.33-.01,3,1,4,1.17,1.15,2.68.82,6,1,2.8.15,4.86.26,7,1,4.1,1.41,4.79,3.84,8,4,.57.03,2.41.09,4-1,2.26-1.56,2.47-4.43,3-7,1.47-7.09,5.44-12.05,7-14,2.82-3.52,6.09-5.89,9-8,2.58-1.87,3.9-2.83,6-4,2.72-1.52,3.69-1.7,5-3,.5-.5,1.3-1.41,3-6,2.37-6.42,2-7.88,4-10,1.62-1.72,3.14-2.12,3-3-.26-1.61-5.62-1.98-6-2Z"/>
      <path class="cls-7" d="m78.16,106.27c-2.32-.28-2.5-2.38-5-3-2.32-.57-4.47.67-5,1-2.18,1.36-1.99,2.99-4,5-2.12,2.12-4.74,2.71-6,3-5.62,1.27-8.73-1.95-11,0-1.35,1.16-1.6,3.47-1,5,.66,1.69,2.36,2.48,7,4,7.59,2.49,7.46,1.85,10,3,5.06,2.3,8.39,6.15,10,8,3.1,3.58,3.06,5,6,7,1.45.98,3.3,1.66,7,3,4.16,1.51,5.2,1.47,6,1,1.41-.82,1.76-2.74,2-4,.5-2.69-.48-3.61,0-6,.31-1.56.88-1.94,2-4,1.78-3.28,2.38-6.09,3-9,1.24-5.81.3-7.51,0-8-.22-.37-.83-1.34-2-2-2.23-1.27-3.8.1-6-1-1.69-.85-1.11-1.83-3-3-2.39-1.49-5.23-1.1-6-1-2.39.32-2.5,1.18-4,1Z"/>
      <path class="cls-3" d="m89.16,53.27c-.66-.28-.42-3.39,1-6,1.48-2.72,3.26-3.12,5-5,2.11-2.28,1.51-3.89,3-11,1.59-7.61,2.44-6.52,5-17,.82-3.34,1.37-6.04,2-6,.56.03.99,2.19,1,4,.01,2.5-.78,3.97-2,7-1.27,3.16-2.31,5.75-3,9-.17.82-.45,2.88-1,7-.68,5.05-.63,5.23-1,6-1.22,2.52-2.55,2.23-5,6-.6.93-1,1.69-2,3-1.2,1.57-2.46,3.23-3,3Z"/>
      <path class="cls-3" d="m94.16,58.27c-.26-.45,1.49-2.05,3-3,2.04-1.28,3.54-1.32,6-2,1.43-.4,3.29-1.26,7-3,5.48-2.56,5.12-2.8,8-4,4.64-1.93,4.64-.93,10-3,4.03-1.55,6.55-2.56,9-5,1.62-1.61,2.57-3.22,3-3,.45.23.14,2.38-1,4-1.17,1.67-2.88,2.28-5,3-3.81,1.3-5.72,1.95-9,3-3.14,1-4.58,1.85-9,4-3.11,1.51-21.23,10.32-22,9Z"/>
      <path class="cls-3" d="m92.16,59.27c-.65-.29-2.19,1.44-3,3-.89,1.72-.69,2.82-1,5-.21,1.46-.75,5.17-3,8-1.66,2.09-2.61,1.63-5,4-1.93,1.91-2.53,3.42-4,6-.52.92-3.53,6.14-8,11-2.92,3.18-4.77,5.19-8,7-2.62,1.47-5.12,2.24-5,3,.12.73,2.17,1.3,4,1,2.72-.45,4.27-2.73,6-5,2.44-3.19,5.43-5.92,8-9,7.09-8.48,7.32-8.44,10-12,3.09-4.1,4.64-6.16,6-9,2.74-5.72,4.14-12.49,3-13Z"/>
      <path class="cls-3" d="m75.16,64.27c-2.97-.68-5.67.47-7,1-3.23,1.29-6.69,1.93-10,3-5.95,1.93-8.93,2.89-10,3-4.7.47-9.39-.47-12-1-3.12-.63-4.89-1.27-5-1-.16.41,3.53,2.9,8,4,4.65,1.14,8.51.37,15-1,6.15-1.3,5.04-1.81,11-3,3.41-.68,6.63-2.14,10-3,.53-.14,2-.5,2-1,0-.54-1.77-.95-2-1Z"/>
    </g>
  </g>
</svg>