<?xml version="1.0" encoding="UTF-8"?>
<svg id="Layer_2" data-name="Layer 2" xmlns="http://www.w3.org/2000/svg" viewBox="0 0 580.1 326.83">
  <defs>
    <style>
      .cls-1 {
        fill: #ffe2ff;
        stroke: #ffd5c8;
      }

      .cls-1, .cls-2 {
        stroke-miterlimit: 10;
        stroke-width: 3px;
      }

      .cls-2 {
        fill: #fff;
        stroke: #fff;
      }

      .cls-3 {
        fill: #b4527e;
      }

      .cls-3, .cls-4, .cls-5 {
        stroke-width: 0px;
      }

      .cls-4 {
        fill: #b3d6e3;
      }

      .cls-5 {
        fill: #f4feff;
      }
    </style>
  </defs>
  <g id="Layer_1-2" data-name="Layer 1">
    <g>
      <path class="cls-4" d="m13.46,187.78c5.17,2.71,9.96,2.59,13.38,2.46,11.03-.41,19.05-5.92,23.41-8.99,7.06-4.98,5.73-6.31,12.27-11.42,12.4-9.69,26.28-12.01,33.1-13.08,9.38-1.46,7.97.39,20.59-.99,13.36-1.46,15.24-3.56,30.51-5.74,12.1-1.73,18.28-2.56,25.06-.91,3.7.9,8.9,2.71,21.26,11.99,18.48,13.86,17,17.4,26.45,22.81,12.97,7.43,29.84,8.81,43.3,4.76,2.12-.64,12.13-6.66,32.08-18.69,13.61-8.2,17.05-10.34,23.45-11.23,13.67-1.91,25.12,4.05,26.75,4.93,7,3.76,6.45,6.04,13.69,10.07,9.31,5.19,18.19,5.85,24.05,6.22,4.55.29,18.73,1.03,33.65-6.14,8.92-4.29,9.61-7.32,24.86-15.23,9.02-4.68,12.52-5.56,14.86-6.01,11.15-2.12,20.3,1.11,23.22,2.19,5.98,2.19,6.92,3.95,13.73,7.84,3.76,2.15,15.36,8.39,30.68,10.81,5.3.84,16.26,2.46,29.53-.84,7.2-1.79,13.51-3.36,18.94-9.07.94-.99,9.4-10.16,7.52-21.34-.34-2.02-1.47-6.8-14.44-18.58-6.61-6-14.36-12.94-27.39-20.15-5.64-3.12-13.6-6.31-29.31-12.58-20.9-8.34-22.25-8.23-30.21-12.14-9.96-4.9-16.54-9.34-26.56-16.11-12.25-8.27-14.23-10.61-34.45-25.63-15.54-11.55-23.45-17.4-30.06-21.09-9.93-5.54-20.92-11.67-36.88-14.49-4.96-.88-20.55-3.23-39.38,1.12-4.55,1.05-22.21,5.12-37.84,15.9-2.5,1.72-5.86,4.25-11.29,6.52-3.95,1.65-8.81,3.09-21.1,4.56-8.45,1.01-14.61,1.35-17.02,1.5-8.36.53-22.96,1.46-37.69,6.96-16.22,6.05-27.69,15.82-35.72,22.65-6.33,5.38-5.75,5.78-12.27,11.42-7.89,6.83-14.79,11.5-33.49,22.69-26.86,16.07-40.47,24.17-49.21,26.89-1.49.46-10.72,3.31-22.94,7.66-14.43,5.13-18.04,7.03-21.65,10.37-2.18,2.01-9.12,8.63-10.62,19.5-.31,2.27-1.38,10.87,3.7,19.3,1.22,2.03,3.96,6.45,9.46,9.33Z"/>
      <path class="cls-4" d="m69.9,170.18c3.15-1.75,7.08-2.45,14.82-3.77,11.15-1.91,19.15-2.34,24.2-2.72,23.57-1.77,22.81-5.4,39.46-5.59,10.18-.12,19.43-.22,29.89,4.54,9.83,4.48,9.59,9.08,22.92,20.07,10.52,8.67,18.38,15.15,29.66,17.95,9.21,2.28,19.7.29,40.32-3.79,19.84-3.92,17.23-5.01,26.94-6.25,26.69-3.41,49.09,4.47,54.01,6.29,16.21,5.99,16.6,10.48,27.54,11.2,15.37,1.01,28.1-6.95,34.63-11.04,14.99-9.38,12.62-14.53,25.88-22.37,4.04-2.39,23.44-13.88,41.73-7.79,10.73,3.57,9.07,9.2,23.46,14.27,3.5,1.23,11.18,3.57,22.67,7.99,6.07,2.33,8.12,3.3,9.3,5.53,3.26,6.18-3.28,16.27-8.42,21.77-4.69,5.03-11.54,9.78-36.51,16.37-18.1,4.78-17.69,3.12-30.08,6.64-10.96,3.12-27.62,7.86-43.72,19.83-11.78,8.76-9.45,11.12-27.76,27.71-9.61,8.71-17.7,16.04-29.92,23.2-9.57,5.61-23.07,13.34-42.31,15.83-19.11,2.47-34.19-1.49-42.87-3.86-5.3-1.45-15.69-4.36-27.54-11.2-7.2-4.16-7.51-5.48-21.23-14.23-9.81-6.26-14.84-9.44-21.26-11.99-3.63-1.44-9.24-2.87-20.48-5.72-12.94-3.28-15.78-3.56-21.81-6.19-7.42-3.24-12.46-6.89-13.73-7.84-6.01-4.45-9.87-9.03-17.58-18.19-6.84-8.12-7.55-9.9-11.85-13.17-2.19-1.66-6.68-5.02-13.3-6.94-3.91-1.13-8.41-1.3-17.42-1.64-8.8-.33-9.36.09-12.51-.66-1.93-.46-7.97-1.98-13.3-6.94-8.82-8.21-9.03-19.64-9.03-21.18-.03-11.69,7.04-21.59,15.21-26.13Z"/>
      <path class="cls-1" d="m349.17,173.38c-.75-4.17-4.44-6.62-7.46-8.63-6.54-4.35-13.37-4.35-16.48-4.31-6.3.08-10.82,1.97-13.02,2.91-4.67,2-7.83,3.35-9.06,6.55-1.96,5.13,2.66,10.8,3.38,11.69,3.77,4.63,8.9,5.87,13.3,6.94,5.75,1.39,13.51,3.27,20.59-.99,4.2-2.53,9.81-8.21,8.74-14.16Z"/>
      <path class="cls-2" d="m327.63,164.29c-.07-.4-3.98-.57-8.51.75-3.62,1.06-10.09,2.94-10.86,7.42-.79,4.58,4.77,9.76,6.55,9.06.92-.36.33-2.1,1.45-6.24.61-2.25,1.35-5.01,3.25-7.1,3.23-3.55,8.19-3.44,8.12-3.89Z"/>
      <path class="cls-3" d="m199.55,42.68c-2.44-2.28-9.83,1.74-15.29,5.11-19.56,12.04-36.86,29.4-39.91,32.42-24.07,23.77-53.4,35.35-64.19,39.61-13.73,5.42-27.28,8.92-41.53,22.1-7.03,6.5-15.9,16.91-13.76,19.89,2.15,2.98,14.7-2.33,21.57-5.89,12.46-6.47,16.13-12.31,25.84-20.13,14.74-11.88,17.32-7.3,41.53-22.1,5.98-3.65,17.82-10.97,31.25-22.73,19.24-16.84,16.8-20.98,29.09-27.24,11.44-5.82,23.22-7.15,25.76-15.66.17-.58,1.18-3.94-.36-5.37Z"/>
      <path class="cls-3" d="m93.06,136.36c-.34,1.6-.77,5.44.79,6.28,1.52.81,4.26-1.59,5.41-2.59,6.22-5.42,12.95-10.24,19.05-15.78,8.55-7.76,9.92-4.06,21.68-12.6,5.76-4.18,11.12-9.97,21.84-21.54,7.19-7.77,11.63-13.14,19.99-18.44,4.52-2.87,7.94-4.28,10.82-5.18,7.49-2.33,10.05-.75,15.69-1.97,12.55-2.72,22.98-15.56,20.93-21.11-.58-1.57-2.32-3-3.53-2.74-1.67.36-1.56,3.76-3.25,7.1-2.48,4.88-7.31,6.87-8.63,7.46-3.29,1.47-5.89,1.45-8.08,1.65-5.7.52-9.96,2.93-18.47,7.74-2.74,1.55-11.56,6.69-24.47,18.37-11.74,10.63-10.41,11.78-19.56,19.35-9.87,8.16-19.49,13.49-23.53,15.7-15.2,8.34-25.04,10.6-26.7,18.33Z"/>
      <path class="cls-3" d="m257.52,39.87s-5.54,10.11-14.66,20.32c-2.04,2.29-7.85,8.56-29.01,22.76-17.61,11.82-27.24,16.65-38.07,29.32-5.01,5.86-8.85,11.73-6.97,15.54,1.73,3.5,6.77,2.15,14.2,6.5,6.77,3.96,6.4,7.32,12.32,11.84,5.74,4.38,15.72,8.59,24.05,6.22,9.7-2.76,13.95-13.53,19.25-26.96,4.23-10.73,4.01-14.56,10.57-42.76,4.73-20.33,6.45-25.25,10.81-30.68,7.47-9.29,17.07-13.07,21.72-14.84,9.58-3.64,21.37-5.28,43.85-1.04,31.26,5.89,53.7,17.6,56.92,19.31,38.53,20.47,35.92,34.47,73.37,51.35,18.62,8.39,27.93,12.59,41.78,15.47,17.82,3.71,27.38,2.16,37.39,10.92,6.41,5.62,9.22,12.16,15.89,12.35,5.09.14,10.81-3.46,11.76-7.85,1.6-7.38-10.38-16.4-20.68-20.03-8.75-3.09-13.59-1.34-24.12-1.75-12.27-.48-20.53-3.42-36.52-9.12-4.61-1.64-23.2-8.46-51.87-27.27-27.52-18.06-23.79-20.58-42.85-31.59-11.97-6.92-32.56-18.53-60.92-20.72-13.82-1.07-32.82-2.53-50.24,8.54-14.09,8.95-22.97,23.46-23.68,24.64-2.33,3.88-3.67,6.92-5.09,10.2-8.46,19.41-6.74,29.13-14.72,50.29-4.41,11.69-7.67,15.96-12.39,18.13-.45.21-7.95,3.51-14.32.2-4.83-2.51-3.42-5.93-8.79-9.1-4.26-2.51-6.64-1.24-13.34-4.7-3.22-1.66-4.84-2.53-5.3-4.12-1.2-4.16,6.31-9.68,10.51-12.79,10.13-7.52,19.71-15.78,29.92-23.2,18.29-13.29,28.79-21.09,36.38-35.16,4.72-8.75,7.81-18.96,7.48-19.11-.22-.09-2.04,4.15-4.62,8.87Z"/>
      <path class="cls-3" d="m283.4,43c-1.92,1.64-8.46,7.91-8.54,28.48-.02,6.02,1.3,14.48,3.94,31.38,1.7,10.88,2.39,14,2.74,20.69.57,10.86.85,16.3-1.22,21.83-2.79,7.42-7.47,11.29-5.64,16.01.69,1.78,2.33,3.74,3.96,3.65,3.6-.21,5.72-10.41,6.5-14.2,2.8-13.47,2.29-27.25-.61-42.95-2.69-14.58-4.72-16.12-5.35-27.38-.43-7.84-.76-14.92,2.19-23.22,3.46-9.77,9.63-16.11,8.35-17.3-.81-.75-4.03,1.06-6.31,3.02Z"/>
      <path class="cls-3" d="m340.44,55.6c8.67,3.43,15.36,8.43,20.79,13.33,6.64,5.98,16.27,14.65,22.76,29.01,1.75,3.87.33,1.64,8.45,29.22,2.72,9.23,5.08,16.93,11.66,24.35,2.62,2.95,7.81,8.8,12.4,7.37,2.6-.81,4.68-3.84,4.59-6.63-.13-3.84-4.35-6.15-7.46-8.63-4.2-3.35-5.83-6.58-12.6-21.68-15.44-34.41-13.89-33.02-16.81-37.41-8.54-12.88-18.55-19.96-25.08-24.58-10.59-7.49-20.35-14.4-32.88-13.08-3.06.32-9.79,1.03-14.86,6.01-7.21,7.08-6.39,18.22-5.04,33.46,2.15,24.32,8.38,24.47,6.06,38.12-1.28,7.51-4.46,15.08-.38,22.36,1.3,2.32,3.84,5.5,5.73,5.02,3.04-.77,2.97-10.63,2.93-14.71-.08-9.89-1.7-17.02-4.01-26.91-4.64-19.81-5.93-25.07-6.14-33.65-.31-12.79,2.19-16.64,4.34-18.71,4.82-4.64,12.37-4.67,14.39-4.67,3.34-.01,6.6.63,11.14,2.43Z"/>
      <path class="cls-3" d="m351.75,74.58c1.67,2.8,4.89,8.7,7.3,17.57,3.41,12.51.67,14.25,3.51,30.47,2.43,13.93,3.65,20.9,8.96,25.65,2.43,2.17,5.78,4.1,7.46,8.63.11.29,2.55,7.1-.62,10.28-3.25,3.25-11.06,1.34-15.61-2.5-2.81-2.37-5.23-6.2-6.8-21.14-1.17-11.15-.3-13.57-.88-27.3-.57-13.62-1.86-21.63-3.98-29.14-3.05-10.83-5.79-13.46-6.91-14.43-4.3-3.71-8.98-3.9-10.59-8.23-.98-2.64-.65-6.35,1.02-7.14,3.39-1.61,12.17,8.91,17.15,17.29Z"/>
      <path class="cls-3" d="m203.93,270.65c-6.71-4.77-9.43-12.94-14.29-27.53-5.26-15.8-1.49-17.21-5.7-32.75-3.5-12.91-7.78-28.69-20.41-35.68-2.58-1.43-2.95-1.07-36.2-1.51-12.63-.17-19.69-.31-28.24,3.54-4.19,1.89-12.62,5.7-13.17,11.85-.77,8.53,14.13,15.23,16.72,16.39,9.59,4.31,24.76,6.86,29.97.06,2.36-3.08,2.76-8.18,1.05-9.37-1.27-.89-3.27.71-6.75,2.12,0,0-6.86,2.78-15.69,1.97-5.73-.52-15.51-3.26-15.97-7.88-.41-4.11,6.7-8.35,11.8-10.09,4.83-1.64,6.68-.64,17.45-.6,12.46.05,13.35-1.29,21.93-.52,8.13.73,12.19,1.09,16.04,3.4,2.45,1.47,7.6,5.32,13.43,25.72,3.81,13.35,2.26,13.98,6.21,29.18,2.09,8.02,5.05,17.59,11.15,27.92,3.02,5.12,8.09,13.54,12.75,12.74,1.37-.23,2.91-1.3,3.18-2.63.5-2.55-3.82-5.33-5.26-6.35Z"/>
      <path class="cls-3" d="m324.28,295.06c8.73-1.98,13.61.58,19.22.77,9.94.35,17.64-6.9,35.33-25.79,30.59-32.68,26.17-30.89,32.81-35.67,3.43-2.46,27.15-19.52,53.57-20.11,8.46-.19,13.7-1.03,24.2-2.72,13.25-2.13,16.69-3.77,17.1-5.97.54-2.89-4.24-6.27-7.02-7.72-6.58-3.44-9.66-.13-16.95-2.97-6.45-2.52-6.18-5.94-12.4-7.37-1.33-.3-6.77-1.55-11.65,1.14-4.34,2.4-3.66,5.39-9.13,11.03-3.02,3.11-7.47,7.7-11.29,6.52-3.28-1.01-5.2-5.98-4.75-9.92.59-5.24,5.33-8.36,10.04-11.46,1.78-1.17,6.69-4.19,13.96-5.58,5.06-.97,11.16-2.13,16.98.74,4.52,2.22,3.87,4.4,8.83,6.86,4.23,2.1,5.65.97,13.38,2.46,4.66.9,10.31,2.04,16.01,5.64,3.99,2.52,7.75,4.89,8.79,9.1,1.53,6.2-3.78,12.71-7.88,15.97-6.88,5.48-14.55,5.1-25.14,5.39-3.72.1-24.51.66-37.18,3.39-18.12,3.9-30.14,14.48-43.84,26.54-16.93,14.91-13.99,18.51-31.87,33-16.26,13.19-28.01,17.76-37.02,19.94-9.06,2.2-16.06,2.15-20.16,1.89-8.41-.53-18.68-1.18-26.24-8.5-6.34-6.13-7.75-14.02-9.03-21.18-.84-4.67-.56-12.42.03-27.73.56-14.6.97-16.83-.99-20.59-2.95-5.67-6.91-6.49-10.05-14.04-1.17-2.82-3.64-8.77-1.14-11.65,2.66-3.07,10.33-1.9,15.18,1.6,7.53,5.44,8.09,16.35,8.49,26.98.53,14.18-2.6,15.75-2.34,32.16.3,18.81,4.51,23.63,6.72,25.61,5.1,4.58,11.85,5.09,12.44,5.13,5.19.33,7.52-1.66,13.02-2.91Z"/>
      <path class="cls-3" d="m338.87,279.21c2.42-4.61,4.12-9.57,6.5-14.2,5.47-10.63-.17-16.43,4.57-32.13,1.9-6.29,5.19-17.19,13.76-19.89,6.54-2.07,14.82,1.06,15.57,4.74.51,2.48-2.63,4.13-9.6,12.36-.69.81-4.47,5.27-6.86,8.83-5.69,8.46-3.58,11.9-9.87,28.01-2.02,5.16-4.46,10.51-9.64,14.6-1.95,1.54-5.47,3.82-6.31,3.02-.67-.64.64-2.97,1.88-5.34Z"/>
      <path class="cls-3" d="m265.21,296.74c1.67-5.58.23-11.67-3.7-19.3-4.7-9.13-6.78-8.44-10.91-15.84-4.6-8.25-6.25-16.7-8.88-30.12-1.72-8.79-1.76-12.18-5.11-15.29-4.1-3.81-7.85-2.29-12.4-7.37-2.45-2.73-3.14-5.16-6.59-6.82-.65-.31-4.11-1.98-5.81-.55-1.77,1.5-.5,5.49-.11,6.71.87,2.71,2.39,4.9,6.55,9.06,4.91,4.91,5.49,4.58,7.93,7.29,3.62,4.03,5.26,8,6.95,12.19,2.62,6.51,1.64,7.25,4.2,15.73,1.52,5,3.36,10.96,7.3,17.57,3.28,5.51,4.11,4.9,7.42,10.86,3.93,7.07,6.05,12.63,6.05,12.63,1.93,5.05,2.52,8.07,3.89,8.12,1.7.06,3.11-4.52,3.21-4.87Z"/>
      <path class="cls-5" d="m13.81,167.66s3.93,4.18,11.53,5.56c6.3,1.15,11.67-1.96,15.73-4.2,5.25-2.91,19.94-11.04,31.57-15.12,6.65-2.33,15.65-3.6,33.65-6.14,10.92-1.54,10.58-1.13,18.83-2.36,25.46-3.82,25.72-7.29,35.45-7,11.49.34,20.97,6.42,39.94,18.57,17.61,11.28,17.43,14.6,27.43,17.91,16.52,5.47,31.93,1.33,37.58-.25,17.23-4.85,16.02-11.42,35.64-18.18,11.06-3.81,26.57-9.14,39.85-2.45,6.25,3.15,6.61,6.24,16.79,11.92,3.69,2.05,11.42,6.36,20.44,7.95,14.46,2.55,26.53-2.87,37.26-7.86,20.11-9.36,16.94-14.74,33.02-21.35,6.88-2.83,29.91-11.09,49.22-1.4,7.13,3.58,5.64,5.53,15.03,10.54,5.77,3.08,19.49,10.4,34.76,7.75,13.27-2.31,22.04-11.17,22.98-9.9.61.83-2.97,4.75-6.39,7.49-10,8.04-21.62,8.45-24.75,8.52-11.08.25-19.29-3.74-25.38-6.69-10.7-5.19-9.89-8-19.03-11.95-12.87-5.57-24.81-4.46-28.56-4.07-13.05,1.37-22.23,6.78-26.55,9.39-4.34,2.62-3.76,2.95-9.96,6.99-5.43,3.54-12.89,8.41-22.12,11.7-5.43,1.94-15.81,5.65-29.14,3.98-3.37-.42-14.71-2.16-25.77-9.83-6.47-4.49-6.6-6.68-12.36-9.6-9.58-4.88-19.25-3.91-22.75-3.52-6.62.74-11.11,2.74-33.37,15.98-20.75,12.35-20.5,12.8-24.39,13.9-1.98.56-21.09,5.69-38.4-3.79-1.25-.69-.93-.59-16.32-13.25-16.51-13.58-18.25-14.81-21.19-16.46-6.03-3.38-14.79-8.17-25.81-7.6-1.36.07-4.65.73-11.22,2.05-11.59,2.32-14.92,3.4-21.1,4.56-9.54,1.8-10.61.94-21.06,2.32-11.09,1.47-20.9,2.77-31.88,7.51-13.55,5.84-25.29,14.33-25.29,14.33-2.65,1.91-6.35,4.76-12.19,6.95-4.75,1.78-9.91,3.72-15.69,1.97-6.2-1.88-11.65-7.55-11.85-13.17-.08-2.16.59-5.05,1.88-5.34,1.17-.26,2.21,1.78,3.96,3.65Z"/>
      <path class="cls-5" d="m63.12,187.29c1.55-5.62,6.51-9.32,9.13-11.03,4.12-2.69,8.74-4.56,18-6.4,8.39-1.67,11.53-1.51,21.96-2.76,12.61-1.5,11.8-2.19,23.77-3.62,13.72-1.64,20.72-2.42,27.3-.88,10.45,2.46,17.94,8.24,20.4,10.19,7.08,5.58,7.23,8.59,15.85,14.58,1.38.96,1.06.66,12.4,7.37,11.29,6.67,11.81,7.09,13.73,7.84,2.54.99,7.09,2.37,19.65,1.68,9.07-.5,16.27-1.75,30.94-4.84,22.52-4.73,20.25-4.88,25.14-5.39,17.39-1.81,31.16,1.54,34.4,2.38,11.83,3.04,20.53,5.28,29.78,11.24,3.05,1.97,9.11,6.24,17.34,6.11.65-.01,2.86-.07,7.18-1.22,2.72-.72,9.21-2.65,21.65-10.37,9.59-5.95,14.39-8.92,17.21-12.68,2.11-2.8,3.67-5.83,7.76-9.26,2.37-1.98,4.86-3.5,8.59-5.22,9.78-4.51,16.73-7.71,25.61-6.72,4.05.45,8.63,2.64,17.77,7.01,6.62,3.17,8.62,4.78,8.4,5.96-.2,1.05-2.17,1.63-3.61,1.73-3.91.26-6.8-2.89-8.87-4.62-5.85-4.91-13.22-5.37-18.24-5.68-11.25-.7-20.05,5.32-24.75,8.52-3.93,2.69-4.64,3.93-13.64,13.19-20.39,20.97-25.36,23.46-30.39,24.53-2.32.5-8.64,1.84-15.65-.27-2.93-.88-6.47-2.52-11.1-4.66-2.9-1.34-5.02-2.41-5.77-2.78-9.15-4.58-19.37-9.03-19.97-9.29-11.07-4.8-23.17-4.53-37.5-4.22-17.91.39-26.87.59-37.22,5.63-7.19,3.5-11.21,7.41-20.27,8.6-2.29.3-9.34,1.15-17.42-1.64-5.59-1.93-9.91-4.99-11.97-6.47-2.91-2.09-3.91-3.27-8.83-6.86-.69-.5-3.28-2.39-6.63-4.59-5.9-3.87-8.2-4.8-12.4-7.37-7.64-4.67-7.63-6.21-13.69-10.07-2.44-1.55-8.9-5.6-16.87-7.44-8.78-2.03-11.53.43-35.38,2.53-6.86.6-7.05.44-13.88,1.11-20.36,1.99-24.64,4.06-27.85,6.68-3.28,2.69-6.21,5.09-7.76,9.26-.94,2.54-1.04,4.83-3.25,7.1-.74.75-2.7,2.77-5.41,2.59-2.86-.19-5.02-2.71-5.73-5.02-.46-1.49-.34-2.96.08-4.47Z"/>
    </g>
  </g>
</svg>