<?xml version="1.0" encoding="UTF-8"?>
<svg id="Layer_2" data-name="Layer 2" xmlns="http://www.w3.org/2000/svg" viewBox="0 0 328.16 151.18">
  <defs>
    <style>
      .cls-1 {
        fill: #ffe2ff;
      }

      .cls-1, .cls-2 {
        stroke: #fff;
        stroke-miterlimit: 10;
        stroke-width: 3px;
      }

      .cls-2 {
        fill: #fff;
      }

      .cls-3 {
        fill: #95bfca;
      }

      .cls-3, .cls-4, .cls-5, .cls-6 {
        stroke-width: 0px;
      }

      .cls-4 {
        fill: #dff2ff;
      }

      .cls-5 {
        fill: #b4527e;
      }

      .cls-6 {
        fill: #b3d6e3;
      }
    </style>
  </defs>
  <g id="Layer_1-2" data-name="Layer 1">
    <path class="cls-3" d="m40.16,29.47c-1.52.06-3.52.08-6,1-3.89,1.45-4.73,3.56-9,5-2.28.77-1.96.14-5,1-2.77.78-6.66,1.88-9,5-.98,1.31-.44,1.31-2,5-.87,2.05-2.33,5.51-5,9-2.63,3.44-3.56,3.15-4,5-.76,3.19,1.31,7,4,9,1.81,1.34,2.37.72,4,2,2.65,2.07,3.31,5.37,4,9,1.02,5.41-.1,5.85,1,10,.73,2.75,1.82,6.87,5,8,2.64.94,5.39-.65,6-1,4.04-2.32,3.41-6.05,6-7,4.03-1.48,10.25,5.79,13,9,2.07,2.42,3.56,4.58,8,12,8.24,13.78,7.82,14.24,10,16,5.34,4.3,14.13,6.61,21,4,4.37-1.65,5.1-4.21,10-5,5.58-.9,10.11,1.51,11,2,5.11,2.84,5.76,6.8,9,11,7.32,9.5,23.49,14.59,33,10,5.52-2.66,5.36-6.92,13-10,4.69-1.89,8.92-1.97,12-2,7.79-.08,13.24,1.91,17,3,9.68,2.81,16.52,2.02,28,2,6.01-.01,8.92-.31,12-2,3.95-2.17,7.5-6.27,9-8,3.29-3.8,3.74-5.47,6-6,1.81-.42,2.85.34,8,2,0,0,1.08.35,7,2,7.51,2.09,19.04-1.3,27-8,3.79-3.2,6.29-6.74,10-12,5.1-7.23,6.27-11.02,11-13,3.91-1.64,5.39,0,9-2,3.92-2.17,7.08-6.82,7-11-.11-6.34-7.67-11.12-13-14C228.14,27.32,162.16,22.47,162.16,22.47c-60.7-4.47-104.57,6.29-122,7Z"/>
    <path class="cls-6" d="m196.93,6.26c-3.43-.85-11.63-2.78,0,0,.74.18-15.26-3.08-23.97-4.19-10.18-1.29-20.91-2.59-35.14-1.86-23.7,2.55-26.81,4.61-53.75,11.91-30.29,8.21-28.72,8.05-30.96,8.37-12.27,1.73-23.73,1.5-33.96,8.37-.68.46-5.96,4.05-4.99,5.86.82,1.55,5.3.02,11.98,1.67,3.68.91,6.2,2.33,10.99,5.02,5.39,3.03,5,3.62,7.99,5.02,6.11,2.88,12.48,2.66,16.98,2.51,10.04-.34,13.47-3.19,17.98-.84,1.66.87,1.89,1.62,5.99,4.18,1.26.79,3.02,1.83,5.99,3.35,4.71,2.41,7.81,3.99,10.99,5.02,6.77,2.2,12.93,1.56,19.97.84,8.24-.85,7.96-2.06,14.98-2.51,4.03-.26,10.79-.69,17.98,1.67,8.26,2.72,7.18,5.86,13.98,7.53,6.08,1.49,7.03-1,20.97-.84,8.23.1,11.23,1,12.98,1.67,4.49,1.71,4.62,3.28,8.99,5.02,5.34,2.14,10.44,1.92,14.98,1.67,8.31-.44,8.59-2.23,16.98-3.35,4-.53,14.43-1.92,24.97,1.67,4,1.36,4.32,2.18,11.98,5.02,6.57,2.43,9.91,3.64,12.98,3.35,6.62-.63,7.52-5.3,12.98-5.02,4.23.21,4.73,3.06,10.99,4.18.9.16,7.34,1.32,8.99-.84,1.64-2.15-2.15-6.73-4.99-9.21-3.8-3.31-6.45-3.34-15.98-8.37-2.11-1.11-3.5-1.91-5.99-3.35-9.19-5.29-15.78-10.13-17.98-11.72-13.89-10.02-31.09-18.84-44.94-25.95-9.37-4.81-14.7-7.16-19.97-9.21-40.14-15.57,38.15,8.01-20.97-6.7Z"/>
    <path class="cls-5" d="m130.16,3.47c-2.43.36-3.99.59-6,1-4.76.98-8.61,2.3-13,4-7.97,3.09-9.35,4.19-14,6-6.51,2.53-11.67,3.36-22,5-7.01,1.12-9.27,1.11-22,3-10.43,1.54-12.97,2.15-13,3-.05,1.22,5.05,2.86,10,3,5.88.17,8.73-1.85,16-4,4.22-1.25,2.81-.43,16-3,10.96-2.13,16.53-3.23,21-5,8-3.16,6.51-4.44,14-7,3.56-1.22,5.55-1.49,18-5,4.05-1.14,6.05-1.73,6-2-.11-.58-10.06.86-11,1Z"/>
    <path class="cls-5" d="m89.16,31.47c-.21.23-2.12,2.34-2,5,.18,4.06,5,7.5,9,7,2.22-.28,3.71-1.72,5-3,3.14-3.12,2.92-5.42,5-9,3.38-5.82,9.1-8.59,12-10,3.11-1.51,2.83-.73,9-3,4.55-1.68,8.61-3.17,13-6,5.43-3.5,5.1-5.01,9-7,4.36-2.23,8.6-2.3,14-2,14.7.83,24.61,1.39,37,7,6.83,3.09,11.22,6.4,20,13,17.8,13.39,20.06,19.1,38,32,6.93,4.99,1.29.31,19,11,6.14,3.7,10.49,6.48,15,5,2.53-.83,5.19-3.02,5-5-.24-2.48-4.89-3.61-12-6,0,0-.58-.2-18-7-2.99-1.17-6.03-2.61-27-18-16.79-12.33-17.85-13.62-25-18-13.42-8.23-20.52-10.32-23-11-4.81-1.32-2.43-.1-19-3-3.35-.59-10.34-1.84-18-1-2.37.26-4.63.7-7,2-2.58,1.41-3.43,2.83-6,5-2.52,2.13-4.6,3.22-8,5-7.01,3.67-9.36,2.6-23,7-4.04,1.31-7.03,2.54-13,5,0,0-1.3.54-6,3-1.61.84-2.29,1.23-3,2Z"/>
    <path class="cls-5" d="m167.16,8.47c-4.53.81-4.84.59-6,1-4.48,1.6-6.38,7.19-7,9-1.31,3.85-.12,4.19-1,11-.79,6.11-1.26,9.81-4,13-2.52,2.93-5.1,3.27-5,5,.13,2.12,4.13,3.68,7,4,2.35.26,6.26-.05,7-2,.53-1.4-1.05-2.39-2-5-.98-2.7-.16-4.05,1-11,1.25-7.5.66-8.12,2-12,1.15-3.32,1.9-5.42,4-7,.75-.57,2.85-1.39,7-3,3.24-1.26,4.8-1.8,5-3,.12-.72-.23-1.76-1-2-.65-.21-1.49.18-2,1-1.15.26-2.88.62-5,1Z"/>
    <path class="cls-5" d="m185.16,9.47c-2.22,1.3-2.8,4.04-3,5-.52,2.46-.25,5.73,3,11,4.7,7.62,7.72,6.61,12,13,4.13,6.17,2.11,8.3,7,15,2.92,4,5.12,7.02,9,8,4.75,1.2,7.16-1.9,13,0,1.97.64,3.21,1.49,5,1,2.24-.61,4.31-3.03,4-5-.44-2.83-5.8-4.75-10-4-3.41.61-3.68,2.55-7,3-3.16.43-6.7-.82-9-3-1.72-1.63-1.66-2.75-5-12-2.12-5.87-2.51-6.44-3-7-2.58-2.96-4.94-2.48-8-6-1.38-1.59-2.06-3.02-3-5-1.38-2.9-2.46-5.17-2-8,.18-1.13.56-3.47,2-4,2.72-1.01,7.56,5.04,10,9,2.09,3.4,1.6,3.92,4,8,2.25,3.82,3.93,6.67,7,9,4.49,3.41,5.81,1.05,12,5,1.97,1.26,3.93,2.83,7,3,1.56.09,3.8-.17,4-1,.35-1.5-6.14-4.22-8-5-6.29-2.64-7.46-1.77-11-4-3.14-1.98-5.03-4.43-7-7-2.48-3.22-2.15-3.8-5-8-2.92-4.31-4.7-6.93-8-9-1.51-.95-6.48-4.06-10-2Z"/>
    <path class="cls-5" d="m172.16,19.47c-.3.78-1.75,4.7-1,10,.66,4.67,2.15,4.22,3,9,.89,5,.18,10.68,0,12-.44,3.28-1.02,4.84,0,6,1.42,1.62,5.09,1.49,6,0,.7-1.15-.65-2.46-2-6-1.09-2.86-.71-3.34-2-10-1.23-6.32-1.48-5.43-2-9-.57-3.91-1.12-7.67,0-12,1.12-4.33,3.28-6.82,3-7-.32-.21-3.35,2.71-5,7Z"/>
    <g>
      <path class="cls-1" d="m179.44,84.2c-.75-4.17-4.44-6.62-7.46-8.63-6.54-4.35-13.37-4.35-16.48-4.31-6.3.08-10.82,1.97-13.02,2.91-4.67,2-7.83,3.35-9.06,6.55-1.96,5.13,2.66,10.8,3.38,11.69,3.77,4.63,8.9,5.87,13.3,6.94,5.75,1.39,13.51,3.27,20.59-.99,4.2-2.53,9.81-8.21,8.74-14.16Z"/>
      <path class="cls-2" d="m157.9,75.11c-.07-.4-3.98-.57-8.51.75-3.62,1.06-10.09,2.94-10.86,7.42-.79,4.58,4.77,9.76,6.55,9.06.92-.36.33-2.1,1.45-6.24.61-2.25,1.35-5.01,3.25-7.1,3.23-3.55,8.19-3.44,8.12-3.89Z"/>
    </g>
    <path class="cls-4" d="m17.16,43.47c-.68.14-.2,2.24-1,5-.93,3.21-2.46,3.37-5,8-1.6,2.91-2.39,4.4-2,6,.53,2.2,2.56,2.4,5,5,2.94,3.13,3.75,6.84,4,8,.54,2.48.01,2.91,0,12,0,2.95.05,4.5,1,5,.26.14,1.09.46,5-2,3.74-2.36,4.17-3.41,6-4,1.28-.42,3.23-.6,7,1,9.85,4.19,16.26,13.85,17,15,2.46,3.8,2.62,5.16,8,14,2.3,3.79,3.56,5.65,6,7,4.15,2.29,8.71,1.43,11,1,6.23-1.18,6.58-3.83,12-5,.7-.15,7.74-1.57,14,2,4.38,2.5,3.89,4.88,11,13,4.29,4.89,6.5,7.37,10,9,1.03.48,7.96,3.58,15,1,6.5-2.38,5.42-6.8,12-11,7.79-4.97,17.29-3.88,25-3,5.08.58,4.05,1.1,14,3,12.02,2.29,18.13,3.41,23,2,6.7-1.94,12.53-6.9,15-9,4.6-3.92,6.16-6.63,10-7,2.56-.25,3.69.78,10,3,4.12,1.45,7.34,2.58,10,3,9.16,1.45,18.73-4.33,24-10,2.65-2.85,1.43-2.68,9-13,4.23-5.78,6.51-8.41,10-9,2.88-.49,3.87.87,7,0,4.42-1.22,7.46-5.32,7-6-.22-.33-1.48.11-4,1-3.14,1.11-3.42,1.57-5,2-3,.82-3.97-.31-7,0-2.94.3-4.99,1.66-7,3-4.47,2.98-5.52,5.84-9,10-1.96,2.34-6.04,7.22-12,10-6.92,3.23-13.84,2.46-18,2-8.9-.99-10.29-3.91-17-3-5.16.7-9.46,3.12-11,4-4.6,2.64-5.9,4.85-11,7-.3.12-3.4,1.41-7,2-7.13,1.16-11.84-1.12-19-3-10.33-2.71-17.46-4.58-25-2-4.33,1.48-10.26,4.94-15,10-2.94,3.14-3.68,5.04-7,7-1.75,1.03-7.56,4.05-13,2-1.52-.57-2.82-1.47-9-10-6.27-8.66-6.3-9.63-9-12-2.49-2.18-6.8-5.97-13-6-6.49-.04-12.27,5.34-13,6-2.5,2.26-3.13,3.84-5,4-3.1.27-5.79-3.68-8-7-7.45-11.21-9.11-14.82-12-19-4.36-6.32-11.02-15.96-20-16-4.24-.02-9.3,2.11-13,5-1.93,1.51-2.98,4.32-4,4-.55-.17-.81-1.1-1-4-.25-3.98,0-6.09,0-8,0-2.85,0-7.81-3-11-2.36-2.51-4.94-2.18-6-5-.11-.28-.79-2.17,0-4,.65-1.51,1.62-1.42,3-3,1.57-1.8,2.58-4.54,2-7-.36-1.55-1.38-3.13-2-3Z"/>
    <path class="cls-4" d="m25.16,26.47c-1.6.26-2.78,1.04-4,2-2.09,1.64-3.14,2.47-3,3,.24.93,2.85.65,6,1,7.92.87,13.77,5.11,15,6,3.33,2.41,2.92,3.21,6,5,3.97,2.3,7.71,2.75,10,3,2.33.26,3.38.11,17-1,2.81-.23,4.26-.34,6,0,3.6.7,5.21,2.54,9,5,3.47,2.25,6.25,3.42,10,5,3.24,1.36,7.67,3.23,13,4,2.02.29,4.11.42,16-1,12.84-1.53,13.24-2.01,18-2,7.11.01,12.1.02,16,3,.94.72,2.83,2.38,6,4,.57.29,2.7,1.36,5,2,4.05,1.12,7.06.45,11,0,4.67-.53,9.73-1.11,16,0,3.51.62,7.61,1.34,12,4,1.93,1.17,2.71,1.98,5,3,.8.35,4.31,1.86,9,2,4.88.14,7.33-1.3,13-3,3.67-1.1,9.6-2.87,16-3,7.99-.16,14.44,2.27,19,4,8.95,3.38,13.43,5.08,15,6,1.32.78,3.86,2.36,7,2,1.17-.13,1.52-.43,5-2,4.4-1.98,6.62-2.97,8-3,1.37-.03,3.25.64,7,2,3.35,1.21,4,1.72,6,2,1.01.14,5.22.72,6-1,.7-1.54-1.7-4.14-2-4-.18.09.48,1.14,0,2-.08.14-.48.8-2,1-2.57.33-4.98-1.09-7-2-2.24-1-5.99-2.69-10-2-4.13.7-7,3-7,3-1.14.91-1.69,1.67-3,2-1.64.42-2.92-.23-5-1-3.52-1.31-3.06-.64-7-2-4.2-1.45-5.92-2.61-9-4-6.32-2.84-11.86-3.69-14-4-3.38-.49-8.6-1.21-15,0-1.93.37-4.96,1.24-11,3-4.49,1.31-6.13,1.88-9,2-4.08.18-7.05-.7-8-1-2.9-.92-4.67-2.18-6-3-7.73-4.77-16.78-4.96-19-5-4.52-.09-4.61.8-13,1-3.65.09-6.13-.02-9-1-2.14-.73-3.83-1.73-6-3-3.43-2.02-4.4-3.03-6-4-1.45-.88-4.54-2.4-14-2-6.6.28-8.14,1.15-15,2-6.72.83-14.06,1.74-23,0-5.26-1.03-9.52-1.86-14-5-3.5-2.45-4.17-4.23-8-6-3.76-1.73-7.15-1.88-11-2-5.8-.19-5.88.86-13,1-9,.18-12.02-1.43-13-2-2-1.17-1.42-1.46-5-4-1.12-.79-4.36-3.02-9-5-2.53-1.08-4.68-1.98-7-2h-6c-.58.07-.92.14-1,0-.21-.38,1.72-1.8,2-2,2.69-1.98,5.09-2.72,5-3-.05-.16-.85-.02-1,0Z"/>
  </g>
</svg>