<svg width="42" height="42" viewBox="0 0 42 42" fill="none" xmlns="http://www.w3.org/2000/svg">
<path d="M14.3333 22.7383L21 29.3735M21 29.3735L27.6667 22.7383M21 29.3735V12.7855M41 21.0795C41 23.6935 40.4827 26.282 39.4776 28.697C38.4725 31.1121 36.9993 33.3065 35.1421 35.1549C33.285 37.0033 31.0802 38.4695 28.6537 39.4699C26.2272 40.4702 23.6264 40.9851 21 40.9851C18.3736 40.9851 15.7728 40.4702 13.3463 39.4699C10.9198 38.4695 8.71504 37.0033 6.85786 35.1549C5.00069 33.3065 3.5275 31.1121 2.52241 28.697C1.51732 26.282 1 23.6935 1 21.0795C1 15.8002 3.10714 10.7371 6.85786 7.00405C10.6086 3.27102 15.6957 1.17383 21 1.17383C26.3043 1.17383 31.3914 3.27102 35.1421 7.00405C38.8929 10.7371 41 15.8002 41 21.0795Z" stroke="#00054E" stroke-width="1.5" stroke-linecap="round" stroke-linejoin="round"/>
</svg>
