<svg width="66" height="27" viewBox="0 0 66 27" fill="none" xmlns="http://www.w3.org/2000/svg">
<path d="M12 9.5L8 13.5M8 13.5L12 17.5M8 13.5L18 13.5M13 25.5C11.4241 25.5 9.8637 25.1896 8.4078 24.5866C6.95189 23.9835 5.62902 23.0996 4.51472 21.9853C3.40042 20.871 2.5165 19.5481 1.91344 18.0922C1.31039 16.6363 0.999999 15.0759 0.999999 13.5C0.999999 11.9241 1.31039 10.3637 1.91344 8.9078C2.5165 7.45189 3.40042 6.12902 4.51472 5.01472C5.62902 3.90041 6.95189 3.0165 8.4078 2.41344C9.86371 1.81039 11.4241 1.5 13 1.5C16.1826 1.5 19.2348 2.76428 21.4853 5.01472C23.7357 7.26515 25 10.3174 25 13.5C25 16.6826 23.7357 19.7348 21.4853 21.9853C19.2348 24.2357 16.1826 25.5 13 25.5Z" stroke="#00054E" stroke-width="1.2" stroke-linecap="round" stroke-linejoin="round"/>
<path d="M54 17.5L58 13.5M58 13.5L54 9.5M58 13.5L48 13.5M53 1.5C54.5759 1.5 56.1363 1.81039 57.5922 2.41344C59.0481 3.0165 60.371 3.90042 61.4853 5.01472C62.5996 6.12902 63.4835 7.45189 64.0866 8.9078C64.6896 10.3637 65 11.9241 65 13.5C65 15.0759 64.6896 16.6363 64.0866 18.0922C63.4835 19.5481 62.5996 20.871 61.4853 21.9853C60.371 23.0996 59.0481 23.9835 57.5922 24.5866C56.1363 25.1896 54.5759 25.5 53 25.5C49.8174 25.5 46.7652 24.2357 44.5147 21.9853C42.2643 19.7348 41 16.6826 41 13.5C41 10.3174 42.2643 7.26516 44.5147 5.01472C46.7652 2.76428 49.8174 1.5 53 1.5Z" stroke="#00054E" stroke-width="1.2" stroke-linecap="round" stroke-linejoin="round"/>
</svg>
