<?xml version="1.0" encoding="UTF-8"?>
<svg id="Layer_2" data-name="Layer 2" xmlns="http://www.w3.org/2000/svg" viewBox="0 0 463.04 464.14">
  <defs>
    <style>
      .cls-1 {
        fill: none;
        stroke: #ea8062;
        stroke-miterlimit: 10;
        stroke-width: 2.6px;
      }

      .cls-2 {
        fill: #a2b2f0;
      }

      .cls-2, .cls-3, .cls-4, .cls-5, .cls-6 {
        stroke-width: 0px;
      }

      .cls-3 {
        fill: #c59b6d;
      }

      .cls-4 {
        fill: #dc6262;
      }

      .cls-5 {
        fill: #c0272d;
      }

      .cls-6 {
        fill: #92c1e1;
      }
    </style>
  </defs>
  <g id="Layer_1-2" data-name="Layer 1">
    <g>
      <path class="cls-5" d="m388.02,149.76c1.62-.13,2.79-2.85,3-5,.15-1.52-.2-2.47-1-5-.73-2.31-1.26-4.69-2-7,0,0-1.73-5.42-3-11-1.49-6.56-1.79-11.84-2-16-.25-4.86,0-6.08,0-12,.01-13.8-1.31-13.65-1-23,.23-6.92,1.19-14.01,2-20,.64-4.7,1.07-7.01,1-11-.12-6.59-1.42-6.81-1-12,.46-5.68,2.18-7.19,1-11-.55-1.79-1.43-3.07-1-5,.55-2.46,2.72-3.83,3-4,1.68-1.03,3.37-1.01,4-1,5.7.12,10.05,6.26,12,9,1.24,1.74.89,1.6,3,5,3.16,5.1,5.46,7.86,7,10,2.9,4.03,2.73,5.35,8,18,4.05,9.72,4.19,9.03,7,16,2.6,6.43,4.01,10.79,7,20,11.36,34.95,10.85,33.12,12,37,6.61,22.24,5.11,21.19,8,27,1.74,3.49,5.19,9.72,7,19,.48,2.44.93,4.78,1,8,.06,2.82.34,15.72-8,24-2.53,2.51-5.94,4.69-8,6-4.65,2.97-4.67,2.09-7,4-.52.43-1.52,1.29-2,1-.41-.25-.39-1.28,0-2,.21-.4.46-.56,1-1,1.28-1.04,2.12-1.72,2-2-.13-.31-1.39-.17-3,0-.71.08-.91.12-1,0-.37-.48,1.51-2.59,3-4,2.26-2.14,3.02-2.07,5-4,2.14-2.09,3.07-3.95,3-4-.11-.09-3.13,4.6-5,4-.55-.18-.87-.77-1-1-.14-.26-.6-1.2,0-3,.25-.76.67-1.6,4-5,2.41-2.46,3.61-3.69,4-4,.14-.11.57-.45,1-1,.15-.19.71-.94,1-2,.27-.99.08-1.47,0-3-.15-2.84.41-2.79,0-4-.3-.88-.44-.46-2-3-.31-.51-.6-1-1-1-.3,0-.51.27-1,1-1.19,1.78-1.3,2.24-2,3-.5.55-.6.48-1,1-.2.26-.73.99-1,2-.14.53-.09,1.35,0,3,.09,1.64.14,2.47,0,3-.24.93-.7,1.58-1,2-.73,1.02-.98.82-2,2-.92,1.07-1.13,1.71-2,2-.19.06-.73.25-1,0-.27-.25-.05-.74,0-2,.02-.49,0-.71,0-1,0-1.69.73-4.28,1-6,.44-2.84-.46-2.7,0-6,.25-1.77.39-2.76,1-4,.79-1.59,1.71-2.25,2-4,.12-.73.06-1.21,0-2-.21-2.83.05-3.74,0-6-.05-2.33-.38-4-1-7,0,0-1.18-5.73-3-11,0,0-5.54-17.38-18-37-.99-1.57-2-3-2-3-1.44-2.06-2.5-3.35-3-4-1.84-2.4-2.73-4.69-4-8-.98-2.53-2.38-6.19-3-11-.23-1.76-.27-3.07-1-5-.74-1.94-1.68-3.24-3-5-3.1-4.16-3.94-3.53-5-6-.49-1.15-.81-2.46-2-3-.14-.07-1.14-.5-2,0-1,.58-1,1.92-1,2,.01,1.19.93,2,2,3,0,0,.62.58,4,4,3.25,3.29,4.46,7.22,5,9,.34,1.1.13.72,1,5,.62,3.06.92,4.21,2,9,1.8,7.98,1.46,6.92,2,9,1.18,4.52,1.52,4.59,3,10,.69,2.53.49,2.07,2,8,1.57,6.17,1.67,6.23,2,8,.44,2.37.48,3.41,1,9,.48,5.2.73,7.81,1,10,.45,3.63.58,3.58,2,13,.69,4.55.87,5.99,1,8,.07,1.16.23,4.12,0,8-.18,3.1-.46,7.51-2,13-.48,1.73-1.9,6.45-5,12-3.16,5.66-6.4,9.18-9,12-2.07,2.25-3.72,3.75-6,5-1.19.65-1.37.59-5,2-4.37,1.7-6.6,2.57-9,4-2.47,1.47-3.9,2.73-5,4-.76.88-1.47,1.7-2,3-.49,1.19-.35,1.6-1,4-.36,1.34-.56,2.07-1,3-.54,1.16-1.06,2.25-2,3-1.59,1.25-3.04.46-6,1-2.05.38-3.45,1.15-5,2-3.55,1.95-5.75,4.52-7,6-1.49,1.77-1.81,2.56-4,5-2.18,2.43-3.04,2.95-4,3-1.37.08-2.5-.81-4-2-1.3-1.03-2.42-2.32-3-3-.7-.81-1.11-1.38-2-2-.6-.42-1.07-.61-2-1-1.87-.78-2.86-1.19-4-1-.89.15-1.46.6-2,1-2.18,1.6-1.39.53-7,4-1.7,1.05-2.88,1.84-5,3-1.18.65-1.6.84-2,1-1.94.78-3.46.85-5,1-3.9.39-3.85.91-6,1-3.08.13-5.38-.87-8-2-4.74-2.05-7.68-4.82-10-7-1.91-1.8-3.57-3.38-5-6-.69-1.26-1.53-2.8-2-5-.45-2.1-.2-3.15-1-5-.55-1.29-1.09-1.76-2-3-1.46-1.99-1.46-2.66-4-8-.64-1.35-1.64-3.43-3-6-1.73-3.27-2.61-4.91-4-7-2.66-3.98-3.52-4.02-5-7-.5-1-1.47-3.14-2-6-.54-2.89-.35-5.02,0-9,.07-.84.32-3.48,1-7,.18-.92.79-3.29,2-8,.24-.93.48-1.85,1-3,.45-1,.59-1.02,1-2,.37-.89.38-1.18,1-3,.51-1.52.67-1.8,1-2,.71-.43,1.61-.13,2,0,1.7.57,2.57,2.17,3,3,.63,1.21.65,1.88,1,3,.71,2.28,1.91,3.57,3,5,.9,1.17,2.26,3.78,5,9,3.2,6.11,2.76,6.03,5,10,.39.69,1.93,3.13,5,8,3.07,4.86,3.76,5.93,5,8,0,0,2.62,4.24,4,7,0,0,.75,1.51,1,2l1,2c.62,1.41.57,1.72,1,2,.6.39,1.44.28,2,0,.19-.1.63-.35,1-1,.62-1.08.55-2.38,0-5-.4-1.89-.6-2.83-1-4-1.08-3.11-2.2-4.69-4-8,0,0-1.65-3.03-3-6-2.21-4.88-1.92-6.6-4-14-.7-2.49-1.8-5.66-4-12-1.24-3.57-2.16-6.04-4-11-1.16-3.12-2.97-7.94-5-11t-2-3c-1.33-2-2-3-2-3-1.03-1.82-1.11-2.61-2-3-.83-.37-1.69-.1-2,0-1.37.43-2.1,1.55-3,3-2.39,3.83-3.59,5.74-4,7-.58,1.77-.28,1.74-1,5-.33,1.48-.9,4.1-2,7-1.68,4.44-2.77,4.78-4,9-.44,1.51-.88,3.46-1,4-.37,1.65-.53,2.58-1,5,0,0-.32,1.62-1,5-.86,4.23-1.64,7.47-2,9-4.7,19.91-7,33-7,33-2.45,13.91-1.67,14.74-4,24-1.74,6.9-3.01,11.94-6,18-2.44,4.94-5.38,9.24-17,22-10.94,12.01-11.09,11.22-18,19-2.53,2.84-11.3,12.86-21,27-9.58,13.97-6.77,12.6-15,24-8.36,11.58-15.74,19.22-20,28-1.68,3.46-2.28,5.88-5,9-1.45,1.66-3.51,3.55-5,7-.53,1.22-.83,2.29-1,3-1.94,5.56-3.65,10.3-5,14-3.58,9.81-5.37,14.71-6,16-1.58,3.22-2.57,6.71-4,10-.39.9-.97,2.21-1,4-.03,1.59.39,2.98,1,5,.64,2.11,1.01,2.64,1,4,0,.85-.02,2.3-1,3-1.05.75-2.58.16-3,0-1.77-.68-2.38-2.01-4-4-1.67-2.05-1.74-1.52-4-4-2.26-2.48-3.93-4.31-5-7-1.17-2.93-1.07-5.52-1-7,.23-4.95,2.34-8.89,4-12,1.64-3.08,2.43-3.66,3-6,.32-1.31.36-2.34,0-7-.34-4.34-.71-7.7-1-12-.31-4.49-.21-5.22,0-6,.97-3.65,3.64-5.87,5-7,3.09-2.57,6.73-3.85,10-5,.85-.3,2.34-.79,4-2,.57-.41,1.61-1.24,3-3,1.7-2.15,2.48-3.88,4-7,.98-2.01,2.03-3.99,3-6,2.83-5.87,5.75-9.59,8-13,8.08-12.26,5.83-18.04,13-31,1.41-2.56,3.28-5.55,4-10,.21-1.31.36-3,1-7,.53-3.35.76-4.22,1-5,.27-.87.89-2.62,3-6,1.76-2.82,3.29-5.27,6-8,2.41-2.43,4.53-4.58,8-6,2.48-1.02,4.99-1.35,10-2,2.98-.39,3.97-.35,6-1,.63-.2,2.89-.95,6-3,2.14-1.41,2.98-2.31,6-5,5.79-5.15,7.54-6.14,11-10,1.81-2.02,2.48-3.03,3-4,1.85-3.46,1.94-6.71,2-8,.26-5.75,2.02-11.33,3-17,1.19-6.86,2.68-11.63,5-19,1.33-4.22,3.9-10.87,9-24,4.33-11.15,4.5-11.39,7-18,3.08-8.13,3.24-8.88,6-16,3.64-9.4,3.8-9.27,5-13,2.37-7.4,1.92-8.49,4-12,1.1-1.85,4.28-6.68,7-9,.15-.13.55-.47,1-1,1.66-1.99,1.9-4.3,2-5,.14-1.05.3-1.04,4-9,7.71-16.59,5.51-13.41,8-18,0,0,1.56-2.89,3-8,.75-2.67,1.06-4.66,0-6-.48-.61-1.36-1.23-2-1-.87.32-.93,2.1-1,3-.02.27-1.01,3.18-3,9-1.37,4.02-3.27,7.4-7,14-3.77,6.66-3.96,6.34-9,15-4.56,7.82-6.04,10.91-7,13-1.78,3.9-1.63,4.18-4,10-3.73,9.14-4.92,10.44-8,18-1.97,4.84-3.12,8.3-5,14-3.47,10.51-3.03,10.91-6,20-2.35,7.19-4.5,13.77-8,22-1.37,3.22-2.77,6.27-4,11-.76,2.93-.61,3.25-2,11-1.6,8.93-2.42,12.01-3,14-1.13,3.89-1.73,5.87-3,8-2.11,3.53-4.82,5.79-8,8-9.19,6.4-17,9-17,9-19.53,6.51-43.92,12.73-45,13-18.33,4.67-27.5,7.01-38,11-6.18,2.35-27.63,10.8-38,12-.73.08-2.59.27-5,1-4.41,1.34-6.79,3.34-11,6-.94.59-3.62,2.06-9,5-20.46,11.18-22,12-22,12-1.12.59-3.43,1.81-6,4-.77.66-1.85,1.77-4,4-3.13,3.24-3.63,4-4,5-.37.98-.36,1.51-1,3-.74,1.72-1.11,2.58-2,3-1.3.61-3.06.03-4-1-.65-.71-.68-1.38-1-3-.44-2.26-.92-4.74-2-7-1.07-2.25-1.83-2.41-2-4-.1-.97.1-1.68,1-4,1.3-3.33,1.94-4.99,3-7,.72-1.36,1.59-3.01,3-5,2.17-3.07,4.26-6.02,8-8,2.05-1.08,4.61-1.88,5-2,1.95-.6,3.32-.82,5-2,1.24-.87,1.78-1.65,2-2,.61-.96.77-1.81,1-3,.95-4.89.82-3.78,1-5,.64-4.33.28-4.71,1-6,.62-1.11,1.41-1.74,3-3,1-.79,2.64-2.1,5-3,2.77-1.06,5.12-1.04,7-1,4.24.08,7.7,1.22,10,2,2.73.92,4.12,1.71,7,2,2.03.21,3.59.05,4,0,3.35-.38,5.68-1.7,8-3,6.2-3.47,9.3-5.2,11-6,5.31-2.49,5.61-1.69,10-4,1.62-.85,1.27-.8,9-6,.77-.52,3.51-2.34,9-6,5.94-3.95,5.85-3.89,6-4,5.56-4.1,5.72-5.79,11-10,.49-.39,3.33-2.26,9-6,6.92-4.56,8.05-5.24,10-6,2.15-.84,5.55-2.14,10-2,3.74.12,6.78,1.2,9,2,1.25.45,5.36,2,8,3,.83.32,2.16.82,4,1,1.33.13,3.63.35,5-1,.7-.69.91-1.55,1-2,1.82-8.66,1-26,1-26-.26-5.58-.39-8.44,0-12,.12-1.14.75-4.44,2-11,1.56-8.21,1.71-8.8,2-11,.4-3.08.41-4.21,1-8,.44-2.87.57-3.06,1-6,.71-4.84.47-4.92,1-7,.68-2.64,1.13-2.74,2-6,.67-2.51.93-4.45,1-5,.42-3.31.08-4.97,0-8-.13-4.97.66-5.36,1-12,.2-3.86.03-5.59,0-9-.04-4.1-.11-13.18,2-23,1.76-8.17,3.32-8.89,4-16,.28-2.93.23-5.08,1-9,.5-2.55,1.07-4.44,3-10,3.02-8.69,4.53-13.04,6-16,.48-.97,2.54-5.08,6-10,2.92-4.15,7.71-10.98,16-17,8.51-6.18,16.43-8.42,22-10,10.8-3.06,19.37-3.05,22-3,4.52.08,9.18.17,15,2,8.59,2.7,14.1,7.45,17,10,9.28,8.16,13.45,17.45,15,21,3.16,7.24,2.39,9.31,8,24,1.34,3.5,1.91,4.76,3,8,2.35,6.95,2.64,9.77,5,16,.58,1.52,1.53,4.02,3,7,1.15,2.34,3.89,7.56,10,15,5.02,6.11,5.46,5.38,14,15,6.2,6.98,7.43,9.02,8,10,3.73,6.44,5.6,9.66,6,12,.08.46.41,2.53,2,4,.45.41,1.15,1.07,2,1Z"/>
      <path class="cls-6" d="m404.52,243.26c-1.69-.53-4.28-1.2-7.5-1.5-5.02-.46-6.16.5-14,1-6.71.43-8.38-.11-13,1-2.71.65-4.39,1.12-6,2-1.03.56-2.14,1.3-6,5-2.18,2.09-2.92,2.9-6,6-4.24,4.27-4.22,4.1-6,6-2.42,2.57-4.1,4.36-6,7-2.41,3.35-4.01,5.57-5,9-.21.71-.47,3.48-1,9-.28,2.88-.37,4.2,0,6,.47,2.29,1.4,3.94,2,5,1.42,2.49,3.03,4.06,4,5,2.36,2.28,3.17,2.22,5,4,2.25,2.19,3.3,4.48,4,6,2.92,6.38,1.72,13.01,1,17-1.05,5.8-2.07,11.45-7,16-3.59,3.31-7.63,4.54-10,5-1.03.2-9.84,1.78-17-4-3.88-3.14-5.37-6.9-7-11-1.44-3.64-2.9-7.32-2-12,.76-3.97,2.85-6.71,4-8,1.09-1.23,3.67-4.04,8-5,2.76-.61,4.99-.2,6,0,4.26.84,6.98,3.22,9,5,2.49,2.18,4.02,3.53,5,6,1.34,3.38,1.11,7.57-1,11-2.07,3.36-5.13,4.65-6,5-1.09.44-5.78,2.34-9,0-1.27-.92-1.85-2.28-3-5-.86-2.04-1.4-3.37-1-5,.44-1.8,1.74-2.81,2-3,.39-.29,1.52-1.14,3-1,1.02.1,2.05.65,2,1-.06.44-1.81-.03-3,1-1.31,1.14-1.07,3.36-1,4,.07.6.28,2.6,2,4,2.05,1.67,4.57,1.11,5,1,1.9-.46,2.96-1.75,4-3,1.18-1.42,3.14-3.79,3-7-.14-3.3-2.41-5.47-4-7-1.12-1.07-3.75-3.59-8-4-.91-.09-4.68-.39-8,2-4.81,3.46-4.94,9.89-5,13-.06,3.25.62,5.7,1,7,.85,2.94,1.86,6.41,5,9,2.88,2.37,6.07,2.76,8,3,1.42.17,6.12.68,11-2,3.78-2.08,5.69-4.99,7-7,2.78-4.25,3.51-8.21,4-11,.64-3.67,1.15-6.59,0-10-1.03-3.05-2.84-4.87-5-7-3.35-3.3-7.76-7.64-15-9-2.12-.4-8.59-1.52-15,2-6.98,3.83-9.46,10.73-11,15-.6,1.68-2.05,6.11-2,12,.02,2.6.12,8.15,3,14,4.46,9.06,12.69,12.96,17,15,3.57,1.69,9.81,4.56,18,4,6.44-.44,10.87-2.77,17-6,7.13-3.76,11.78-7.61,17-12,5.56-4.67,11.57-9.71,18-18,1.44-1.86,7.27-9.5,12-20,1.95-4.34,2.7-6.89,3-8,1.34-4.91.82-6.18,2-14,1.03-6.85,1.63-7.18,2-12,.42-5.48-.36-5.01,0-10,.59-8.12,2.9-12.81,1-16-1.23-2.07-3-4-3-4-.59-.64-1.12-1.15-1.5-1.5Z"/>
      <path class="cls-2" d="m338.02,287.76c-.97,3.66-.22,4.72,0,5,.39.49,1.18,1.11,2,1,1.48-.2,2.18-2.66,3-5,1.09-3.1,2.74-5.97,4-9,2.68-6.45,7.14-10.57,13-16,1.23-1.14,4.43-4.02,9-7,3.92-2.55,6.21-3.46,8-4,2.21-.67,4.1-.91,5-1,1.8-.19,3.2-.12,6,0,1.98.09,4.1.24,7,0,1.21-.1,2.19-.24,3-1,.79-.74,1.44-2.1,1-3-.59-1.22-2.96-1.14-6-1-3.55.16-4.94.7-8,1-3.77.37-4.1-.21-7,0-5.97.44-10.42,3.33-13,5-2.83,1.84-4.56,3.56-8,7-2.11,2.11-4.47,4.47-7,8-2.8,3.92-2.07,4.05-5,8-1.94,2.61-3.23,3.87-5,7-.24.42-1.29,2.31-2,5Z"/>
      <path class="cls-2" d="m400.02,256.76c-1.19-1.12-3.13.52-8,1-2.85.28-2.78-.22-7,0-3.4.18-5.09.27-7,1-1.48.57-1.23.78-6,4-2.69,1.82-3.32,2.13-6,4-2.26,1.58-3.39,2.37-4,3-1.61,1.65-1.49,2.33-4,6-1.12,1.64-1.83,2.68-3,4-1.77,2-2.26,1.99-4,4-1.7,1.95-1.21,1.92-3,4-1.6,1.86-2.46,2.42-3,4-.08.22-.81,2.42,0,3,.72.53,2.31-.53,3-1,1.8-1.21,2.79-2.68,3-3,.84-1.25,3.83-5.71,7-9,1.88-1.95,2.44-2.05,4-4,1.6-2,1.66-2.7,3-4,1.72-1.67,2.32-1.19,5-3,2.98-2.01,2.78-2.96,6-5,2.03-1.29,3.59-1.86,4-2,.91-.32,2.38-.76,5-1,4.32-.4,5.03.35,9,0,3.02-.27,5.01-.47,6-2,.77-1.19.92-3.13,0-4Z"/>
      <path class="cls-2" d="m402.02,268.76c-.69-2.03-9.08-1.06-14,0-2.87.61-5.67,1.21-9,3-1.36.73-2.35,1.41-9,7-4.32,3.64-6.49,5.45-7,6-4.98,5.31-3.94,7.16-8,10-1.38.96-3.12,1.88-4,4-.61,1.46-.81,3.5,0,4,.99.61,3.15-1.26,4-2,1.95-1.69,2.39-2.92,4-5,.74-.96.68-.74,5-5,1.97-1.94,3.5-3.48,6-6,3.6-3.62,3.74-3.82,5-5,2.72-2.54,4.07-3.81,6-5,.79-.49,3.34-2,7-3,2.36-.64,4.35-1.18,7-1,2.85.2,4.61,1.1,6,0,.53-.42,1.23-1.31,1-2Z"/>
      <path class="cls-2" d="m357.52,306.26c2.06-.45,3.71-1.3,7-3,2.3-1.19,3.5-1.81,5-3,2.01-1.61,2.01-2.21,4-4,.62-.56,1.11-.94,6-4,5.56-3.48,6.11-3.74,7-4,2.6-.77,2.68-.04,6-1,1.66-.48,2.94-1.04,5-1,2.34.04,2.88.8,3,1,.36.58.44,1.49,0,2-.67.77-2.09.04-4,0-1.43-.03-2.17.33-6,2-6.74,2.93-5.74,2.36-7,3-3.97,2.03-6.82,4.11-8,5-3.1,2.35-2.82,2.68-6,5-.99.72-3.47,2.48-7,4-3.41,1.47-4.86,1.46-6,1-1.05-.42-2.16-1.36-2-2,.15-.61,1.37-.64,3-1Z"/>
      <path class="cls-2" d="m397.02,305.76c-1.25-1.2-3.15-1.05-9,0-5.74,1.03-9.62,1.91-10,2-4.42,1.01-6.62,1.51-8,2-4.27,1.51-4.73,2.45-8,3-1.68.28-3.32.75-5,1-1.65.25-2.75.34-3,1-.23.62.36,1.51,1,2,1,.77,2.14.59,6,0,5.03-.76,5.18-.76,6-1,2.14-.62,2.19-.96,5-2,3.13-1.17,5.67-1.72,7-2,2.51-.53,4.39-.94,7-1,2.09-.05,2.57.17,5,0,1.48-.1,2.65-.4,5-1,1.18-.3,1.74-.49,2-1,.44-.88-.23-2.26-1-3Z"/>
    </g>
    <g>
      <path class="cls-3" d="m148.68,207.29c-.9,1.12-.9,2.48-.88,2.87.07,1.76,1.18,3.17,3.61,5.29,2.46,2.15,4.16,3.63,7.72,5.51,5.56,2.92,8.33,4.38,11.47,3.52.23-.06,4.66-1.36,5.88-5.52.99-3.37-.85-6.23-1.11-6.62-1.19-1.79-2.83-2.52-6.1-3.97-1.09-.48-3.81-1.62-7.65-2.35-1.82-.35-4.72-.76-8.23-.44-2.9.26-4.01.82-4.7,1.69Z"/>
      <path class="cls-3" d="m142.03,207.99c-.99-.62-2.09-.48-2.4-.43-1.41.23-2.44,1.26-3.91,3.43-1.49,2.19-2.52,3.71-3.68,6.77-1.81,4.77-2.72,7.15-1.71,9.6.07.18,1.55,3.63,5.03,4.2,2.82.46,4.94-1.3,5.23-1.54,1.33-1.14,1.75-2.53,2.6-5.31.28-.92.93-3.23,1.14-6.4.1-1.5.15-3.88-.46-6.68-.5-2.31-1.06-3.15-1.83-3.63Z"/>
      <path class="cls-3" d="m163.68,199.34c.08,1.9.27,3,1.03,3.45,1.24.73,3.47-.56,4.7-1.69,2.98-2.72,2.54-6.65,3.15-13.68.67-7.63,1.43-5.92,2.2-13.97.18-1.86.77-8.67.21-17.72-.55-8.9-.83-13.35-2.66-18.6-1.86-5.33-3.7-7.3-4.42-12.86-.21-1.6-.31-3.42-1.4-5.66-.39-.81-1.99-3.88-5.52-5.88-1.4-.79-2.84-1.61-4.78-1.47-2.39.17-3.96,1.67-5,2.65-1.86,1.77-4.42,5.33-3.3,7.35.61,1.1,1.67.6,3.53,2.13,1.36,1.12,1.36,1.86,2.94,4.04,1.56,2.14,1.86,1.85,3.9,4.34.84,1.03,2.27,2.78,3.61,5.29.57,1.07,1.68,3.18,2.36,5.95.79,3.25.23,4.3.52,8.53.24,3.45.63,3.03,1.48,8.82.73,5,1.1,7.5.89,10.73-.2,3.18-.67,2.84-1.69,8.9-1.02,6.08-.33,5.09-1.32,11.1-.07.42-.63,3.83-.44,8.23Z"/>
      <path class="cls-3" d="m156.73,199.82c2.54-2.6,2.72-6.72,2.94-9.56.51-6.72,1.02-3.55,1.9-13.01.71-7.69,1.07-11.54.58-15.51-.41-3.3-1.65-6.81-4.13-13.82-3.65-10.34-6.46-15.34-7.36-16.91-.37-.63-1.9-3.28-4.27-6.54-2.6-3.58-3.89-5.37-6.18-7.13-1.79-1.38-4.47-3.43-8.31-3.6-1.16-.05-4.34-.18-6.91,2.06-.39.34-2.82,2.46-2.72,5.44.07,2.02,1.26,3.48,2.65,5,4.08,4.44,8.01,7.24,9.05,8.01,5.43,4.01,8.32,8.74,10.74,12.71,1.78,2.91,5.15,8.55,6.41,16.61,1,6.42.27,11.87,0,13.6-.65,4.2-1.38,4.84-1.98,9.85-.92,7.71.31,10.45,1.55,11.98.45.55,1.78,2.2,3.53,2.13.47-.02,1.38-.18,2.5-1.32Z"/>
      <path class="cls-3" d="m147.61,202.26c1.33-1.75.36-4.42-.15-6.32-.78-2.91.09-1.87-.3-12.65-.24-6.64-.36-9.97-.96-13.89-.69-4.5-1.51-9.85-4.49-16.02-1.93-4-3.97-6.69-7.87-11.83-3.15-4.16-5.01-6.02-6.18-7.13-5.32-5.02-8.78-5.9-9.64-6.1-1.68-.39-3.9-.87-6.32.15-2.21.93-4.42,3.04-4.92,5.81-.46,2.54.69,4.57,2.06,6.91,1.95,3.32,3.53,4.2,6.18,7.13,3.99,4.4,2.79,5.05,7.21,10.58,3.5,4.38,4.35,4.11,7.8,8.67,1.28,1.7,3.13,4.17,4.93,7.79,1.54,3.1,3.34,6.73,3.76,11.61.23,2.71-.21,2.93.15,6.32.54,5.05,1.77,7.04,2.73,8.16.71.83,1.9,2.19,3.53,2.13.98-.04,1.93-.58,2.5-1.32Z"/>
      <path class="cls-3" d="m136.29,205.06c.67-.85,1.23-2.35-.52-8.53-1.33-4.72-2.94-8.35-4.05-10.66-.59-1.23-1.4-2.89-2.65-5-2.67-4.5-4.03-5.39-6.55-9.33-.99-1.55-.59-1.12-3.97-7.5-4.48-8.45-5.28-9.4-6.26-10.29-1.29-1.17-4.62-4.2-9.27-3.89-.8.05-5,.43-7.5,3.97-2.21,3.13-1.61,6.63-1.39,7.94.3,1.79,1.04,3.74,3.97,7.5,2.7,3.46,5.29,5.92,8.75,8.96,6.89,6.05,7.21,5.6,11.62,9.84,3.92,3.77,5.88,5.66,7.8,8.67,1.15,1.8,2.46,3.49,3.61,5.29,1.72,2.71,2.51,4.24,3.9,4.34,1.35.09,2.42-1.22,2.5-1.32Z"/>
      <path class="cls-3" d="m131.37,210.87c.2-1.03-.83-2.02-1.32-2.5-1.93-1.87-3.56-4.04-5.52-5.88-3.11-2.93-2.35-2.88-5.52-5.88-2.29-2.17-2.32-1.85-5.81-4.92-3.61-3.19-5.42-4.78-6.47-6.17-1.43-1.89-2-3.21-3.9-4.34-.67-.4-2.03-1.18-3.82-1.17-2.8.01-5.37,1.95-6.54,4.27-1.53,3.04-.36,6.18.52,8.53.63,1.68,1.78,3.96,4.27,6.54,3.02,3.14,4.45,3.01,16.99,9.4,2.69,1.37,5.69,2.11,8.31,3.6.66.38,2.01,1.17,3.82,1.17,1.78,0,3.02-.76,3.45-1.03.7-.44,1.4-.88,1.54-1.62Z"/>
    </g>
    <g>
      <path class="cls-4" d="m376.52,10.26c-1.84-2.66-4.43-3.64-8-5-3.95-1.5-7.65-2.91-12-2-4.65.97-6.28,3.82-10,3-1.24-.27-1.17-.61-4-2-.99-.49-4.3-2.06-8-3-4.33-1.1-8.58-2.18-11,0-1.23,1.11-1.54,2.67-2,5-.13.63-.67,3.59,0,7,1.18,6.02,5.7,11.14,8,14,.88,1.09,8.24,10.38,12,22,2.62,8.1,3.81,18.35,4,20,.46,4.11.55,6.88,2,11,1.36,3.85,3.07,6.52,6,11,1.26,1.93,1.29,1.85,8,11,6.16,8.4,6.5,8.97,7,10,.94,1.93,1.83,4.16,4,7,1.64,2.14,3.34,4.31,5,4,2.04-.38,2.85-4.26,3-5,.9-4.36-.8-6.97-2-12-1-4.19-.24-4.12-1-13-.64-7.47-1.35-9.48-2-15-.96-8.15-.63-14.02,0-25,.73-12.74,1.09-19.11,2-23,.19-.83,1.35-5.69,1-12-.28-5.16-1.34-7.04-2-8Z"/>
      <path class="cls-1" d="m357.52,21.26c-4.28-.89-6.42-1.33-8-1-3.81.79-7.47,4.02-7,6,.31,1.3,2.15,1.02,6,3,4.84,2.49,4.91,4.45,8,5,2.3.41,6.22.02,8-3,1.55-2.62.85-6.14-1-8-.39-.39-1.11-.99-6-2Z"/>
    </g>
  </g>
</svg>