<svg width="45" height="45" viewBox="0 0 45 45" fill="none" xmlns="http://www.w3.org/2000/svg">
<path fill-rule="evenodd" clip-rule="evenodd" d="M0.000244141 9C0.000244141 6.61305 0.948456 4.32387 2.63628 2.63604C4.32411 0.948212 6.6133 0 9.00024 0H36.0002C38.3872 0 40.6764 0.948212 42.3642 2.63604C44.052 4.32387 45.0002 6.61305 45.0002 9V36C45.0002 38.3869 44.052 40.6761 42.3642 42.364C40.6764 44.0518 38.3872 45 36.0002 45H9.00024C6.6133 45 4.32411 44.0518 2.63628 42.364C0.948456 40.6761 0.000244141 38.3869 0.000244141 36V9ZM9.00024 4.5C7.80677 4.5 6.66218 4.97411 5.81826 5.81802C4.97435 6.66193 4.50024 7.80653 4.50024 9V36C4.50024 37.1935 4.97435 38.3381 5.81826 39.182C6.66218 40.0259 7.80677 40.5 9.00024 40.5H36.0002C37.1937 40.5 38.3383 40.0259 39.1822 39.182C40.0261 38.3381 40.5002 37.1935 40.5002 36V9C40.5002 7.80653 40.0261 6.66193 39.1822 5.81802C38.3383 4.97411 37.1937 4.5 36.0002 4.5H9.00024ZM22.5002 15.75C20.71 15.75 18.9931 16.4612 17.7273 17.727C16.4614 18.9929 15.7502 20.7098 15.7502 22.5C15.7502 24.2902 16.4614 26.0071 17.7273 27.273C18.9931 28.5388 20.71 29.25 22.5002 29.25C24.2905 29.25 26.0073 28.5388 27.2732 27.273C28.5391 26.0071 29.2502 24.2902 29.2502 22.5C29.2502 20.7098 28.5391 18.9929 27.2732 17.727C26.0073 16.4612 24.2905 15.75 22.5002 15.75ZM11.2502 22.5C11.2502 19.5163 12.4355 16.6548 14.5453 14.545C16.6551 12.4353 19.5166 11.25 22.5002 11.25C25.4839 11.25 28.3454 12.4353 30.4552 14.545C32.565 16.6548 33.7502 19.5163 33.7502 22.5C33.7502 25.4837 32.565 28.3452 30.4552 30.455C28.3454 32.5647 25.4839 33.75 22.5002 33.75C19.5166 33.75 16.6551 32.5647 14.5453 30.455C12.4355 28.3452 11.2502 25.4837 11.2502 22.5ZM34.8752 13.5C35.7704 13.5 36.6288 13.1444 37.2617 12.5115C37.8947 11.8786 38.2502 11.0201 38.2502 10.125C38.2502 9.22989 37.8947 8.37145 37.2617 7.73851C36.6288 7.10558 35.7704 6.75 34.8752 6.75C33.9801 6.75 33.1217 7.10558 32.4888 7.73851C31.8558 8.37145 31.5002 9.22989 31.5002 10.125C31.5002 11.0201 31.8558 11.8786 32.4888 12.5115C33.1217 13.1444 33.9801 13.5 34.8752 13.5Z" fill="#00054E"/>
</svg>
