<svg width="34" height="30" viewBox="0 0 34 30" fill="none" xmlns="http://www.w3.org/2000/svg">
<path fill-rule="evenodd" clip-rule="evenodd" d="M16.5851 5.36623C16.8507 5.60064 16.9999 5.91852 16.9999 6.24998C16.9999 6.58143 16.8507 6.89932 16.5851 7.13373L9.08669 13.75H28.3335C28.7092 13.75 29.0696 13.8817 29.3353 14.1161C29.6009 14.3505 29.7502 14.6685 29.7502 15C29.7502 15.3315 29.6009 15.6494 29.3353 15.8839C29.0696 16.1183 28.7092 16.25 28.3335 16.25H9.08669L16.5851 22.8662C16.8432 23.102 16.986 23.4177 16.9827 23.7455C16.9795 24.0732 16.8305 24.3867 16.5678 24.6185C16.3052 24.8503 15.9499 24.9817 15.5784 24.9846C15.207 24.9874 14.8491 24.8614 14.5819 24.6337L4.66527 15.8837C4.39968 15.6493 4.25049 15.3314 4.25049 15C4.25049 14.6685 4.39968 14.3506 4.66527 14.1162L14.5819 5.36623C14.8476 5.13189 15.2079 5.00024 15.5835 5.00024C15.9592 5.00024 16.3194 5.13189 16.5851 5.36623Z" fill="#00054E"/>
</svg>
